%TF.GenerationSoftware,KiCad,Pcbnew,9.0.7*%
%TF.CreationDate,2026-03-19T22:09:49-04:00*%
%TF.ProjectId,MOSFET_Load_Switch,4d4f5346-4554-45f4-9c6f-61645f537769,1.1*%
%TF.SameCoordinates,Original*%
%TF.FileFunction,Copper,L3,Inr*%
%TF.FilePolarity,Positive*%
%FSLAX46Y46*%
G04 Gerber Fmt 4.6, Leading zero omitted, Abs format (unit mm)*
G04 Created by KiCad (PCBNEW 9.0.7) date 2026-03-19 22:09:49*
%MOMM*%
%LPD*%
G01*
G04 APERTURE LIST*
G04 Aperture macros list*
%AMRoundRect*
0 Rectangle with rounded corners*
0 $1 Rounding radius*
0 $2 $3 $4 $5 $6 $7 $8 $9 X,Y pos of 4 corners*
0 Add a 4 corners polygon primitive as box body*
4,1,4,$2,$3,$4,$5,$6,$7,$8,$9,$2,$3,0*
0 Add four circle primitives for the rounded corners*
1,1,$1+$1,$2,$3*
1,1,$1+$1,$4,$5*
1,1,$1+$1,$6,$7*
1,1,$1+$1,$8,$9*
0 Add four rect primitives between the rounded corners*
20,1,$1+$1,$2,$3,$4,$5,0*
20,1,$1+$1,$4,$5,$6,$7,0*
20,1,$1+$1,$6,$7,$8,$9,0*
20,1,$1+$1,$8,$9,$2,$3,0*%
G04 Aperture macros list end*
%TA.AperFunction,ComponentPad*%
%ADD10RoundRect,0.250000X-0.750000X0.600000X-0.750000X-0.600000X0.750000X-0.600000X0.750000X0.600000X0*%
%TD*%
%TA.AperFunction,ComponentPad*%
%ADD11O,2.000000X1.700000*%
%TD*%
%TA.AperFunction,ComponentPad*%
%ADD12C,1.800000*%
%TD*%
%TA.AperFunction,ComponentPad*%
%ADD13R,1.700000X1.700000*%
%TD*%
%TA.AperFunction,ComponentPad*%
%ADD14C,1.700000*%
%TD*%
%TA.AperFunction,ComponentPad*%
%ADD15RoundRect,0.250000X-0.750000X-0.750000X0.750000X-0.750000X0.750000X0.750000X-0.750000X0.750000X0*%
%TD*%
%TA.AperFunction,ComponentPad*%
%ADD16C,2.000000*%
%TD*%
%TA.AperFunction,ViaPad*%
%ADD17C,0.508000*%
%TD*%
%TA.AperFunction,ViaPad*%
%ADD18C,0.762000*%
%TD*%
%TA.AperFunction,Profile*%
%ADD19C,0.050800*%
%TD*%
G04 APERTURE END LIST*
D10*
%TO.N,/VD2*%
%TO.C,J3*%
X142240000Y-94655000D03*
D11*
%TO.N,GND*%
X142240000Y-97155000D03*
%TD*%
D12*
%TO.N,GND*%
%TO.C,TP1*%
X134620000Y-106680000D03*
%TD*%
%TO.N,/VS*%
%TO.C,TP2*%
X124460000Y-106680000D03*
%TD*%
D13*
%TO.N,/VD1*%
%TO.C,J5*%
X111379000Y-104775000D03*
D14*
X108839000Y-104775000D03*
%TO.N,/VD2*%
X111379000Y-94615000D03*
X108839000Y-94615000D03*
%TD*%
D12*
%TO.N,/VG*%
%TO.C,TP4*%
X129540000Y-106680000D03*
%TD*%
D13*
%TO.N,Net-(J2-Pin_1)*%
%TO.C,J2*%
X116835000Y-102870000D03*
D14*
%TO.N,GND*%
X119375000Y-102870000D03*
%TD*%
D12*
%TO.N,/VD2*%
%TO.C,TP3*%
X139700000Y-106680000D03*
%TD*%
D10*
%TO.N,/VD1*%
%TO.C,J1*%
X118110000Y-94655000D03*
D11*
%TO.N,GND*%
X118110000Y-97155000D03*
%TD*%
D15*
%TO.N,/VS*%
%TO.C,D1*%
X124460000Y-102870000D03*
D16*
%TO.N,/VG*%
X129540000Y-102870000D03*
%TD*%
D13*
%TO.N,/VD1*%
%TO.C,J4*%
X124460000Y-95885000D03*
D14*
X124460000Y-93345000D03*
%TO.N,GND*%
X127000000Y-93345000D03*
%TO.N,/VS*%
X129540000Y-95885000D03*
X129540000Y-93345000D03*
%TO.N,GND*%
X132080000Y-93345000D03*
%TO.N,/VD2*%
X134620000Y-95885000D03*
X134620000Y-93345000D03*
%TD*%
D17*
%TO.N,/VG*%
X124841000Y-100965000D03*
%TO.N,GND*%
X101722000Y-105791000D03*
X127381000Y-102870000D03*
X101722000Y-99695000D03*
X142240000Y-106680000D03*
X106929000Y-102616000D03*
X101722000Y-93599000D03*
X127000000Y-106680000D03*
X142240000Y-102870000D03*
D18*
%TO.N,/VD2*%
X101722000Y-95885000D03*
%TO.N,/VD1*%
X101722000Y-103505000D03*
%TD*%
%TA.AperFunction,Conductor*%
%TO.N,GND*%
G36*
X123253621Y-91714502D02*
G01*
X123300114Y-91768158D01*
X123311500Y-91820500D01*
X123311500Y-97156006D01*
X123317430Y-97211161D01*
X123321335Y-97229111D01*
X123328816Y-97263501D01*
X123336166Y-97290291D01*
X123349061Y-97312937D01*
X123386270Y-97378279D01*
X123386275Y-97378286D01*
X123422620Y-97420230D01*
X123432762Y-97431934D01*
X123466051Y-97464056D01*
X123555770Y-97510987D01*
X123623891Y-97530989D01*
X123697000Y-97541500D01*
X123697003Y-97541500D01*
X125222994Y-97541500D01*
X125223000Y-97541500D01*
X125278159Y-97535570D01*
X125330501Y-97524184D01*
X125357291Y-97516834D01*
X125445278Y-97466731D01*
X125498934Y-97420238D01*
X125531056Y-97386949D01*
X125577987Y-97297230D01*
X125597989Y-97229109D01*
X125608500Y-97156000D01*
X125608500Y-95810685D01*
X126245500Y-95810685D01*
X126245500Y-95810688D01*
X126245500Y-95959312D01*
X126274495Y-96105080D01*
X126331371Y-96242390D01*
X126413941Y-96365966D01*
X126413942Y-96365967D01*
X126413947Y-96365973D01*
X126519026Y-96471052D01*
X126519032Y-96471057D01*
X126519034Y-96471059D01*
X126642610Y-96553629D01*
X126779920Y-96610505D01*
X126925688Y-96639500D01*
X126925689Y-96639500D01*
X127074311Y-96639500D01*
X127074312Y-96639500D01*
X127220080Y-96610505D01*
X127357390Y-96553629D01*
X127480966Y-96471059D01*
X127586059Y-96365966D01*
X127668629Y-96242390D01*
X127725505Y-96105080D01*
X127754500Y-95959312D01*
X127754500Y-95810688D01*
X127725505Y-95664920D01*
X127668629Y-95527610D01*
X127586059Y-95404034D01*
X127586057Y-95404032D01*
X127586052Y-95404026D01*
X127480973Y-95298947D01*
X127480967Y-95298942D01*
X127480966Y-95298941D01*
X127357390Y-95216371D01*
X127220080Y-95159495D01*
X127074314Y-95130500D01*
X127074312Y-95130500D01*
X126925688Y-95130500D01*
X126925685Y-95130500D01*
X126779919Y-95159495D01*
X126779914Y-95159497D01*
X126642610Y-95216371D01*
X126519032Y-95298942D01*
X126519026Y-95298947D01*
X126413947Y-95404026D01*
X126413942Y-95404032D01*
X126331371Y-95527610D01*
X126274497Y-95664914D01*
X126274495Y-95664919D01*
X126245500Y-95810685D01*
X125608500Y-95810685D01*
X125608500Y-93258116D01*
X125896000Y-93258116D01*
X125896000Y-93431883D01*
X125923185Y-93603524D01*
X125976883Y-93768788D01*
X125976884Y-93768790D01*
X126055776Y-93923625D01*
X126058463Y-93927324D01*
X126515841Y-93469946D01*
X126534075Y-93537993D01*
X126599901Y-93652007D01*
X126692993Y-93745099D01*
X126807007Y-93810925D01*
X126875051Y-93829157D01*
X126417673Y-94286535D01*
X126421375Y-94289223D01*
X126421385Y-94289230D01*
X126576203Y-94368113D01*
X126576211Y-94368116D01*
X126741475Y-94421814D01*
X126913116Y-94449000D01*
X127086884Y-94449000D01*
X127258524Y-94421814D01*
X127423788Y-94368116D01*
X127423796Y-94368113D01*
X127578615Y-94289229D01*
X127582325Y-94286534D01*
X127124948Y-93829157D01*
X127192993Y-93810925D01*
X127307007Y-93745099D01*
X127400099Y-93652007D01*
X127465925Y-93537993D01*
X127484157Y-93469948D01*
X127941534Y-93927325D01*
X127944229Y-93923615D01*
X128023113Y-93768796D01*
X128023116Y-93768788D01*
X128076814Y-93603524D01*
X128104000Y-93431883D01*
X128104000Y-93258116D01*
X128076814Y-93086475D01*
X128023116Y-92921211D01*
X128023113Y-92921203D01*
X127944230Y-92766385D01*
X127944223Y-92766375D01*
X127941534Y-92762673D01*
X127484157Y-93220050D01*
X127465925Y-93152007D01*
X127400099Y-93037993D01*
X127307007Y-92944901D01*
X127192993Y-92879075D01*
X127124947Y-92860841D01*
X127582325Y-92403463D01*
X127578625Y-92400776D01*
X127423790Y-92321884D01*
X127423788Y-92321883D01*
X127258524Y-92268185D01*
X127086884Y-92241000D01*
X126913116Y-92241000D01*
X126741475Y-92268185D01*
X126576211Y-92321883D01*
X126576209Y-92321884D01*
X126421375Y-92400775D01*
X126417674Y-92403463D01*
X126417674Y-92403465D01*
X126875051Y-92860842D01*
X126807007Y-92879075D01*
X126692993Y-92944901D01*
X126599901Y-93037993D01*
X126534075Y-93152007D01*
X126515842Y-93220051D01*
X126058465Y-92762674D01*
X126058463Y-92762674D01*
X126055775Y-92766375D01*
X125976884Y-92921209D01*
X125976883Y-92921211D01*
X125923185Y-93086475D01*
X125896000Y-93258116D01*
X125608500Y-93258116D01*
X125608500Y-91820500D01*
X125628502Y-91752379D01*
X125682158Y-91705886D01*
X125734500Y-91694500D01*
X128265500Y-91694500D01*
X128333621Y-91714502D01*
X128380114Y-91768158D01*
X128391500Y-91820500D01*
X128391500Y-97156006D01*
X128397430Y-97211161D01*
X128401335Y-97229111D01*
X128408816Y-97263501D01*
X128416166Y-97290291D01*
X128429061Y-97312937D01*
X128466270Y-97378279D01*
X128466275Y-97378286D01*
X128502620Y-97420230D01*
X128512762Y-97431934D01*
X128546051Y-97464056D01*
X128635770Y-97510987D01*
X128703891Y-97530989D01*
X128777000Y-97541500D01*
X128777003Y-97541500D01*
X130302994Y-97541500D01*
X130303000Y-97541500D01*
X130358159Y-97535570D01*
X130410501Y-97524184D01*
X130437291Y-97516834D01*
X130525278Y-97466731D01*
X130578934Y-97420238D01*
X130611056Y-97386949D01*
X130657987Y-97297230D01*
X130677989Y-97229109D01*
X130688500Y-97156000D01*
X130688500Y-95810685D01*
X131325500Y-95810685D01*
X131325500Y-95810688D01*
X131325500Y-95959312D01*
X131354495Y-96105080D01*
X131411371Y-96242390D01*
X131493941Y-96365966D01*
X131493942Y-96365967D01*
X131493947Y-96365973D01*
X131599026Y-96471052D01*
X131599032Y-96471057D01*
X131599034Y-96471059D01*
X131722610Y-96553629D01*
X131859920Y-96610505D01*
X132005688Y-96639500D01*
X132005689Y-96639500D01*
X132154311Y-96639500D01*
X132154312Y-96639500D01*
X132300080Y-96610505D01*
X132437390Y-96553629D01*
X132560966Y-96471059D01*
X132666059Y-96365966D01*
X132748629Y-96242390D01*
X132805505Y-96105080D01*
X132834500Y-95959312D01*
X132834500Y-95810688D01*
X132805505Y-95664920D01*
X132748629Y-95527610D01*
X132666059Y-95404034D01*
X132666057Y-95404032D01*
X132666052Y-95404026D01*
X132560973Y-95298947D01*
X132560967Y-95298942D01*
X132560966Y-95298941D01*
X132437390Y-95216371D01*
X132300080Y-95159495D01*
X132154314Y-95130500D01*
X132154312Y-95130500D01*
X132005688Y-95130500D01*
X132005685Y-95130500D01*
X131859919Y-95159495D01*
X131859914Y-95159497D01*
X131722610Y-95216371D01*
X131599032Y-95298942D01*
X131599026Y-95298947D01*
X131493947Y-95404026D01*
X131493942Y-95404032D01*
X131411371Y-95527610D01*
X131354497Y-95664914D01*
X131354495Y-95664919D01*
X131325500Y-95810685D01*
X130688500Y-95810685D01*
X130688500Y-93258116D01*
X130976000Y-93258116D01*
X130976000Y-93431883D01*
X131003185Y-93603524D01*
X131056883Y-93768788D01*
X131056884Y-93768790D01*
X131135776Y-93923625D01*
X131138463Y-93927324D01*
X131595841Y-93469946D01*
X131614075Y-93537993D01*
X131679901Y-93652007D01*
X131772993Y-93745099D01*
X131887007Y-93810925D01*
X131955051Y-93829157D01*
X131497673Y-94286535D01*
X131501375Y-94289223D01*
X131501385Y-94289230D01*
X131656203Y-94368113D01*
X131656211Y-94368116D01*
X131821475Y-94421814D01*
X131993116Y-94449000D01*
X132166884Y-94449000D01*
X132338524Y-94421814D01*
X132503788Y-94368116D01*
X132503796Y-94368113D01*
X132658615Y-94289229D01*
X132662325Y-94286534D01*
X132204948Y-93829157D01*
X132272993Y-93810925D01*
X132387007Y-93745099D01*
X132480099Y-93652007D01*
X132545925Y-93537993D01*
X132564157Y-93469948D01*
X133021534Y-93927325D01*
X133024229Y-93923615D01*
X133103113Y-93768796D01*
X133103116Y-93768788D01*
X133156814Y-93603524D01*
X133184000Y-93431883D01*
X133184000Y-93258116D01*
X133156814Y-93086475D01*
X133103116Y-92921211D01*
X133103113Y-92921203D01*
X133024230Y-92766385D01*
X133024223Y-92766375D01*
X133021534Y-92762673D01*
X132564157Y-93220050D01*
X132545925Y-93152007D01*
X132480099Y-93037993D01*
X132387007Y-92944901D01*
X132272993Y-92879075D01*
X132204947Y-92860841D01*
X132662325Y-92403463D01*
X132658625Y-92400776D01*
X132503790Y-92321884D01*
X132503788Y-92321883D01*
X132338524Y-92268185D01*
X132166884Y-92241000D01*
X131993116Y-92241000D01*
X131821475Y-92268185D01*
X131656211Y-92321883D01*
X131656209Y-92321884D01*
X131501375Y-92400775D01*
X131497674Y-92403463D01*
X131497674Y-92403465D01*
X131955051Y-92860842D01*
X131887007Y-92879075D01*
X131772993Y-92944901D01*
X131679901Y-93037993D01*
X131614075Y-93152007D01*
X131595842Y-93220051D01*
X131138465Y-92762674D01*
X131138463Y-92762674D01*
X131135775Y-92766375D01*
X131056884Y-92921209D01*
X131056883Y-92921211D01*
X131003185Y-93086475D01*
X130976000Y-93258116D01*
X130688500Y-93258116D01*
X130688500Y-91820500D01*
X130708502Y-91752379D01*
X130762158Y-91705886D01*
X130814500Y-91694500D01*
X133345500Y-91694500D01*
X133413621Y-91714502D01*
X133460114Y-91768158D01*
X133471500Y-91820500D01*
X133471500Y-97156006D01*
X133477430Y-97211161D01*
X133481335Y-97229111D01*
X133488816Y-97263501D01*
X133496166Y-97290291D01*
X133509061Y-97312937D01*
X133546270Y-97378279D01*
X133546275Y-97378286D01*
X133582620Y-97420230D01*
X133592762Y-97431934D01*
X133626051Y-97464056D01*
X133715770Y-97510987D01*
X133783891Y-97530989D01*
X133857000Y-97541500D01*
X133857003Y-97541500D01*
X135382994Y-97541500D01*
X135383000Y-97541500D01*
X135438159Y-97535570D01*
X135490501Y-97524184D01*
X135517291Y-97516834D01*
X135605278Y-97466731D01*
X135658934Y-97420238D01*
X135691056Y-97386949D01*
X135699940Y-97369965D01*
X135729771Y-97312937D01*
X135729771Y-97312936D01*
X135729772Y-97312935D01*
X135730693Y-97311173D01*
X135737987Y-97297230D01*
X135757989Y-97229109D01*
X135768500Y-97156000D01*
X135768500Y-96901000D01*
X141012467Y-96901000D01*
X141809297Y-96901000D01*
X141774075Y-96962007D01*
X141740000Y-97089174D01*
X141740000Y-97220826D01*
X141774075Y-97347993D01*
X141809297Y-97409000D01*
X141012468Y-97409000D01*
X141013182Y-97413515D01*
X141013184Y-97413521D01*
X141066883Y-97578788D01*
X141066884Y-97578790D01*
X141145776Y-97733625D01*
X141247917Y-97874210D01*
X141370789Y-97997082D01*
X141511374Y-98099223D01*
X141666209Y-98178115D01*
X141666211Y-98178116D01*
X141831476Y-98231815D01*
X141986000Y-98256288D01*
X141986000Y-97585702D01*
X142047007Y-97620925D01*
X142174174Y-97655000D01*
X142305826Y-97655000D01*
X142432993Y-97620925D01*
X142494000Y-97585702D01*
X142494000Y-98256288D01*
X142648523Y-98231815D01*
X142813788Y-98178116D01*
X142813790Y-98178115D01*
X142968625Y-98099223D01*
X143109210Y-97997082D01*
X143232082Y-97874210D01*
X143334223Y-97733625D01*
X143413115Y-97578790D01*
X143413116Y-97578788D01*
X143466815Y-97413521D01*
X143466817Y-97413515D01*
X143467532Y-97409000D01*
X142670703Y-97409000D01*
X142705925Y-97347993D01*
X142740000Y-97220826D01*
X142740000Y-97089174D01*
X142705925Y-96962007D01*
X142670703Y-96901000D01*
X143467532Y-96901000D01*
X143466817Y-96896484D01*
X143466815Y-96896478D01*
X143413116Y-96731211D01*
X143413115Y-96731209D01*
X143334223Y-96576374D01*
X143232082Y-96435789D01*
X143109210Y-96312917D01*
X142968625Y-96210776D01*
X142813790Y-96131884D01*
X142813788Y-96131883D01*
X142648523Y-96078184D01*
X142494000Y-96053710D01*
X142494000Y-96724297D01*
X142432993Y-96689075D01*
X142305826Y-96655000D01*
X142174174Y-96655000D01*
X142047007Y-96689075D01*
X141986000Y-96724297D01*
X141986000Y-96053710D01*
X141831476Y-96078184D01*
X141666211Y-96131883D01*
X141666209Y-96131884D01*
X141511374Y-96210776D01*
X141370789Y-96312917D01*
X141247917Y-96435789D01*
X141145776Y-96576374D01*
X141066884Y-96731209D01*
X141066883Y-96731211D01*
X141013184Y-96896478D01*
X141013182Y-96896484D01*
X141012467Y-96901000D01*
X135768500Y-96901000D01*
X135768500Y-94006737D01*
X140985500Y-94006737D01*
X140985500Y-95303246D01*
X140985502Y-95303270D01*
X140991959Y-95363339D01*
X140991959Y-95363341D01*
X141042657Y-95499266D01*
X141042658Y-95499267D01*
X141129596Y-95615404D01*
X141245733Y-95702342D01*
X141381658Y-95753040D01*
X141441745Y-95759500D01*
X143038254Y-95759499D01*
X143098342Y-95753040D01*
X143234267Y-95702342D01*
X143350404Y-95615404D01*
X143437342Y-95499267D01*
X143488040Y-95363342D01*
X143494500Y-95303255D01*
X143494499Y-94006746D01*
X143488040Y-93946658D01*
X143437342Y-93810733D01*
X143350404Y-93694596D01*
X143234267Y-93607658D01*
X143234265Y-93607657D01*
X143234266Y-93607657D01*
X143098349Y-93556962D01*
X143098344Y-93556960D01*
X143098342Y-93556960D01*
X143068298Y-93553730D01*
X143038256Y-93550500D01*
X141441753Y-93550500D01*
X141441729Y-93550502D01*
X141381660Y-93556959D01*
X141381658Y-93556959D01*
X141245733Y-93607657D01*
X141129596Y-93694596D01*
X141042657Y-93810734D01*
X140991962Y-93946650D01*
X140991960Y-93946658D01*
X140985500Y-94006737D01*
X135768500Y-94006737D01*
X135768500Y-91820500D01*
X135788502Y-91752379D01*
X135842158Y-91705886D01*
X135894500Y-91694500D01*
X144100125Y-91694500D01*
X144136742Y-91694500D01*
X144153187Y-91695578D01*
X144173207Y-91698213D01*
X144227035Y-91705299D01*
X144258800Y-91713810D01*
X144319929Y-91739131D01*
X144348409Y-91755574D01*
X144400897Y-91795850D01*
X144424149Y-91819102D01*
X144459770Y-91865524D01*
X144464424Y-91871589D01*
X144480870Y-91900073D01*
X144506187Y-91961193D01*
X144514700Y-91992965D01*
X144518835Y-92024377D01*
X144524422Y-92066810D01*
X144525500Y-92083257D01*
X144525500Y-107306742D01*
X144524422Y-107323187D01*
X144524422Y-107323189D01*
X144514700Y-107397034D01*
X144506187Y-107428806D01*
X144480870Y-107489926D01*
X144464424Y-107518410D01*
X144424153Y-107570893D01*
X144400893Y-107594153D01*
X144348410Y-107634424D01*
X144319926Y-107650870D01*
X144258806Y-107676187D01*
X144227034Y-107684700D01*
X144171424Y-107692021D01*
X144153187Y-107694422D01*
X144136742Y-107695500D01*
X140621400Y-107695500D01*
X140553279Y-107675498D01*
X140506786Y-107621842D01*
X140496682Y-107551568D01*
X140526176Y-107486988D01*
X140532305Y-107480405D01*
X140580598Y-107432111D01*
X140580601Y-107432108D01*
X140580603Y-107432106D01*
X140687417Y-107285090D01*
X140769917Y-107123174D01*
X140826072Y-106950346D01*
X140854500Y-106770861D01*
X140854500Y-106589139D01*
X140826072Y-106409654D01*
X140769917Y-106236826D01*
X140687417Y-106074910D01*
X140580603Y-105927894D01*
X140580601Y-105927891D01*
X140452108Y-105799398D01*
X140305093Y-105692585D01*
X140305092Y-105692584D01*
X140305090Y-105692583D01*
X140143174Y-105610083D01*
X140143171Y-105610082D01*
X140143169Y-105610081D01*
X139970351Y-105553929D01*
X139970347Y-105553928D01*
X139970346Y-105553928D01*
X139790861Y-105525500D01*
X139609139Y-105525500D01*
X139429654Y-105553928D01*
X139429648Y-105553929D01*
X139256830Y-105610081D01*
X139256824Y-105610084D01*
X139094906Y-105692585D01*
X138947891Y-105799398D01*
X138819398Y-105927891D01*
X138712585Y-106074906D01*
X138630084Y-106236824D01*
X138630081Y-106236830D01*
X138573929Y-106409648D01*
X138573928Y-106409653D01*
X138573928Y-106409654D01*
X138545500Y-106589139D01*
X138545500Y-106770861D01*
X138558620Y-106853694D01*
X138573929Y-106950351D01*
X138630020Y-107122981D01*
X138630083Y-107123174D01*
X138712450Y-107284829D01*
X138712585Y-107285093D01*
X138819398Y-107432108D01*
X138867695Y-107480405D01*
X138901721Y-107542717D01*
X138896656Y-107613532D01*
X138854109Y-107670368D01*
X138787589Y-107695179D01*
X138778600Y-107695500D01*
X135328481Y-107695500D01*
X135260360Y-107675498D01*
X135239386Y-107658595D01*
X134704124Y-107123333D01*
X134793694Y-107099333D01*
X134896306Y-107040090D01*
X134980090Y-106956306D01*
X135039333Y-106853694D01*
X135063333Y-106764124D01*
X135597329Y-107298120D01*
X135597331Y-107298120D01*
X135606988Y-107284829D01*
X135689449Y-107122989D01*
X135689452Y-107122981D01*
X135745583Y-106950231D01*
X135774000Y-106770819D01*
X135774000Y-106589180D01*
X135745583Y-106409768D01*
X135689452Y-106237018D01*
X135689449Y-106237010D01*
X135606990Y-106075173D01*
X135597330Y-106061877D01*
X135063333Y-106595875D01*
X135039333Y-106506306D01*
X134980090Y-106403694D01*
X134896306Y-106319910D01*
X134793694Y-106260667D01*
X134704123Y-106236666D01*
X135238120Y-105702668D01*
X135238121Y-105702668D01*
X135224824Y-105693009D01*
X135062989Y-105610550D01*
X135062981Y-105610547D01*
X134890231Y-105554416D01*
X134710820Y-105526000D01*
X134529180Y-105526000D01*
X134349768Y-105554416D01*
X134177018Y-105610547D01*
X134177010Y-105610550D01*
X134015184Y-105693004D01*
X134015172Y-105693011D01*
X134001877Y-105702668D01*
X134535875Y-106236666D01*
X134446306Y-106260667D01*
X134343694Y-106319910D01*
X134259910Y-106403694D01*
X134200667Y-106506306D01*
X134176666Y-106595875D01*
X133642668Y-106061877D01*
X133633011Y-106075172D01*
X133633004Y-106075184D01*
X133550550Y-106237010D01*
X133550547Y-106237018D01*
X133494416Y-106409768D01*
X133466000Y-106589180D01*
X133466000Y-106770819D01*
X133494416Y-106950231D01*
X133550547Y-107122981D01*
X133550550Y-107122989D01*
X133633009Y-107284824D01*
X133642668Y-107298120D01*
X134176666Y-106764122D01*
X134200667Y-106853694D01*
X134259910Y-106956306D01*
X134343694Y-107040090D01*
X134446306Y-107099333D01*
X134535876Y-107123333D01*
X134000613Y-107658596D01*
X133938301Y-107692621D01*
X133911518Y-107695500D01*
X130461400Y-107695500D01*
X130393279Y-107675498D01*
X130346786Y-107621842D01*
X130336682Y-107551568D01*
X130366176Y-107486988D01*
X130372305Y-107480405D01*
X130420598Y-107432111D01*
X130420601Y-107432108D01*
X130420603Y-107432106D01*
X130527417Y-107285090D01*
X130609917Y-107123174D01*
X130666072Y-106950346D01*
X130694500Y-106770861D01*
X130694500Y-106589139D01*
X130666072Y-106409654D01*
X130609917Y-106236826D01*
X130527417Y-106074910D01*
X130420603Y-105927894D01*
X130420601Y-105927891D01*
X130292108Y-105799398D01*
X130145093Y-105692585D01*
X130145092Y-105692584D01*
X130145090Y-105692583D01*
X129983174Y-105610083D01*
X129983171Y-105610082D01*
X129983169Y-105610081D01*
X129810351Y-105553929D01*
X129810347Y-105553928D01*
X129810346Y-105553928D01*
X129630861Y-105525500D01*
X129449139Y-105525500D01*
X129269654Y-105553928D01*
X129269648Y-105553929D01*
X129096830Y-105610081D01*
X129096824Y-105610084D01*
X128934906Y-105692585D01*
X128787891Y-105799398D01*
X128659398Y-105927891D01*
X128552585Y-106074906D01*
X128470084Y-106236824D01*
X128470081Y-106236830D01*
X128413929Y-106409648D01*
X128413928Y-106409653D01*
X128413928Y-106409654D01*
X128385500Y-106589139D01*
X128385500Y-106770861D01*
X128398620Y-106853694D01*
X128413929Y-106950351D01*
X128470020Y-107122981D01*
X128470083Y-107123174D01*
X128552450Y-107284829D01*
X128552585Y-107285093D01*
X128659398Y-107432108D01*
X128707695Y-107480405D01*
X128741721Y-107542717D01*
X128736656Y-107613532D01*
X128694109Y-107670368D01*
X128627589Y-107695179D01*
X128618600Y-107695500D01*
X125381400Y-107695500D01*
X125313279Y-107675498D01*
X125266786Y-107621842D01*
X125256682Y-107551568D01*
X125286176Y-107486988D01*
X125292305Y-107480405D01*
X125340598Y-107432111D01*
X125340601Y-107432108D01*
X125340603Y-107432106D01*
X125447417Y-107285090D01*
X125529917Y-107123174D01*
X125586072Y-106950346D01*
X125614500Y-106770861D01*
X125614500Y-106589139D01*
X125586072Y-106409654D01*
X125529917Y-106236826D01*
X125447417Y-106074910D01*
X125340603Y-105927894D01*
X125340601Y-105927891D01*
X125212108Y-105799398D01*
X125065093Y-105692585D01*
X125065092Y-105692584D01*
X125065090Y-105692583D01*
X124903174Y-105610083D01*
X124903171Y-105610082D01*
X124903169Y-105610081D01*
X124730351Y-105553929D01*
X124730347Y-105553928D01*
X124730346Y-105553928D01*
X124550861Y-105525500D01*
X124369139Y-105525500D01*
X124189654Y-105553928D01*
X124189648Y-105553929D01*
X124016830Y-105610081D01*
X124016824Y-105610084D01*
X123854906Y-105692585D01*
X123707891Y-105799398D01*
X123579398Y-105927891D01*
X123472585Y-106074906D01*
X123390084Y-106236824D01*
X123390081Y-106236830D01*
X123333929Y-106409648D01*
X123333928Y-106409653D01*
X123333928Y-106409654D01*
X123305500Y-106589139D01*
X123305500Y-106770861D01*
X123318620Y-106853694D01*
X123333929Y-106950351D01*
X123390020Y-107122981D01*
X123390083Y-107123174D01*
X123472450Y-107284829D01*
X123472585Y-107285093D01*
X123579398Y-107432108D01*
X123627695Y-107480405D01*
X123661721Y-107542717D01*
X123656656Y-107613532D01*
X123614109Y-107670368D01*
X123547589Y-107695179D01*
X123538600Y-107695500D01*
X114943258Y-107695500D01*
X114926812Y-107694422D01*
X114852966Y-107684700D01*
X114821194Y-107676187D01*
X114760073Y-107650870D01*
X114731589Y-107634424D01*
X114704362Y-107613532D01*
X114679102Y-107594149D01*
X114655850Y-107570897D01*
X114615574Y-107518409D01*
X114599131Y-107489929D01*
X114573810Y-107428800D01*
X114565299Y-107397032D01*
X114555578Y-107323187D01*
X114554500Y-107306742D01*
X114554500Y-104825223D01*
X131698499Y-104825223D01*
X131724500Y-104922258D01*
X131774721Y-105009243D01*
X131774729Y-105009253D01*
X131845746Y-105080270D01*
X131845751Y-105080274D01*
X131845753Y-105080276D01*
X131845754Y-105080277D01*
X131845756Y-105080278D01*
X131932741Y-105130499D01*
X131932743Y-105130499D01*
X131932746Y-105130501D01*
X132029775Y-105156500D01*
X132029777Y-105156500D01*
X132130223Y-105156500D01*
X132130225Y-105156500D01*
X132227254Y-105130501D01*
X132227257Y-105130499D01*
X132227258Y-105130499D01*
X132270750Y-105105388D01*
X132314247Y-105080276D01*
X132385276Y-105009247D01*
X132435501Y-104922254D01*
X132461500Y-104825225D01*
X132461500Y-104724775D01*
X132435501Y-104627746D01*
X132435499Y-104627743D01*
X132435499Y-104627741D01*
X132385278Y-104540756D01*
X132385270Y-104540746D01*
X132314253Y-104469729D01*
X132314243Y-104469721D01*
X132227258Y-104419500D01*
X132215792Y-104416427D01*
X132130225Y-104393500D01*
X132029775Y-104393500D01*
X131970390Y-104409412D01*
X131932741Y-104419500D01*
X131845756Y-104469721D01*
X131845746Y-104469729D01*
X131774729Y-104540746D01*
X131774721Y-104540756D01*
X131724500Y-104627741D01*
X131698500Y-104724776D01*
X131698500Y-104825223D01*
X131698499Y-104825223D01*
X114554500Y-104825223D01*
X114554500Y-101994930D01*
X115730500Y-101994930D01*
X115730500Y-103745063D01*
X115730501Y-103745073D01*
X115745265Y-103819300D01*
X115801516Y-103903484D01*
X115885697Y-103959733D01*
X115885699Y-103959734D01*
X115959933Y-103974500D01*
X117710066Y-103974499D01*
X117710069Y-103974498D01*
X117710073Y-103974498D01*
X117759326Y-103964701D01*
X117784301Y-103959734D01*
X117868484Y-103903484D01*
X117924734Y-103819301D01*
X117939500Y-103745067D01*
X117939499Y-102783116D01*
X118271000Y-102783116D01*
X118271000Y-102956883D01*
X118298185Y-103128524D01*
X118351883Y-103293788D01*
X118351884Y-103293790D01*
X118430776Y-103448625D01*
X118433463Y-103452324D01*
X118890841Y-102994946D01*
X118909075Y-103062993D01*
X118974901Y-103177007D01*
X119067993Y-103270099D01*
X119182007Y-103335925D01*
X119250051Y-103354157D01*
X118792673Y-103811535D01*
X118796375Y-103814223D01*
X118796385Y-103814230D01*
X118951203Y-103893113D01*
X118951211Y-103893116D01*
X119116475Y-103946814D01*
X119288116Y-103974000D01*
X119461884Y-103974000D01*
X119633524Y-103946814D01*
X119798788Y-103893116D01*
X119798796Y-103893113D01*
X119953615Y-103814229D01*
X119957325Y-103811534D01*
X119499948Y-103354157D01*
X119567993Y-103335925D01*
X119682007Y-103270099D01*
X119775099Y-103177007D01*
X119840925Y-103062993D01*
X119859157Y-102994948D01*
X120316534Y-103452325D01*
X120319229Y-103448615D01*
X120398113Y-103293796D01*
X120398116Y-103293788D01*
X120451814Y-103128524D01*
X120479000Y-102956883D01*
X120479000Y-102783116D01*
X120451814Y-102611475D01*
X120398116Y-102446211D01*
X120398113Y-102446203D01*
X120319230Y-102291385D01*
X120319223Y-102291375D01*
X120316534Y-102287673D01*
X119859157Y-102745050D01*
X119840925Y-102677007D01*
X119775099Y-102562993D01*
X119682007Y-102469901D01*
X119567993Y-102404075D01*
X119499947Y-102385841D01*
X119814052Y-102071737D01*
X123205500Y-102071737D01*
X123205500Y-103668246D01*
X123205502Y-103668270D01*
X123211959Y-103728339D01*
X123211959Y-103728341D01*
X123262657Y-103864266D01*
X123262658Y-103864267D01*
X123349596Y-103980404D01*
X123465733Y-104067342D01*
X123601658Y-104118040D01*
X123661745Y-104124500D01*
X125258254Y-104124499D01*
X125318342Y-104118040D01*
X125454267Y-104067342D01*
X125570404Y-103980404D01*
X125657342Y-103864267D01*
X125708040Y-103728342D01*
X125714500Y-103668255D01*
X125714499Y-102771269D01*
X128285500Y-102771269D01*
X128285500Y-102968731D01*
X128300430Y-103062993D01*
X128316391Y-103163768D01*
X128377407Y-103351556D01*
X128377409Y-103351561D01*
X128467056Y-103527501D01*
X128583121Y-103687252D01*
X128583123Y-103687254D01*
X128583125Y-103687257D01*
X128722742Y-103826874D01*
X128722745Y-103826876D01*
X128722748Y-103826879D01*
X128882499Y-103942944D01*
X129058439Y-104032591D01*
X129246237Y-104093610D01*
X129441269Y-104124500D01*
X129441272Y-104124500D01*
X129638728Y-104124500D01*
X129638731Y-104124500D01*
X129833763Y-104093610D01*
X130021561Y-104032591D01*
X130197501Y-103942944D01*
X130357252Y-103826879D01*
X130496879Y-103687252D01*
X130612944Y-103527501D01*
X130702591Y-103351561D01*
X130763610Y-103163763D01*
X130794500Y-102968731D01*
X130794500Y-102771269D01*
X130763610Y-102576237D01*
X130702591Y-102388439D01*
X130612944Y-102212499D01*
X130496879Y-102052748D01*
X130496876Y-102052745D01*
X130496874Y-102052742D01*
X130357257Y-101913125D01*
X130357254Y-101913123D01*
X130357252Y-101913121D01*
X130197501Y-101797056D01*
X130021561Y-101707409D01*
X130021558Y-101707408D01*
X130021556Y-101707407D01*
X129833768Y-101646391D01*
X129833764Y-101646390D01*
X129833763Y-101646390D01*
X129638731Y-101615500D01*
X129441269Y-101615500D01*
X129246237Y-101646390D01*
X129246231Y-101646391D01*
X129058443Y-101707407D01*
X129058437Y-101707410D01*
X128882495Y-101797058D01*
X128722745Y-101913123D01*
X128722742Y-101913125D01*
X128583125Y-102052742D01*
X128583123Y-102052745D01*
X128467058Y-102212495D01*
X128377410Y-102388437D01*
X128377407Y-102388443D01*
X128316391Y-102576231D01*
X128316390Y-102576236D01*
X128316390Y-102576237D01*
X128285500Y-102771269D01*
X125714499Y-102771269D01*
X125714499Y-102071746D01*
X125708040Y-102011658D01*
X125657342Y-101875733D01*
X125570404Y-101759596D01*
X125454267Y-101672658D01*
X125454265Y-101672657D01*
X125454266Y-101672657D01*
X125318349Y-101621962D01*
X125318344Y-101621960D01*
X125318342Y-101621960D01*
X125310831Y-101621152D01*
X125258262Y-101615500D01*
X125201539Y-101615500D01*
X125133418Y-101595498D01*
X125086925Y-101541842D01*
X125076821Y-101471568D01*
X125106315Y-101406988D01*
X125138540Y-101380380D01*
X125153226Y-101371901D01*
X125247901Y-101277226D01*
X125314847Y-101161274D01*
X125349500Y-101031945D01*
X125349500Y-100898055D01*
X125314847Y-100768726D01*
X125247901Y-100652774D01*
X125247900Y-100652772D01*
X125153227Y-100558099D01*
X125153224Y-100558097D01*
X125037278Y-100491155D01*
X125037276Y-100491154D01*
X125037274Y-100491153D01*
X124907945Y-100456500D01*
X124774055Y-100456500D01*
X124644726Y-100491153D01*
X124644724Y-100491154D01*
X124644721Y-100491155D01*
X124528775Y-100558097D01*
X124528772Y-100558099D01*
X124434099Y-100652772D01*
X124434097Y-100652775D01*
X124367155Y-100768721D01*
X124367154Y-100768724D01*
X124367153Y-100768726D01*
X124332500Y-100898055D01*
X124332500Y-101031945D01*
X124367153Y-101161274D01*
X124367154Y-101161276D01*
X124367155Y-101161278D01*
X124434097Y-101277224D01*
X124434099Y-101277227D01*
X124528772Y-101371900D01*
X124543460Y-101380380D01*
X124592454Y-101431762D01*
X124605891Y-101501476D01*
X124579505Y-101567387D01*
X124521673Y-101608570D01*
X124480461Y-101615500D01*
X123661753Y-101615500D01*
X123661729Y-101615502D01*
X123601660Y-101621959D01*
X123601658Y-101621959D01*
X123465733Y-101672657D01*
X123349596Y-101759596D01*
X123262657Y-101875734D01*
X123211962Y-102011650D01*
X123211960Y-102011658D01*
X123205500Y-102071737D01*
X119814052Y-102071737D01*
X119906513Y-101979276D01*
X119957325Y-101928464D01*
X119953625Y-101925776D01*
X119798790Y-101846884D01*
X119798788Y-101846883D01*
X119633524Y-101793185D01*
X119461884Y-101766000D01*
X119288116Y-101766000D01*
X119116475Y-101793185D01*
X118951211Y-101846883D01*
X118951209Y-101846884D01*
X118796375Y-101925775D01*
X118792674Y-101928463D01*
X118792674Y-101928465D01*
X119250051Y-102385842D01*
X119182007Y-102404075D01*
X119067993Y-102469901D01*
X118974901Y-102562993D01*
X118909075Y-102677007D01*
X118890842Y-102745051D01*
X118433465Y-102287674D01*
X118433463Y-102287674D01*
X118430775Y-102291375D01*
X118351884Y-102446209D01*
X118351883Y-102446211D01*
X118298185Y-102611475D01*
X118271000Y-102783116D01*
X117939499Y-102783116D01*
X117939499Y-101994934D01*
X117939499Y-101994933D01*
X117939499Y-101994931D01*
X117924734Y-101920699D01*
X117894688Y-101875733D01*
X117868484Y-101836516D01*
X117868483Y-101836515D01*
X117784302Y-101780266D01*
X117710067Y-101765500D01*
X115959936Y-101765500D01*
X115959926Y-101765501D01*
X115885699Y-101780265D01*
X115801515Y-101836516D01*
X115745266Y-101920697D01*
X115730500Y-101994930D01*
X114554500Y-101994930D01*
X114554500Y-101138857D01*
X114536899Y-101056053D01*
X114521175Y-100982077D01*
X114466199Y-100858599D01*
X114456766Y-100788235D01*
X114486872Y-100723938D01*
X114492201Y-100718268D01*
X114495700Y-100714770D01*
X114562119Y-100599730D01*
X114596500Y-100471419D01*
X114596500Y-100338581D01*
X114562119Y-100210270D01*
X114505958Y-100112997D01*
X114489221Y-100044006D01*
X114505957Y-99987003D01*
X114562119Y-99889730D01*
X114596500Y-99761419D01*
X114596500Y-99628581D01*
X114562119Y-99500270D01*
X114508845Y-99407998D01*
X114492108Y-99339005D01*
X114508844Y-99282002D01*
X114562119Y-99189730D01*
X114596500Y-99061419D01*
X114596500Y-98928581D01*
X114562119Y-98800270D01*
X114495700Y-98685230D01*
X114489132Y-98678662D01*
X114455107Y-98616354D01*
X114460169Y-98545538D01*
X114463120Y-98538317D01*
X114521174Y-98407927D01*
X114524871Y-98390537D01*
X114554500Y-98251142D01*
X114554500Y-98171000D01*
X114554500Y-98126125D01*
X114554500Y-96901000D01*
X116882467Y-96901000D01*
X117679297Y-96901000D01*
X117644075Y-96962007D01*
X117610000Y-97089174D01*
X117610000Y-97220826D01*
X117644075Y-97347993D01*
X117679297Y-97409000D01*
X116882468Y-97409000D01*
X116883182Y-97413515D01*
X116883184Y-97413521D01*
X116936883Y-97578788D01*
X116936884Y-97578790D01*
X117015776Y-97733625D01*
X117117917Y-97874210D01*
X117240789Y-97997082D01*
X117381374Y-98099223D01*
X117536209Y-98178115D01*
X117536211Y-98178116D01*
X117701476Y-98231815D01*
X117856000Y-98256288D01*
X117856000Y-97585702D01*
X117917007Y-97620925D01*
X118044174Y-97655000D01*
X118175826Y-97655000D01*
X118302993Y-97620925D01*
X118364000Y-97585702D01*
X118364000Y-98256288D01*
X118518523Y-98231815D01*
X118683788Y-98178116D01*
X118683790Y-98178115D01*
X118838625Y-98099223D01*
X118979210Y-97997082D01*
X119102082Y-97874210D01*
X119204223Y-97733625D01*
X119283115Y-97578790D01*
X119283116Y-97578788D01*
X119336815Y-97413521D01*
X119336817Y-97413515D01*
X119337532Y-97409000D01*
X118540703Y-97409000D01*
X118575925Y-97347993D01*
X118610000Y-97220826D01*
X118610000Y-97089174D01*
X118575925Y-96962007D01*
X118540703Y-96901000D01*
X119337532Y-96901000D01*
X119336817Y-96896484D01*
X119336815Y-96896478D01*
X119283116Y-96731211D01*
X119283115Y-96731209D01*
X119204223Y-96576374D01*
X119102082Y-96435789D01*
X118979210Y-96312917D01*
X118838625Y-96210776D01*
X118683790Y-96131884D01*
X118683788Y-96131883D01*
X118518523Y-96078184D01*
X118364000Y-96053710D01*
X118364000Y-96724297D01*
X118302993Y-96689075D01*
X118175826Y-96655000D01*
X118044174Y-96655000D01*
X117917007Y-96689075D01*
X117856000Y-96724297D01*
X117856000Y-96053710D01*
X117701476Y-96078184D01*
X117536211Y-96131883D01*
X117536209Y-96131884D01*
X117381374Y-96210776D01*
X117240789Y-96312917D01*
X117117917Y-96435789D01*
X117015776Y-96576374D01*
X116936884Y-96731209D01*
X116936883Y-96731211D01*
X116883184Y-96896478D01*
X116883182Y-96896484D01*
X116882467Y-96901000D01*
X114554500Y-96901000D01*
X114554500Y-94006737D01*
X116855500Y-94006737D01*
X116855500Y-95303246D01*
X116855502Y-95303270D01*
X116861959Y-95363339D01*
X116861959Y-95363341D01*
X116912657Y-95499266D01*
X116912658Y-95499267D01*
X116999596Y-95615404D01*
X117115733Y-95702342D01*
X117251658Y-95753040D01*
X117311745Y-95759500D01*
X118908254Y-95759499D01*
X118968342Y-95753040D01*
X119104267Y-95702342D01*
X119220404Y-95615404D01*
X119307342Y-95499267D01*
X119358040Y-95363342D01*
X119364500Y-95303255D01*
X119364499Y-94006746D01*
X119358040Y-93946658D01*
X119307342Y-93810733D01*
X119220404Y-93694596D01*
X119104267Y-93607658D01*
X119104265Y-93607657D01*
X119104266Y-93607657D01*
X118968349Y-93556962D01*
X118968344Y-93556960D01*
X118968342Y-93556960D01*
X118938298Y-93553730D01*
X118908256Y-93550500D01*
X117311753Y-93550500D01*
X117311729Y-93550502D01*
X117251660Y-93556959D01*
X117251658Y-93556959D01*
X117115733Y-93607657D01*
X116999596Y-93694596D01*
X116912657Y-93810734D01*
X116861962Y-93946650D01*
X116861960Y-93946658D01*
X116855500Y-94006737D01*
X114554500Y-94006737D01*
X114554500Y-92083257D01*
X114555578Y-92066812D01*
X114556321Y-92061161D01*
X114565300Y-91992965D01*
X114573809Y-91961201D01*
X114599132Y-91900066D01*
X114615572Y-91871593D01*
X114655854Y-91819097D01*
X114679097Y-91795854D01*
X114731593Y-91755572D01*
X114760066Y-91739132D01*
X114821201Y-91713809D01*
X114852962Y-91705300D01*
X114910053Y-91697784D01*
X114926813Y-91695578D01*
X114943258Y-91694500D01*
X114979875Y-91694500D01*
X123185500Y-91694500D01*
X123253621Y-91714502D01*
G37*
%TD.AperFunction*%
%TD*%
%TA.AperFunction,Conductor*%
%TO.N,/VS*%
G36*
X130371121Y-91714502D02*
G01*
X130417614Y-91768158D01*
X130429000Y-91820500D01*
X130429000Y-97156000D01*
X130408998Y-97224121D01*
X130355342Y-97270614D01*
X130303000Y-97282000D01*
X128777000Y-97282000D01*
X128708879Y-97261998D01*
X128662386Y-97208342D01*
X128651000Y-97156000D01*
X128651000Y-91820500D01*
X128671002Y-91752379D01*
X128724658Y-91705886D01*
X128777000Y-91694500D01*
X130303000Y-91694500D01*
X130371121Y-91714502D01*
G37*
%TD.AperFunction*%
%TD*%
%TA.AperFunction,Conductor*%
%TO.N,/VD2*%
G36*
X135451121Y-91714502D02*
G01*
X135497614Y-91768158D01*
X135509000Y-91820500D01*
X135509000Y-97156000D01*
X135488998Y-97224121D01*
X135435342Y-97270614D01*
X135383000Y-97282000D01*
X133857000Y-97282000D01*
X133788879Y-97261998D01*
X133742386Y-97208342D01*
X133731000Y-97156000D01*
X133731000Y-91820500D01*
X133751002Y-91752379D01*
X133804658Y-91705886D01*
X133857000Y-91694500D01*
X135383000Y-91694500D01*
X135451121Y-91714502D01*
G37*
%TD.AperFunction*%
%TD*%
%TA.AperFunction,Conductor*%
%TO.N,/VD1*%
G36*
X125291121Y-91714502D02*
G01*
X125337614Y-91768158D01*
X125349000Y-91820500D01*
X125349000Y-97156000D01*
X125328998Y-97224121D01*
X125275342Y-97270614D01*
X125223000Y-97282000D01*
X123697000Y-97282000D01*
X123628879Y-97261998D01*
X123582386Y-97208342D01*
X123571000Y-97156000D01*
X123571000Y-91820500D01*
X123591002Y-91752379D01*
X123644658Y-91705886D01*
X123697000Y-91694500D01*
X125223000Y-91694500D01*
X125291121Y-91714502D01*
G37*
%TD.AperFunction*%
%TD*%
%TA.AperFunction,Conductor*%
%TO.N,/VD2*%
G36*
X112652187Y-92330578D02*
G01*
X112672207Y-92333213D01*
X112726035Y-92340299D01*
X112757800Y-92348810D01*
X112818929Y-92374131D01*
X112847409Y-92390574D01*
X112899897Y-92430850D01*
X112923149Y-92454102D01*
X112958770Y-92500524D01*
X112963424Y-92506589D01*
X112979870Y-92535073D01*
X113005187Y-92596193D01*
X113013700Y-92627965D01*
X113017835Y-92659377D01*
X113023422Y-92701810D01*
X113024500Y-92718257D01*
X113024500Y-95759000D01*
X113004498Y-95827121D01*
X112950842Y-95873614D01*
X112898500Y-95885000D01*
X112125232Y-95885000D01*
X112079256Y-95861985D01*
X112067711Y-95842526D01*
X111379001Y-95153816D01*
X111379000Y-95153816D01*
X110686317Y-95846497D01*
X110662506Y-95874783D01*
X110629460Y-95885000D01*
X109585232Y-95885000D01*
X109539256Y-95861985D01*
X109527711Y-95842526D01*
X108839001Y-95153816D01*
X108839000Y-95153816D01*
X108146317Y-95846497D01*
X108122506Y-95874783D01*
X108089460Y-95885000D01*
X107437000Y-95885000D01*
X107437000Y-97029000D01*
X107416998Y-97097121D01*
X107363342Y-97143614D01*
X107311000Y-97155000D01*
X100959500Y-97155000D01*
X100891379Y-97134998D01*
X100844886Y-97081342D01*
X100833500Y-97029000D01*
X100833500Y-94508126D01*
X107481000Y-94508126D01*
X107481000Y-94721873D01*
X107514440Y-94933003D01*
X107580490Y-95136286D01*
X107580495Y-95136298D01*
X107647459Y-95267723D01*
X108300184Y-94614999D01*
X108234359Y-94549174D01*
X108339000Y-94549174D01*
X108339000Y-94680826D01*
X108373075Y-94807993D01*
X108438901Y-94922007D01*
X108531993Y-95015099D01*
X108646007Y-95080925D01*
X108773174Y-95115000D01*
X108904826Y-95115000D01*
X109031993Y-95080925D01*
X109146007Y-95015099D01*
X109239099Y-94922007D01*
X109304925Y-94807993D01*
X109339000Y-94680826D01*
X109339000Y-94614999D01*
X109377816Y-94614999D01*
X109377816Y-94615001D01*
X110030538Y-95267723D01*
X110089288Y-95258418D01*
X110128710Y-95258418D01*
X110187460Y-95267722D01*
X110840184Y-94614999D01*
X110774359Y-94549174D01*
X110879000Y-94549174D01*
X110879000Y-94680826D01*
X110913075Y-94807993D01*
X110978901Y-94922007D01*
X111071993Y-95015099D01*
X111186007Y-95080925D01*
X111313174Y-95115000D01*
X111444826Y-95115000D01*
X111571993Y-95080925D01*
X111686007Y-95015099D01*
X111779099Y-94922007D01*
X111844925Y-94807993D01*
X111879000Y-94680826D01*
X111879000Y-94614999D01*
X111917816Y-94614999D01*
X111917816Y-94615001D01*
X112570538Y-95267723D01*
X112570538Y-95267722D01*
X112637506Y-95136292D01*
X112637509Y-95136286D01*
X112703559Y-94933003D01*
X112737000Y-94721873D01*
X112737000Y-94508126D01*
X112703559Y-94296996D01*
X112637509Y-94093713D01*
X112637506Y-94093707D01*
X112570538Y-93962276D01*
X111917816Y-94614999D01*
X111879000Y-94614999D01*
X111879000Y-94549174D01*
X111844925Y-94422007D01*
X111779099Y-94307993D01*
X111686007Y-94214901D01*
X111571993Y-94149075D01*
X111444826Y-94115000D01*
X111313174Y-94115000D01*
X111186007Y-94149075D01*
X111071993Y-94214901D01*
X110978901Y-94307993D01*
X110913075Y-94422007D01*
X110879000Y-94549174D01*
X110774359Y-94549174D01*
X110187461Y-93962276D01*
X110128713Y-93971581D01*
X110089292Y-93971581D01*
X110030539Y-93962275D01*
X109377816Y-94614999D01*
X109339000Y-94614999D01*
X109339000Y-94549174D01*
X109304925Y-94422007D01*
X109239099Y-94307993D01*
X109146007Y-94214901D01*
X109031993Y-94149075D01*
X108904826Y-94115000D01*
X108773174Y-94115000D01*
X108646007Y-94149075D01*
X108531993Y-94214901D01*
X108438901Y-94307993D01*
X108373075Y-94422007D01*
X108339000Y-94549174D01*
X108234359Y-94549174D01*
X107647461Y-93962276D01*
X107647459Y-93962276D01*
X107580495Y-94093701D01*
X107580490Y-94093713D01*
X107514440Y-94296996D01*
X107481000Y-94508126D01*
X100833500Y-94508126D01*
X100833500Y-93532055D01*
X101213500Y-93532055D01*
X101213500Y-93665945D01*
X101248153Y-93795274D01*
X101248154Y-93795276D01*
X101248155Y-93795278D01*
X101315097Y-93911224D01*
X101315099Y-93911227D01*
X101409772Y-94005900D01*
X101409775Y-94005902D01*
X101501226Y-94058701D01*
X101525726Y-94072847D01*
X101655055Y-94107500D01*
X101655057Y-94107500D01*
X101788943Y-94107500D01*
X101788945Y-94107500D01*
X101918274Y-94072847D01*
X102034226Y-94005901D01*
X102128901Y-93911226D01*
X102195847Y-93795274D01*
X102230500Y-93665945D01*
X102230500Y-93532055D01*
X102201402Y-93423459D01*
X108186276Y-93423459D01*
X108186276Y-93423461D01*
X108838999Y-94076184D01*
X108839000Y-94076184D01*
X109491723Y-93423459D01*
X110726276Y-93423459D01*
X110726276Y-93423461D01*
X111378999Y-94076184D01*
X111379000Y-94076184D01*
X112031723Y-93423459D01*
X111900298Y-93356495D01*
X111900286Y-93356490D01*
X111697003Y-93290440D01*
X111485874Y-93257000D01*
X111272126Y-93257000D01*
X111060996Y-93290440D01*
X110857713Y-93356490D01*
X110857701Y-93356495D01*
X110726276Y-93423459D01*
X109491723Y-93423459D01*
X109360298Y-93356495D01*
X109360286Y-93356490D01*
X109157003Y-93290440D01*
X108945874Y-93257000D01*
X108732126Y-93257000D01*
X108520996Y-93290440D01*
X108317713Y-93356490D01*
X108317701Y-93356495D01*
X108186276Y-93423459D01*
X102201402Y-93423459D01*
X102195847Y-93402726D01*
X102128901Y-93286774D01*
X102128900Y-93286772D01*
X102034227Y-93192099D01*
X102034224Y-93192097D01*
X101918278Y-93125155D01*
X101918276Y-93125154D01*
X101918274Y-93125153D01*
X101788945Y-93090500D01*
X101655055Y-93090500D01*
X101525726Y-93125153D01*
X101525724Y-93125154D01*
X101525721Y-93125155D01*
X101409775Y-93192097D01*
X101409772Y-93192099D01*
X101315099Y-93286772D01*
X101315097Y-93286775D01*
X101248155Y-93402721D01*
X101248154Y-93402724D01*
X101248153Y-93402726D01*
X101213500Y-93532055D01*
X100833500Y-93532055D01*
X100833500Y-92718257D01*
X100834578Y-92701812D01*
X100835321Y-92696161D01*
X100844300Y-92627962D01*
X100852809Y-92596201D01*
X100878132Y-92535066D01*
X100894572Y-92506593D01*
X100934854Y-92454097D01*
X100958097Y-92430854D01*
X101010593Y-92390572D01*
X101039066Y-92374132D01*
X101100201Y-92348809D01*
X101131962Y-92340300D01*
X101189053Y-92332784D01*
X101205813Y-92330578D01*
X101222258Y-92329500D01*
X101258875Y-92329500D01*
X112599125Y-92329500D01*
X112635742Y-92329500D01*
X112652187Y-92330578D01*
G37*
%TD.AperFunction*%
%TD*%
%TA.AperFunction,Conductor*%
%TO.N,/VD1*%
G36*
X106411688Y-102255002D02*
G01*
X106458181Y-102308658D01*
X106468285Y-102378932D01*
X106456993Y-102411550D01*
X106458314Y-102412097D01*
X106455155Y-102419720D01*
X106455153Y-102419726D01*
X106420500Y-102549055D01*
X106420500Y-102682945D01*
X106455153Y-102812274D01*
X106455154Y-102812276D01*
X106455155Y-102812278D01*
X106522097Y-102928224D01*
X106522099Y-102928227D01*
X106616772Y-103022900D01*
X106616775Y-103022902D01*
X106708226Y-103075701D01*
X106732726Y-103089847D01*
X106862055Y-103124500D01*
X106862057Y-103124500D01*
X106995943Y-103124500D01*
X106995945Y-103124500D01*
X107125274Y-103089847D01*
X107241226Y-103022901D01*
X107241227Y-103022899D01*
X107247999Y-103018990D01*
X107316995Y-103002252D01*
X107384087Y-103025472D01*
X107427974Y-103081279D01*
X107437000Y-103128109D01*
X107437000Y-103505000D01*
X108092764Y-103505000D01*
X108138739Y-103528013D01*
X108150281Y-103547466D01*
X108838999Y-104236184D01*
X108839000Y-104236184D01*
X109531669Y-103543513D01*
X109555479Y-103515224D01*
X109588532Y-103505000D01*
X109961993Y-103505000D01*
X110030114Y-103525002D01*
X110076607Y-103578658D01*
X110086711Y-103648932D01*
X110080049Y-103675033D01*
X110027505Y-103815907D01*
X110023581Y-103852404D01*
X110072901Y-103901724D01*
X110106927Y-103964036D01*
X110101862Y-104034851D01*
X110072901Y-104079914D01*
X109377816Y-104774999D01*
X110072901Y-105470084D01*
X110106926Y-105532397D01*
X110101862Y-105603212D01*
X110072901Y-105648275D01*
X110023582Y-105697593D01*
X110023581Y-105697596D01*
X110027505Y-105734093D01*
X110078555Y-105870964D01*
X110078555Y-105870965D01*
X110166095Y-105987904D01*
X110283034Y-106075444D01*
X110419906Y-106126494D01*
X110480402Y-106132999D01*
X110480415Y-106133000D01*
X110998000Y-106133000D01*
X111760000Y-106133000D01*
X112277585Y-106133000D01*
X112277597Y-106132999D01*
X112338093Y-106126494D01*
X112474964Y-106075444D01*
X112474965Y-106075444D01*
X112591904Y-105987904D01*
X112679444Y-105870965D01*
X112679444Y-105870964D01*
X112730494Y-105734093D01*
X112736999Y-105673597D01*
X112737000Y-105673585D01*
X112737000Y-105156000D01*
X111760000Y-105156000D01*
X111760000Y-106133000D01*
X110998000Y-106133000D01*
X110998000Y-105101106D01*
X111071993Y-105175099D01*
X111186007Y-105240925D01*
X111313174Y-105275000D01*
X111444826Y-105275000D01*
X111571993Y-105240925D01*
X111686007Y-105175099D01*
X111779099Y-105082007D01*
X111844925Y-104967993D01*
X111879000Y-104840826D01*
X111879000Y-104709174D01*
X111844925Y-104582007D01*
X111779099Y-104467993D01*
X111705106Y-104394000D01*
X112737000Y-104394000D01*
X112737000Y-103876414D01*
X112736999Y-103876402D01*
X112730494Y-103815907D01*
X112677951Y-103675033D01*
X112672886Y-103604217D01*
X112706911Y-103541905D01*
X112769224Y-103507880D01*
X112796007Y-103505000D01*
X112898500Y-103505000D01*
X112966621Y-103525002D01*
X113013114Y-103578658D01*
X113024500Y-103631000D01*
X113024500Y-106671742D01*
X113023422Y-106688187D01*
X113023422Y-106688189D01*
X113013700Y-106762034D01*
X113005187Y-106793806D01*
X112979870Y-106854926D01*
X112963424Y-106883410D01*
X112923153Y-106935893D01*
X112899893Y-106959153D01*
X112847410Y-106999424D01*
X112818926Y-107015870D01*
X112757806Y-107041187D01*
X112726034Y-107049700D01*
X112670424Y-107057021D01*
X112652187Y-107059422D01*
X112635742Y-107060500D01*
X101222258Y-107060500D01*
X101205812Y-107059422D01*
X101131966Y-107049700D01*
X101100194Y-107041187D01*
X101039073Y-107015870D01*
X101010589Y-106999424D01*
X101004524Y-106994770D01*
X100958102Y-106959149D01*
X100934850Y-106935897D01*
X100894574Y-106883409D01*
X100878131Y-106854929D01*
X100852810Y-106793800D01*
X100844299Y-106762032D01*
X100834578Y-106688187D01*
X100833500Y-106671742D01*
X100833500Y-105724055D01*
X101213500Y-105724055D01*
X101213500Y-105857945D01*
X101248153Y-105987274D01*
X101248154Y-105987276D01*
X101248155Y-105987278D01*
X101315097Y-106103224D01*
X101315099Y-106103227D01*
X101409772Y-106197900D01*
X101409775Y-106197902D01*
X101501226Y-106250701D01*
X101525726Y-106264847D01*
X101655055Y-106299500D01*
X101655057Y-106299500D01*
X101788943Y-106299500D01*
X101788945Y-106299500D01*
X101918274Y-106264847D01*
X102034226Y-106197901D01*
X102128901Y-106103226D01*
X102195847Y-105987274D01*
X102201403Y-105966538D01*
X108186276Y-105966538D01*
X108317707Y-106033506D01*
X108317713Y-106033509D01*
X108520996Y-106099559D01*
X108732126Y-106133000D01*
X108945874Y-106133000D01*
X109157003Y-106099559D01*
X109360286Y-106033509D01*
X109360292Y-106033506D01*
X109491722Y-105966538D01*
X109491723Y-105966538D01*
X108839001Y-105313816D01*
X108839000Y-105313816D01*
X108186276Y-105966538D01*
X102201403Y-105966538D01*
X102230500Y-105857945D01*
X102230500Y-105724055D01*
X102195847Y-105594726D01*
X102128901Y-105478774D01*
X102128900Y-105478772D01*
X102034227Y-105384099D01*
X102034224Y-105384097D01*
X101918278Y-105317155D01*
X101918276Y-105317154D01*
X101918274Y-105317153D01*
X101788945Y-105282500D01*
X101655055Y-105282500D01*
X101525726Y-105317153D01*
X101525724Y-105317154D01*
X101525721Y-105317155D01*
X101409775Y-105384097D01*
X101409772Y-105384099D01*
X101315099Y-105478772D01*
X101315097Y-105478775D01*
X101248155Y-105594721D01*
X101248154Y-105594724D01*
X101248153Y-105594726D01*
X101213500Y-105724055D01*
X100833500Y-105724055D01*
X100833500Y-104668126D01*
X107481000Y-104668126D01*
X107481000Y-104881873D01*
X107514440Y-105093003D01*
X107580490Y-105296286D01*
X107580495Y-105296298D01*
X107647459Y-105427723D01*
X108300184Y-104774999D01*
X108234359Y-104709174D01*
X108339000Y-104709174D01*
X108339000Y-104840826D01*
X108373075Y-104967993D01*
X108438901Y-105082007D01*
X108531993Y-105175099D01*
X108646007Y-105240925D01*
X108773174Y-105275000D01*
X108904826Y-105275000D01*
X109031993Y-105240925D01*
X109146007Y-105175099D01*
X109239099Y-105082007D01*
X109304925Y-104967993D01*
X109339000Y-104840826D01*
X109339000Y-104709174D01*
X109304925Y-104582007D01*
X109239099Y-104467993D01*
X109146007Y-104374901D01*
X109031993Y-104309075D01*
X108904826Y-104275000D01*
X108773174Y-104275000D01*
X108646007Y-104309075D01*
X108531993Y-104374901D01*
X108438901Y-104467993D01*
X108373075Y-104582007D01*
X108339000Y-104709174D01*
X108234359Y-104709174D01*
X107647461Y-104122276D01*
X107647459Y-104122276D01*
X107580495Y-104253701D01*
X107580490Y-104253713D01*
X107514440Y-104456996D01*
X107481000Y-104668126D01*
X100833500Y-104668126D01*
X100833500Y-102361000D01*
X100853502Y-102292879D01*
X100907158Y-102246386D01*
X100959500Y-102235000D01*
X106343567Y-102235000D01*
X106411688Y-102255002D01*
G37*
%TD.AperFunction*%
%TD*%
D19*
X112644000Y-92075000D02*
G75*
G02*
X113279000Y-92710000I0J-635000D01*
G01*
X101214000Y-92075000D02*
X112644000Y-92075000D01*
X113279000Y-101219000D02*
X113279000Y-106680000D01*
X144780000Y-107315000D02*
G75*
G02*
X144145000Y-107950000I-635000J0D01*
G01*
X113279000Y-106680000D02*
G75*
G02*
X112644000Y-107315000I-635000J0D01*
G01*
X112644000Y-107315000D02*
X101214000Y-107315000D01*
X100579000Y-106680000D02*
X100579000Y-92710000D01*
X114300000Y-107315000D02*
X114300000Y-101219000D01*
X114935000Y-91440000D02*
X144145000Y-91440000D01*
X113284000Y-101219000D02*
G75*
G02*
X114300000Y-101219000I508000J0D01*
G01*
X114935000Y-107950000D02*
G75*
G02*
X114300000Y-107315000I0J635000D01*
G01*
X144145000Y-107950000D02*
X114935000Y-107950000D01*
X101214000Y-107315000D02*
G75*
G02*
X100579000Y-106680000I0J635000D01*
G01*
X100579000Y-92710000D02*
G75*
G02*
X101214000Y-92075000I635000J0D01*
G01*
X113279000Y-92710000D02*
X113279000Y-98171000D01*
X114300000Y-92075000D02*
G75*
G02*
X114935000Y-91440000I635000J0D01*
G01*
X144145000Y-91440000D02*
G75*
G02*
X144780000Y-92075000I0J-635000D01*
G01*
X114300000Y-98171000D02*
X114300000Y-92075000D01*
X114300000Y-98171000D02*
G75*
G02*
X113284000Y-98171000I-508000J0D01*
G01*
X144780000Y-92075000D02*
X144780000Y-107315000D01*
M02*
