%TF.GenerationSoftware,KiCad,Pcbnew,9.0.7*%
%TF.CreationDate,2026-03-19T22:08:16-04:00*%
%TF.ProjectId,MOSFET_Load_Switch,4d4f5346-4554-45f4-9c6f-61645f537769,1.1*%
%TF.SameCoordinates,Original*%
%TF.FileFunction,Drillmap*%
%TF.FilePolarity,Positive*%
%FSLAX45Y45*%
G04 Gerber Fmt 4.5, Leading zero omitted, Abs format (unit mm)*
G04 Created by KiCad (PCBNEW 9.0.7) date 2026-03-19 22:08:16*
%MOMM*%
%LPD*%
G01*
G04 APERTURE LIST*
%ADD10C,0.050800*%
%ADD11C,0.200000*%
%ADD12C,0.100000*%
G04 APERTURE END LIST*
D10*
X11264400Y-9207500D02*
G75*
G02*
X11327900Y-9271000I0J-63500D01*
G01*
X10121400Y-9207500D02*
X11264400Y-9207500D01*
X11327900Y-10121900D02*
X11327900Y-10668000D01*
X14478000Y-10731500D02*
G75*
G02*
X14414500Y-10795000I-63500J0D01*
G01*
X11327900Y-10668000D02*
G75*
G02*
X11264400Y-10731500I-63500J0D01*
G01*
X11264400Y-10731500D02*
X10121400Y-10731500D01*
X10057900Y-10668000D02*
X10057900Y-9271000D01*
X11430000Y-10731500D02*
X11430000Y-10121900D01*
X11493500Y-9144000D02*
X14414500Y-9144000D01*
X11328400Y-10121900D02*
G75*
G02*
X11430000Y-10121900I50800J0D01*
G01*
X11493500Y-10795000D02*
G75*
G02*
X11430000Y-10731500I0J63500D01*
G01*
X14414500Y-10795000D02*
X11493500Y-10795000D01*
X10121400Y-10731500D02*
G75*
G02*
X10057900Y-10668000I0J63500D01*
G01*
X10057900Y-9271000D02*
G75*
G02*
X10121400Y-9207500I63500J0D01*
G01*
X11327900Y-9271000D02*
X11327900Y-9817100D01*
X11430000Y-9207500D02*
G75*
G02*
X11493500Y-9144000I63500J0D01*
G01*
X14414500Y-9144000D02*
G75*
G02*
X14478000Y-9207500I0J-63500D01*
G01*
X11430000Y-9817100D02*
X11430000Y-9207500D01*
X11430000Y-9817100D02*
G75*
G02*
X11328400Y-9817100I-50800J0D01*
G01*
X14478000Y-9207500D02*
X14478000Y-10731500D01*
D11*
D12*
X11324200Y-9873500D02*
X11374200Y-9923500D01*
X11374200Y-9873500D02*
X11324200Y-9923500D01*
X11324200Y-9944500D02*
X11374200Y-9994500D01*
X11374200Y-9944500D02*
X11324200Y-9994500D01*
X11324200Y-10015500D02*
X11374200Y-10065500D01*
X11374200Y-10015500D02*
X11324200Y-10065500D01*
X11384200Y-9874500D02*
X11434200Y-9924500D01*
X11434200Y-9874500D02*
X11384200Y-9924500D01*
X11384200Y-9944500D02*
X11434200Y-9994500D01*
X11434200Y-9944500D02*
X11384200Y-9994500D01*
X11384200Y-10015500D02*
X11434200Y-10065500D01*
X11434200Y-10015500D02*
X11384200Y-10065500D01*
D11*
X10316137Y-11109024D02*
X10316137Y-10909024D01*
X10316137Y-10909024D02*
X10363756Y-10909024D01*
X10363756Y-10909024D02*
X10392327Y-10918548D01*
X10392327Y-10918548D02*
X10411375Y-10937595D01*
X10411375Y-10937595D02*
X10420899Y-10956643D01*
X10420899Y-10956643D02*
X10430423Y-10994738D01*
X10430423Y-10994738D02*
X10430423Y-11023310D01*
X10430423Y-11023310D02*
X10420899Y-11061405D01*
X10420899Y-11061405D02*
X10411375Y-11080452D01*
X10411375Y-11080452D02*
X10392327Y-11099500D01*
X10392327Y-11099500D02*
X10363756Y-11109024D01*
X10363756Y-11109024D02*
X10316137Y-11109024D01*
X10516137Y-11109024D02*
X10516137Y-10975690D01*
X10516137Y-11013786D02*
X10525661Y-10994738D01*
X10525661Y-10994738D02*
X10535184Y-10985214D01*
X10535184Y-10985214D02*
X10554232Y-10975690D01*
X10554232Y-10975690D02*
X10573280Y-10975690D01*
X10639946Y-11109024D02*
X10639946Y-10975690D01*
X10639946Y-10909024D02*
X10630423Y-10918548D01*
X10630423Y-10918548D02*
X10639946Y-10928071D01*
X10639946Y-10928071D02*
X10649470Y-10918548D01*
X10649470Y-10918548D02*
X10639946Y-10909024D01*
X10639946Y-10909024D02*
X10639946Y-10928071D01*
X10763756Y-11109024D02*
X10744708Y-11099500D01*
X10744708Y-11099500D02*
X10735184Y-11080452D01*
X10735184Y-11080452D02*
X10735184Y-10909024D01*
X10868518Y-11109024D02*
X10849470Y-11099500D01*
X10849470Y-11099500D02*
X10839946Y-11080452D01*
X10839946Y-11080452D02*
X10839946Y-10909024D01*
X11097089Y-11109024D02*
X11097089Y-10909024D01*
X11097089Y-10909024D02*
X11163756Y-11051881D01*
X11163756Y-11051881D02*
X11230422Y-10909024D01*
X11230422Y-10909024D02*
X11230422Y-11109024D01*
X11411375Y-11109024D02*
X11411375Y-11004262D01*
X11411375Y-11004262D02*
X11401851Y-10985214D01*
X11401851Y-10985214D02*
X11382803Y-10975690D01*
X11382803Y-10975690D02*
X11344708Y-10975690D01*
X11344708Y-10975690D02*
X11325661Y-10985214D01*
X11411375Y-11099500D02*
X11392327Y-11109024D01*
X11392327Y-11109024D02*
X11344708Y-11109024D01*
X11344708Y-11109024D02*
X11325661Y-11099500D01*
X11325661Y-11099500D02*
X11316137Y-11080452D01*
X11316137Y-11080452D02*
X11316137Y-11061405D01*
X11316137Y-11061405D02*
X11325661Y-11042357D01*
X11325661Y-11042357D02*
X11344708Y-11032833D01*
X11344708Y-11032833D02*
X11392327Y-11032833D01*
X11392327Y-11032833D02*
X11411375Y-11023310D01*
X11506613Y-10975690D02*
X11506613Y-11175690D01*
X11506613Y-10985214D02*
X11525661Y-10975690D01*
X11525661Y-10975690D02*
X11563756Y-10975690D01*
X11563756Y-10975690D02*
X11582803Y-10985214D01*
X11582803Y-10985214D02*
X11592327Y-10994738D01*
X11592327Y-10994738D02*
X11601851Y-11013786D01*
X11601851Y-11013786D02*
X11601851Y-11070929D01*
X11601851Y-11070929D02*
X11592327Y-11089976D01*
X11592327Y-11089976D02*
X11582803Y-11099500D01*
X11582803Y-11099500D02*
X11563756Y-11109024D01*
X11563756Y-11109024D02*
X11525661Y-11109024D01*
X11525661Y-11109024D02*
X11506613Y-11099500D01*
X11687565Y-11089976D02*
X11697089Y-11099500D01*
X11697089Y-11099500D02*
X11687565Y-11109024D01*
X11687565Y-11109024D02*
X11678042Y-11099500D01*
X11678042Y-11099500D02*
X11687565Y-11089976D01*
X11687565Y-11089976D02*
X11687565Y-11109024D01*
X11687565Y-10985214D02*
X11697089Y-10994738D01*
X11697089Y-10994738D02*
X11687565Y-11004262D01*
X11687565Y-11004262D02*
X11678042Y-10994738D01*
X11678042Y-10994738D02*
X11687565Y-10985214D01*
X11687565Y-10985214D02*
X11687565Y-11004262D01*
D12*
X10005360Y-11412540D02*
X10055360Y-11462540D01*
X10055360Y-11412540D02*
X10005360Y-11462540D01*
D11*
X10354232Y-11329024D02*
X10373280Y-11329024D01*
X10373280Y-11329024D02*
X10392327Y-11338548D01*
X10392327Y-11338548D02*
X10401851Y-11348071D01*
X10401851Y-11348071D02*
X10411375Y-11367119D01*
X10411375Y-11367119D02*
X10420899Y-11405214D01*
X10420899Y-11405214D02*
X10420899Y-11452833D01*
X10420899Y-11452833D02*
X10411375Y-11490928D01*
X10411375Y-11490928D02*
X10401851Y-11509976D01*
X10401851Y-11509976D02*
X10392327Y-11519500D01*
X10392327Y-11519500D02*
X10373280Y-11529024D01*
X10373280Y-11529024D02*
X10354232Y-11529024D01*
X10354232Y-11529024D02*
X10335184Y-11519500D01*
X10335184Y-11519500D02*
X10325661Y-11509976D01*
X10325661Y-11509976D02*
X10316137Y-11490928D01*
X10316137Y-11490928D02*
X10306613Y-11452833D01*
X10306613Y-11452833D02*
X10306613Y-11405214D01*
X10306613Y-11405214D02*
X10316137Y-11367119D01*
X10316137Y-11367119D02*
X10325661Y-11348071D01*
X10325661Y-11348071D02*
X10335184Y-11338548D01*
X10335184Y-11338548D02*
X10354232Y-11329024D01*
X10506613Y-11509976D02*
X10516137Y-11519500D01*
X10516137Y-11519500D02*
X10506613Y-11529024D01*
X10506613Y-11529024D02*
X10497089Y-11519500D01*
X10497089Y-11519500D02*
X10506613Y-11509976D01*
X10506613Y-11509976D02*
X10506613Y-11529024D01*
X10697089Y-11329024D02*
X10601851Y-11329024D01*
X10601851Y-11329024D02*
X10592327Y-11424262D01*
X10592327Y-11424262D02*
X10601851Y-11414738D01*
X10601851Y-11414738D02*
X10620899Y-11405214D01*
X10620899Y-11405214D02*
X10668518Y-11405214D01*
X10668518Y-11405214D02*
X10687565Y-11414738D01*
X10687565Y-11414738D02*
X10697089Y-11424262D01*
X10697089Y-11424262D02*
X10706613Y-11443309D01*
X10706613Y-11443309D02*
X10706613Y-11490928D01*
X10706613Y-11490928D02*
X10697089Y-11509976D01*
X10697089Y-11509976D02*
X10687565Y-11519500D01*
X10687565Y-11519500D02*
X10668518Y-11529024D01*
X10668518Y-11529024D02*
X10620899Y-11529024D01*
X10620899Y-11529024D02*
X10601851Y-11519500D01*
X10601851Y-11519500D02*
X10592327Y-11509976D01*
X10830423Y-11329024D02*
X10849470Y-11329024D01*
X10849470Y-11329024D02*
X10868518Y-11338548D01*
X10868518Y-11338548D02*
X10878042Y-11348071D01*
X10878042Y-11348071D02*
X10887565Y-11367119D01*
X10887565Y-11367119D02*
X10897089Y-11405214D01*
X10897089Y-11405214D02*
X10897089Y-11452833D01*
X10897089Y-11452833D02*
X10887565Y-11490928D01*
X10887565Y-11490928D02*
X10878042Y-11509976D01*
X10878042Y-11509976D02*
X10868518Y-11519500D01*
X10868518Y-11519500D02*
X10849470Y-11529024D01*
X10849470Y-11529024D02*
X10830423Y-11529024D01*
X10830423Y-11529024D02*
X10811375Y-11519500D01*
X10811375Y-11519500D02*
X10801851Y-11509976D01*
X10801851Y-11509976D02*
X10792327Y-11490928D01*
X10792327Y-11490928D02*
X10782804Y-11452833D01*
X10782804Y-11452833D02*
X10782804Y-11405214D01*
X10782804Y-11405214D02*
X10792327Y-11367119D01*
X10792327Y-11367119D02*
X10801851Y-11348071D01*
X10801851Y-11348071D02*
X10811375Y-11338548D01*
X10811375Y-11338548D02*
X10830423Y-11329024D01*
X11020899Y-11329024D02*
X11039946Y-11329024D01*
X11039946Y-11329024D02*
X11058994Y-11338548D01*
X11058994Y-11338548D02*
X11068518Y-11348071D01*
X11068518Y-11348071D02*
X11078042Y-11367119D01*
X11078042Y-11367119D02*
X11087565Y-11405214D01*
X11087565Y-11405214D02*
X11087565Y-11452833D01*
X11087565Y-11452833D02*
X11078042Y-11490928D01*
X11078042Y-11490928D02*
X11068518Y-11509976D01*
X11068518Y-11509976D02*
X11058994Y-11519500D01*
X11058994Y-11519500D02*
X11039946Y-11529024D01*
X11039946Y-11529024D02*
X11020899Y-11529024D01*
X11020899Y-11529024D02*
X11001851Y-11519500D01*
X11001851Y-11519500D02*
X10992327Y-11509976D01*
X10992327Y-11509976D02*
X10982804Y-11490928D01*
X10982804Y-11490928D02*
X10973280Y-11452833D01*
X10973280Y-11452833D02*
X10973280Y-11405214D01*
X10973280Y-11405214D02*
X10982804Y-11367119D01*
X10982804Y-11367119D02*
X10992327Y-11348071D01*
X10992327Y-11348071D02*
X11001851Y-11338548D01*
X11001851Y-11338548D02*
X11020899Y-11329024D01*
X11173280Y-11529024D02*
X11173280Y-11395690D01*
X11173280Y-11414738D02*
X11182804Y-11405214D01*
X11182804Y-11405214D02*
X11201851Y-11395690D01*
X11201851Y-11395690D02*
X11230423Y-11395690D01*
X11230423Y-11395690D02*
X11249470Y-11405214D01*
X11249470Y-11405214D02*
X11258994Y-11424262D01*
X11258994Y-11424262D02*
X11258994Y-11529024D01*
X11258994Y-11424262D02*
X11268518Y-11405214D01*
X11268518Y-11405214D02*
X11287565Y-11395690D01*
X11287565Y-11395690D02*
X11316137Y-11395690D01*
X11316137Y-11395690D02*
X11335184Y-11405214D01*
X11335184Y-11405214D02*
X11344708Y-11424262D01*
X11344708Y-11424262D02*
X11344708Y-11529024D01*
X11439946Y-11529024D02*
X11439946Y-11395690D01*
X11439946Y-11414738D02*
X11449470Y-11405214D01*
X11449470Y-11405214D02*
X11468518Y-11395690D01*
X11468518Y-11395690D02*
X11497089Y-11395690D01*
X11497089Y-11395690D02*
X11516137Y-11405214D01*
X11516137Y-11405214D02*
X11525661Y-11424262D01*
X11525661Y-11424262D02*
X11525661Y-11529024D01*
X11525661Y-11424262D02*
X11535184Y-11405214D01*
X11535184Y-11405214D02*
X11554232Y-11395690D01*
X11554232Y-11395690D02*
X11582803Y-11395690D01*
X11582803Y-11395690D02*
X11601851Y-11405214D01*
X11601851Y-11405214D02*
X11611375Y-11424262D01*
X11611375Y-11424262D02*
X11611375Y-11529024D01*
X12001851Y-11319500D02*
X11830423Y-11576643D01*
X12258994Y-11329024D02*
X12278042Y-11329024D01*
X12278042Y-11329024D02*
X12297089Y-11338548D01*
X12297089Y-11338548D02*
X12306613Y-11348071D01*
X12306613Y-11348071D02*
X12316137Y-11367119D01*
X12316137Y-11367119D02*
X12325661Y-11405214D01*
X12325661Y-11405214D02*
X12325661Y-11452833D01*
X12325661Y-11452833D02*
X12316137Y-11490928D01*
X12316137Y-11490928D02*
X12306613Y-11509976D01*
X12306613Y-11509976D02*
X12297089Y-11519500D01*
X12297089Y-11519500D02*
X12278042Y-11529024D01*
X12278042Y-11529024D02*
X12258994Y-11529024D01*
X12258994Y-11529024D02*
X12239946Y-11519500D01*
X12239946Y-11519500D02*
X12230423Y-11509976D01*
X12230423Y-11509976D02*
X12220899Y-11490928D01*
X12220899Y-11490928D02*
X12211375Y-11452833D01*
X12211375Y-11452833D02*
X12211375Y-11405214D01*
X12211375Y-11405214D02*
X12220899Y-11367119D01*
X12220899Y-11367119D02*
X12230423Y-11348071D01*
X12230423Y-11348071D02*
X12239946Y-11338548D01*
X12239946Y-11338548D02*
X12258994Y-11329024D01*
X12411375Y-11509976D02*
X12420899Y-11519500D01*
X12420899Y-11519500D02*
X12411375Y-11529024D01*
X12411375Y-11529024D02*
X12401851Y-11519500D01*
X12401851Y-11519500D02*
X12411375Y-11509976D01*
X12411375Y-11509976D02*
X12411375Y-11529024D01*
X12544708Y-11329024D02*
X12563756Y-11329024D01*
X12563756Y-11329024D02*
X12582804Y-11338548D01*
X12582804Y-11338548D02*
X12592327Y-11348071D01*
X12592327Y-11348071D02*
X12601851Y-11367119D01*
X12601851Y-11367119D02*
X12611375Y-11405214D01*
X12611375Y-11405214D02*
X12611375Y-11452833D01*
X12611375Y-11452833D02*
X12601851Y-11490928D01*
X12601851Y-11490928D02*
X12592327Y-11509976D01*
X12592327Y-11509976D02*
X12582804Y-11519500D01*
X12582804Y-11519500D02*
X12563756Y-11529024D01*
X12563756Y-11529024D02*
X12544708Y-11529024D01*
X12544708Y-11529024D02*
X12525661Y-11519500D01*
X12525661Y-11519500D02*
X12516137Y-11509976D01*
X12516137Y-11509976D02*
X12506613Y-11490928D01*
X12506613Y-11490928D02*
X12497089Y-11452833D01*
X12497089Y-11452833D02*
X12497089Y-11405214D01*
X12497089Y-11405214D02*
X12506613Y-11367119D01*
X12506613Y-11367119D02*
X12516137Y-11348071D01*
X12516137Y-11348071D02*
X12525661Y-11338548D01*
X12525661Y-11338548D02*
X12544708Y-11329024D01*
X12801851Y-11529024D02*
X12687566Y-11529024D01*
X12744708Y-11529024D02*
X12744708Y-11329024D01*
X12744708Y-11329024D02*
X12725661Y-11357595D01*
X12725661Y-11357595D02*
X12706613Y-11376643D01*
X12706613Y-11376643D02*
X12687566Y-11386167D01*
X12897089Y-11529024D02*
X12935185Y-11529024D01*
X12935185Y-11529024D02*
X12954232Y-11519500D01*
X12954232Y-11519500D02*
X12963756Y-11509976D01*
X12963756Y-11509976D02*
X12982804Y-11481405D01*
X12982804Y-11481405D02*
X12992327Y-11443309D01*
X12992327Y-11443309D02*
X12992327Y-11367119D01*
X12992327Y-11367119D02*
X12982804Y-11348071D01*
X12982804Y-11348071D02*
X12973280Y-11338548D01*
X12973280Y-11338548D02*
X12954232Y-11329024D01*
X12954232Y-11329024D02*
X12916137Y-11329024D01*
X12916137Y-11329024D02*
X12897089Y-11338548D01*
X12897089Y-11338548D02*
X12887566Y-11348071D01*
X12887566Y-11348071D02*
X12878042Y-11367119D01*
X12878042Y-11367119D02*
X12878042Y-11414738D01*
X12878042Y-11414738D02*
X12887566Y-11433786D01*
X12887566Y-11433786D02*
X12897089Y-11443309D01*
X12897089Y-11443309D02*
X12916137Y-11452833D01*
X12916137Y-11452833D02*
X12954232Y-11452833D01*
X12954232Y-11452833D02*
X12973280Y-11443309D01*
X12973280Y-11443309D02*
X12982804Y-11433786D01*
X12982804Y-11433786D02*
X12992327Y-11414738D01*
X13058994Y-11329024D02*
X13192327Y-11329024D01*
X13192327Y-11329024D02*
X13106613Y-11529024D01*
X13258994Y-11329024D02*
X13258994Y-11367119D01*
X13335185Y-11329024D02*
X13335185Y-11367119D01*
X13630423Y-11605214D02*
X13620899Y-11595690D01*
X13620899Y-11595690D02*
X13601851Y-11567119D01*
X13601851Y-11567119D02*
X13592328Y-11548071D01*
X13592328Y-11548071D02*
X13582804Y-11519500D01*
X13582804Y-11519500D02*
X13573280Y-11471881D01*
X13573280Y-11471881D02*
X13573280Y-11433786D01*
X13573280Y-11433786D02*
X13582804Y-11386167D01*
X13582804Y-11386167D02*
X13592328Y-11357595D01*
X13592328Y-11357595D02*
X13601851Y-11338548D01*
X13601851Y-11338548D02*
X13620899Y-11309976D01*
X13620899Y-11309976D02*
X13630423Y-11300452D01*
X13792328Y-11329024D02*
X13754232Y-11329024D01*
X13754232Y-11329024D02*
X13735185Y-11338548D01*
X13735185Y-11338548D02*
X13725661Y-11348071D01*
X13725661Y-11348071D02*
X13706613Y-11376643D01*
X13706613Y-11376643D02*
X13697089Y-11414738D01*
X13697089Y-11414738D02*
X13697089Y-11490928D01*
X13697089Y-11490928D02*
X13706613Y-11509976D01*
X13706613Y-11509976D02*
X13716137Y-11519500D01*
X13716137Y-11519500D02*
X13735185Y-11529024D01*
X13735185Y-11529024D02*
X13773280Y-11529024D01*
X13773280Y-11529024D02*
X13792328Y-11519500D01*
X13792328Y-11519500D02*
X13801851Y-11509976D01*
X13801851Y-11509976D02*
X13811375Y-11490928D01*
X13811375Y-11490928D02*
X13811375Y-11443309D01*
X13811375Y-11443309D02*
X13801851Y-11424262D01*
X13801851Y-11424262D02*
X13792328Y-11414738D01*
X13792328Y-11414738D02*
X13773280Y-11405214D01*
X13773280Y-11405214D02*
X13735185Y-11405214D01*
X13735185Y-11405214D02*
X13716137Y-11414738D01*
X13716137Y-11414738D02*
X13706613Y-11424262D01*
X13706613Y-11424262D02*
X13697089Y-11443309D01*
X14049470Y-11529024D02*
X14049470Y-11329024D01*
X14135185Y-11529024D02*
X14135185Y-11424262D01*
X14135185Y-11424262D02*
X14125661Y-11405214D01*
X14125661Y-11405214D02*
X14106613Y-11395690D01*
X14106613Y-11395690D02*
X14078042Y-11395690D01*
X14078042Y-11395690D02*
X14058994Y-11405214D01*
X14058994Y-11405214D02*
X14049470Y-11414738D01*
X14258994Y-11529024D02*
X14239947Y-11519500D01*
X14239947Y-11519500D02*
X14230423Y-11509976D01*
X14230423Y-11509976D02*
X14220899Y-11490928D01*
X14220899Y-11490928D02*
X14220899Y-11433786D01*
X14220899Y-11433786D02*
X14230423Y-11414738D01*
X14230423Y-11414738D02*
X14239947Y-11405214D01*
X14239947Y-11405214D02*
X14258994Y-11395690D01*
X14258994Y-11395690D02*
X14287566Y-11395690D01*
X14287566Y-11395690D02*
X14306613Y-11405214D01*
X14306613Y-11405214D02*
X14316137Y-11414738D01*
X14316137Y-11414738D02*
X14325661Y-11433786D01*
X14325661Y-11433786D02*
X14325661Y-11490928D01*
X14325661Y-11490928D02*
X14316137Y-11509976D01*
X14316137Y-11509976D02*
X14306613Y-11519500D01*
X14306613Y-11519500D02*
X14287566Y-11529024D01*
X14287566Y-11529024D02*
X14258994Y-11529024D01*
X14439947Y-11529024D02*
X14420899Y-11519500D01*
X14420899Y-11519500D02*
X14411375Y-11500452D01*
X14411375Y-11500452D02*
X14411375Y-11329024D01*
X14592328Y-11519500D02*
X14573280Y-11529024D01*
X14573280Y-11529024D02*
X14535185Y-11529024D01*
X14535185Y-11529024D02*
X14516137Y-11519500D01*
X14516137Y-11519500D02*
X14506613Y-11500452D01*
X14506613Y-11500452D02*
X14506613Y-11424262D01*
X14506613Y-11424262D02*
X14516137Y-11405214D01*
X14516137Y-11405214D02*
X14535185Y-11395690D01*
X14535185Y-11395690D02*
X14573280Y-11395690D01*
X14573280Y-11395690D02*
X14592328Y-11405214D01*
X14592328Y-11405214D02*
X14601851Y-11424262D01*
X14601851Y-11424262D02*
X14601851Y-11443309D01*
X14601851Y-11443309D02*
X14506613Y-11462357D01*
X14678042Y-11519500D02*
X14697090Y-11529024D01*
X14697090Y-11529024D02*
X14735185Y-11529024D01*
X14735185Y-11529024D02*
X14754232Y-11519500D01*
X14754232Y-11519500D02*
X14763756Y-11500452D01*
X14763756Y-11500452D02*
X14763756Y-11490928D01*
X14763756Y-11490928D02*
X14754232Y-11471881D01*
X14754232Y-11471881D02*
X14735185Y-11462357D01*
X14735185Y-11462357D02*
X14706613Y-11462357D01*
X14706613Y-11462357D02*
X14687566Y-11452833D01*
X14687566Y-11452833D02*
X14678042Y-11433786D01*
X14678042Y-11433786D02*
X14678042Y-11424262D01*
X14678042Y-11424262D02*
X14687566Y-11405214D01*
X14687566Y-11405214D02*
X14706613Y-11395690D01*
X14706613Y-11395690D02*
X14735185Y-11395690D01*
X14735185Y-11395690D02*
X14754232Y-11405214D01*
X14830423Y-11605214D02*
X14839947Y-11595690D01*
X14839947Y-11595690D02*
X14858994Y-11567119D01*
X14858994Y-11567119D02*
X14868518Y-11548071D01*
X14868518Y-11548071D02*
X14878042Y-11519500D01*
X14878042Y-11519500D02*
X14887566Y-11471881D01*
X14887566Y-11471881D02*
X14887566Y-11433786D01*
X14887566Y-11433786D02*
X14878042Y-11386167D01*
X14878042Y-11386167D02*
X14868518Y-11357595D01*
X14868518Y-11357595D02*
X14858994Y-11338548D01*
X14858994Y-11338548D02*
X14839947Y-11309976D01*
X14839947Y-11309976D02*
X14830423Y-11300452D01*
X15192328Y-11605214D02*
X15182804Y-11595690D01*
X15182804Y-11595690D02*
X15163756Y-11567119D01*
X15163756Y-11567119D02*
X15154232Y-11548071D01*
X15154232Y-11548071D02*
X15144709Y-11519500D01*
X15144709Y-11519500D02*
X15135185Y-11471881D01*
X15135185Y-11471881D02*
X15135185Y-11433786D01*
X15135185Y-11433786D02*
X15144709Y-11386167D01*
X15144709Y-11386167D02*
X15154232Y-11357595D01*
X15154232Y-11357595D02*
X15163756Y-11338548D01*
X15163756Y-11338548D02*
X15182804Y-11309976D01*
X15182804Y-11309976D02*
X15192328Y-11300452D01*
X15268518Y-11395690D02*
X15268518Y-11529024D01*
X15268518Y-11414738D02*
X15278042Y-11405214D01*
X15278042Y-11405214D02*
X15297090Y-11395690D01*
X15297090Y-11395690D02*
X15325661Y-11395690D01*
X15325661Y-11395690D02*
X15344709Y-11405214D01*
X15344709Y-11405214D02*
X15354232Y-11424262D01*
X15354232Y-11424262D02*
X15354232Y-11529024D01*
X15478042Y-11529024D02*
X15458994Y-11519500D01*
X15458994Y-11519500D02*
X15449471Y-11509976D01*
X15449471Y-11509976D02*
X15439947Y-11490928D01*
X15439947Y-11490928D02*
X15439947Y-11433786D01*
X15439947Y-11433786D02*
X15449471Y-11414738D01*
X15449471Y-11414738D02*
X15458994Y-11405214D01*
X15458994Y-11405214D02*
X15478042Y-11395690D01*
X15478042Y-11395690D02*
X15506613Y-11395690D01*
X15506613Y-11395690D02*
X15525661Y-11405214D01*
X15525661Y-11405214D02*
X15535185Y-11414738D01*
X15535185Y-11414738D02*
X15544709Y-11433786D01*
X15544709Y-11433786D02*
X15544709Y-11490928D01*
X15544709Y-11490928D02*
X15535185Y-11509976D01*
X15535185Y-11509976D02*
X15525661Y-11519500D01*
X15525661Y-11519500D02*
X15506613Y-11529024D01*
X15506613Y-11529024D02*
X15478042Y-11529024D01*
X15601852Y-11395690D02*
X15678042Y-11395690D01*
X15630423Y-11329024D02*
X15630423Y-11500452D01*
X15630423Y-11500452D02*
X15639947Y-11519500D01*
X15639947Y-11519500D02*
X15658994Y-11529024D01*
X15658994Y-11529024D02*
X15678042Y-11529024D01*
X15897090Y-11395690D02*
X15897090Y-11595690D01*
X15897090Y-11405214D02*
X15916137Y-11395690D01*
X15916137Y-11395690D02*
X15954233Y-11395690D01*
X15954233Y-11395690D02*
X15973280Y-11405214D01*
X15973280Y-11405214D02*
X15982804Y-11414738D01*
X15982804Y-11414738D02*
X15992328Y-11433786D01*
X15992328Y-11433786D02*
X15992328Y-11490928D01*
X15992328Y-11490928D02*
X15982804Y-11509976D01*
X15982804Y-11509976D02*
X15973280Y-11519500D01*
X15973280Y-11519500D02*
X15954233Y-11529024D01*
X15954233Y-11529024D02*
X15916137Y-11529024D01*
X15916137Y-11529024D02*
X15897090Y-11519500D01*
X16106613Y-11529024D02*
X16087566Y-11519500D01*
X16087566Y-11519500D02*
X16078042Y-11500452D01*
X16078042Y-11500452D02*
X16078042Y-11329024D01*
X16268518Y-11529024D02*
X16268518Y-11424262D01*
X16268518Y-11424262D02*
X16258994Y-11405214D01*
X16258994Y-11405214D02*
X16239947Y-11395690D01*
X16239947Y-11395690D02*
X16201852Y-11395690D01*
X16201852Y-11395690D02*
X16182804Y-11405214D01*
X16268518Y-11519500D02*
X16249471Y-11529024D01*
X16249471Y-11529024D02*
X16201852Y-11529024D01*
X16201852Y-11529024D02*
X16182804Y-11519500D01*
X16182804Y-11519500D02*
X16173280Y-11500452D01*
X16173280Y-11500452D02*
X16173280Y-11481405D01*
X16173280Y-11481405D02*
X16182804Y-11462357D01*
X16182804Y-11462357D02*
X16201852Y-11452833D01*
X16201852Y-11452833D02*
X16249471Y-11452833D01*
X16249471Y-11452833D02*
X16268518Y-11443309D01*
X16335185Y-11395690D02*
X16411375Y-11395690D01*
X16363756Y-11329024D02*
X16363756Y-11500452D01*
X16363756Y-11500452D02*
X16373280Y-11519500D01*
X16373280Y-11519500D02*
X16392328Y-11529024D01*
X16392328Y-11529024D02*
X16411375Y-11529024D01*
X16554233Y-11519500D02*
X16535185Y-11529024D01*
X16535185Y-11529024D02*
X16497090Y-11529024D01*
X16497090Y-11529024D02*
X16478042Y-11519500D01*
X16478042Y-11519500D02*
X16468518Y-11500452D01*
X16468518Y-11500452D02*
X16468518Y-11424262D01*
X16468518Y-11424262D02*
X16478042Y-11405214D01*
X16478042Y-11405214D02*
X16497090Y-11395690D01*
X16497090Y-11395690D02*
X16535185Y-11395690D01*
X16535185Y-11395690D02*
X16554233Y-11405214D01*
X16554233Y-11405214D02*
X16563756Y-11424262D01*
X16563756Y-11424262D02*
X16563756Y-11443309D01*
X16563756Y-11443309D02*
X16468518Y-11462357D01*
X16735185Y-11529024D02*
X16735185Y-11329024D01*
X16735185Y-11519500D02*
X16716137Y-11529024D01*
X16716137Y-11529024D02*
X16678042Y-11529024D01*
X16678042Y-11529024D02*
X16658994Y-11519500D01*
X16658994Y-11519500D02*
X16649471Y-11509976D01*
X16649471Y-11509976D02*
X16639947Y-11490928D01*
X16639947Y-11490928D02*
X16639947Y-11433786D01*
X16639947Y-11433786D02*
X16649471Y-11414738D01*
X16649471Y-11414738D02*
X16658994Y-11405214D01*
X16658994Y-11405214D02*
X16678042Y-11395690D01*
X16678042Y-11395690D02*
X16716137Y-11395690D01*
X16716137Y-11395690D02*
X16735185Y-11405214D01*
X16811376Y-11605214D02*
X16820899Y-11595690D01*
X16820899Y-11595690D02*
X16839947Y-11567119D01*
X16839947Y-11567119D02*
X16849471Y-11548071D01*
X16849471Y-11548071D02*
X16858995Y-11519500D01*
X16858995Y-11519500D02*
X16868518Y-11471881D01*
X16868518Y-11471881D02*
X16868518Y-11433786D01*
X16868518Y-11433786D02*
X16858995Y-11386167D01*
X16858995Y-11386167D02*
X16849471Y-11357595D01*
X16849471Y-11357595D02*
X16839947Y-11338548D01*
X16839947Y-11338548D02*
X16820899Y-11309976D01*
X16820899Y-11309976D02*
X16811376Y-11300452D01*
M02*
