%TF.GenerationSoftware,KiCad,Pcbnew,9.0.7*%
%TF.CreationDate,2026-03-19T22:09:49-04:00*%
%TF.ProjectId,MOSFET_Load_Switch,4d4f5346-4554-45f4-9c6f-61645f537769,1.1*%
%TF.SameCoordinates,Original*%
%TF.FileFunction,Copper,L1,Top*%
%TF.FilePolarity,Positive*%
%FSLAX46Y46*%
G04 Gerber Fmt 4.6, Leading zero omitted, Abs format (unit mm)*
G04 Created by KiCad (PCBNEW 9.0.7) date 2026-03-19 22:09:49*
%MOMM*%
%LPD*%
G01*
G04 APERTURE LIST*
G04 Aperture macros list*
%AMRoundRect*
0 Rectangle with rounded corners*
0 $1 Rounding radius*
0 $2 $3 $4 $5 $6 $7 $8 $9 X,Y pos of 4 corners*
0 Add a 4 corners polygon primitive as box body*
4,1,4,$2,$3,$4,$5,$6,$7,$8,$9,$2,$3,0*
0 Add four circle primitives for the rounded corners*
1,1,$1+$1,$2,$3*
1,1,$1+$1,$4,$5*
1,1,$1+$1,$6,$7*
1,1,$1+$1,$8,$9*
0 Add four rect primitives between the rounded corners*
20,1,$1+$1,$2,$3,$4,$5,0*
20,1,$1+$1,$4,$5,$6,$7,0*
20,1,$1+$1,$6,$7,$8,$9,0*
20,1,$1+$1,$8,$9,$2,$3,0*%
G04 Aperture macros list end*
%TA.AperFunction,ComponentPad*%
%ADD10RoundRect,0.250000X-0.750000X0.600000X-0.750000X-0.600000X0.750000X-0.600000X0.750000X0.600000X0*%
%TD*%
%TA.AperFunction,ComponentPad*%
%ADD11O,2.000000X1.700000*%
%TD*%
%TA.AperFunction,SMDPad,CuDef*%
%ADD12RoundRect,0.250000X-0.262500X-0.450000X0.262500X-0.450000X0.262500X0.450000X-0.262500X0.450000X0*%
%TD*%
%TA.AperFunction,ComponentPad*%
%ADD13C,1.800000*%
%TD*%
%TA.AperFunction,SMDPad,CuDef*%
%ADD14RoundRect,0.100000X0.125000X0.100000X-0.125000X0.100000X-0.125000X-0.100000X0.125000X-0.100000X0*%
%TD*%
%TA.AperFunction,ComponentPad*%
%ADD15R,1.700000X1.700000*%
%TD*%
%TA.AperFunction,ComponentPad*%
%ADD16C,1.700000*%
%TD*%
%TA.AperFunction,SMDPad,CuDef*%
%ADD17RoundRect,0.150000X0.587500X0.150000X-0.587500X0.150000X-0.587500X-0.150000X0.587500X-0.150000X0*%
%TD*%
%TA.AperFunction,SMDPad,CuDef*%
%ADD18RoundRect,0.250000X0.250000X0.475000X-0.250000X0.475000X-0.250000X-0.475000X0.250000X-0.475000X0*%
%TD*%
%TA.AperFunction,SMDPad,CuDef*%
%ADD19RoundRect,0.250000X0.262500X0.450000X-0.262500X0.450000X-0.262500X-0.450000X0.262500X-0.450000X0*%
%TD*%
%TA.AperFunction,ComponentPad*%
%ADD20RoundRect,0.250000X-0.750000X-0.750000X0.750000X-0.750000X0.750000X0.750000X-0.750000X0.750000X0*%
%TD*%
%TA.AperFunction,ComponentPad*%
%ADD21C,2.000000*%
%TD*%
%TA.AperFunction,ViaPad*%
%ADD22C,0.508000*%
%TD*%
%TA.AperFunction,ViaPad*%
%ADD23C,0.762000*%
%TD*%
%TA.AperFunction,Conductor*%
%ADD24C,0.203200*%
%TD*%
%TA.AperFunction,Conductor*%
%ADD25C,0.762000*%
%TD*%
%TA.AperFunction,Conductor*%
%ADD26C,0.254000*%
%TD*%
%TA.AperFunction,Profile*%
%ADD27C,0.050800*%
%TD*%
G04 APERTURE END LIST*
D10*
%TO.P,J3,1,Pin_1*%
%TO.N,/VD2*%
X142240000Y-94655000D03*
D11*
%TO.P,J3,2,Pin_2*%
%TO.N,GND*%
X142240000Y-97155000D03*
%TD*%
D12*
%TO.P,R4,1*%
%TO.N,/VG*%
X132437500Y-102870000D03*
%TO.P,R4,2*%
%TO.N,Net-(J2-Pin_1)*%
X134262500Y-102870000D03*
%TD*%
D13*
%TO.P,TP1,1,1*%
%TO.N,GND*%
X134620000Y-106680000D03*
%TD*%
D14*
%TO.P,Q3,1,G*%
%TO.N,/VG1*%
X104715000Y-103905000D03*
%TO.P,Q3,2,S*%
%TO.N,/VS*%
X104715000Y-103105000D03*
%TO.P,Q3,3,D*%
%TO.N,/VD1*%
X103565000Y-103505000D03*
%TD*%
%TO.P,Q4,1,G*%
%TO.N,/VG2*%
X104715000Y-96285000D03*
%TO.P,Q4,2,S*%
%TO.N,/VS*%
X104715000Y-95485000D03*
%TO.P,Q4,3,D*%
%TO.N,/VD2*%
X103565000Y-95885000D03*
%TD*%
D13*
%TO.P,TP2,1,1*%
%TO.N,/VS*%
X124460000Y-106680000D03*
%TD*%
D15*
%TO.P,J5,1,Pin_1*%
%TO.N,/VD1*%
X111379000Y-104775000D03*
D16*
%TO.P,J5,2,Pin_2*%
X108839000Y-104775000D03*
%TO.P,J5,3,Pin_3*%
%TO.N,/VG1*%
X111379000Y-102235000D03*
%TO.P,J5,4,Pin_4*%
%TO.N,GND*%
X108839000Y-102235000D03*
%TO.P,J5,5,Pin_5*%
%TO.N,/VS*%
X111379000Y-99695000D03*
%TO.P,J5,6,Pin_6*%
X108839000Y-99695000D03*
%TO.P,J5,7,Pin_7*%
%TO.N,/VG2*%
X111379000Y-97155000D03*
%TO.P,J5,8,Pin_8*%
%TO.N,GND*%
X108839000Y-97155000D03*
%TO.P,J5,9,Pin_9*%
%TO.N,/VD2*%
X111379000Y-94615000D03*
%TO.P,J5,10,Pin_10*%
X108839000Y-94615000D03*
%TD*%
D12*
%TO.P,R2,1*%
%TO.N,/VS*%
X126722500Y-99695000D03*
%TO.P,R2,2*%
%TO.N,/VG*%
X128547500Y-99695000D03*
%TD*%
D17*
%TO.P,Q1,1,G*%
%TO.N,/VG1*%
X104994000Y-104455000D03*
%TO.P,Q1,2,S*%
%TO.N,/VS*%
X104994000Y-102555000D03*
%TO.P,Q1,3,D*%
%TO.N,/VD1*%
X103119000Y-103505000D03*
%TD*%
D18*
%TO.P,C1,1*%
%TO.N,/VD2*%
X136205000Y-99695000D03*
%TO.P,C1,2*%
%TO.N,/VG*%
X134305000Y-99695000D03*
%TD*%
D13*
%TO.P,TP4,1,1*%
%TO.N,/VG*%
X129540000Y-106680000D03*
%TD*%
D15*
%TO.P,J2,1,Pin_1*%
%TO.N,Net-(J2-Pin_1)*%
X116835000Y-102870000D03*
D16*
%TO.P,J2,2,Pin_2*%
%TO.N,GND*%
X119375000Y-102870000D03*
%TD*%
D17*
%TO.P,Q2,1,G*%
%TO.N,/VG2*%
X105024000Y-96835000D03*
%TO.P,Q2,2,S*%
%TO.N,/VS*%
X105024000Y-94935000D03*
%TO.P,Q2,3,D*%
%TO.N,/VD2*%
X103149000Y-95885000D03*
%TD*%
D13*
%TO.P,TP3,1,1*%
%TO.N,/VD2*%
X139700000Y-106680000D03*
%TD*%
D10*
%TO.P,J1,1,Pin_1*%
%TO.N,/VD1*%
X118110000Y-94655000D03*
D11*
%TO.P,J1,2,Pin_2*%
%TO.N,GND*%
X118110000Y-97155000D03*
%TD*%
D12*
%TO.P,R1,1*%
%TO.N,/VG1*%
X122912500Y-99695000D03*
%TO.P,R1,2*%
%TO.N,/VG*%
X124737500Y-99695000D03*
%TD*%
D19*
%TO.P,R3,1*%
%TO.N,/VG2*%
X132357500Y-99695000D03*
%TO.P,R3,2*%
%TO.N,/VG*%
X130532500Y-99695000D03*
%TD*%
D20*
%TO.P,D1,1,K*%
%TO.N,/VS*%
X124460000Y-102870000D03*
D21*
%TO.P,D1,2,A*%
%TO.N,/VG*%
X129540000Y-102870000D03*
%TD*%
D15*
%TO.P,J4,1,Pin_1*%
%TO.N,/VD1*%
X124460000Y-95885000D03*
D16*
%TO.P,J4,2,Pin_2*%
X124460000Y-93345000D03*
%TO.P,J4,3,Pin_3*%
%TO.N,/VG1*%
X127000000Y-95885000D03*
%TO.P,J4,4,Pin_4*%
%TO.N,GND*%
X127000000Y-93345000D03*
%TO.P,J4,5,Pin_5*%
%TO.N,/VS*%
X129540000Y-95885000D03*
%TO.P,J4,6,Pin_6*%
X129540000Y-93345000D03*
%TO.P,J4,7,Pin_7*%
%TO.N,/VG2*%
X132080000Y-95885000D03*
%TO.P,J4,8,Pin_8*%
%TO.N,GND*%
X132080000Y-93345000D03*
%TO.P,J4,9,Pin_9*%
%TO.N,/VD2*%
X134620000Y-95885000D03*
%TO.P,J4,10,Pin_10*%
X134620000Y-93345000D03*
%TD*%
D22*
%TO.N,/VG*%
X124841000Y-100965000D03*
%TO.N,GND*%
X101722000Y-105791000D03*
X127381000Y-102870000D03*
X101722000Y-99695000D03*
X142240000Y-106680000D03*
X106929000Y-102616000D03*
X101722000Y-93599000D03*
X127000000Y-106680000D03*
X142240000Y-102870000D03*
%TO.N,Net-(J2-Pin_1)*%
X132080000Y-104775000D03*
%TO.N,/VG2*%
X105024000Y-98044000D03*
D23*
%TO.N,/VD2*%
X101722000Y-95885000D03*
%TO.N,/VD1*%
X101722000Y-103505000D03*
%TD*%
D24*
%TO.N,/VG*%
X129540000Y-102870000D02*
X132437500Y-102870000D01*
X134305000Y-100391000D02*
X132437500Y-102258500D01*
X129540000Y-106680000D02*
X129540000Y-103505000D01*
X124841000Y-100965000D02*
X124841000Y-99798500D01*
X134305000Y-99695000D02*
X134305000Y-100391000D01*
X130532500Y-99695000D02*
X130532500Y-101115500D01*
X132437500Y-102258500D02*
X132437500Y-102870000D01*
X130532500Y-101115500D02*
X129540000Y-102108000D01*
X128547500Y-99695000D02*
X130532500Y-99695000D01*
X129540000Y-102108000D02*
X129540000Y-103505000D01*
X124841000Y-99798500D02*
X124737500Y-99695000D01*
D25*
%TO.N,/VS*%
X108839000Y-99695000D02*
X111379000Y-99695000D01*
X108072000Y-99695000D02*
X108839000Y-99695000D01*
X105024000Y-94935000D02*
X105852000Y-94935000D01*
X124460000Y-102870000D02*
X124460000Y-106680000D01*
X105852000Y-94935000D02*
X106802000Y-95885000D01*
X126722500Y-99210500D02*
X129540000Y-96393000D01*
X106802000Y-98552000D02*
X107945000Y-99695000D01*
X129540000Y-96393000D02*
X129540000Y-95885000D01*
X125730000Y-102870000D02*
X124460000Y-102870000D01*
D26*
X104715000Y-102834000D02*
X104994000Y-102555000D01*
D25*
X126722500Y-99695000D02*
X126722500Y-99210500D01*
X104994000Y-102555000D02*
X105212000Y-102555000D01*
D26*
X104715000Y-95244000D02*
X105024000Y-94935000D01*
X104715000Y-95485000D02*
X104715000Y-95244000D01*
D25*
X126722500Y-99695000D02*
X126722500Y-101877500D01*
X129540000Y-93345000D02*
X129540000Y-95885000D01*
X105212000Y-102555000D02*
X108072000Y-99695000D01*
X106802000Y-95885000D02*
X106802000Y-98552000D01*
X126722500Y-101877500D02*
X125730000Y-102870000D01*
D26*
X104715000Y-103105000D02*
X104715000Y-102834000D01*
D25*
X107945000Y-99695000D02*
X108839000Y-99695000D01*
D24*
%TO.N,Net-(J2-Pin_1)*%
X133692500Y-104775000D02*
X132080000Y-104775000D01*
X134262500Y-104205000D02*
X133692500Y-104775000D01*
X134262500Y-103505000D02*
X134262500Y-104205000D01*
%TO.N,/VG1*%
X122912500Y-98702500D02*
X122912500Y-99695000D01*
X104715000Y-104176000D02*
X104994000Y-104455000D01*
X107818000Y-103505000D02*
X110109000Y-103505000D01*
X127000000Y-95885000D02*
X127000000Y-96901000D01*
X123825000Y-97790000D02*
X122912500Y-98702500D01*
X104715000Y-103905000D02*
X104715000Y-104176000D01*
X106868000Y-104455000D02*
X107818000Y-103505000D01*
X110109000Y-103505000D02*
X111379000Y-102235000D01*
X127000000Y-96901000D02*
X126111000Y-97790000D01*
X126111000Y-97790000D02*
X123825000Y-97790000D01*
X104994000Y-104455000D02*
X106868000Y-104455000D01*
%TO.N,/VG2*%
X132080000Y-95885000D02*
X132080000Y-97790000D01*
X105024000Y-96835000D02*
X105024000Y-98044000D01*
X132080000Y-97790000D02*
X132357500Y-98067500D01*
X132357500Y-98067500D02*
X132357500Y-99695000D01*
D26*
X104715000Y-96285000D02*
X104715000Y-96526000D01*
X104715000Y-96526000D02*
X105024000Y-96835000D01*
D25*
%TO.N,/VD2*%
X134620000Y-94615000D02*
X134620000Y-95885000D01*
X134620000Y-95885000D02*
X136205000Y-97470000D01*
X103149000Y-95885000D02*
X101722000Y-95885000D01*
X108839000Y-94615000D02*
X111379000Y-94615000D01*
X142240000Y-94655000D02*
X134660000Y-94655000D01*
X136205000Y-97470000D02*
X136205000Y-99695000D01*
X139700000Y-103190000D02*
X136205000Y-99695000D01*
X134660000Y-94655000D02*
X134620000Y-94615000D01*
X134620000Y-93345000D02*
X134620000Y-94615000D01*
X139700000Y-106680000D02*
X139700000Y-103190000D01*
%TO.N,/VD1*%
X124460000Y-93345000D02*
X124460000Y-95885000D01*
X108839000Y-104775000D02*
X111379000Y-104775000D01*
X120690000Y-94655000D02*
X118110000Y-94655000D01*
X121920000Y-95885000D02*
X120690000Y-94655000D01*
X103119000Y-103505000D02*
X101722000Y-103505000D01*
X124460000Y-95885000D02*
X121920000Y-95885000D01*
%TD*%
%TA.AperFunction,Conductor*%
%TO.N,GND*%
G36*
X112652187Y-92330578D02*
G01*
X112672207Y-92333213D01*
X112726035Y-92340299D01*
X112757800Y-92348810D01*
X112818929Y-92374131D01*
X112847409Y-92390574D01*
X112899897Y-92430850D01*
X112923149Y-92454102D01*
X112958770Y-92500524D01*
X112963424Y-92506589D01*
X112979870Y-92535073D01*
X113005187Y-92596193D01*
X113013700Y-92627965D01*
X113017835Y-92659377D01*
X113023422Y-92701810D01*
X113024500Y-92718257D01*
X113024500Y-98221623D01*
X113026921Y-98233795D01*
X113025922Y-98233993D01*
X113028952Y-98245931D01*
X113029499Y-98251139D01*
X113062825Y-98407925D01*
X113117799Y-98531399D01*
X113127233Y-98601766D01*
X113097126Y-98666063D01*
X113091792Y-98671738D01*
X113088299Y-98675230D01*
X113088298Y-98675232D01*
X113021881Y-98790269D01*
X113021881Y-98790270D01*
X112989362Y-98911634D01*
X112987500Y-98918582D01*
X112987500Y-99051417D01*
X112987499Y-99051417D01*
X113021881Y-99179730D01*
X113078040Y-99277000D01*
X113094778Y-99345995D01*
X113078040Y-99403000D01*
X113021881Y-99500269D01*
X112987500Y-99628582D01*
X112987500Y-99761417D01*
X112987499Y-99761417D01*
X113021881Y-99889730D01*
X113078040Y-99987000D01*
X113094778Y-100055995D01*
X113078040Y-100113000D01*
X113021881Y-100210269D01*
X113021881Y-100210270D01*
X112989666Y-100330500D01*
X112987500Y-100338582D01*
X112987500Y-100471417D01*
X112987499Y-100471417D01*
X113021881Y-100599730D01*
X113088297Y-100714766D01*
X113088305Y-100714776D01*
X113091787Y-100718258D01*
X113125813Y-100780570D01*
X113120748Y-100851385D01*
X113117799Y-100858601D01*
X113062825Y-100982074D01*
X113029499Y-101138860D01*
X113028952Y-101144069D01*
X113025924Y-101156006D01*
X113026921Y-101156205D01*
X113024500Y-101168378D01*
X113024500Y-106671742D01*
X113023422Y-106688187D01*
X113023422Y-106688189D01*
X113013700Y-106762034D01*
X113005187Y-106793806D01*
X112979870Y-106854926D01*
X112963424Y-106883410D01*
X112923153Y-106935893D01*
X112899893Y-106959153D01*
X112847410Y-106999424D01*
X112818926Y-107015870D01*
X112757806Y-107041187D01*
X112726034Y-107049700D01*
X112670424Y-107057021D01*
X112652187Y-107059422D01*
X112635742Y-107060500D01*
X101222258Y-107060500D01*
X101205812Y-107059422D01*
X101131966Y-107049700D01*
X101100194Y-107041187D01*
X101039073Y-107015870D01*
X101010589Y-106999424D01*
X101004524Y-106994770D01*
X100958102Y-106959149D01*
X100934850Y-106935897D01*
X100894574Y-106883409D01*
X100878131Y-106854929D01*
X100852810Y-106793800D01*
X100844299Y-106762032D01*
X100834578Y-106688187D01*
X100833500Y-106671742D01*
X100833500Y-95822406D01*
X101086500Y-95822406D01*
X101086500Y-95947593D01*
X101106970Y-96050500D01*
X101110922Y-96070369D01*
X101158827Y-96186022D01*
X101228375Y-96290108D01*
X101316892Y-96378625D01*
X101420978Y-96448173D01*
X101536631Y-96496078D01*
X101659409Y-96520500D01*
X101659410Y-96520500D01*
X103211590Y-96520500D01*
X103211591Y-96520500D01*
X103334369Y-96496078D01*
X103442502Y-96451288D01*
X103447806Y-96449091D01*
X103496024Y-96439500D01*
X103768332Y-96439500D01*
X103768334Y-96439500D01*
X103863055Y-96424498D01*
X103865889Y-96423053D01*
X103869711Y-96422335D01*
X103872484Y-96421435D01*
X103872600Y-96421793D01*
X103935664Y-96409949D01*
X104001449Y-96436647D01*
X104042357Y-96494674D01*
X104047542Y-96555029D01*
X104032000Y-96653166D01*
X104032000Y-97016832D01*
X104047001Y-97111553D01*
X104105173Y-97225723D01*
X104195776Y-97316326D01*
X104252861Y-97345412D01*
X104309945Y-97374498D01*
X104404666Y-97389500D01*
X104541900Y-97389500D01*
X104550725Y-97392091D01*
X104559832Y-97390782D01*
X104584257Y-97401937D01*
X104610021Y-97409502D01*
X104616045Y-97416455D01*
X104624412Y-97420276D01*
X104638926Y-97442861D01*
X104656514Y-97463158D01*
X104658838Y-97473844D01*
X104662796Y-97480002D01*
X104667900Y-97515500D01*
X104667900Y-97628782D01*
X104647898Y-97696903D01*
X104630995Y-97717877D01*
X104617099Y-97731772D01*
X104617097Y-97731775D01*
X104550155Y-97847721D01*
X104550154Y-97847724D01*
X104550153Y-97847726D01*
X104515500Y-97977055D01*
X104515500Y-98110945D01*
X104550153Y-98240274D01*
X104550154Y-98240276D01*
X104550155Y-98240278D01*
X104617097Y-98356224D01*
X104617099Y-98356227D01*
X104711772Y-98450900D01*
X104711775Y-98450902D01*
X104778471Y-98489409D01*
X104827726Y-98517847D01*
X104957055Y-98552500D01*
X104957057Y-98552500D01*
X105090943Y-98552500D01*
X105090945Y-98552500D01*
X105220274Y-98517847D01*
X105336226Y-98450901D01*
X105430901Y-98356226D01*
X105497847Y-98240274D01*
X105532500Y-98110945D01*
X105532500Y-97977055D01*
X105497847Y-97847726D01*
X105432121Y-97733887D01*
X105430902Y-97731775D01*
X105430900Y-97731772D01*
X105417005Y-97717877D01*
X105402060Y-97690508D01*
X105385204Y-97664280D01*
X105384298Y-97657981D01*
X105382979Y-97655565D01*
X105380100Y-97628782D01*
X105380100Y-97515500D01*
X105400102Y-97447379D01*
X105453758Y-97400886D01*
X105506100Y-97389500D01*
X105643332Y-97389500D01*
X105643334Y-97389500D01*
X105738055Y-97374498D01*
X105852223Y-97316326D01*
X105891443Y-97277106D01*
X105949838Y-97218712D01*
X105952200Y-97221074D01*
X105994781Y-97188237D01*
X106065517Y-97182158D01*
X106128310Y-97215287D01*
X106163224Y-97277106D01*
X106166500Y-97305650D01*
X106166500Y-98614593D01*
X106190922Y-98737369D01*
X106238827Y-98853022D01*
X106308375Y-98957108D01*
X106308377Y-98957110D01*
X107020672Y-99669405D01*
X107054698Y-99731717D01*
X107049633Y-99802532D01*
X107020672Y-99847595D01*
X104980104Y-101888162D01*
X104917792Y-101922188D01*
X104915591Y-101922646D01*
X104808630Y-101943922D01*
X104808625Y-101943924D01*
X104695194Y-101990909D01*
X104646976Y-102000500D01*
X104374666Y-102000500D01*
X104348766Y-102004602D01*
X104279946Y-102015501D01*
X104165776Y-102073673D01*
X104075173Y-102164276D01*
X104017001Y-102278446D01*
X104002000Y-102373167D01*
X104002000Y-102736833D01*
X104017542Y-102834970D01*
X104008442Y-102905381D01*
X103962719Y-102959694D01*
X103894891Y-102980666D01*
X103842509Y-102968486D01*
X103842484Y-102968565D01*
X103841565Y-102968266D01*
X103835895Y-102966948D01*
X103833056Y-102965501D01*
X103758672Y-102953721D01*
X103738334Y-102950500D01*
X103738332Y-102950500D01*
X103466024Y-102950500D01*
X103417806Y-102940909D01*
X103304374Y-102893924D01*
X103304369Y-102893922D01*
X103181593Y-102869500D01*
X103181591Y-102869500D01*
X101784591Y-102869500D01*
X101659409Y-102869500D01*
X101659406Y-102869500D01*
X101536630Y-102893922D01*
X101536625Y-102893924D01*
X101420977Y-102941827D01*
X101316896Y-103011372D01*
X101316889Y-103011377D01*
X101228377Y-103099889D01*
X101228372Y-103099896D01*
X101158827Y-103203977D01*
X101110924Y-103319625D01*
X101110922Y-103319630D01*
X101086500Y-103442406D01*
X101086500Y-103567593D01*
X101092318Y-103596842D01*
X101110922Y-103690369D01*
X101158827Y-103806022D01*
X101228375Y-103910108D01*
X101316892Y-103998625D01*
X101420978Y-104068173D01*
X101536631Y-104116078D01*
X101659409Y-104140500D01*
X101659410Y-104140500D01*
X103181590Y-104140500D01*
X103181591Y-104140500D01*
X103304369Y-104116078D01*
X103417806Y-104069091D01*
X103466024Y-104059500D01*
X103738332Y-104059500D01*
X103738334Y-104059500D01*
X103833055Y-104044498D01*
X103835889Y-104043053D01*
X103839711Y-104042335D01*
X103842484Y-104041435D01*
X103842600Y-104041793D01*
X103905664Y-104029949D01*
X103971449Y-104056647D01*
X104012357Y-104114674D01*
X104017542Y-104175029D01*
X104002000Y-104273166D01*
X104002000Y-104636832D01*
X104017001Y-104731553D01*
X104075173Y-104845723D01*
X104165776Y-104936326D01*
X104222861Y-104965412D01*
X104279945Y-104994498D01*
X104374666Y-105009500D01*
X104374668Y-105009500D01*
X105613332Y-105009500D01*
X105613334Y-105009500D01*
X105708055Y-104994498D01*
X105822223Y-104936326D01*
X105822225Y-104936324D01*
X105910545Y-104848005D01*
X105972857Y-104813979D01*
X105999640Y-104811100D01*
X106914879Y-104811100D01*
X106914881Y-104811100D01*
X107005450Y-104786833D01*
X107086651Y-104739951D01*
X107607880Y-104218721D01*
X107670189Y-104184699D01*
X107741004Y-104189763D01*
X107797840Y-104232310D01*
X107822651Y-104298830D01*
X107816805Y-104346755D01*
X107761698Y-104516357D01*
X107761697Y-104516360D01*
X107761697Y-104516362D01*
X107734500Y-104688074D01*
X107734500Y-104861926D01*
X107761697Y-105033638D01*
X107815420Y-105198981D01*
X107815421Y-105198982D01*
X107894349Y-105353887D01*
X107996536Y-105494535D01*
X108119464Y-105617463D01*
X108164342Y-105650069D01*
X108260116Y-105719653D01*
X108415019Y-105798580D01*
X108580362Y-105852303D01*
X108752074Y-105879500D01*
X108752077Y-105879500D01*
X108925923Y-105879500D01*
X108925926Y-105879500D01*
X109097638Y-105852303D01*
X109262981Y-105798580D01*
X109417884Y-105719653D01*
X109558533Y-105617465D01*
X109681465Y-105494533D01*
X109704784Y-105462438D01*
X109761006Y-105419085D01*
X109806719Y-105410500D01*
X110148501Y-105410500D01*
X110216622Y-105430502D01*
X110263115Y-105484158D01*
X110274501Y-105536500D01*
X110274501Y-105650072D01*
X110289265Y-105724300D01*
X110345516Y-105808484D01*
X110429697Y-105864733D01*
X110429699Y-105864734D01*
X110503933Y-105879500D01*
X112254066Y-105879499D01*
X112254069Y-105879498D01*
X112254073Y-105879498D01*
X112303326Y-105869701D01*
X112328301Y-105864734D01*
X112412484Y-105808484D01*
X112468734Y-105724301D01*
X112483500Y-105650067D01*
X112483499Y-103899934D01*
X112483498Y-103899931D01*
X112483498Y-103899926D01*
X112468734Y-103825699D01*
X112453954Y-103803579D01*
X112412484Y-103741516D01*
X112412483Y-103741515D01*
X112328302Y-103685266D01*
X112254069Y-103670500D01*
X110751290Y-103670500D01*
X110683169Y-103650498D01*
X110636676Y-103596842D01*
X110626572Y-103526568D01*
X110656066Y-103461988D01*
X110662181Y-103455419D01*
X110827967Y-103289633D01*
X110890277Y-103255609D01*
X110955994Y-103258896D01*
X111120362Y-103312303D01*
X111292074Y-103339500D01*
X111292077Y-103339500D01*
X111465923Y-103339500D01*
X111465926Y-103339500D01*
X111637638Y-103312303D01*
X111802981Y-103258580D01*
X111957884Y-103179653D01*
X112098533Y-103077465D01*
X112221465Y-102954533D01*
X112323653Y-102813884D01*
X112402580Y-102658981D01*
X112456303Y-102493638D01*
X112483500Y-102321926D01*
X112483500Y-102148074D01*
X112456303Y-101976362D01*
X112402580Y-101811019D01*
X112323653Y-101656116D01*
X112221465Y-101515467D01*
X112221463Y-101515464D01*
X112098535Y-101392536D01*
X111957887Y-101290349D01*
X111957886Y-101290348D01*
X111957884Y-101290347D01*
X111802981Y-101211420D01*
X111802978Y-101211419D01*
X111802976Y-101211418D01*
X111637642Y-101157698D01*
X111637640Y-101157697D01*
X111637638Y-101157697D01*
X111465926Y-101130500D01*
X111292074Y-101130500D01*
X111120362Y-101157697D01*
X111120360Y-101157697D01*
X111120357Y-101157698D01*
X110955023Y-101211418D01*
X110955017Y-101211421D01*
X110800112Y-101290349D01*
X110659464Y-101392536D01*
X110536536Y-101515464D01*
X110434348Y-101656113D01*
X110355341Y-101811174D01*
X110306592Y-101862789D01*
X110237678Y-101879855D01*
X110170476Y-101856954D01*
X110126324Y-101801356D01*
X110123241Y-101792908D01*
X110097507Y-101713709D01*
X110097506Y-101713707D01*
X110030538Y-101582276D01*
X110030538Y-101582275D01*
X109339000Y-102273813D01*
X109339000Y-102169174D01*
X109304925Y-102042007D01*
X109239099Y-101927993D01*
X109146007Y-101834901D01*
X109031993Y-101769075D01*
X108904826Y-101735000D01*
X108773174Y-101735000D01*
X108646007Y-101769075D01*
X108531993Y-101834901D01*
X108438901Y-101927993D01*
X108373075Y-102042007D01*
X108339000Y-102169174D01*
X108339000Y-102273816D01*
X107647460Y-101582276D01*
X107647459Y-101582276D01*
X107580495Y-101713701D01*
X107580490Y-101713713D01*
X107514440Y-101916996D01*
X107481000Y-102128126D01*
X107481000Y-102341873D01*
X107514440Y-102553003D01*
X107580490Y-102756286D01*
X107580493Y-102756292D01*
X107677536Y-102946750D01*
X107712063Y-102994272D01*
X107735921Y-103061139D01*
X107719841Y-103130291D01*
X107673128Y-103177452D01*
X107607228Y-103215500D01*
X107607227Y-103215499D01*
X107599352Y-103220046D01*
X107599346Y-103220051D01*
X107376992Y-103442406D01*
X106757401Y-104061996D01*
X106695091Y-104096020D01*
X106668308Y-104098900D01*
X105999640Y-104098900D01*
X105931519Y-104078898D01*
X105910545Y-104061995D01*
X105822223Y-103973673D01*
X105708053Y-103915501D01*
X105643336Y-103905251D01*
X105613334Y-103900500D01*
X105613332Y-103900500D01*
X105320500Y-103900500D01*
X105252379Y-103880498D01*
X105205886Y-103826842D01*
X105194500Y-103774500D01*
X105194500Y-103771360D01*
X105194500Y-103771354D01*
X105184461Y-103702450D01*
X105132499Y-103596160D01*
X105132498Y-103596158D01*
X105130435Y-103594095D01*
X105128516Y-103590581D01*
X105126434Y-103587665D01*
X105126786Y-103587413D01*
X105096409Y-103531783D01*
X105101474Y-103460968D01*
X105105679Y-103451018D01*
X105115018Y-103431320D01*
X105132499Y-103413840D01*
X105184461Y-103307550D01*
X105189232Y-103274799D01*
X105197337Y-103257707D01*
X105208882Y-103244762D01*
X105216117Y-103229000D01*
X105232023Y-103218819D01*
X105244596Y-103204724D01*
X105261306Y-103200076D01*
X105275915Y-103190727D01*
X105286606Y-103188110D01*
X105397369Y-103166078D01*
X105510806Y-103119091D01*
X105559024Y-103109500D01*
X105613332Y-103109500D01*
X105613334Y-103109500D01*
X105708055Y-103094498D01*
X105822223Y-103036326D01*
X105912826Y-102945723D01*
X105970998Y-102831555D01*
X105986000Y-102736834D01*
X105986000Y-102731922D01*
X106006002Y-102663801D01*
X106022900Y-102642832D01*
X108048470Y-100617261D01*
X108072810Y-100603970D01*
X108095260Y-100587672D01*
X108103519Y-100587202D01*
X108110780Y-100583238D01*
X108138447Y-100585216D01*
X108166142Y-100583642D01*
X108175366Y-100587856D01*
X108181595Y-100588302D01*
X108199558Y-100596665D01*
X108205818Y-100600203D01*
X108260116Y-100639653D01*
X108415019Y-100718580D01*
X108415617Y-100718774D01*
X108419966Y-100721232D01*
X108442873Y-100744818D01*
X108466789Y-100767406D01*
X108467466Y-100770141D01*
X108469429Y-100772162D01*
X108475949Y-100804398D01*
X108483855Y-100836321D01*
X108482946Y-100838987D01*
X108483505Y-100841749D01*
X108471561Y-100872396D01*
X108460954Y-100903523D01*
X108458748Y-100905274D01*
X108457725Y-100907900D01*
X108431112Y-100927221D01*
X108405357Y-100947675D01*
X108400498Y-100949448D01*
X108400274Y-100949611D01*
X108400011Y-100949625D01*
X108396909Y-100950758D01*
X108317706Y-100976493D01*
X108317701Y-100976495D01*
X108186276Y-101043459D01*
X108186276Y-101043461D01*
X108838999Y-101696184D01*
X108839000Y-101696184D01*
X109491723Y-101043459D01*
X109360298Y-100976495D01*
X109360289Y-100976492D01*
X109281091Y-100950758D01*
X109222485Y-100910684D01*
X109194849Y-100845287D01*
X109206956Y-100775330D01*
X109254963Y-100723024D01*
X109262826Y-100718658D01*
X109262975Y-100718581D01*
X109262981Y-100718580D01*
X109417884Y-100639653D01*
X109558533Y-100537465D01*
X109681465Y-100414533D01*
X109704784Y-100382438D01*
X109761006Y-100339085D01*
X109806719Y-100330500D01*
X110411281Y-100330500D01*
X110479402Y-100350502D01*
X110513216Y-100382438D01*
X110536534Y-100414532D01*
X110536539Y-100414538D01*
X110659464Y-100537463D01*
X110722468Y-100583238D01*
X110800116Y-100639653D01*
X110955019Y-100718580D01*
X111120362Y-100772303D01*
X111292074Y-100799500D01*
X111292077Y-100799500D01*
X111465923Y-100799500D01*
X111465926Y-100799500D01*
X111637638Y-100772303D01*
X111802981Y-100718580D01*
X111957884Y-100639653D01*
X112098533Y-100537465D01*
X112221465Y-100414533D01*
X112323653Y-100273884D01*
X112402580Y-100118981D01*
X112456303Y-99953638D01*
X112483500Y-99781926D01*
X112483500Y-99608074D01*
X112456303Y-99436362D01*
X112402580Y-99271019D01*
X112323653Y-99116116D01*
X112276281Y-99050915D01*
X112221463Y-98975464D01*
X112098535Y-98852536D01*
X111957887Y-98750349D01*
X111957886Y-98750348D01*
X111957884Y-98750347D01*
X111802981Y-98671420D01*
X111802978Y-98671419D01*
X111802976Y-98671418D01*
X111637642Y-98617698D01*
X111637640Y-98617697D01*
X111637638Y-98617697D01*
X111465926Y-98590500D01*
X111292074Y-98590500D01*
X111120362Y-98617697D01*
X111120360Y-98617697D01*
X111120357Y-98617698D01*
X110955023Y-98671418D01*
X110955017Y-98671421D01*
X110800112Y-98750349D01*
X110659464Y-98852536D01*
X110536539Y-98975461D01*
X110536534Y-98975467D01*
X110513216Y-99007562D01*
X110456994Y-99050915D01*
X110411281Y-99059500D01*
X109806719Y-99059500D01*
X109738598Y-99039498D01*
X109704784Y-99007562D01*
X109681465Y-98975467D01*
X109681460Y-98975461D01*
X109558535Y-98852536D01*
X109417887Y-98750349D01*
X109417886Y-98750348D01*
X109417884Y-98750347D01*
X109262981Y-98671420D01*
X109262978Y-98671419D01*
X109262825Y-98671341D01*
X109211210Y-98622593D01*
X109194144Y-98553678D01*
X109217045Y-98486476D01*
X109272642Y-98442324D01*
X109281092Y-98439241D01*
X109360286Y-98413509D01*
X109360292Y-98413506D01*
X109491722Y-98346538D01*
X109491723Y-98346538D01*
X108839001Y-97693816D01*
X108839000Y-97693816D01*
X108186276Y-98346538D01*
X108317707Y-98413506D01*
X108317709Y-98413507D01*
X108396908Y-98439241D01*
X108455513Y-98479315D01*
X108483150Y-98544711D01*
X108471043Y-98614668D01*
X108423037Y-98666974D01*
X108415174Y-98671341D01*
X108260112Y-98750349D01*
X108138068Y-98839020D01*
X108071200Y-98862879D01*
X108002049Y-98846798D01*
X107974912Y-98826179D01*
X107474405Y-98325672D01*
X107440379Y-98263360D01*
X107437500Y-98236577D01*
X107437500Y-97920482D01*
X107457502Y-97852361D01*
X107511158Y-97805868D01*
X107581432Y-97795764D01*
X107586465Y-97798062D01*
X107647459Y-97807723D01*
X108300184Y-97154999D01*
X108234359Y-97089174D01*
X108339000Y-97089174D01*
X108339000Y-97220826D01*
X108373075Y-97347993D01*
X108438901Y-97462007D01*
X108531993Y-97555099D01*
X108646007Y-97620925D01*
X108773174Y-97655000D01*
X108904826Y-97655000D01*
X109031993Y-97620925D01*
X109146007Y-97555099D01*
X109239099Y-97462007D01*
X109304925Y-97347993D01*
X109339000Y-97220826D01*
X109339000Y-97154999D01*
X109377816Y-97154999D01*
X109377816Y-97155001D01*
X110030538Y-97807723D01*
X110030538Y-97807722D01*
X110097506Y-97676292D01*
X110097509Y-97676286D01*
X110123241Y-97597092D01*
X110163314Y-97538486D01*
X110228711Y-97510849D01*
X110298668Y-97522956D01*
X110350974Y-97570962D01*
X110355341Y-97578825D01*
X110355418Y-97578976D01*
X110355420Y-97578981D01*
X110434347Y-97733884D01*
X110434349Y-97733887D01*
X110536536Y-97874535D01*
X110659464Y-97997463D01*
X110659467Y-97997465D01*
X110800116Y-98099653D01*
X110955019Y-98178580D01*
X111120362Y-98232303D01*
X111292074Y-98259500D01*
X111292077Y-98259500D01*
X111465923Y-98259500D01*
X111465926Y-98259500D01*
X111637638Y-98232303D01*
X111802981Y-98178580D01*
X111957884Y-98099653D01*
X112098533Y-97997465D01*
X112221465Y-97874533D01*
X112323653Y-97733884D01*
X112402580Y-97578981D01*
X112456303Y-97413638D01*
X112483500Y-97241926D01*
X112483500Y-97068074D01*
X112456303Y-96896362D01*
X112402580Y-96731019D01*
X112323653Y-96576116D01*
X112232753Y-96451004D01*
X112221463Y-96435464D01*
X112098535Y-96312536D01*
X111957887Y-96210349D01*
X111957886Y-96210348D01*
X111957884Y-96210347D01*
X111802981Y-96131420D01*
X111802978Y-96131419D01*
X111802976Y-96131418D01*
X111637642Y-96077698D01*
X111637640Y-96077697D01*
X111637638Y-96077697D01*
X111465926Y-96050500D01*
X111292074Y-96050500D01*
X111120362Y-96077697D01*
X111120360Y-96077697D01*
X111120357Y-96077698D01*
X110955023Y-96131418D01*
X110955017Y-96131421D01*
X110800112Y-96210349D01*
X110659464Y-96312536D01*
X110536536Y-96435464D01*
X110434348Y-96576113D01*
X110355341Y-96731174D01*
X110306592Y-96782789D01*
X110237678Y-96799855D01*
X110170476Y-96776954D01*
X110126324Y-96721356D01*
X110123241Y-96712908D01*
X110097507Y-96633709D01*
X110097506Y-96633707D01*
X110030538Y-96502276D01*
X109377816Y-97154999D01*
X109339000Y-97154999D01*
X109339000Y-97089174D01*
X109304925Y-96962007D01*
X109239099Y-96847993D01*
X109146007Y-96754901D01*
X109031993Y-96689075D01*
X108904826Y-96655000D01*
X108773174Y-96655000D01*
X108646007Y-96689075D01*
X108531993Y-96754901D01*
X108438901Y-96847993D01*
X108373075Y-96962007D01*
X108339000Y-97089174D01*
X108234359Y-97089174D01*
X107647461Y-96502276D01*
X107584050Y-96512320D01*
X107583540Y-96509101D01*
X107558084Y-96515401D01*
X107490886Y-96492489D01*
X107446743Y-96436885D01*
X107437500Y-96389517D01*
X107437500Y-95822410D01*
X107437499Y-95822406D01*
X107431817Y-95793840D01*
X107413078Y-95699631D01*
X107365173Y-95583978D01*
X107295625Y-95479892D01*
X107207108Y-95391375D01*
X106343807Y-94528074D01*
X107734500Y-94528074D01*
X107734500Y-94701926D01*
X107761697Y-94873638D01*
X107815420Y-95038981D01*
X107894347Y-95193884D01*
X107894349Y-95193887D01*
X107996536Y-95334535D01*
X108119464Y-95457463D01*
X108119467Y-95457465D01*
X108260116Y-95559653D01*
X108415019Y-95638580D01*
X108415024Y-95638581D01*
X108415174Y-95638658D01*
X108466789Y-95687406D01*
X108483855Y-95756321D01*
X108460954Y-95823523D01*
X108405357Y-95867675D01*
X108396909Y-95870758D01*
X108317706Y-95896493D01*
X108317701Y-95896495D01*
X108186276Y-95963459D01*
X108186276Y-95963461D01*
X108838999Y-96616184D01*
X108839000Y-96616184D01*
X109491723Y-95963459D01*
X109360298Y-95896495D01*
X109360289Y-95896492D01*
X109281091Y-95870758D01*
X109222485Y-95830684D01*
X109194849Y-95765287D01*
X109206956Y-95695330D01*
X109254963Y-95643024D01*
X109262826Y-95638658D01*
X109262975Y-95638581D01*
X109262981Y-95638580D01*
X109417884Y-95559653D01*
X109558533Y-95457465D01*
X109681465Y-95334533D01*
X109704784Y-95302438D01*
X109761006Y-95259085D01*
X109806719Y-95250500D01*
X110411281Y-95250500D01*
X110479402Y-95270502D01*
X110513216Y-95302438D01*
X110536534Y-95334532D01*
X110536539Y-95334538D01*
X110659464Y-95457463D01*
X110659467Y-95457465D01*
X110800116Y-95559653D01*
X110955019Y-95638580D01*
X111120362Y-95692303D01*
X111292074Y-95719500D01*
X111292077Y-95719500D01*
X111465923Y-95719500D01*
X111465926Y-95719500D01*
X111637638Y-95692303D01*
X111802981Y-95638580D01*
X111957884Y-95559653D01*
X112098533Y-95457465D01*
X112221465Y-95334533D01*
X112323653Y-95193884D01*
X112402580Y-95038981D01*
X112456303Y-94873638D01*
X112483500Y-94701926D01*
X112483500Y-94528074D01*
X112456303Y-94356362D01*
X112402580Y-94191019D01*
X112323653Y-94036116D01*
X112276281Y-93970915D01*
X112221463Y-93895464D01*
X112098535Y-93772536D01*
X111957887Y-93670349D01*
X111957886Y-93670348D01*
X111957884Y-93670347D01*
X111802981Y-93591420D01*
X111802978Y-93591419D01*
X111802976Y-93591418D01*
X111637642Y-93537698D01*
X111637640Y-93537697D01*
X111637638Y-93537697D01*
X111465926Y-93510500D01*
X111292074Y-93510500D01*
X111120362Y-93537697D01*
X111120360Y-93537697D01*
X111120357Y-93537698D01*
X110955023Y-93591418D01*
X110955017Y-93591421D01*
X110800112Y-93670349D01*
X110659464Y-93772536D01*
X110536539Y-93895461D01*
X110536534Y-93895467D01*
X110513216Y-93927562D01*
X110456994Y-93970915D01*
X110411281Y-93979500D01*
X109806719Y-93979500D01*
X109738598Y-93959498D01*
X109704784Y-93927562D01*
X109681465Y-93895467D01*
X109681460Y-93895461D01*
X109558535Y-93772536D01*
X109417887Y-93670349D01*
X109417886Y-93670348D01*
X109417884Y-93670347D01*
X109262981Y-93591420D01*
X109262978Y-93591419D01*
X109262976Y-93591418D01*
X109097642Y-93537698D01*
X109097640Y-93537697D01*
X109097638Y-93537697D01*
X108925926Y-93510500D01*
X108752074Y-93510500D01*
X108580362Y-93537697D01*
X108580360Y-93537697D01*
X108580357Y-93537698D01*
X108415023Y-93591418D01*
X108415017Y-93591421D01*
X108260112Y-93670349D01*
X108119464Y-93772536D01*
X107996536Y-93895464D01*
X107894349Y-94036112D01*
X107815421Y-94191017D01*
X107815418Y-94191023D01*
X107761698Y-94356357D01*
X107761697Y-94356360D01*
X107761697Y-94356362D01*
X107734500Y-94528074D01*
X106343807Y-94528074D01*
X106257108Y-94441375D01*
X106153022Y-94371827D01*
X106037369Y-94323922D01*
X105914593Y-94299500D01*
X105914591Y-94299500D01*
X104961409Y-94299500D01*
X104961406Y-94299500D01*
X104838630Y-94323922D01*
X104838625Y-94323924D01*
X104725194Y-94370909D01*
X104676976Y-94380500D01*
X104404666Y-94380500D01*
X104378766Y-94384602D01*
X104309946Y-94395501D01*
X104195776Y-94453673D01*
X104105173Y-94544276D01*
X104047001Y-94658446D01*
X104032000Y-94753167D01*
X104032000Y-95116833D01*
X104047542Y-95214970D01*
X104038442Y-95285381D01*
X103992719Y-95339694D01*
X103924891Y-95360666D01*
X103872509Y-95348486D01*
X103872484Y-95348565D01*
X103871565Y-95348266D01*
X103865895Y-95346948D01*
X103863056Y-95345501D01*
X103788672Y-95333721D01*
X103768334Y-95330500D01*
X103768332Y-95330500D01*
X103496024Y-95330500D01*
X103447806Y-95320909D01*
X103334374Y-95273924D01*
X103334369Y-95273922D01*
X103211593Y-95249500D01*
X103211591Y-95249500D01*
X101784591Y-95249500D01*
X101659409Y-95249500D01*
X101659406Y-95249500D01*
X101536630Y-95273922D01*
X101536625Y-95273924D01*
X101420977Y-95321827D01*
X101316896Y-95391372D01*
X101316889Y-95391377D01*
X101228377Y-95479889D01*
X101228372Y-95479896D01*
X101158827Y-95583977D01*
X101110924Y-95699625D01*
X101110922Y-95699630D01*
X101086500Y-95822406D01*
X100833500Y-95822406D01*
X100833500Y-92718257D01*
X100834578Y-92701812D01*
X100835321Y-92696161D01*
X100844300Y-92627962D01*
X100852809Y-92596201D01*
X100878132Y-92535066D01*
X100894572Y-92506593D01*
X100934854Y-92454097D01*
X100958097Y-92430854D01*
X101010593Y-92390572D01*
X101039066Y-92374132D01*
X101100201Y-92348809D01*
X101131962Y-92340300D01*
X101189053Y-92332784D01*
X101205813Y-92330578D01*
X101222258Y-92329500D01*
X101258875Y-92329500D01*
X112599125Y-92329500D01*
X112635742Y-92329500D01*
X112652187Y-92330578D01*
G37*
%TD.AperFunction*%
%TD*%
%TA.AperFunction,Conductor*%
%TO.N,GND*%
G36*
X144153187Y-91695578D02*
G01*
X144173207Y-91698213D01*
X144227035Y-91705299D01*
X144258800Y-91713810D01*
X144319929Y-91739131D01*
X144348409Y-91755574D01*
X144400897Y-91795850D01*
X144424149Y-91819102D01*
X144459770Y-91865524D01*
X144464424Y-91871589D01*
X144480870Y-91900073D01*
X144506187Y-91961193D01*
X144514700Y-91992965D01*
X144518835Y-92024377D01*
X144524422Y-92066810D01*
X144525500Y-92083257D01*
X144525500Y-107306742D01*
X144524422Y-107323187D01*
X144524422Y-107323189D01*
X144514700Y-107397034D01*
X144506187Y-107428806D01*
X144480870Y-107489926D01*
X144464424Y-107518410D01*
X144424153Y-107570893D01*
X144400893Y-107594153D01*
X144348410Y-107634424D01*
X144319926Y-107650870D01*
X144258806Y-107676187D01*
X144227034Y-107684700D01*
X144171424Y-107692021D01*
X144153187Y-107694422D01*
X144136742Y-107695500D01*
X140621400Y-107695500D01*
X140553279Y-107675498D01*
X140506786Y-107621842D01*
X140496682Y-107551568D01*
X140526176Y-107486988D01*
X140532305Y-107480405D01*
X140580598Y-107432111D01*
X140580601Y-107432108D01*
X140580603Y-107432106D01*
X140687417Y-107285090D01*
X140769917Y-107123174D01*
X140826072Y-106950346D01*
X140854500Y-106770861D01*
X140854500Y-106589139D01*
X140826072Y-106409654D01*
X140769917Y-106236826D01*
X140687417Y-106074910D01*
X140580603Y-105927894D01*
X140580601Y-105927891D01*
X140452112Y-105799402D01*
X140452108Y-105799399D01*
X140452106Y-105799397D01*
X140387437Y-105752411D01*
X140344085Y-105696190D01*
X140335500Y-105650477D01*
X140335500Y-103127410D01*
X140335499Y-103127406D01*
X140311078Y-103004631D01*
X140263173Y-102888978D01*
X140193625Y-102784892D01*
X140105108Y-102696375D01*
X136996404Y-99587671D01*
X136962378Y-99525359D01*
X136959499Y-99498576D01*
X136959499Y-99171753D01*
X136959499Y-99171746D01*
X136953040Y-99111658D01*
X136902342Y-98975733D01*
X136867046Y-98928582D01*
X136865630Y-98926690D01*
X136840821Y-98860169D01*
X136840500Y-98851183D01*
X136840500Y-97407410D01*
X136840499Y-97407403D01*
X136838215Y-97395919D01*
X136828681Y-97347993D01*
X136816078Y-97284631D01*
X136768173Y-97168978D01*
X136698625Y-97064892D01*
X136610108Y-96976375D01*
X136534733Y-96901000D01*
X141012467Y-96901000D01*
X141809297Y-96901000D01*
X141774075Y-96962007D01*
X141740000Y-97089174D01*
X141740000Y-97220826D01*
X141774075Y-97347993D01*
X141809297Y-97409000D01*
X141012468Y-97409000D01*
X141013182Y-97413515D01*
X141013184Y-97413521D01*
X141066883Y-97578788D01*
X141066884Y-97578790D01*
X141145776Y-97733625D01*
X141247917Y-97874210D01*
X141370789Y-97997082D01*
X141511374Y-98099223D01*
X141666209Y-98178115D01*
X141666211Y-98178116D01*
X141831476Y-98231815D01*
X141986000Y-98256288D01*
X141986000Y-97585702D01*
X142047007Y-97620925D01*
X142174174Y-97655000D01*
X142305826Y-97655000D01*
X142432993Y-97620925D01*
X142494000Y-97585702D01*
X142494000Y-98256288D01*
X142648523Y-98231815D01*
X142813788Y-98178116D01*
X142813790Y-98178115D01*
X142968625Y-98099223D01*
X143109210Y-97997082D01*
X143232082Y-97874210D01*
X143334223Y-97733625D01*
X143413115Y-97578790D01*
X143413116Y-97578788D01*
X143466815Y-97413521D01*
X143466817Y-97413515D01*
X143467532Y-97409000D01*
X142670703Y-97409000D01*
X142705925Y-97347993D01*
X142740000Y-97220826D01*
X142740000Y-97089174D01*
X142705925Y-96962007D01*
X142670703Y-96901000D01*
X143467532Y-96901000D01*
X143466817Y-96896484D01*
X143466815Y-96896478D01*
X143413116Y-96731211D01*
X143413115Y-96731209D01*
X143334223Y-96576374D01*
X143232082Y-96435789D01*
X143109210Y-96312917D01*
X142968625Y-96210776D01*
X142813790Y-96131884D01*
X142813788Y-96131883D01*
X142648523Y-96078184D01*
X142494000Y-96053710D01*
X142494000Y-96724297D01*
X142432993Y-96689075D01*
X142305826Y-96655000D01*
X142174174Y-96655000D01*
X142047007Y-96689075D01*
X141986000Y-96724297D01*
X141986000Y-96053710D01*
X141831476Y-96078184D01*
X141666211Y-96131883D01*
X141666209Y-96131884D01*
X141511374Y-96210776D01*
X141370789Y-96312917D01*
X141247917Y-96435789D01*
X141145776Y-96576374D01*
X141066884Y-96731209D01*
X141066883Y-96731211D01*
X141013184Y-96896478D01*
X141013182Y-96896484D01*
X141012467Y-96901000D01*
X136534733Y-96901000D01*
X135753647Y-96119914D01*
X135719621Y-96057602D01*
X135718294Y-96011106D01*
X135724500Y-95971927D01*
X135724500Y-95798077D01*
X135718390Y-95759499D01*
X135697303Y-95626362D01*
X135643580Y-95461019D01*
X135643579Y-95461017D01*
X135642050Y-95456311D01*
X135644124Y-95455636D01*
X135637533Y-95394075D01*
X135669339Y-95330602D01*
X135730412Y-95294401D01*
X135761521Y-95290500D01*
X140877308Y-95290500D01*
X140945429Y-95310502D01*
X140991922Y-95364158D01*
X140995363Y-95372467D01*
X141042657Y-95499265D01*
X141042658Y-95499267D01*
X141129596Y-95615404D01*
X141245733Y-95702342D01*
X141381658Y-95753040D01*
X141441745Y-95759500D01*
X143038254Y-95759499D01*
X143098342Y-95753040D01*
X143234267Y-95702342D01*
X143350404Y-95615404D01*
X143437342Y-95499267D01*
X143488040Y-95363342D01*
X143494500Y-95303255D01*
X143494499Y-94006746D01*
X143488040Y-93946658D01*
X143437342Y-93810733D01*
X143350404Y-93694596D01*
X143234267Y-93607658D01*
X143234265Y-93607657D01*
X143234266Y-93607657D01*
X143098349Y-93556962D01*
X143098344Y-93556960D01*
X143098342Y-93556960D01*
X143068298Y-93553730D01*
X143038256Y-93550500D01*
X141441753Y-93550500D01*
X141441729Y-93550502D01*
X141381660Y-93556959D01*
X141381658Y-93556959D01*
X141245733Y-93607657D01*
X141129596Y-93694596D01*
X141042657Y-93810734D01*
X140995363Y-93937533D01*
X140952816Y-93994369D01*
X140886296Y-94019179D01*
X140877308Y-94019500D01*
X135721547Y-94019500D01*
X135653426Y-93999498D01*
X135606933Y-93945842D01*
X135596829Y-93875568D01*
X135609278Y-93836301D01*
X135643580Y-93768981D01*
X135697303Y-93603638D01*
X135724500Y-93431926D01*
X135724500Y-93258074D01*
X135697303Y-93086362D01*
X135643580Y-92921019D01*
X135564653Y-92766116D01*
X135462465Y-92625467D01*
X135462463Y-92625464D01*
X135339535Y-92502536D01*
X135198887Y-92400349D01*
X135198886Y-92400348D01*
X135198884Y-92400347D01*
X135043981Y-92321420D01*
X135043978Y-92321419D01*
X135043976Y-92321418D01*
X134878642Y-92267698D01*
X134878640Y-92267697D01*
X134878638Y-92267697D01*
X134706926Y-92240500D01*
X134533074Y-92240500D01*
X134361362Y-92267697D01*
X134361360Y-92267697D01*
X134361357Y-92267698D01*
X134196023Y-92321418D01*
X134196017Y-92321421D01*
X134041112Y-92400349D01*
X133900464Y-92502536D01*
X133777536Y-92625464D01*
X133675349Y-92766112D01*
X133596421Y-92921017D01*
X133596418Y-92921023D01*
X133542698Y-93086357D01*
X133542697Y-93086360D01*
X133542697Y-93086362D01*
X133515500Y-93258074D01*
X133515500Y-93431926D01*
X133542679Y-93603524D01*
X133542698Y-93603642D01*
X133575374Y-93704210D01*
X133596420Y-93768981D01*
X133675347Y-93923884D01*
X133675349Y-93923887D01*
X133777536Y-94064535D01*
X133900464Y-94187463D01*
X133900468Y-94187466D01*
X133932558Y-94210780D01*
X133975914Y-94267001D01*
X133984500Y-94312718D01*
X133984500Y-94917281D01*
X133964498Y-94985402D01*
X133932562Y-95019216D01*
X133900467Y-95042534D01*
X133900461Y-95042539D01*
X133777536Y-95165464D01*
X133675349Y-95306112D01*
X133596421Y-95461017D01*
X133596418Y-95461023D01*
X133542698Y-95626357D01*
X133542697Y-95626360D01*
X133542697Y-95626362D01*
X133515500Y-95798074D01*
X133515500Y-95971926D01*
X133542697Y-96143638D01*
X133542698Y-96143642D01*
X133590287Y-96290108D01*
X133596420Y-96308981D01*
X133667342Y-96448173D01*
X133675349Y-96463887D01*
X133777536Y-96604535D01*
X133900464Y-96727463D01*
X133945342Y-96760069D01*
X134041116Y-96829653D01*
X134196019Y-96908580D01*
X134361362Y-96962303D01*
X134533074Y-96989500D01*
X134533077Y-96989500D01*
X134706928Y-96989500D01*
X134746106Y-96983294D01*
X134816517Y-96992392D01*
X134854914Y-97018647D01*
X135532595Y-97696328D01*
X135566621Y-97758640D01*
X135569500Y-97785423D01*
X135569500Y-98851183D01*
X135549498Y-98919304D01*
X135544370Y-98926690D01*
X135507657Y-98975734D01*
X135456962Y-99111650D01*
X135456960Y-99111658D01*
X135450500Y-99171737D01*
X135450500Y-100218246D01*
X135450502Y-100218270D01*
X135456959Y-100278339D01*
X135456959Y-100278341D01*
X135507657Y-100414266D01*
X135507658Y-100414267D01*
X135594596Y-100530404D01*
X135710733Y-100617342D01*
X135846658Y-100668040D01*
X135906745Y-100674500D01*
X136233576Y-100674499D01*
X136301696Y-100694501D01*
X136322671Y-100711404D01*
X139027595Y-103416328D01*
X139061621Y-103478640D01*
X139064500Y-103505423D01*
X139064500Y-105650477D01*
X139044498Y-105718598D01*
X139012563Y-105752411D01*
X138957598Y-105792346D01*
X138947887Y-105799402D01*
X138819398Y-105927891D01*
X138712585Y-106074906D01*
X138630084Y-106236824D01*
X138630081Y-106236830D01*
X138573929Y-106409648D01*
X138573928Y-106409653D01*
X138573928Y-106409654D01*
X138545500Y-106589139D01*
X138545500Y-106770861D01*
X138558620Y-106853694D01*
X138573929Y-106950351D01*
X138630020Y-107122981D01*
X138630083Y-107123174D01*
X138712450Y-107284829D01*
X138712585Y-107285093D01*
X138819398Y-107432108D01*
X138867695Y-107480405D01*
X138901721Y-107542717D01*
X138896656Y-107613532D01*
X138854109Y-107670368D01*
X138787589Y-107695179D01*
X138778600Y-107695500D01*
X135328481Y-107695500D01*
X135260360Y-107675498D01*
X135239386Y-107658595D01*
X134704124Y-107123333D01*
X134793694Y-107099333D01*
X134896306Y-107040090D01*
X134980090Y-106956306D01*
X135039333Y-106853694D01*
X135063333Y-106764124D01*
X135597329Y-107298120D01*
X135597331Y-107298120D01*
X135606988Y-107284829D01*
X135689449Y-107122989D01*
X135689452Y-107122981D01*
X135745583Y-106950231D01*
X135774000Y-106770819D01*
X135774000Y-106589180D01*
X135745583Y-106409768D01*
X135689452Y-106237018D01*
X135689449Y-106237010D01*
X135606990Y-106075173D01*
X135597330Y-106061877D01*
X135063333Y-106595875D01*
X135039333Y-106506306D01*
X134980090Y-106403694D01*
X134896306Y-106319910D01*
X134793694Y-106260667D01*
X134704123Y-106236666D01*
X135238120Y-105702668D01*
X135238121Y-105702668D01*
X135224824Y-105693009D01*
X135062989Y-105610550D01*
X135062981Y-105610547D01*
X134890231Y-105554416D01*
X134710820Y-105526000D01*
X134529180Y-105526000D01*
X134349768Y-105554416D01*
X134177018Y-105610547D01*
X134177010Y-105610550D01*
X134015184Y-105693004D01*
X134015172Y-105693011D01*
X134001877Y-105702668D01*
X134535875Y-106236666D01*
X134446306Y-106260667D01*
X134343694Y-106319910D01*
X134259910Y-106403694D01*
X134200667Y-106506306D01*
X134176666Y-106595875D01*
X133642668Y-106061877D01*
X133633011Y-106075172D01*
X133633004Y-106075184D01*
X133550550Y-106237010D01*
X133550547Y-106237018D01*
X133494416Y-106409768D01*
X133466000Y-106589180D01*
X133466000Y-106770819D01*
X133494416Y-106950231D01*
X133550547Y-107122981D01*
X133550550Y-107122989D01*
X133633009Y-107284824D01*
X133642668Y-107298120D01*
X134176666Y-106764122D01*
X134200667Y-106853694D01*
X134259910Y-106956306D01*
X134343694Y-107040090D01*
X134446306Y-107099333D01*
X134535876Y-107123333D01*
X134000613Y-107658596D01*
X133938301Y-107692621D01*
X133911518Y-107695500D01*
X130461400Y-107695500D01*
X130393279Y-107675498D01*
X130346786Y-107621842D01*
X130336682Y-107551568D01*
X130366176Y-107486988D01*
X130372305Y-107480405D01*
X130420598Y-107432111D01*
X130420601Y-107432108D01*
X130420603Y-107432106D01*
X130527417Y-107285090D01*
X130609917Y-107123174D01*
X130666072Y-106950346D01*
X130694500Y-106770861D01*
X130694500Y-106589139D01*
X130666072Y-106409654D01*
X130609917Y-106236826D01*
X130527417Y-106074910D01*
X130420603Y-105927894D01*
X130420601Y-105927891D01*
X130292108Y-105799398D01*
X130145093Y-105692585D01*
X130145092Y-105692584D01*
X130145090Y-105692583D01*
X129983174Y-105610083D01*
X129983161Y-105610078D01*
X129983159Y-105610077D01*
X129978602Y-105608190D01*
X129978998Y-105607232D01*
X129924558Y-105570006D01*
X129896921Y-105504609D01*
X129896100Y-105490247D01*
X129896100Y-104708055D01*
X131571500Y-104708055D01*
X131571500Y-104841945D01*
X131606153Y-104971274D01*
X131606154Y-104971276D01*
X131606155Y-104971278D01*
X131673097Y-105087224D01*
X131673099Y-105087227D01*
X131767772Y-105181900D01*
X131767775Y-105181902D01*
X131859226Y-105234701D01*
X131883726Y-105248847D01*
X132013055Y-105283500D01*
X132013057Y-105283500D01*
X132146943Y-105283500D01*
X132146945Y-105283500D01*
X132276274Y-105248847D01*
X132392226Y-105181901D01*
X132392227Y-105181900D01*
X132406123Y-105168005D01*
X132468435Y-105133979D01*
X132495218Y-105131100D01*
X133739379Y-105131100D01*
X133739381Y-105131100D01*
X133829950Y-105106833D01*
X133911151Y-105059951D01*
X134547451Y-104423651D01*
X134579524Y-104368099D01*
X134594333Y-104342450D01*
X134605398Y-104301153D01*
X134618601Y-104251881D01*
X134618601Y-104158119D01*
X134618601Y-104150402D01*
X134618600Y-104150384D01*
X134618600Y-103911021D01*
X134638602Y-103842900D01*
X134692258Y-103796407D01*
X134700540Y-103792975D01*
X134769267Y-103767342D01*
X134885404Y-103680404D01*
X134972342Y-103564267D01*
X135023040Y-103428342D01*
X135029500Y-103368255D01*
X135029499Y-102371746D01*
X135023040Y-102311658D01*
X134972342Y-102175733D01*
X134885404Y-102059596D01*
X134769267Y-101972658D01*
X134769265Y-101972657D01*
X134769266Y-101972657D01*
X134633349Y-101921962D01*
X134633344Y-101921960D01*
X134633342Y-101921960D01*
X134603298Y-101918730D01*
X134573256Y-101915500D01*
X133951753Y-101915500D01*
X133951729Y-101915502D01*
X133891660Y-101921959D01*
X133891658Y-101921959D01*
X133755733Y-101972657D01*
X133639596Y-102059596D01*
X133552657Y-102175734D01*
X133501962Y-102311650D01*
X133501960Y-102311658D01*
X133495500Y-102371737D01*
X133495500Y-103368246D01*
X133495502Y-103368270D01*
X133501959Y-103428339D01*
X133501959Y-103428341D01*
X133552657Y-103564266D01*
X133552658Y-103564267D01*
X133639596Y-103680404D01*
X133755733Y-103767342D01*
X133824435Y-103792967D01*
X133842447Y-103806450D01*
X133862912Y-103815797D01*
X133870310Y-103827309D01*
X133881268Y-103835512D01*
X133889131Y-103856595D01*
X133901296Y-103875523D01*
X133904498Y-103897793D01*
X133906079Y-103902032D01*
X133906400Y-103911021D01*
X133906400Y-104005308D01*
X133886398Y-104073429D01*
X133869495Y-104094403D01*
X133581903Y-104381995D01*
X133519591Y-104416021D01*
X133492808Y-104418900D01*
X132495218Y-104418900D01*
X132427097Y-104398898D01*
X132406123Y-104381995D01*
X132392227Y-104368099D01*
X132392224Y-104368097D01*
X132276278Y-104301155D01*
X132276276Y-104301154D01*
X132276274Y-104301153D01*
X132146945Y-104266500D01*
X132013055Y-104266500D01*
X131883726Y-104301153D01*
X131883724Y-104301154D01*
X131883721Y-104301155D01*
X131767775Y-104368097D01*
X131767772Y-104368099D01*
X131673099Y-104462772D01*
X131673097Y-104462775D01*
X131606155Y-104578721D01*
X131606154Y-104578724D01*
X131606153Y-104578726D01*
X131571500Y-104708055D01*
X129896100Y-104708055D01*
X129896100Y-104164899D01*
X129916102Y-104096778D01*
X129969758Y-104050285D01*
X129983149Y-104045071D01*
X130021561Y-104032591D01*
X130197501Y-103942944D01*
X130357252Y-103826879D01*
X130496879Y-103687252D01*
X130612944Y-103527501D01*
X130702591Y-103351561D01*
X130715067Y-103313163D01*
X130755140Y-103254558D01*
X130820537Y-103226921D01*
X130834900Y-103226100D01*
X131544501Y-103226100D01*
X131612622Y-103246102D01*
X131659115Y-103299758D01*
X131670501Y-103352100D01*
X131670501Y-103368246D01*
X131670502Y-103368270D01*
X131676959Y-103428339D01*
X131676959Y-103428341D01*
X131727657Y-103564266D01*
X131727658Y-103564267D01*
X131814596Y-103680404D01*
X131930733Y-103767342D01*
X132066658Y-103818040D01*
X132126745Y-103824500D01*
X132748254Y-103824499D01*
X132808342Y-103818040D01*
X132944267Y-103767342D01*
X133060404Y-103680404D01*
X133147342Y-103564267D01*
X133198040Y-103428342D01*
X133204500Y-103368255D01*
X133204499Y-102371746D01*
X133198040Y-102311658D01*
X133147342Y-102175733D01*
X133144193Y-102167290D01*
X133146294Y-102166506D01*
X133133844Y-102109283D01*
X133158652Y-102042762D01*
X133170421Y-102029179D01*
X134488197Y-100711404D01*
X134550509Y-100677378D01*
X134577292Y-100674499D01*
X134603247Y-100674499D01*
X134603254Y-100674499D01*
X134663342Y-100668040D01*
X134799267Y-100617342D01*
X134915404Y-100530404D01*
X135002342Y-100414267D01*
X135053040Y-100278342D01*
X135059500Y-100218255D01*
X135059499Y-99171746D01*
X135053040Y-99111658D01*
X135002342Y-98975733D01*
X134915404Y-98859596D01*
X134799267Y-98772658D01*
X134799265Y-98772657D01*
X134799266Y-98772657D01*
X134663349Y-98721962D01*
X134663344Y-98721960D01*
X134663342Y-98721960D01*
X134633298Y-98718730D01*
X134603256Y-98715500D01*
X134006753Y-98715500D01*
X134006729Y-98715502D01*
X133946660Y-98721959D01*
X133946658Y-98721959D01*
X133810733Y-98772657D01*
X133694596Y-98859596D01*
X133607657Y-98975734D01*
X133556962Y-99111650D01*
X133556960Y-99111658D01*
X133550500Y-99171737D01*
X133550500Y-100218246D01*
X133550502Y-100218270D01*
X133556959Y-100278339D01*
X133556959Y-100278341D01*
X133607657Y-100414266D01*
X133615210Y-100424355D01*
X133640021Y-100490875D01*
X133624930Y-100560249D01*
X133603437Y-100588959D01*
X132313801Y-101878595D01*
X132251489Y-101912621D01*
X132224707Y-101915500D01*
X132126753Y-101915500D01*
X132126729Y-101915502D01*
X132066660Y-101921959D01*
X132066658Y-101921959D01*
X131930733Y-101972657D01*
X131814596Y-102059596D01*
X131727657Y-102175734D01*
X131676962Y-102311650D01*
X131676960Y-102311658D01*
X131670500Y-102371737D01*
X131670500Y-102387900D01*
X131650498Y-102456021D01*
X131596842Y-102502514D01*
X131544500Y-102513900D01*
X130834900Y-102513900D01*
X130766779Y-102493898D01*
X130720286Y-102440242D01*
X130715067Y-102426836D01*
X130702592Y-102388442D01*
X130702591Y-102388441D01*
X130702591Y-102388439D01*
X130612944Y-102212499D01*
X130496879Y-102052748D01*
X130496876Y-102052745D01*
X130496874Y-102052742D01*
X130386962Y-101942830D01*
X130352936Y-101880518D01*
X130358001Y-101809703D01*
X130386962Y-101764639D01*
X130543031Y-101608570D01*
X130817451Y-101334151D01*
X130864333Y-101252950D01*
X130888600Y-101162381D01*
X130888600Y-101068619D01*
X130888600Y-100736021D01*
X130908602Y-100667900D01*
X130962258Y-100621407D01*
X130970540Y-100617975D01*
X131039267Y-100592342D01*
X131155404Y-100505404D01*
X131242342Y-100389267D01*
X131293040Y-100253342D01*
X131299500Y-100193255D01*
X131299499Y-99196746D01*
X131293040Y-99136658D01*
X131242342Y-99000733D01*
X131155404Y-98884596D01*
X131039267Y-98797658D01*
X131039265Y-98797657D01*
X131039266Y-98797657D01*
X130903349Y-98746962D01*
X130903344Y-98746960D01*
X130903342Y-98746960D01*
X130873298Y-98743730D01*
X130843256Y-98740500D01*
X130221753Y-98740500D01*
X130221729Y-98740502D01*
X130161660Y-98746959D01*
X130161658Y-98746959D01*
X130025733Y-98797657D01*
X129909596Y-98884596D01*
X129822657Y-99000734D01*
X129771962Y-99136650D01*
X129771960Y-99136658D01*
X129765500Y-99196737D01*
X129765500Y-99212900D01*
X129762908Y-99221725D01*
X129764218Y-99230832D01*
X129753062Y-99255257D01*
X129745498Y-99281021D01*
X129738544Y-99287045D01*
X129734724Y-99295412D01*
X129712138Y-99309926D01*
X129691842Y-99327514D01*
X129681155Y-99329838D01*
X129674998Y-99333796D01*
X129639500Y-99338900D01*
X129440499Y-99338900D01*
X129372378Y-99318898D01*
X129325885Y-99265242D01*
X129314499Y-99212900D01*
X129314499Y-99196753D01*
X129314499Y-99196746D01*
X129308040Y-99136658D01*
X129257342Y-99000733D01*
X129170404Y-98884596D01*
X129054267Y-98797658D01*
X129054265Y-98797657D01*
X129054266Y-98797657D01*
X128918349Y-98746962D01*
X128918344Y-98746960D01*
X128918342Y-98746960D01*
X128910831Y-98746152D01*
X128858262Y-98740500D01*
X128395421Y-98740500D01*
X128327300Y-98720498D01*
X128280807Y-98666842D01*
X128270703Y-98596568D01*
X128300197Y-98531988D01*
X128306312Y-98525419D01*
X129882112Y-96949619D01*
X129932273Y-96918882D01*
X129954818Y-96911557D01*
X129963981Y-96908580D01*
X130118884Y-96829653D01*
X130259533Y-96727465D01*
X130382465Y-96604533D01*
X130484653Y-96463884D01*
X130563580Y-96308981D01*
X130617303Y-96143638D01*
X130644500Y-95971926D01*
X130644500Y-95798074D01*
X130975500Y-95798074D01*
X130975500Y-95971926D01*
X131002697Y-96143638D01*
X131002698Y-96143642D01*
X131050287Y-96290108D01*
X131056420Y-96308981D01*
X131127342Y-96448173D01*
X131135349Y-96463887D01*
X131237536Y-96604535D01*
X131360464Y-96727463D01*
X131360467Y-96727465D01*
X131501116Y-96829653D01*
X131655103Y-96908113D01*
X131706718Y-96956860D01*
X131723900Y-97020379D01*
X131723900Y-97836880D01*
X131748166Y-97927446D01*
X131748169Y-97927454D01*
X131795047Y-98008649D01*
X131795048Y-98008650D01*
X131795049Y-98008651D01*
X131885621Y-98099223D01*
X131964495Y-98178096D01*
X131998520Y-98240408D01*
X132001400Y-98267192D01*
X132001400Y-98653978D01*
X131981398Y-98722099D01*
X131927742Y-98768592D01*
X131919434Y-98772033D01*
X131850733Y-98797658D01*
X131734596Y-98884596D01*
X131647657Y-99000734D01*
X131596962Y-99136650D01*
X131596960Y-99136658D01*
X131590500Y-99196737D01*
X131590500Y-100193246D01*
X131590502Y-100193270D01*
X131596959Y-100253339D01*
X131596959Y-100253341D01*
X131647657Y-100389266D01*
X131669515Y-100418465D01*
X131734596Y-100505404D01*
X131850733Y-100592342D01*
X131986658Y-100643040D01*
X132046745Y-100649500D01*
X132668254Y-100649499D01*
X132728342Y-100643040D01*
X132864267Y-100592342D01*
X132980404Y-100505404D01*
X133067342Y-100389267D01*
X133118040Y-100253342D01*
X133124500Y-100193255D01*
X133124499Y-99196746D01*
X133118040Y-99136658D01*
X133067342Y-99000733D01*
X132980404Y-98884596D01*
X132864267Y-98797658D01*
X132830971Y-98785239D01*
X132795566Y-98772033D01*
X132738731Y-98729486D01*
X132713921Y-98662965D01*
X132713600Y-98653978D01*
X132713600Y-98020621D01*
X132713600Y-98020619D01*
X132689333Y-97930050D01*
X132675405Y-97905927D01*
X132642453Y-97848852D01*
X132642449Y-97848847D01*
X132630482Y-97836880D01*
X132576151Y-97782549D01*
X132576149Y-97782547D01*
X132473005Y-97679403D01*
X132438979Y-97617091D01*
X132436100Y-97590308D01*
X132436100Y-97020379D01*
X132456102Y-96952258D01*
X132504896Y-96908113D01*
X132658884Y-96829653D01*
X132799533Y-96727465D01*
X132922465Y-96604533D01*
X133024653Y-96463884D01*
X133103580Y-96308981D01*
X133157303Y-96143638D01*
X133184500Y-95971926D01*
X133184500Y-95798074D01*
X133157303Y-95626362D01*
X133103580Y-95461019D01*
X133024653Y-95306116D01*
X132975246Y-95238114D01*
X132922463Y-95165464D01*
X132799535Y-95042536D01*
X132658887Y-94940349D01*
X132658886Y-94940348D01*
X132658884Y-94940347D01*
X132503981Y-94861420D01*
X132503978Y-94861419D01*
X132503976Y-94861418D01*
X132338642Y-94807698D01*
X132338640Y-94807697D01*
X132338638Y-94807697D01*
X132166926Y-94780500D01*
X131993074Y-94780500D01*
X131821362Y-94807697D01*
X131821360Y-94807697D01*
X131821357Y-94807698D01*
X131656023Y-94861418D01*
X131656017Y-94861421D01*
X131501112Y-94940349D01*
X131360464Y-95042536D01*
X131237536Y-95165464D01*
X131135349Y-95306112D01*
X131056421Y-95461017D01*
X131056418Y-95461023D01*
X131002698Y-95626357D01*
X131002697Y-95626360D01*
X131002697Y-95626362D01*
X130975500Y-95798074D01*
X130644500Y-95798074D01*
X130617303Y-95626362D01*
X130563580Y-95461019D01*
X130484653Y-95306116D01*
X130435246Y-95238114D01*
X130382463Y-95165464D01*
X130259538Y-95042539D01*
X130259532Y-95042534D01*
X130227438Y-95019216D01*
X130184085Y-94962994D01*
X130175500Y-94917281D01*
X130175500Y-94312718D01*
X130185427Y-94278909D01*
X130195320Y-94244881D01*
X130195463Y-94244728D01*
X130195502Y-94244597D01*
X130218733Y-94217714D01*
X130222924Y-94214062D01*
X130259533Y-94187465D01*
X130382465Y-94064533D01*
X130484653Y-93923884D01*
X130563580Y-93768981D01*
X130617303Y-93603638D01*
X130644500Y-93431926D01*
X130644500Y-93258116D01*
X130976000Y-93258116D01*
X130976000Y-93431883D01*
X131003185Y-93603524D01*
X131056883Y-93768788D01*
X131056884Y-93768790D01*
X131135776Y-93923625D01*
X131138463Y-93927324D01*
X131595841Y-93469946D01*
X131614075Y-93537993D01*
X131679901Y-93652007D01*
X131772993Y-93745099D01*
X131887007Y-93810925D01*
X131955051Y-93829157D01*
X131497673Y-94286535D01*
X131501375Y-94289223D01*
X131501385Y-94289230D01*
X131656203Y-94368113D01*
X131656211Y-94368116D01*
X131821475Y-94421814D01*
X131993116Y-94449000D01*
X132166884Y-94449000D01*
X132338524Y-94421814D01*
X132503788Y-94368116D01*
X132503796Y-94368113D01*
X132658615Y-94289229D01*
X132662325Y-94286534D01*
X132204948Y-93829157D01*
X132272993Y-93810925D01*
X132387007Y-93745099D01*
X132480099Y-93652007D01*
X132545925Y-93537993D01*
X132564157Y-93469948D01*
X133021534Y-93927325D01*
X133024229Y-93923615D01*
X133103113Y-93768796D01*
X133103116Y-93768788D01*
X133156814Y-93603524D01*
X133184000Y-93431883D01*
X133184000Y-93258116D01*
X133156814Y-93086475D01*
X133103116Y-92921211D01*
X133103113Y-92921203D01*
X133024230Y-92766385D01*
X133024223Y-92766375D01*
X133021534Y-92762673D01*
X132564157Y-93220050D01*
X132545925Y-93152007D01*
X132480099Y-93037993D01*
X132387007Y-92944901D01*
X132272993Y-92879075D01*
X132204947Y-92860841D01*
X132662325Y-92403463D01*
X132658625Y-92400776D01*
X132503790Y-92321884D01*
X132503788Y-92321883D01*
X132338524Y-92268185D01*
X132166884Y-92241000D01*
X131993116Y-92241000D01*
X131821475Y-92268185D01*
X131656211Y-92321883D01*
X131656209Y-92321884D01*
X131501375Y-92400775D01*
X131497674Y-92403463D01*
X131497674Y-92403465D01*
X131955051Y-92860842D01*
X131887007Y-92879075D01*
X131772993Y-92944901D01*
X131679901Y-93037993D01*
X131614075Y-93152007D01*
X131595842Y-93220051D01*
X131138465Y-92762674D01*
X131138463Y-92762674D01*
X131135775Y-92766375D01*
X131056884Y-92921209D01*
X131056883Y-92921211D01*
X131003185Y-93086475D01*
X130976000Y-93258116D01*
X130644500Y-93258116D01*
X130644500Y-93258074D01*
X130617303Y-93086362D01*
X130563580Y-92921019D01*
X130484653Y-92766116D01*
X130382465Y-92625467D01*
X130382463Y-92625464D01*
X130259535Y-92502536D01*
X130118887Y-92400349D01*
X130118886Y-92400348D01*
X130118884Y-92400347D01*
X129963981Y-92321420D01*
X129963978Y-92321419D01*
X129963976Y-92321418D01*
X129798642Y-92267698D01*
X129798640Y-92267697D01*
X129798638Y-92267697D01*
X129626926Y-92240500D01*
X129453074Y-92240500D01*
X129281362Y-92267697D01*
X129281360Y-92267697D01*
X129281357Y-92267698D01*
X129116023Y-92321418D01*
X129116017Y-92321421D01*
X128961112Y-92400349D01*
X128820464Y-92502536D01*
X128697536Y-92625464D01*
X128595349Y-92766112D01*
X128516421Y-92921017D01*
X128516418Y-92921023D01*
X128462698Y-93086357D01*
X128462697Y-93086360D01*
X128462697Y-93086362D01*
X128435500Y-93258074D01*
X128435500Y-93431926D01*
X128462679Y-93603524D01*
X128462698Y-93603642D01*
X128495374Y-93704210D01*
X128516420Y-93768981D01*
X128595347Y-93923884D01*
X128595349Y-93923887D01*
X128697536Y-94064535D01*
X128820464Y-94187463D01*
X128820468Y-94187466D01*
X128852558Y-94210780D01*
X128895914Y-94267001D01*
X128904500Y-94312718D01*
X128904500Y-94917281D01*
X128884498Y-94985402D01*
X128852562Y-95019216D01*
X128820467Y-95042534D01*
X128820461Y-95042539D01*
X128697536Y-95165464D01*
X128595349Y-95306112D01*
X128516421Y-95461017D01*
X128516418Y-95461023D01*
X128462698Y-95626357D01*
X128462697Y-95626360D01*
X128462697Y-95626362D01*
X128435500Y-95798074D01*
X128435500Y-95971926D01*
X128462697Y-96143638D01*
X128462698Y-96143642D01*
X128516418Y-96308976D01*
X128516423Y-96308988D01*
X128545360Y-96365780D01*
X128558464Y-96435557D01*
X128531763Y-96501341D01*
X128522188Y-96512077D01*
X126317394Y-98716871D01*
X126317392Y-98716875D01*
X126268407Y-98765859D01*
X126223351Y-98794816D01*
X126215733Y-98797657D01*
X126215729Y-98797659D01*
X126099596Y-98884595D01*
X126012657Y-99000734D01*
X125961962Y-99136650D01*
X125961960Y-99136658D01*
X125955500Y-99196737D01*
X125955500Y-100193246D01*
X125955502Y-100193270D01*
X125961959Y-100253339D01*
X125961959Y-100253341D01*
X126012657Y-100389266D01*
X126012659Y-100389270D01*
X126061868Y-100455004D01*
X126086679Y-100521524D01*
X126087000Y-100530513D01*
X126087000Y-101562075D01*
X126066998Y-101630196D01*
X126050095Y-101651171D01*
X125832167Y-101869098D01*
X125769855Y-101903123D01*
X125699039Y-101898058D01*
X125642204Y-101855511D01*
X125642203Y-101855510D01*
X125627984Y-101836516D01*
X125570404Y-101759596D01*
X125454267Y-101672658D01*
X125454265Y-101672657D01*
X125454266Y-101672657D01*
X125318349Y-101621962D01*
X125318344Y-101621960D01*
X125318342Y-101621960D01*
X125310831Y-101621152D01*
X125258262Y-101615500D01*
X125201539Y-101615500D01*
X125133418Y-101595498D01*
X125086925Y-101541842D01*
X125076821Y-101471568D01*
X125106315Y-101406988D01*
X125138540Y-101380380D01*
X125153226Y-101371901D01*
X125247901Y-101277226D01*
X125314847Y-101161274D01*
X125349500Y-101031945D01*
X125349500Y-100898055D01*
X125314847Y-100768726D01*
X125278358Y-100705527D01*
X125261621Y-100636533D01*
X125284841Y-100569441D01*
X125311967Y-100541662D01*
X125360404Y-100505404D01*
X125447342Y-100389267D01*
X125498040Y-100253342D01*
X125504500Y-100193255D01*
X125504499Y-99196746D01*
X125498040Y-99136658D01*
X125447342Y-99000733D01*
X125360404Y-98884596D01*
X125244267Y-98797658D01*
X125244265Y-98797657D01*
X125244266Y-98797657D01*
X125108349Y-98746962D01*
X125108344Y-98746960D01*
X125108342Y-98746960D01*
X125078298Y-98743730D01*
X125048256Y-98740500D01*
X124426753Y-98740500D01*
X124426729Y-98740502D01*
X124366660Y-98746959D01*
X124366658Y-98746959D01*
X124230733Y-98797657D01*
X124114596Y-98884596D01*
X124027657Y-99000734D01*
X123976962Y-99136650D01*
X123976960Y-99136658D01*
X123970500Y-99196737D01*
X123970500Y-100193246D01*
X123970502Y-100193270D01*
X123976959Y-100253339D01*
X123976959Y-100253341D01*
X124027657Y-100389266D01*
X124049515Y-100418465D01*
X124114596Y-100505404D01*
X124230733Y-100592342D01*
X124290409Y-100614600D01*
X124347241Y-100657145D01*
X124372052Y-100723665D01*
X124368080Y-100765264D01*
X124349221Y-100835650D01*
X124332500Y-100898055D01*
X124332500Y-101031945D01*
X124367153Y-101161274D01*
X124367154Y-101161276D01*
X124367155Y-101161278D01*
X124434097Y-101277224D01*
X124434099Y-101277227D01*
X124528772Y-101371900D01*
X124543460Y-101380380D01*
X124592454Y-101431762D01*
X124605891Y-101501476D01*
X124579505Y-101567387D01*
X124521673Y-101608570D01*
X124480461Y-101615500D01*
X123661753Y-101615500D01*
X123661729Y-101615502D01*
X123601660Y-101621959D01*
X123601658Y-101621959D01*
X123465733Y-101672657D01*
X123349596Y-101759596D01*
X123262657Y-101875734D01*
X123211962Y-102011650D01*
X123211960Y-102011658D01*
X123205500Y-102071737D01*
X123205500Y-103668246D01*
X123205502Y-103668270D01*
X123211959Y-103728339D01*
X123211959Y-103728341D01*
X123262657Y-103864266D01*
X123262658Y-103864267D01*
X123349596Y-103980404D01*
X123465733Y-104067342D01*
X123601658Y-104118040D01*
X123661745Y-104124500D01*
X123698499Y-104124499D01*
X123766618Y-104144499D01*
X123813112Y-104198154D01*
X123824500Y-104250499D01*
X123824500Y-105650477D01*
X123804498Y-105718598D01*
X123772563Y-105752411D01*
X123717598Y-105792346D01*
X123707887Y-105799402D01*
X123579398Y-105927891D01*
X123472585Y-106074906D01*
X123390084Y-106236824D01*
X123390081Y-106236830D01*
X123333929Y-106409648D01*
X123333928Y-106409653D01*
X123333928Y-106409654D01*
X123305500Y-106589139D01*
X123305500Y-106770861D01*
X123318620Y-106853694D01*
X123333929Y-106950351D01*
X123390020Y-107122981D01*
X123390083Y-107123174D01*
X123472450Y-107284829D01*
X123472585Y-107285093D01*
X123579398Y-107432108D01*
X123627695Y-107480405D01*
X123661721Y-107542717D01*
X123656656Y-107613532D01*
X123614109Y-107670368D01*
X123547589Y-107695179D01*
X123538600Y-107695500D01*
X114943258Y-107695500D01*
X114926812Y-107694422D01*
X114852966Y-107684700D01*
X114821194Y-107676187D01*
X114760073Y-107650870D01*
X114731589Y-107634424D01*
X114704362Y-107613532D01*
X114679102Y-107594149D01*
X114655850Y-107570897D01*
X114615574Y-107518409D01*
X114599131Y-107489929D01*
X114573810Y-107428800D01*
X114565299Y-107397032D01*
X114555578Y-107323187D01*
X114554500Y-107306742D01*
X114554500Y-101994930D01*
X115730500Y-101994930D01*
X115730500Y-103745063D01*
X115730501Y-103745073D01*
X115745265Y-103819300D01*
X115801516Y-103903484D01*
X115885697Y-103959733D01*
X115885699Y-103959734D01*
X115959933Y-103974500D01*
X117710066Y-103974499D01*
X117710069Y-103974498D01*
X117710073Y-103974498D01*
X117759326Y-103964701D01*
X117784301Y-103959734D01*
X117868484Y-103903484D01*
X117924734Y-103819301D01*
X117939500Y-103745067D01*
X117939499Y-102783116D01*
X118271000Y-102783116D01*
X118271000Y-102956883D01*
X118298185Y-103128524D01*
X118351883Y-103293788D01*
X118351884Y-103293790D01*
X118430776Y-103448625D01*
X118433463Y-103452324D01*
X118890841Y-102994946D01*
X118909075Y-103062993D01*
X118974901Y-103177007D01*
X119067993Y-103270099D01*
X119182007Y-103335925D01*
X119250051Y-103354157D01*
X118792673Y-103811535D01*
X118796375Y-103814223D01*
X118796385Y-103814230D01*
X118951203Y-103893113D01*
X118951211Y-103893116D01*
X119116475Y-103946814D01*
X119288116Y-103974000D01*
X119461884Y-103974000D01*
X119633524Y-103946814D01*
X119798788Y-103893116D01*
X119798796Y-103893113D01*
X119953615Y-103814229D01*
X119957325Y-103811534D01*
X119499948Y-103354157D01*
X119567993Y-103335925D01*
X119682007Y-103270099D01*
X119775099Y-103177007D01*
X119840925Y-103062993D01*
X119859157Y-102994948D01*
X120316534Y-103452325D01*
X120319229Y-103448615D01*
X120398113Y-103293796D01*
X120398116Y-103293788D01*
X120451814Y-103128524D01*
X120479000Y-102956883D01*
X120479000Y-102783116D01*
X120451814Y-102611475D01*
X120398116Y-102446211D01*
X120398113Y-102446203D01*
X120319230Y-102291385D01*
X120319223Y-102291375D01*
X120316534Y-102287673D01*
X119859157Y-102745050D01*
X119840925Y-102677007D01*
X119775099Y-102562993D01*
X119682007Y-102469901D01*
X119567993Y-102404075D01*
X119499947Y-102385841D01*
X119957325Y-101928463D01*
X119953625Y-101925776D01*
X119798790Y-101846884D01*
X119798788Y-101846883D01*
X119633524Y-101793185D01*
X119461884Y-101766000D01*
X119288116Y-101766000D01*
X119116475Y-101793185D01*
X118951211Y-101846883D01*
X118951209Y-101846884D01*
X118796375Y-101925775D01*
X118792674Y-101928463D01*
X118792674Y-101928465D01*
X119250051Y-102385842D01*
X119182007Y-102404075D01*
X119067993Y-102469901D01*
X118974901Y-102562993D01*
X118909075Y-102677007D01*
X118890842Y-102745051D01*
X118433465Y-102287674D01*
X118433463Y-102287674D01*
X118430775Y-102291375D01*
X118351884Y-102446209D01*
X118351883Y-102446211D01*
X118298185Y-102611475D01*
X118271000Y-102783116D01*
X117939499Y-102783116D01*
X117939499Y-101994934D01*
X117939499Y-101994933D01*
X117939499Y-101994931D01*
X117924734Y-101920699D01*
X117912990Y-101903123D01*
X117868484Y-101836516D01*
X117868483Y-101836515D01*
X117784302Y-101780266D01*
X117710067Y-101765500D01*
X115959936Y-101765500D01*
X115959926Y-101765501D01*
X115885699Y-101780265D01*
X115801515Y-101836516D01*
X115745266Y-101920697D01*
X115730500Y-101994930D01*
X114554500Y-101994930D01*
X114554500Y-101138857D01*
X114536899Y-101056053D01*
X114521175Y-100982077D01*
X114466199Y-100858599D01*
X114456766Y-100788235D01*
X114486872Y-100723938D01*
X114492201Y-100718268D01*
X114495700Y-100714770D01*
X114562119Y-100599730D01*
X114596500Y-100471419D01*
X114596500Y-100338581D01*
X114562119Y-100210270D01*
X114505958Y-100112997D01*
X114489221Y-100044006D01*
X114505957Y-99987003D01*
X114562119Y-99889730D01*
X114596500Y-99761419D01*
X114596500Y-99628581D01*
X114562119Y-99500270D01*
X114508845Y-99407998D01*
X114507036Y-99400540D01*
X114502147Y-99394621D01*
X114498781Y-99366513D01*
X114492108Y-99339005D01*
X114494407Y-99329990D01*
X114493706Y-99324128D01*
X114501283Y-99303043D01*
X114504620Y-99289965D01*
X114506588Y-99285910D01*
X114558073Y-99196737D01*
X122145500Y-99196737D01*
X122145500Y-100193246D01*
X122145502Y-100193270D01*
X122151959Y-100253339D01*
X122151959Y-100253341D01*
X122202657Y-100389266D01*
X122224515Y-100418465D01*
X122289596Y-100505404D01*
X122405733Y-100592342D01*
X122541658Y-100643040D01*
X122601745Y-100649500D01*
X123223254Y-100649499D01*
X123283342Y-100643040D01*
X123419267Y-100592342D01*
X123535404Y-100505404D01*
X123622342Y-100389267D01*
X123673040Y-100253342D01*
X123679500Y-100193255D01*
X123679499Y-99196746D01*
X123673040Y-99136658D01*
X123622342Y-99000733D01*
X123535404Y-98884596D01*
X123535403Y-98884595D01*
X123479445Y-98842705D01*
X123436898Y-98785869D01*
X123431834Y-98715053D01*
X123465857Y-98652743D01*
X123935598Y-98183004D01*
X123997910Y-98148979D01*
X124024693Y-98146100D01*
X126157879Y-98146100D01*
X126157881Y-98146100D01*
X126248450Y-98121833D01*
X126329651Y-98074951D01*
X127284951Y-97119651D01*
X127331833Y-97038450D01*
X127343455Y-96995074D01*
X127380404Y-96934452D01*
X127419844Y-96911557D01*
X127419397Y-96910479D01*
X127423973Y-96908582D01*
X127423981Y-96908580D01*
X127578884Y-96829653D01*
X127719533Y-96727465D01*
X127842465Y-96604533D01*
X127944653Y-96463884D01*
X128023580Y-96308981D01*
X128077303Y-96143638D01*
X128104500Y-95971926D01*
X128104500Y-95798074D01*
X128077303Y-95626362D01*
X128023580Y-95461019D01*
X127944653Y-95306116D01*
X127895246Y-95238114D01*
X127842463Y-95165464D01*
X127719535Y-95042536D01*
X127578887Y-94940349D01*
X127578886Y-94940348D01*
X127578884Y-94940347D01*
X127423981Y-94861420D01*
X127423978Y-94861419D01*
X127423976Y-94861418D01*
X127258642Y-94807698D01*
X127258640Y-94807697D01*
X127258638Y-94807697D01*
X127086926Y-94780500D01*
X126913074Y-94780500D01*
X126741362Y-94807697D01*
X126741360Y-94807697D01*
X126741357Y-94807698D01*
X126576023Y-94861418D01*
X126576017Y-94861421D01*
X126421112Y-94940349D01*
X126280464Y-95042536D01*
X126157536Y-95165464D01*
X126055349Y-95306112D01*
X125976421Y-95461017D01*
X125976418Y-95461023D01*
X125922698Y-95626357D01*
X125922697Y-95626360D01*
X125922697Y-95626362D01*
X125895500Y-95798074D01*
X125895500Y-95971926D01*
X125922697Y-96143638D01*
X125922698Y-96143642D01*
X125970287Y-96290108D01*
X125976420Y-96308981D01*
X126047342Y-96448173D01*
X126055349Y-96463887D01*
X126157536Y-96604535D01*
X126280464Y-96727463D01*
X126386690Y-96804641D01*
X126430044Y-96860864D01*
X126436119Y-96931600D01*
X126402987Y-96994391D01*
X126401725Y-96995672D01*
X126000403Y-97396995D01*
X125938090Y-97431020D01*
X125911307Y-97433900D01*
X123778119Y-97433900D01*
X123687553Y-97458166D01*
X123687545Y-97458169D01*
X123606352Y-97505046D01*
X123606346Y-97505051D01*
X123378165Y-97733233D01*
X122693849Y-98417549D01*
X122660699Y-98450698D01*
X122627550Y-98483847D01*
X122627546Y-98483852D01*
X122580669Y-98565045D01*
X122580666Y-98565053D01*
X122556400Y-98655619D01*
X122555322Y-98663809D01*
X122553580Y-98663579D01*
X122536398Y-98722099D01*
X122482742Y-98768592D01*
X122474434Y-98772033D01*
X122405733Y-98797658D01*
X122289596Y-98884596D01*
X122202657Y-99000734D01*
X122151962Y-99136650D01*
X122151960Y-99136658D01*
X122145500Y-99196737D01*
X114558073Y-99196737D01*
X114562119Y-99189730D01*
X114596500Y-99061419D01*
X114596500Y-98928581D01*
X114562119Y-98800270D01*
X114513177Y-98715500D01*
X114495702Y-98685233D01*
X114495699Y-98685229D01*
X114494492Y-98684022D01*
X114489132Y-98678662D01*
X114455107Y-98616354D01*
X114460169Y-98545538D01*
X114463120Y-98538317D01*
X114521174Y-98407927D01*
X114524871Y-98390537D01*
X114554500Y-98251142D01*
X114554500Y-98171000D01*
X114554500Y-98126125D01*
X114554500Y-96901000D01*
X116882467Y-96901000D01*
X117679297Y-96901000D01*
X117644075Y-96962007D01*
X117610000Y-97089174D01*
X117610000Y-97220826D01*
X117644075Y-97347993D01*
X117679297Y-97409000D01*
X116882468Y-97409000D01*
X116883182Y-97413515D01*
X116883184Y-97413521D01*
X116936883Y-97578788D01*
X116936884Y-97578790D01*
X117015776Y-97733625D01*
X117117917Y-97874210D01*
X117240789Y-97997082D01*
X117381374Y-98099223D01*
X117536209Y-98178115D01*
X117536211Y-98178116D01*
X117701476Y-98231815D01*
X117856000Y-98256288D01*
X117856000Y-97585702D01*
X117917007Y-97620925D01*
X118044174Y-97655000D01*
X118175826Y-97655000D01*
X118302993Y-97620925D01*
X118364000Y-97585702D01*
X118364000Y-98256288D01*
X118518523Y-98231815D01*
X118683788Y-98178116D01*
X118683790Y-98178115D01*
X118838625Y-98099223D01*
X118979210Y-97997082D01*
X119102082Y-97874210D01*
X119204223Y-97733625D01*
X119283115Y-97578790D01*
X119283116Y-97578788D01*
X119336815Y-97413521D01*
X119336817Y-97413515D01*
X119337532Y-97409000D01*
X118540703Y-97409000D01*
X118575925Y-97347993D01*
X118610000Y-97220826D01*
X118610000Y-97089174D01*
X118575925Y-96962007D01*
X118540703Y-96901000D01*
X119337532Y-96901000D01*
X119336817Y-96896484D01*
X119336815Y-96896478D01*
X119283116Y-96731211D01*
X119283115Y-96731209D01*
X119204223Y-96576374D01*
X119102082Y-96435789D01*
X118979210Y-96312917D01*
X118838625Y-96210776D01*
X118683790Y-96131884D01*
X118683788Y-96131883D01*
X118518523Y-96078184D01*
X118364000Y-96053710D01*
X118364000Y-96724297D01*
X118302993Y-96689075D01*
X118175826Y-96655000D01*
X118044174Y-96655000D01*
X117917007Y-96689075D01*
X117856000Y-96724297D01*
X117856000Y-96053710D01*
X117701476Y-96078184D01*
X117536211Y-96131883D01*
X117536209Y-96131884D01*
X117381374Y-96210776D01*
X117240789Y-96312917D01*
X117117917Y-96435789D01*
X117015776Y-96576374D01*
X116936884Y-96731209D01*
X116936883Y-96731211D01*
X116883184Y-96896478D01*
X116883182Y-96896484D01*
X116882467Y-96901000D01*
X114554500Y-96901000D01*
X114554500Y-94006737D01*
X116855500Y-94006737D01*
X116855500Y-95303246D01*
X116855502Y-95303270D01*
X116861959Y-95363339D01*
X116861959Y-95363341D01*
X116912657Y-95499266D01*
X116912658Y-95499267D01*
X116999596Y-95615404D01*
X117115733Y-95702342D01*
X117251658Y-95753040D01*
X117311745Y-95759500D01*
X118908254Y-95759499D01*
X118968342Y-95753040D01*
X119104267Y-95702342D01*
X119220404Y-95615404D01*
X119307342Y-95499267D01*
X119354637Y-95372467D01*
X119397184Y-95315631D01*
X119463704Y-95290821D01*
X119472692Y-95290500D01*
X120374577Y-95290500D01*
X120442698Y-95310502D01*
X120463672Y-95327405D01*
X121426375Y-96290108D01*
X121514892Y-96378625D01*
X121618978Y-96448173D01*
X121734631Y-96496078D01*
X121857409Y-96520500D01*
X123229501Y-96520500D01*
X123297622Y-96540502D01*
X123344115Y-96594158D01*
X123355501Y-96646500D01*
X123355501Y-96760072D01*
X123370265Y-96834300D01*
X123426516Y-96918484D01*
X123510697Y-96974733D01*
X123510699Y-96974734D01*
X123584933Y-96989500D01*
X125335066Y-96989499D01*
X125335069Y-96989498D01*
X125335073Y-96989498D01*
X125401050Y-96976375D01*
X125409301Y-96974734D01*
X125493484Y-96918484D01*
X125549734Y-96834301D01*
X125564500Y-96760067D01*
X125564499Y-95009934D01*
X125564498Y-95009930D01*
X125564498Y-95009926D01*
X125549734Y-94935699D01*
X125500102Y-94861421D01*
X125493484Y-94851516D01*
X125427907Y-94807698D01*
X125409302Y-94795266D01*
X125335069Y-94780500D01*
X125335067Y-94780500D01*
X125221500Y-94780500D01*
X125153379Y-94760498D01*
X125106886Y-94706842D01*
X125095500Y-94654500D01*
X125095500Y-94312718D01*
X125105427Y-94278909D01*
X125115320Y-94244881D01*
X125115463Y-94244728D01*
X125115502Y-94244597D01*
X125138733Y-94217714D01*
X125142924Y-94214062D01*
X125179533Y-94187465D01*
X125302465Y-94064533D01*
X125404653Y-93923884D01*
X125483580Y-93768981D01*
X125537303Y-93603638D01*
X125564500Y-93431926D01*
X125564500Y-93258116D01*
X125896000Y-93258116D01*
X125896000Y-93431883D01*
X125923185Y-93603524D01*
X125976883Y-93768788D01*
X125976884Y-93768790D01*
X126055776Y-93923625D01*
X126058463Y-93927324D01*
X126515841Y-93469946D01*
X126534075Y-93537993D01*
X126599901Y-93652007D01*
X126692993Y-93745099D01*
X126807007Y-93810925D01*
X126875051Y-93829157D01*
X126417673Y-94286535D01*
X126421375Y-94289223D01*
X126421385Y-94289230D01*
X126576203Y-94368113D01*
X126576211Y-94368116D01*
X126741475Y-94421814D01*
X126913116Y-94449000D01*
X127086884Y-94449000D01*
X127258524Y-94421814D01*
X127423788Y-94368116D01*
X127423796Y-94368113D01*
X127578615Y-94289229D01*
X127582325Y-94286534D01*
X127124948Y-93829157D01*
X127192993Y-93810925D01*
X127307007Y-93745099D01*
X127400099Y-93652007D01*
X127465925Y-93537993D01*
X127484157Y-93469948D01*
X127941534Y-93927325D01*
X127944229Y-93923615D01*
X128023113Y-93768796D01*
X128023116Y-93768788D01*
X128076814Y-93603524D01*
X128104000Y-93431883D01*
X128104000Y-93258116D01*
X128076814Y-93086475D01*
X128023116Y-92921211D01*
X128023113Y-92921203D01*
X127944230Y-92766385D01*
X127944223Y-92766375D01*
X127941534Y-92762673D01*
X127484157Y-93220050D01*
X127465925Y-93152007D01*
X127400099Y-93037993D01*
X127307007Y-92944901D01*
X127192993Y-92879075D01*
X127124947Y-92860841D01*
X127582325Y-92403463D01*
X127578625Y-92400776D01*
X127423790Y-92321884D01*
X127423788Y-92321883D01*
X127258524Y-92268185D01*
X127086884Y-92241000D01*
X126913116Y-92241000D01*
X126741475Y-92268185D01*
X126576211Y-92321883D01*
X126576209Y-92321884D01*
X126421375Y-92400775D01*
X126417674Y-92403463D01*
X126417674Y-92403465D01*
X126875051Y-92860842D01*
X126807007Y-92879075D01*
X126692993Y-92944901D01*
X126599901Y-93037993D01*
X126534075Y-93152007D01*
X126515842Y-93220051D01*
X126058465Y-92762674D01*
X126058463Y-92762674D01*
X126055775Y-92766375D01*
X125976884Y-92921209D01*
X125976883Y-92921211D01*
X125923185Y-93086475D01*
X125896000Y-93258116D01*
X125564500Y-93258116D01*
X125564500Y-93258074D01*
X125537303Y-93086362D01*
X125483580Y-92921019D01*
X125404653Y-92766116D01*
X125302465Y-92625467D01*
X125302463Y-92625464D01*
X125179535Y-92502536D01*
X125038887Y-92400349D01*
X125038886Y-92400348D01*
X125038884Y-92400347D01*
X124883981Y-92321420D01*
X124883978Y-92321419D01*
X124883976Y-92321418D01*
X124718642Y-92267698D01*
X124718640Y-92267697D01*
X124718638Y-92267697D01*
X124546926Y-92240500D01*
X124373074Y-92240500D01*
X124201362Y-92267697D01*
X124201360Y-92267697D01*
X124201357Y-92267698D01*
X124036023Y-92321418D01*
X124036017Y-92321421D01*
X123881112Y-92400349D01*
X123740464Y-92502536D01*
X123617536Y-92625464D01*
X123515349Y-92766112D01*
X123436421Y-92921017D01*
X123436418Y-92921023D01*
X123382698Y-93086357D01*
X123382697Y-93086360D01*
X123382697Y-93086362D01*
X123355500Y-93258074D01*
X123355500Y-93431926D01*
X123382679Y-93603524D01*
X123382698Y-93603642D01*
X123415374Y-93704210D01*
X123436420Y-93768981D01*
X123515347Y-93923884D01*
X123515349Y-93923887D01*
X123617536Y-94064535D01*
X123740464Y-94187463D01*
X123740468Y-94187466D01*
X123772558Y-94210780D01*
X123815914Y-94267001D01*
X123824500Y-94312718D01*
X123824500Y-94654500D01*
X123804498Y-94722621D01*
X123750842Y-94769114D01*
X123698501Y-94780500D01*
X123584937Y-94780500D01*
X123584926Y-94780501D01*
X123510699Y-94795265D01*
X123426515Y-94851516D01*
X123370266Y-94935697D01*
X123355500Y-95009930D01*
X123355500Y-95123500D01*
X123335498Y-95191621D01*
X123281842Y-95238114D01*
X123229500Y-95249500D01*
X122235423Y-95249500D01*
X122167302Y-95229498D01*
X122146328Y-95212595D01*
X121095110Y-94161377D01*
X121095108Y-94161375D01*
X120991022Y-94091827D01*
X120875369Y-94043922D01*
X120752593Y-94019500D01*
X120752591Y-94019500D01*
X119472692Y-94019500D01*
X119404571Y-93999498D01*
X119358078Y-93945842D01*
X119354637Y-93937533D01*
X119316877Y-93836297D01*
X119307342Y-93810733D01*
X119220404Y-93694596D01*
X119104267Y-93607658D01*
X119104265Y-93607657D01*
X119104266Y-93607657D01*
X118968349Y-93556962D01*
X118968344Y-93556960D01*
X118968342Y-93556960D01*
X118938298Y-93553730D01*
X118908256Y-93550500D01*
X117311753Y-93550500D01*
X117311729Y-93550502D01*
X117251660Y-93556959D01*
X117251658Y-93556959D01*
X117115733Y-93607657D01*
X116999596Y-93694596D01*
X116912657Y-93810734D01*
X116861962Y-93946650D01*
X116861960Y-93946658D01*
X116855500Y-94006737D01*
X114554500Y-94006737D01*
X114554500Y-92083257D01*
X114555578Y-92066812D01*
X114556321Y-92061161D01*
X114565300Y-91992965D01*
X114573809Y-91961201D01*
X114599132Y-91900066D01*
X114615572Y-91871593D01*
X114655854Y-91819097D01*
X114679097Y-91795854D01*
X114731593Y-91755572D01*
X114760066Y-91739132D01*
X114821201Y-91713809D01*
X114852962Y-91705300D01*
X114910053Y-91697784D01*
X114926813Y-91695578D01*
X114943258Y-91694500D01*
X114979875Y-91694500D01*
X144100125Y-91694500D01*
X144136742Y-91694500D01*
X144153187Y-91695578D01*
G37*
%TD.AperFunction*%
%TA.AperFunction,Conductor*%
G36*
X127698532Y-99237365D02*
G01*
X127755368Y-99279912D01*
X127780179Y-99346432D01*
X127780500Y-99355421D01*
X127780500Y-100193246D01*
X127780502Y-100193270D01*
X127786959Y-100253339D01*
X127786959Y-100253341D01*
X127837657Y-100389266D01*
X127859515Y-100418465D01*
X127924596Y-100505404D01*
X128040733Y-100592342D01*
X128176658Y-100643040D01*
X128236745Y-100649500D01*
X128858254Y-100649499D01*
X128918342Y-100643040D01*
X129054267Y-100592342D01*
X129170404Y-100505404D01*
X129257342Y-100389267D01*
X129308040Y-100253342D01*
X129314500Y-100193255D01*
X129314500Y-100177100D01*
X129317091Y-100168274D01*
X129315782Y-100159168D01*
X129326937Y-100134742D01*
X129334502Y-100108979D01*
X129341455Y-100102954D01*
X129345276Y-100094588D01*
X129367861Y-100080073D01*
X129388158Y-100062486D01*
X129398844Y-100060161D01*
X129405002Y-100056204D01*
X129440500Y-100051100D01*
X129639501Y-100051100D01*
X129707622Y-100071102D01*
X129754115Y-100124758D01*
X129765501Y-100177100D01*
X129765501Y-100193246D01*
X129765502Y-100193270D01*
X129771959Y-100253339D01*
X129771959Y-100253341D01*
X129822657Y-100389266D01*
X129844515Y-100418465D01*
X129909596Y-100505404D01*
X130025733Y-100592342D01*
X130094435Y-100617967D01*
X130112447Y-100631450D01*
X130132912Y-100640797D01*
X130140310Y-100652309D01*
X130151268Y-100660512D01*
X130159131Y-100681595D01*
X130171296Y-100700523D01*
X130174498Y-100722793D01*
X130176079Y-100727032D01*
X130176400Y-100736021D01*
X130176400Y-100915808D01*
X130156398Y-100983929D01*
X130139495Y-101004903D01*
X129565803Y-101578595D01*
X129503491Y-101612621D01*
X129476708Y-101615500D01*
X129441269Y-101615500D01*
X129246237Y-101646390D01*
X129246231Y-101646391D01*
X129058443Y-101707407D01*
X129058437Y-101707410D01*
X128882495Y-101797058D01*
X128722745Y-101913123D01*
X128722742Y-101913125D01*
X128583125Y-102052742D01*
X128583123Y-102052745D01*
X128467058Y-102212495D01*
X128377410Y-102388437D01*
X128377407Y-102388443D01*
X128316391Y-102576231D01*
X128316390Y-102576236D01*
X128316390Y-102576237D01*
X128285500Y-102771269D01*
X128285500Y-102968731D01*
X128310809Y-103128524D01*
X128316391Y-103163768D01*
X128377407Y-103351556D01*
X128377409Y-103351561D01*
X128467056Y-103527501D01*
X128583121Y-103687252D01*
X128583123Y-103687254D01*
X128583125Y-103687257D01*
X128722742Y-103826874D01*
X128722745Y-103826876D01*
X128722748Y-103826879D01*
X128882499Y-103942944D01*
X129058439Y-104032591D01*
X129096836Y-104045067D01*
X129155441Y-104085138D01*
X129183078Y-104150534D01*
X129183900Y-104164899D01*
X129183900Y-105490247D01*
X129163898Y-105558368D01*
X129110242Y-105604861D01*
X129096845Y-105610076D01*
X129096826Y-105610083D01*
X129096824Y-105610083D01*
X129096824Y-105610084D01*
X128934906Y-105692585D01*
X128787891Y-105799398D01*
X128659398Y-105927891D01*
X128552585Y-106074906D01*
X128470084Y-106236824D01*
X128470081Y-106236830D01*
X128413929Y-106409648D01*
X128413928Y-106409653D01*
X128413928Y-106409654D01*
X128385500Y-106589139D01*
X128385500Y-106770861D01*
X128398620Y-106853694D01*
X128413929Y-106950351D01*
X128470020Y-107122981D01*
X128470083Y-107123174D01*
X128552450Y-107284829D01*
X128552585Y-107285093D01*
X128659398Y-107432108D01*
X128707695Y-107480405D01*
X128741721Y-107542717D01*
X128736656Y-107613532D01*
X128694109Y-107670368D01*
X128627589Y-107695179D01*
X128618600Y-107695500D01*
X125381400Y-107695500D01*
X125313279Y-107675498D01*
X125266786Y-107621842D01*
X125256682Y-107551568D01*
X125286176Y-107486988D01*
X125292305Y-107480405D01*
X125340598Y-107432111D01*
X125340601Y-107432108D01*
X125340603Y-107432106D01*
X125447417Y-107285090D01*
X125529917Y-107123174D01*
X125586072Y-106950346D01*
X125614500Y-106770861D01*
X125614500Y-106589139D01*
X125586072Y-106409654D01*
X125529917Y-106236826D01*
X125447417Y-106074910D01*
X125340603Y-105927894D01*
X125340601Y-105927891D01*
X125212112Y-105799402D01*
X125212108Y-105799399D01*
X125212106Y-105799397D01*
X125147437Y-105752411D01*
X125104085Y-105696190D01*
X125095500Y-105650477D01*
X125095500Y-104250499D01*
X125115502Y-104182378D01*
X125169158Y-104135885D01*
X125221500Y-104124499D01*
X125258247Y-104124499D01*
X125258254Y-104124499D01*
X125318342Y-104118040D01*
X125454267Y-104067342D01*
X125570404Y-103980404D01*
X125657342Y-103864267D01*
X125708040Y-103728342D01*
X125714500Y-103668255D01*
X125714500Y-103624439D01*
X125734502Y-103556318D01*
X125788158Y-103509825D01*
X125815918Y-103500860D01*
X125817570Y-103500531D01*
X125915369Y-103481078D01*
X126031022Y-103433173D01*
X126135108Y-103363625D01*
X127216125Y-102282608D01*
X127285673Y-102178522D01*
X127333578Y-102062869D01*
X127358000Y-101940091D01*
X127358000Y-101814909D01*
X127358000Y-100530513D01*
X127378002Y-100462392D01*
X127383132Y-100455004D01*
X127432340Y-100389270D01*
X127432340Y-100389269D01*
X127432342Y-100389267D01*
X127483040Y-100253342D01*
X127489500Y-100193255D01*
X127489499Y-99394421D01*
X127509501Y-99326301D01*
X127526399Y-99305332D01*
X127565407Y-99266324D01*
X127627717Y-99232300D01*
X127698532Y-99237365D01*
G37*
%TD.AperFunction*%
%TD*%
D27*
X112644000Y-92075000D02*
G75*
G02*
X113279000Y-92710000I0J-635000D01*
G01*
X101214000Y-92075000D02*
X112644000Y-92075000D01*
X113279000Y-101219000D02*
X113279000Y-106680000D01*
X144780000Y-107315000D02*
G75*
G02*
X144145000Y-107950000I-635000J0D01*
G01*
X113279000Y-106680000D02*
G75*
G02*
X112644000Y-107315000I-635000J0D01*
G01*
X112644000Y-107315000D02*
X101214000Y-107315000D01*
X100579000Y-106680000D02*
X100579000Y-92710000D01*
X114300000Y-107315000D02*
X114300000Y-101219000D01*
X114935000Y-91440000D02*
X144145000Y-91440000D01*
X113284000Y-101219000D02*
G75*
G02*
X114300000Y-101219000I508000J0D01*
G01*
X114935000Y-107950000D02*
G75*
G02*
X114300000Y-107315000I0J635000D01*
G01*
X144145000Y-107950000D02*
X114935000Y-107950000D01*
X101214000Y-107315000D02*
G75*
G02*
X100579000Y-106680000I0J635000D01*
G01*
X100579000Y-92710000D02*
G75*
G02*
X101214000Y-92075000I635000J0D01*
G01*
X113279000Y-92710000D02*
X113279000Y-98171000D01*
X114300000Y-92075000D02*
G75*
G02*
X114935000Y-91440000I635000J0D01*
G01*
X144145000Y-91440000D02*
G75*
G02*
X144780000Y-92075000I0J-635000D01*
G01*
X114300000Y-98171000D02*
X114300000Y-92075000D01*
X114300000Y-98171000D02*
G75*
G02*
X113284000Y-98171000I-508000J0D01*
G01*
X144780000Y-92075000D02*
X144780000Y-107315000D01*
M02*
