M48
; DRILL file {KiCad 9.0.7} date 2026-03-19T22:08:16-0400
; FORMAT={-:-/ absolute / metric / decimal}
; #@! TF.CreationDate,2026-03-19T22:08:16-04:00
; #@! TF.GenerationSoftware,Kicad,Pcbnew,9.0.7
; #@! TF.FileFunction,Plated,1,4,PTH
FMAT,2
METRIC
; #@! TA.AperFunction,Plated,PTH,ViaDrill
T1C0.254
; #@! TA.AperFunction,Plated,PTH,ViaDrill
T2C0.305
; #@! TA.AperFunction,Plated,PTH,ComponentDrill
T3C0.900
; #@! TA.AperFunction,Plated,PTH,ComponentDrill
T4C1.000
%
G90
G05
T1
X101.722Y-93.599
X101.722Y-99.695
X101.722Y-105.791
X105.024Y-98.044
X106.929Y-102.616
X124.841Y-100.965
X127.0Y-106.68
X127.381Y-102.87
X132.08Y-104.775
X142.24Y-102.87
X142.24Y-106.68
T2
X101.722Y-95.885
X101.722Y-103.505
T3
X124.46Y-106.68
X129.54Y-106.68
X134.62Y-106.68
X139.7Y-106.68
T4
X108.839Y-94.615
X108.839Y-97.155
X108.839Y-99.695
X108.839Y-102.235
X108.839Y-104.775
X111.379Y-94.615
X111.379Y-97.155
X111.379Y-99.695
X111.379Y-102.235
X111.379Y-104.775
X116.835Y-102.87
X118.11Y-94.655
X118.11Y-97.155
X119.375Y-102.87
X124.46Y-93.345
X124.46Y-95.885
X124.46Y-102.87
X127.0Y-93.345
X127.0Y-95.885
X129.54Y-93.345
X129.54Y-95.885
X129.54Y-102.87
X132.08Y-93.345
X132.08Y-95.885
X134.62Y-93.345
X134.62Y-95.885
X142.24Y-94.655
X142.24Y-97.155
M30
