%TF.GenerationSoftware,KiCad,Pcbnew,9.0.7*%
%TF.CreationDate,2026-03-19T22:09:49-04:00*%
%TF.ProjectId,MOSFET_Load_Switch,4d4f5346-4554-45f4-9c6f-61645f537769,1.1*%
%TF.SameCoordinates,Original*%
%TF.FileFunction,Copper,L4,Bot*%
%TF.FilePolarity,Positive*%
%FSLAX46Y46*%
G04 Gerber Fmt 4.6, Leading zero omitted, Abs format (unit mm)*
G04 Created by KiCad (PCBNEW 9.0.7) date 2026-03-19 22:09:49*
%MOMM*%
%LPD*%
G01*
G04 APERTURE LIST*
G04 Aperture macros list*
%AMRoundRect*
0 Rectangle with rounded corners*
0 $1 Rounding radius*
0 $2 $3 $4 $5 $6 $7 $8 $9 X,Y pos of 4 corners*
0 Add a 4 corners polygon primitive as box body*
4,1,4,$2,$3,$4,$5,$6,$7,$8,$9,$2,$3,0*
0 Add four circle primitives for the rounded corners*
1,1,$1+$1,$2,$3*
1,1,$1+$1,$4,$5*
1,1,$1+$1,$6,$7*
1,1,$1+$1,$8,$9*
0 Add four rect primitives between the rounded corners*
20,1,$1+$1,$2,$3,$4,$5,0*
20,1,$1+$1,$4,$5,$6,$7,0*
20,1,$1+$1,$6,$7,$8,$9,0*
20,1,$1+$1,$8,$9,$2,$3,0*%
G04 Aperture macros list end*
%TA.AperFunction,ComponentPad*%
%ADD10RoundRect,0.250000X-0.750000X0.600000X-0.750000X-0.600000X0.750000X-0.600000X0.750000X0.600000X0*%
%TD*%
%TA.AperFunction,ComponentPad*%
%ADD11O,2.000000X1.700000*%
%TD*%
%TA.AperFunction,ComponentPad*%
%ADD12C,1.800000*%
%TD*%
%TA.AperFunction,ComponentPad*%
%ADD13R,1.700000X1.700000*%
%TD*%
%TA.AperFunction,ComponentPad*%
%ADD14C,1.700000*%
%TD*%
%TA.AperFunction,ComponentPad*%
%ADD15RoundRect,0.250000X-0.750000X-0.750000X0.750000X-0.750000X0.750000X0.750000X-0.750000X0.750000X0*%
%TD*%
%TA.AperFunction,ComponentPad*%
%ADD16C,2.000000*%
%TD*%
%TA.AperFunction,ViaPad*%
%ADD17C,0.508000*%
%TD*%
%TA.AperFunction,Conductor*%
%ADD18C,0.203200*%
%TD*%
%TA.AperFunction,Profile*%
%ADD19C,0.050800*%
%TD*%
G04 APERTURE END LIST*
D10*
%TO.P,J3,1,Pin_1*%
%TO.N,/VD2*%
X142240000Y-94655000D03*
D11*
%TO.P,J3,2,Pin_2*%
%TO.N,GND*%
X142240000Y-97155000D03*
%TD*%
D12*
%TO.P,TP1,1,1*%
%TO.N,GND*%
X134620000Y-106680000D03*
%TD*%
%TO.P,TP2,1,1*%
%TO.N,/VS*%
X124460000Y-106680000D03*
%TD*%
D13*
%TO.P,J5,1,Pin_1*%
%TO.N,/VD1*%
X111379000Y-104775000D03*
D14*
%TO.P,J5,2,Pin_2*%
X108839000Y-104775000D03*
%TO.P,J5,3,Pin_3*%
%TO.N,/VG1*%
X111379000Y-102235000D03*
%TO.P,J5,4,Pin_4*%
%TO.N,GND*%
X108839000Y-102235000D03*
%TO.P,J5,5,Pin_5*%
%TO.N,/VS*%
X111379000Y-99695000D03*
%TO.P,J5,6,Pin_6*%
X108839000Y-99695000D03*
%TO.P,J5,7,Pin_7*%
%TO.N,/VG2*%
X111379000Y-97155000D03*
%TO.P,J5,8,Pin_8*%
%TO.N,GND*%
X108839000Y-97155000D03*
%TO.P,J5,9,Pin_9*%
%TO.N,/VD2*%
X111379000Y-94615000D03*
%TO.P,J5,10,Pin_10*%
X108839000Y-94615000D03*
%TD*%
D12*
%TO.P,TP4,1,1*%
%TO.N,/VG*%
X129540000Y-106680000D03*
%TD*%
D13*
%TO.P,J2,1,Pin_1*%
%TO.N,Net-(J2-Pin_1)*%
X116835000Y-102870000D03*
D14*
%TO.P,J2,2,Pin_2*%
%TO.N,GND*%
X119375000Y-102870000D03*
%TD*%
D12*
%TO.P,TP3,1,1*%
%TO.N,/VD2*%
X139700000Y-106680000D03*
%TD*%
D10*
%TO.P,J1,1,Pin_1*%
%TO.N,/VD1*%
X118110000Y-94655000D03*
D11*
%TO.P,J1,2,Pin_2*%
%TO.N,GND*%
X118110000Y-97155000D03*
%TD*%
D15*
%TO.P,D1,1,K*%
%TO.N,/VS*%
X124460000Y-102870000D03*
D16*
%TO.P,D1,2,A*%
%TO.N,/VG*%
X129540000Y-102870000D03*
%TD*%
D13*
%TO.P,J4,1,Pin_1*%
%TO.N,/VD1*%
X124460000Y-95885000D03*
D14*
%TO.P,J4,2,Pin_2*%
X124460000Y-93345000D03*
%TO.P,J4,3,Pin_3*%
%TO.N,/VG1*%
X127000000Y-95885000D03*
%TO.P,J4,4,Pin_4*%
%TO.N,GND*%
X127000000Y-93345000D03*
%TO.P,J4,5,Pin_5*%
%TO.N,/VS*%
X129540000Y-95885000D03*
%TO.P,J4,6,Pin_6*%
X129540000Y-93345000D03*
%TO.P,J4,7,Pin_7*%
%TO.N,/VG2*%
X132080000Y-95885000D03*
%TO.P,J4,8,Pin_8*%
%TO.N,GND*%
X132080000Y-93345000D03*
%TO.P,J4,9,Pin_9*%
%TO.N,/VD2*%
X134620000Y-95885000D03*
%TO.P,J4,10,Pin_10*%
X134620000Y-93345000D03*
%TD*%
D17*
%TO.N,/VG*%
X124841000Y-100965000D03*
%TO.N,GND*%
X101722000Y-105791000D03*
X127381000Y-102870000D03*
X101722000Y-99695000D03*
X142240000Y-106680000D03*
X106929000Y-102616000D03*
X101722000Y-93599000D03*
X127000000Y-106680000D03*
X142240000Y-102870000D03*
%TO.N,Net-(J2-Pin_1)*%
X132080000Y-104775000D03*
%TO.N,/VG2*%
X105024000Y-98044000D03*
%TD*%
D18*
%TO.N,/VG*%
X127635000Y-100965000D02*
X124841000Y-100965000D01*
X129540000Y-102870000D02*
X127635000Y-100965000D01*
%TO.N,Net-(J2-Pin_1)*%
X117686800Y-104775000D02*
X132080000Y-104775000D01*
X116835000Y-102870000D02*
X116835000Y-103923200D01*
X116835000Y-103923200D02*
X117686800Y-104775000D01*
%TO.N,/VG2*%
X110109000Y-98425000D02*
X111379000Y-97155000D01*
X105405000Y-98425000D02*
X110109000Y-98425000D01*
X105024000Y-98044000D02*
X105405000Y-98425000D01*
%TD*%
%TA.AperFunction,Conductor*%
%TO.N,GND*%
G36*
X112652187Y-92330578D02*
G01*
X112672207Y-92333213D01*
X112726035Y-92340299D01*
X112757800Y-92348810D01*
X112818929Y-92374131D01*
X112847409Y-92390574D01*
X112899897Y-92430850D01*
X112923149Y-92454102D01*
X112958770Y-92500524D01*
X112963424Y-92506589D01*
X112979870Y-92535073D01*
X113005187Y-92596193D01*
X113013700Y-92627965D01*
X113017835Y-92659377D01*
X113023422Y-92701810D01*
X113024500Y-92718257D01*
X113024500Y-98221623D01*
X113026921Y-98233795D01*
X113025922Y-98233993D01*
X113028952Y-98245931D01*
X113029499Y-98251139D01*
X113062825Y-98407925D01*
X113117799Y-98531399D01*
X113127233Y-98601766D01*
X113097126Y-98666063D01*
X113091792Y-98671738D01*
X113088299Y-98675230D01*
X113088298Y-98675232D01*
X113021881Y-98790269D01*
X112987500Y-98918582D01*
X112987500Y-99051417D01*
X112987499Y-99051417D01*
X113021881Y-99179730D01*
X113078040Y-99277000D01*
X113094778Y-99345995D01*
X113078040Y-99403000D01*
X113021881Y-99500269D01*
X112987500Y-99628582D01*
X112987500Y-99761417D01*
X112987499Y-99761417D01*
X113021881Y-99889730D01*
X113078040Y-99987000D01*
X113094778Y-100055995D01*
X113078040Y-100113000D01*
X113021881Y-100210269D01*
X112987500Y-100338582D01*
X112987500Y-100471417D01*
X112987499Y-100471417D01*
X113021881Y-100599730D01*
X113088297Y-100714766D01*
X113088305Y-100714776D01*
X113091787Y-100718258D01*
X113125813Y-100780570D01*
X113120748Y-100851385D01*
X113117799Y-100858601D01*
X113062825Y-100982074D01*
X113029499Y-101138860D01*
X113028952Y-101144069D01*
X113025924Y-101156006D01*
X113026921Y-101156205D01*
X113024500Y-101168378D01*
X113024500Y-106671742D01*
X113023422Y-106688187D01*
X113023422Y-106688189D01*
X113013700Y-106762034D01*
X113005187Y-106793806D01*
X112979870Y-106854926D01*
X112963424Y-106883410D01*
X112923153Y-106935893D01*
X112899893Y-106959153D01*
X112847410Y-106999424D01*
X112818926Y-107015870D01*
X112757806Y-107041187D01*
X112726034Y-107049700D01*
X112670424Y-107057021D01*
X112652187Y-107059422D01*
X112635742Y-107060500D01*
X101222258Y-107060500D01*
X101205812Y-107059422D01*
X101131966Y-107049700D01*
X101100194Y-107041187D01*
X101039073Y-107015870D01*
X101010589Y-106999424D01*
X101004524Y-106994770D01*
X100958102Y-106959149D01*
X100934850Y-106935897D01*
X100894574Y-106883409D01*
X100878131Y-106854929D01*
X100852810Y-106793800D01*
X100844299Y-106762032D01*
X100834578Y-106688187D01*
X100833500Y-106671742D01*
X100833500Y-104688074D01*
X107734500Y-104688074D01*
X107734500Y-104861926D01*
X107761697Y-105033638D01*
X107815420Y-105198981D01*
X107815421Y-105198982D01*
X107894349Y-105353887D01*
X107996536Y-105494535D01*
X108119464Y-105617463D01*
X108164342Y-105650069D01*
X108260116Y-105719653D01*
X108415019Y-105798580D01*
X108580362Y-105852303D01*
X108752074Y-105879500D01*
X108752077Y-105879500D01*
X108925923Y-105879500D01*
X108925926Y-105879500D01*
X109097638Y-105852303D01*
X109262981Y-105798580D01*
X109417884Y-105719653D01*
X109558533Y-105617465D01*
X109681465Y-105494533D01*
X109783653Y-105353884D01*
X109862580Y-105198981D01*
X109916303Y-105033638D01*
X109943500Y-104861926D01*
X109943500Y-104688074D01*
X109916303Y-104516362D01*
X109862580Y-104351019D01*
X109783653Y-104196116D01*
X109681465Y-104055467D01*
X109681463Y-104055464D01*
X109558535Y-103932536D01*
X109513657Y-103899930D01*
X110274500Y-103899930D01*
X110274500Y-105650063D01*
X110274501Y-105650073D01*
X110289265Y-105724300D01*
X110345516Y-105808484D01*
X110429697Y-105864733D01*
X110429699Y-105864734D01*
X110503933Y-105879500D01*
X112254066Y-105879499D01*
X112254069Y-105879498D01*
X112254073Y-105879498D01*
X112303326Y-105869701D01*
X112328301Y-105864734D01*
X112412484Y-105808484D01*
X112468734Y-105724301D01*
X112483500Y-105650067D01*
X112483499Y-103899934D01*
X112483498Y-103899930D01*
X112483498Y-103899926D01*
X112468734Y-103825699D01*
X112421388Y-103754842D01*
X112412484Y-103741516D01*
X112412483Y-103741515D01*
X112328302Y-103685266D01*
X112254067Y-103670500D01*
X110503936Y-103670500D01*
X110503926Y-103670501D01*
X110429699Y-103685265D01*
X110345515Y-103741516D01*
X110289266Y-103825697D01*
X110274500Y-103899930D01*
X109513657Y-103899930D01*
X109417887Y-103830349D01*
X109417886Y-103830348D01*
X109417884Y-103830347D01*
X109262981Y-103751420D01*
X109262978Y-103751419D01*
X109262825Y-103751341D01*
X109211210Y-103702593D01*
X109194144Y-103633678D01*
X109217045Y-103566476D01*
X109272642Y-103522324D01*
X109281092Y-103519241D01*
X109360286Y-103493509D01*
X109360292Y-103493506D01*
X109491722Y-103426538D01*
X109491723Y-103426538D01*
X108839001Y-102773816D01*
X108839000Y-102773816D01*
X108186276Y-103426538D01*
X108317707Y-103493506D01*
X108317709Y-103493507D01*
X108396908Y-103519241D01*
X108455513Y-103559315D01*
X108483150Y-103624711D01*
X108471043Y-103694668D01*
X108423037Y-103746974D01*
X108415174Y-103751341D01*
X108260113Y-103830348D01*
X108119464Y-103932536D01*
X107996536Y-104055464D01*
X107894349Y-104196112D01*
X107815421Y-104351017D01*
X107815418Y-104351023D01*
X107761698Y-104516357D01*
X107761697Y-104516360D01*
X107761697Y-104516362D01*
X107734500Y-104688074D01*
X100833500Y-104688074D01*
X100833500Y-103451427D01*
X101315100Y-103451427D01*
X101315100Y-103558572D01*
X101342829Y-103662056D01*
X101342830Y-103662059D01*
X101396396Y-103754838D01*
X101396404Y-103754848D01*
X101472151Y-103830595D01*
X101472156Y-103830599D01*
X101472158Y-103830601D01*
X101472159Y-103830602D01*
X101472161Y-103830603D01*
X101564940Y-103884169D01*
X101564943Y-103884170D01*
X101623781Y-103899936D01*
X101668431Y-103911900D01*
X101775569Y-103911900D01*
X101879057Y-103884170D01*
X101971842Y-103830601D01*
X102047601Y-103754842D01*
X102096295Y-103670501D01*
X102101169Y-103662059D01*
X102101170Y-103662056D01*
X102128899Y-103558572D01*
X102128900Y-103558569D01*
X102128900Y-103451431D01*
X102128899Y-103451427D01*
X102101170Y-103347943D01*
X102101169Y-103347940D01*
X102047603Y-103255161D01*
X102047595Y-103255151D01*
X101971848Y-103179404D01*
X101971838Y-103179396D01*
X101879059Y-103125830D01*
X101879056Y-103125829D01*
X101775572Y-103098100D01*
X101775569Y-103098100D01*
X101668431Y-103098100D01*
X101668427Y-103098100D01*
X101564943Y-103125829D01*
X101564940Y-103125830D01*
X101472161Y-103179396D01*
X101472151Y-103179404D01*
X101396404Y-103255151D01*
X101396396Y-103255161D01*
X101342830Y-103347940D01*
X101342829Y-103347943D01*
X101315100Y-103451427D01*
X100833500Y-103451427D01*
X100833500Y-102128126D01*
X107481000Y-102128126D01*
X107481000Y-102341873D01*
X107514440Y-102553003D01*
X107580490Y-102756286D01*
X107580495Y-102756298D01*
X107647459Y-102887723D01*
X108300184Y-102234999D01*
X108234359Y-102169174D01*
X108339000Y-102169174D01*
X108339000Y-102300826D01*
X108373075Y-102427993D01*
X108438901Y-102542007D01*
X108531993Y-102635099D01*
X108646007Y-102700925D01*
X108773174Y-102735000D01*
X108904826Y-102735000D01*
X109031993Y-102700925D01*
X109146007Y-102635099D01*
X109239099Y-102542007D01*
X109304925Y-102427993D01*
X109339000Y-102300826D01*
X109339000Y-102234999D01*
X109377816Y-102234999D01*
X109377816Y-102235001D01*
X110030538Y-102887723D01*
X110030538Y-102887722D01*
X110097506Y-102756292D01*
X110097509Y-102756286D01*
X110123241Y-102677092D01*
X110163314Y-102618486D01*
X110228711Y-102590849D01*
X110298668Y-102602956D01*
X110350974Y-102650962D01*
X110355341Y-102658825D01*
X110355418Y-102658976D01*
X110355420Y-102658981D01*
X110434347Y-102813884D01*
X110434349Y-102813887D01*
X110536536Y-102954535D01*
X110659464Y-103077463D01*
X110659467Y-103077465D01*
X110800116Y-103179653D01*
X110955019Y-103258580D01*
X111120362Y-103312303D01*
X111292074Y-103339500D01*
X111292077Y-103339500D01*
X111465923Y-103339500D01*
X111465926Y-103339500D01*
X111637638Y-103312303D01*
X111802981Y-103258580D01*
X111957884Y-103179653D01*
X112098533Y-103077465D01*
X112221465Y-102954533D01*
X112323653Y-102813884D01*
X112402580Y-102658981D01*
X112456303Y-102493638D01*
X112483500Y-102321926D01*
X112483500Y-102148074D01*
X112456303Y-101976362D01*
X112402580Y-101811019D01*
X112323653Y-101656116D01*
X112221465Y-101515467D01*
X112221463Y-101515464D01*
X112098535Y-101392536D01*
X111957887Y-101290349D01*
X111957886Y-101290348D01*
X111957884Y-101290347D01*
X111802981Y-101211420D01*
X111802978Y-101211419D01*
X111802976Y-101211418D01*
X111637642Y-101157698D01*
X111637640Y-101157697D01*
X111637638Y-101157697D01*
X111465926Y-101130500D01*
X111292074Y-101130500D01*
X111120362Y-101157697D01*
X111120360Y-101157697D01*
X111120357Y-101157698D01*
X110955023Y-101211418D01*
X110955017Y-101211421D01*
X110800112Y-101290349D01*
X110659464Y-101392536D01*
X110536536Y-101515464D01*
X110434348Y-101656113D01*
X110355341Y-101811174D01*
X110306592Y-101862789D01*
X110237678Y-101879855D01*
X110170476Y-101856954D01*
X110126324Y-101801356D01*
X110123241Y-101792908D01*
X110097507Y-101713709D01*
X110097506Y-101713707D01*
X110030538Y-101582276D01*
X109377816Y-102234999D01*
X109339000Y-102234999D01*
X109339000Y-102169174D01*
X109304925Y-102042007D01*
X109239099Y-101927993D01*
X109146007Y-101834901D01*
X109031993Y-101769075D01*
X108904826Y-101735000D01*
X108773174Y-101735000D01*
X108646007Y-101769075D01*
X108531993Y-101834901D01*
X108438901Y-101927993D01*
X108373075Y-102042007D01*
X108339000Y-102169174D01*
X108234359Y-102169174D01*
X107647461Y-101582276D01*
X107647459Y-101582276D01*
X107580495Y-101713701D01*
X107580490Y-101713713D01*
X107514440Y-101916996D01*
X107481000Y-102128126D01*
X100833500Y-102128126D01*
X100833500Y-97977055D01*
X104515500Y-97977055D01*
X104515500Y-98110945D01*
X104550153Y-98240274D01*
X104550154Y-98240276D01*
X104550155Y-98240278D01*
X104617097Y-98356224D01*
X104617099Y-98356227D01*
X104711772Y-98450900D01*
X104711775Y-98450902D01*
X104803226Y-98503701D01*
X104827726Y-98517847D01*
X104957055Y-98552500D01*
X104976709Y-98552500D01*
X105006624Y-98561283D01*
X105037094Y-98567912D01*
X105042189Y-98571726D01*
X105044830Y-98572502D01*
X105065804Y-98589405D01*
X105115638Y-98639239D01*
X105115659Y-98639262D01*
X105186342Y-98709945D01*
X105186346Y-98709948D01*
X105186349Y-98709951D01*
X105256316Y-98750347D01*
X105267550Y-98756833D01*
X105358119Y-98781100D01*
X105451881Y-98781100D01*
X107890462Y-98781100D01*
X107958583Y-98801102D01*
X108005076Y-98854758D01*
X108015180Y-98925032D01*
X107992398Y-98981161D01*
X107894349Y-99116112D01*
X107815421Y-99271017D01*
X107815418Y-99271023D01*
X107761698Y-99436357D01*
X107761697Y-99436360D01*
X107761697Y-99436362D01*
X107734500Y-99608074D01*
X107734500Y-99781926D01*
X107751575Y-99889730D01*
X107761698Y-99953642D01*
X107813476Y-100113000D01*
X107815420Y-100118981D01*
X107894347Y-100273884D01*
X107894349Y-100273887D01*
X107996536Y-100414535D01*
X108119464Y-100537463D01*
X108119467Y-100537465D01*
X108260116Y-100639653D01*
X108415019Y-100718580D01*
X108415024Y-100718581D01*
X108415174Y-100718658D01*
X108466789Y-100767406D01*
X108483855Y-100836321D01*
X108460954Y-100903523D01*
X108405357Y-100947675D01*
X108396909Y-100950758D01*
X108317706Y-100976493D01*
X108317701Y-100976495D01*
X108186276Y-101043459D01*
X108186276Y-101043461D01*
X108838999Y-101696184D01*
X108839000Y-101696184D01*
X109491723Y-101043459D01*
X109360298Y-100976495D01*
X109360289Y-100976492D01*
X109281091Y-100950758D01*
X109222485Y-100910684D01*
X109194849Y-100845287D01*
X109206956Y-100775330D01*
X109254963Y-100723024D01*
X109262826Y-100718658D01*
X109262975Y-100718581D01*
X109262981Y-100718580D01*
X109417884Y-100639653D01*
X109558533Y-100537465D01*
X109681465Y-100414533D01*
X109783653Y-100273884D01*
X109862580Y-100118981D01*
X109916303Y-99953638D01*
X109943500Y-99781926D01*
X109943500Y-99608074D01*
X110274500Y-99608074D01*
X110274500Y-99781926D01*
X110291575Y-99889730D01*
X110301698Y-99953642D01*
X110353476Y-100113000D01*
X110355420Y-100118981D01*
X110434347Y-100273884D01*
X110434349Y-100273887D01*
X110536536Y-100414535D01*
X110659464Y-100537463D01*
X110659467Y-100537465D01*
X110800116Y-100639653D01*
X110955019Y-100718580D01*
X111120362Y-100772303D01*
X111292074Y-100799500D01*
X111292077Y-100799500D01*
X111465923Y-100799500D01*
X111465926Y-100799500D01*
X111637638Y-100772303D01*
X111802981Y-100718580D01*
X111957884Y-100639653D01*
X112098533Y-100537465D01*
X112221465Y-100414533D01*
X112323653Y-100273884D01*
X112402580Y-100118981D01*
X112456303Y-99953638D01*
X112483500Y-99781926D01*
X112483500Y-99608074D01*
X112456303Y-99436362D01*
X112402580Y-99271019D01*
X112323653Y-99116116D01*
X112221465Y-98975467D01*
X112221463Y-98975464D01*
X112098535Y-98852536D01*
X111957887Y-98750349D01*
X111957886Y-98750348D01*
X111957884Y-98750347D01*
X111802981Y-98671420D01*
X111802978Y-98671419D01*
X111802976Y-98671418D01*
X111637642Y-98617698D01*
X111637640Y-98617697D01*
X111637638Y-98617697D01*
X111465926Y-98590500D01*
X111292074Y-98590500D01*
X111120362Y-98617697D01*
X111120360Y-98617697D01*
X111120357Y-98617698D01*
X110955023Y-98671418D01*
X110955017Y-98671421D01*
X110800112Y-98750349D01*
X110659464Y-98852536D01*
X110536536Y-98975464D01*
X110434349Y-99116112D01*
X110355421Y-99271017D01*
X110355418Y-99271023D01*
X110301698Y-99436357D01*
X110301697Y-99436360D01*
X110301697Y-99436362D01*
X110274500Y-99608074D01*
X109943500Y-99608074D01*
X109916303Y-99436362D01*
X109862580Y-99271019D01*
X109783653Y-99116116D01*
X109685602Y-98981161D01*
X109661744Y-98914294D01*
X109677824Y-98845142D01*
X109728738Y-98795662D01*
X109787538Y-98781100D01*
X110155879Y-98781100D01*
X110155881Y-98781100D01*
X110246450Y-98756833D01*
X110327651Y-98709951D01*
X110827967Y-98209633D01*
X110890278Y-98175610D01*
X110955994Y-98178896D01*
X111120362Y-98232303D01*
X111292074Y-98259500D01*
X111292077Y-98259500D01*
X111465923Y-98259500D01*
X111465926Y-98259500D01*
X111637638Y-98232303D01*
X111802981Y-98178580D01*
X111957884Y-98099653D01*
X112098533Y-97997465D01*
X112221465Y-97874533D01*
X112323653Y-97733884D01*
X112402580Y-97578981D01*
X112456303Y-97413638D01*
X112483500Y-97241926D01*
X112483500Y-97068074D01*
X112456303Y-96896362D01*
X112402580Y-96731019D01*
X112323653Y-96576116D01*
X112221465Y-96435467D01*
X112221463Y-96435464D01*
X112098535Y-96312536D01*
X111957887Y-96210349D01*
X111957886Y-96210348D01*
X111957884Y-96210347D01*
X111802981Y-96131420D01*
X111802978Y-96131419D01*
X111802976Y-96131418D01*
X111637642Y-96077698D01*
X111637640Y-96077697D01*
X111637638Y-96077697D01*
X111465926Y-96050500D01*
X111292074Y-96050500D01*
X111120362Y-96077697D01*
X111120360Y-96077697D01*
X111120357Y-96077698D01*
X110955023Y-96131418D01*
X110955017Y-96131421D01*
X110800112Y-96210349D01*
X110659464Y-96312536D01*
X110536536Y-96435464D01*
X110434348Y-96576113D01*
X110355341Y-96731174D01*
X110306592Y-96782789D01*
X110237678Y-96799855D01*
X110170476Y-96776954D01*
X110126324Y-96721356D01*
X110123241Y-96712908D01*
X110097507Y-96633709D01*
X110097506Y-96633707D01*
X110030538Y-96502276D01*
X110030538Y-96502275D01*
X109339000Y-97193813D01*
X109339000Y-97089174D01*
X109304925Y-96962007D01*
X109239099Y-96847993D01*
X109146007Y-96754901D01*
X109031993Y-96689075D01*
X108904826Y-96655000D01*
X108773174Y-96655000D01*
X108646007Y-96689075D01*
X108531993Y-96754901D01*
X108438901Y-96847993D01*
X108373075Y-96962007D01*
X108339000Y-97089174D01*
X108339000Y-97193816D01*
X107647460Y-96502276D01*
X107647459Y-96502276D01*
X107580495Y-96633701D01*
X107580490Y-96633713D01*
X107514440Y-96836996D01*
X107481000Y-97048126D01*
X107481000Y-97261873D01*
X107514440Y-97473003D01*
X107580490Y-97676286D01*
X107580493Y-97676292D01*
X107677535Y-97866748D01*
X107679052Y-97868836D01*
X107679384Y-97869766D01*
X107680122Y-97870971D01*
X107679869Y-97871125D01*
X107702912Y-97935703D01*
X107686834Y-98004855D01*
X107635921Y-98054337D01*
X107577118Y-98068900D01*
X105653793Y-98068900D01*
X105585672Y-98048898D01*
X105539179Y-97995242D01*
X105532086Y-97975511D01*
X105497847Y-97847726D01*
X105432121Y-97733887D01*
X105430902Y-97731775D01*
X105430900Y-97731772D01*
X105336227Y-97637099D01*
X105336224Y-97637097D01*
X105220278Y-97570155D01*
X105220276Y-97570154D01*
X105220274Y-97570153D01*
X105090945Y-97535500D01*
X104957055Y-97535500D01*
X104827726Y-97570153D01*
X104827724Y-97570154D01*
X104827721Y-97570155D01*
X104711775Y-97637097D01*
X104711772Y-97637099D01*
X104617099Y-97731772D01*
X104617097Y-97731775D01*
X104550155Y-97847721D01*
X104550154Y-97847724D01*
X104550153Y-97847726D01*
X104515500Y-97977055D01*
X100833500Y-97977055D01*
X100833500Y-95831427D01*
X101315100Y-95831427D01*
X101315100Y-95938572D01*
X101342829Y-96042056D01*
X101342830Y-96042059D01*
X101396396Y-96134838D01*
X101396404Y-96134848D01*
X101472151Y-96210595D01*
X101472156Y-96210599D01*
X101472158Y-96210601D01*
X101472159Y-96210602D01*
X101472161Y-96210603D01*
X101564940Y-96264169D01*
X101564943Y-96264170D01*
X101668431Y-96291900D01*
X101775569Y-96291900D01*
X101879057Y-96264170D01*
X101971842Y-96210601D01*
X102047601Y-96134842D01*
X102083313Y-96072985D01*
X102101169Y-96042059D01*
X102101170Y-96042056D01*
X102122231Y-95963459D01*
X102128900Y-95938569D01*
X102128900Y-95831431D01*
X102101170Y-95727943D01*
X102101169Y-95727940D01*
X102047603Y-95635161D01*
X102047595Y-95635151D01*
X101971848Y-95559404D01*
X101971838Y-95559396D01*
X101879059Y-95505830D01*
X101879056Y-95505829D01*
X101775572Y-95478100D01*
X101775569Y-95478100D01*
X101668431Y-95478100D01*
X101668427Y-95478100D01*
X101564943Y-95505829D01*
X101564940Y-95505830D01*
X101472161Y-95559396D01*
X101472151Y-95559404D01*
X101396404Y-95635151D01*
X101396396Y-95635161D01*
X101342830Y-95727940D01*
X101342829Y-95727943D01*
X101315100Y-95831427D01*
X100833500Y-95831427D01*
X100833500Y-94528074D01*
X107734500Y-94528074D01*
X107734500Y-94701926D01*
X107761697Y-94873638D01*
X107815420Y-95038981D01*
X107815421Y-95038982D01*
X107894349Y-95193887D01*
X107996536Y-95334535D01*
X108119464Y-95457463D01*
X108119467Y-95457465D01*
X108260116Y-95559653D01*
X108415019Y-95638580D01*
X108415024Y-95638581D01*
X108415174Y-95638658D01*
X108466789Y-95687406D01*
X108483855Y-95756321D01*
X108460954Y-95823523D01*
X108405357Y-95867675D01*
X108396909Y-95870758D01*
X108317706Y-95896493D01*
X108317701Y-95896495D01*
X108186276Y-95963459D01*
X108186276Y-95963461D01*
X108838999Y-96616184D01*
X108839000Y-96616184D01*
X109491723Y-95963459D01*
X109360298Y-95896495D01*
X109360289Y-95896492D01*
X109281091Y-95870758D01*
X109222485Y-95830684D01*
X109194849Y-95765287D01*
X109206956Y-95695330D01*
X109254963Y-95643024D01*
X109262826Y-95638658D01*
X109262975Y-95638581D01*
X109262981Y-95638580D01*
X109417884Y-95559653D01*
X109558533Y-95457465D01*
X109681465Y-95334533D01*
X109783653Y-95193884D01*
X109862580Y-95038981D01*
X109916303Y-94873638D01*
X109943500Y-94701926D01*
X109943500Y-94528074D01*
X110274500Y-94528074D01*
X110274500Y-94701926D01*
X110301697Y-94873638D01*
X110355420Y-95038981D01*
X110355421Y-95038982D01*
X110434349Y-95193887D01*
X110536536Y-95334535D01*
X110659464Y-95457463D01*
X110659467Y-95457465D01*
X110800116Y-95559653D01*
X110955019Y-95638580D01*
X111120362Y-95692303D01*
X111292074Y-95719500D01*
X111292077Y-95719500D01*
X111465923Y-95719500D01*
X111465926Y-95719500D01*
X111637638Y-95692303D01*
X111802981Y-95638580D01*
X111957884Y-95559653D01*
X112098533Y-95457465D01*
X112221465Y-95334533D01*
X112323653Y-95193884D01*
X112402580Y-95038981D01*
X112456303Y-94873638D01*
X112483500Y-94701926D01*
X112483500Y-94528074D01*
X112456303Y-94356362D01*
X112402580Y-94191019D01*
X112323653Y-94036116D01*
X112221465Y-93895467D01*
X112221463Y-93895464D01*
X112098535Y-93772536D01*
X111957887Y-93670349D01*
X111957886Y-93670348D01*
X111957884Y-93670347D01*
X111802981Y-93591420D01*
X111802978Y-93591419D01*
X111802976Y-93591418D01*
X111637642Y-93537698D01*
X111637640Y-93537697D01*
X111637638Y-93537697D01*
X111465926Y-93510500D01*
X111292074Y-93510500D01*
X111120362Y-93537697D01*
X111120360Y-93537697D01*
X111120357Y-93537698D01*
X110955023Y-93591418D01*
X110955017Y-93591421D01*
X110800112Y-93670349D01*
X110659464Y-93772536D01*
X110536536Y-93895464D01*
X110434349Y-94036112D01*
X110355421Y-94191017D01*
X110355418Y-94191023D01*
X110301698Y-94356357D01*
X110301697Y-94356360D01*
X110301697Y-94356362D01*
X110274500Y-94528074D01*
X109943500Y-94528074D01*
X109916303Y-94356362D01*
X109862580Y-94191019D01*
X109783653Y-94036116D01*
X109681465Y-93895467D01*
X109681463Y-93895464D01*
X109558535Y-93772536D01*
X109417887Y-93670349D01*
X109417886Y-93670348D01*
X109417884Y-93670347D01*
X109262981Y-93591420D01*
X109262978Y-93591419D01*
X109262976Y-93591418D01*
X109097642Y-93537698D01*
X109097640Y-93537697D01*
X109097638Y-93537697D01*
X108925926Y-93510500D01*
X108752074Y-93510500D01*
X108580362Y-93537697D01*
X108580360Y-93537697D01*
X108580357Y-93537698D01*
X108415023Y-93591418D01*
X108415017Y-93591421D01*
X108260112Y-93670349D01*
X108119464Y-93772536D01*
X107996536Y-93895464D01*
X107894349Y-94036112D01*
X107815421Y-94191017D01*
X107815418Y-94191023D01*
X107761698Y-94356357D01*
X107761697Y-94356360D01*
X107761697Y-94356362D01*
X107734500Y-94528074D01*
X100833500Y-94528074D01*
X100833500Y-92718257D01*
X100834578Y-92701812D01*
X100835321Y-92696161D01*
X100844300Y-92627965D01*
X100852809Y-92596201D01*
X100878132Y-92535066D01*
X100894572Y-92506593D01*
X100934854Y-92454097D01*
X100958097Y-92430854D01*
X101010593Y-92390572D01*
X101039066Y-92374132D01*
X101100201Y-92348809D01*
X101131962Y-92340300D01*
X101189053Y-92332784D01*
X101205813Y-92330578D01*
X101222258Y-92329500D01*
X101258875Y-92329500D01*
X112599125Y-92329500D01*
X112635742Y-92329500D01*
X112652187Y-92330578D01*
G37*
%TD.AperFunction*%
%TD*%
%TA.AperFunction,Conductor*%
%TO.N,GND*%
G36*
X144153187Y-91695578D02*
G01*
X144173207Y-91698213D01*
X144227035Y-91705299D01*
X144258800Y-91713810D01*
X144319929Y-91739131D01*
X144348409Y-91755574D01*
X144400897Y-91795850D01*
X144424149Y-91819102D01*
X144459770Y-91865524D01*
X144464424Y-91871589D01*
X144480870Y-91900073D01*
X144506187Y-91961193D01*
X144514700Y-91992965D01*
X144518835Y-92024377D01*
X144524422Y-92066810D01*
X144525500Y-92083257D01*
X144525500Y-107306742D01*
X144524422Y-107323187D01*
X144524422Y-107323189D01*
X144514700Y-107397034D01*
X144506187Y-107428806D01*
X144480870Y-107489926D01*
X144464424Y-107518410D01*
X144424153Y-107570893D01*
X144400893Y-107594153D01*
X144348410Y-107634424D01*
X144319926Y-107650870D01*
X144258806Y-107676187D01*
X144227034Y-107684700D01*
X144171424Y-107692021D01*
X144153187Y-107694422D01*
X144136742Y-107695500D01*
X140621400Y-107695500D01*
X140553279Y-107675498D01*
X140506786Y-107621842D01*
X140496682Y-107551568D01*
X140526176Y-107486988D01*
X140532305Y-107480405D01*
X140580598Y-107432111D01*
X140580601Y-107432108D01*
X140580603Y-107432106D01*
X140687417Y-107285090D01*
X140769917Y-107123174D01*
X140826072Y-106950346D01*
X140854500Y-106770861D01*
X140854500Y-106589139D01*
X140826072Y-106409654D01*
X140769917Y-106236826D01*
X140687417Y-106074910D01*
X140580603Y-105927894D01*
X140580601Y-105927891D01*
X140452108Y-105799398D01*
X140305093Y-105692585D01*
X140305092Y-105692584D01*
X140305090Y-105692583D01*
X140143174Y-105610083D01*
X140143171Y-105610082D01*
X140143169Y-105610081D01*
X139970351Y-105553929D01*
X139970347Y-105553928D01*
X139970346Y-105553928D01*
X139790861Y-105525500D01*
X139609139Y-105525500D01*
X139429654Y-105553928D01*
X139429648Y-105553929D01*
X139256830Y-105610081D01*
X139256824Y-105610084D01*
X139094906Y-105692585D01*
X138947891Y-105799398D01*
X138819398Y-105927891D01*
X138712585Y-106074906D01*
X138630084Y-106236824D01*
X138630081Y-106236830D01*
X138573929Y-106409648D01*
X138573928Y-106409653D01*
X138573928Y-106409654D01*
X138545500Y-106589139D01*
X138545500Y-106770861D01*
X138558620Y-106853694D01*
X138573929Y-106950351D01*
X138630020Y-107122981D01*
X138630083Y-107123174D01*
X138712450Y-107284829D01*
X138712585Y-107285093D01*
X138819398Y-107432108D01*
X138867695Y-107480405D01*
X138901721Y-107542717D01*
X138896656Y-107613532D01*
X138854109Y-107670368D01*
X138787589Y-107695179D01*
X138778600Y-107695500D01*
X135328481Y-107695500D01*
X135260360Y-107675498D01*
X135239386Y-107658595D01*
X134704124Y-107123333D01*
X134793694Y-107099333D01*
X134896306Y-107040090D01*
X134980090Y-106956306D01*
X135039333Y-106853694D01*
X135063333Y-106764124D01*
X135597329Y-107298120D01*
X135597331Y-107298120D01*
X135606988Y-107284829D01*
X135689449Y-107122989D01*
X135689452Y-107122981D01*
X135745583Y-106950231D01*
X135774000Y-106770819D01*
X135774000Y-106589180D01*
X135745583Y-106409768D01*
X135689452Y-106237018D01*
X135689449Y-106237010D01*
X135606990Y-106075173D01*
X135597330Y-106061877D01*
X135063333Y-106595875D01*
X135039333Y-106506306D01*
X134980090Y-106403694D01*
X134896306Y-106319910D01*
X134793694Y-106260667D01*
X134704123Y-106236666D01*
X135238120Y-105702668D01*
X135238121Y-105702668D01*
X135224824Y-105693009D01*
X135062989Y-105610550D01*
X135062981Y-105610547D01*
X134890231Y-105554416D01*
X134710820Y-105526000D01*
X134529180Y-105526000D01*
X134349768Y-105554416D01*
X134177018Y-105610547D01*
X134177010Y-105610550D01*
X134015184Y-105693004D01*
X134015172Y-105693011D01*
X134001877Y-105702668D01*
X134535875Y-106236666D01*
X134446306Y-106260667D01*
X134343694Y-106319910D01*
X134259910Y-106403694D01*
X134200667Y-106506306D01*
X134176666Y-106595875D01*
X133642668Y-106061877D01*
X133633011Y-106075172D01*
X133633004Y-106075184D01*
X133550550Y-106237010D01*
X133550547Y-106237018D01*
X133494416Y-106409768D01*
X133466000Y-106589180D01*
X133466000Y-106770819D01*
X133494416Y-106950231D01*
X133550547Y-107122981D01*
X133550550Y-107122989D01*
X133633009Y-107284824D01*
X133642668Y-107298120D01*
X134176666Y-106764122D01*
X134200667Y-106853694D01*
X134259910Y-106956306D01*
X134343694Y-107040090D01*
X134446306Y-107099333D01*
X134535876Y-107123333D01*
X134000613Y-107658596D01*
X133938301Y-107692621D01*
X133911518Y-107695500D01*
X130461400Y-107695500D01*
X130393279Y-107675498D01*
X130346786Y-107621842D01*
X130336682Y-107551568D01*
X130366176Y-107486988D01*
X130372305Y-107480405D01*
X130420598Y-107432111D01*
X130420601Y-107432108D01*
X130420603Y-107432106D01*
X130527417Y-107285090D01*
X130609917Y-107123174D01*
X130666072Y-106950346D01*
X130694500Y-106770861D01*
X130694500Y-106589139D01*
X130666072Y-106409654D01*
X130609917Y-106236826D01*
X130527417Y-106074910D01*
X130420603Y-105927894D01*
X130420601Y-105927891D01*
X130292108Y-105799398D01*
X130145093Y-105692585D01*
X130145092Y-105692584D01*
X130145090Y-105692583D01*
X129983174Y-105610083D01*
X129983171Y-105610082D01*
X129983169Y-105610081D01*
X129810351Y-105553929D01*
X129810347Y-105553928D01*
X129810346Y-105553928D01*
X129630861Y-105525500D01*
X129449139Y-105525500D01*
X129269654Y-105553928D01*
X129269648Y-105553929D01*
X129096830Y-105610081D01*
X129096824Y-105610084D01*
X128934906Y-105692585D01*
X128787891Y-105799398D01*
X128659398Y-105927891D01*
X128552585Y-106074906D01*
X128470084Y-106236824D01*
X128470081Y-106236830D01*
X128413929Y-106409648D01*
X128413928Y-106409653D01*
X128413928Y-106409654D01*
X128385500Y-106589139D01*
X128385500Y-106770861D01*
X128398620Y-106853694D01*
X128413929Y-106950351D01*
X128470020Y-107122981D01*
X128470083Y-107123174D01*
X128552450Y-107284829D01*
X128552585Y-107285093D01*
X128659398Y-107432108D01*
X128707695Y-107480405D01*
X128741721Y-107542717D01*
X128736656Y-107613532D01*
X128694109Y-107670368D01*
X128627589Y-107695179D01*
X128618600Y-107695500D01*
X125381400Y-107695500D01*
X125313279Y-107675498D01*
X125266786Y-107621842D01*
X125256682Y-107551568D01*
X125286176Y-107486988D01*
X125292305Y-107480405D01*
X125340598Y-107432111D01*
X125340601Y-107432108D01*
X125340603Y-107432106D01*
X125447417Y-107285090D01*
X125529917Y-107123174D01*
X125586072Y-106950346D01*
X125614500Y-106770861D01*
X125614500Y-106589139D01*
X125586072Y-106409654D01*
X125529917Y-106236826D01*
X125447417Y-106074910D01*
X125340603Y-105927894D01*
X125340601Y-105927891D01*
X125212108Y-105799398D01*
X125065093Y-105692585D01*
X125065092Y-105692584D01*
X125065090Y-105692583D01*
X124903174Y-105610083D01*
X124903171Y-105610082D01*
X124903169Y-105610081D01*
X124730351Y-105553929D01*
X124730347Y-105553928D01*
X124730346Y-105553928D01*
X124550861Y-105525500D01*
X124369139Y-105525500D01*
X124189654Y-105553928D01*
X124189648Y-105553929D01*
X124016830Y-105610081D01*
X124016824Y-105610084D01*
X123854906Y-105692585D01*
X123707891Y-105799398D01*
X123579398Y-105927891D01*
X123472585Y-106074906D01*
X123390084Y-106236824D01*
X123390081Y-106236830D01*
X123333929Y-106409648D01*
X123333928Y-106409653D01*
X123333928Y-106409654D01*
X123305500Y-106589139D01*
X123305500Y-106770861D01*
X123318620Y-106853694D01*
X123333929Y-106950351D01*
X123390020Y-107122981D01*
X123390083Y-107123174D01*
X123472450Y-107284829D01*
X123472585Y-107285093D01*
X123579398Y-107432108D01*
X123627695Y-107480405D01*
X123661721Y-107542717D01*
X123656656Y-107613532D01*
X123614109Y-107670368D01*
X123547589Y-107695179D01*
X123538600Y-107695500D01*
X114943258Y-107695500D01*
X114926812Y-107694422D01*
X114852966Y-107684700D01*
X114821194Y-107676187D01*
X114760073Y-107650870D01*
X114731589Y-107634424D01*
X114704362Y-107613532D01*
X114679102Y-107594149D01*
X114655850Y-107570897D01*
X114615574Y-107518409D01*
X114599131Y-107489929D01*
X114573810Y-107428800D01*
X114565299Y-107397032D01*
X114555578Y-107323187D01*
X114554500Y-107306742D01*
X114554500Y-101994930D01*
X115730500Y-101994930D01*
X115730500Y-103745063D01*
X115730501Y-103745073D01*
X115745265Y-103819300D01*
X115801516Y-103903484D01*
X115885697Y-103959733D01*
X115885699Y-103959734D01*
X115959933Y-103974500D01*
X116383400Y-103974499D01*
X116451520Y-103994501D01*
X116498014Y-104048156D01*
X116499793Y-104053107D01*
X116500007Y-104053019D01*
X116503169Y-104060654D01*
X116550046Y-104141847D01*
X116550054Y-104141857D01*
X117468142Y-105059945D01*
X117468147Y-105059949D01*
X117468149Y-105059951D01*
X117549350Y-105106833D01*
X117639919Y-105131100D01*
X117733681Y-105131100D01*
X131664782Y-105131100D01*
X131732903Y-105151102D01*
X131753877Y-105168005D01*
X131767772Y-105181900D01*
X131767775Y-105181902D01*
X131859226Y-105234701D01*
X131883726Y-105248847D01*
X132013055Y-105283500D01*
X132013057Y-105283500D01*
X132146943Y-105283500D01*
X132146945Y-105283500D01*
X132276274Y-105248847D01*
X132392226Y-105181901D01*
X132486901Y-105087226D01*
X132553847Y-104971274D01*
X132588500Y-104841945D01*
X132588500Y-104708055D01*
X132553847Y-104578726D01*
X132486901Y-104462774D01*
X132486900Y-104462772D01*
X132392227Y-104368099D01*
X132392224Y-104368097D01*
X132276278Y-104301155D01*
X132276276Y-104301154D01*
X132276274Y-104301153D01*
X132146945Y-104266500D01*
X132013055Y-104266500D01*
X131883726Y-104301153D01*
X131883724Y-104301154D01*
X131883721Y-104301155D01*
X131767775Y-104368097D01*
X131767772Y-104368099D01*
X131753877Y-104381995D01*
X131691565Y-104416021D01*
X131664782Y-104418900D01*
X117886492Y-104418900D01*
X117818371Y-104398898D01*
X117797397Y-104381995D01*
X117604996Y-104189594D01*
X117570970Y-104127282D01*
X117576035Y-104056467D01*
X117618582Y-103999631D01*
X117685102Y-103974820D01*
X117694091Y-103974499D01*
X117710064Y-103974499D01*
X117710066Y-103974499D01*
X117710069Y-103974498D01*
X117710072Y-103974498D01*
X117746663Y-103967219D01*
X117784301Y-103959734D01*
X117868484Y-103903484D01*
X117924734Y-103819301D01*
X117939500Y-103745067D01*
X117939499Y-102783116D01*
X118271000Y-102783116D01*
X118271000Y-102956883D01*
X118298185Y-103128524D01*
X118351883Y-103293788D01*
X118351884Y-103293790D01*
X118430776Y-103448625D01*
X118433463Y-103452324D01*
X118890841Y-102994946D01*
X118909075Y-103062993D01*
X118974901Y-103177007D01*
X119067993Y-103270099D01*
X119182007Y-103335925D01*
X119250051Y-103354157D01*
X118792673Y-103811535D01*
X118796375Y-103814223D01*
X118796385Y-103814230D01*
X118951203Y-103893113D01*
X118951211Y-103893116D01*
X119116475Y-103946814D01*
X119288116Y-103974000D01*
X119461884Y-103974000D01*
X119633524Y-103946814D01*
X119798788Y-103893116D01*
X119798796Y-103893113D01*
X119953615Y-103814229D01*
X119957325Y-103811534D01*
X119499948Y-103354157D01*
X119567993Y-103335925D01*
X119682007Y-103270099D01*
X119775099Y-103177007D01*
X119840925Y-103062993D01*
X119859157Y-102994948D01*
X120316534Y-103452325D01*
X120319229Y-103448615D01*
X120398113Y-103293796D01*
X120398116Y-103293788D01*
X120451814Y-103128524D01*
X120479000Y-102956883D01*
X120479000Y-102783116D01*
X120451814Y-102611475D01*
X120398116Y-102446211D01*
X120398113Y-102446203D01*
X120319230Y-102291385D01*
X120319223Y-102291375D01*
X120316534Y-102287673D01*
X119859157Y-102745050D01*
X119840925Y-102677007D01*
X119775099Y-102562993D01*
X119682007Y-102469901D01*
X119567993Y-102404075D01*
X119499947Y-102385841D01*
X119814052Y-102071737D01*
X123205500Y-102071737D01*
X123205500Y-103668246D01*
X123205502Y-103668270D01*
X123211959Y-103728339D01*
X123211959Y-103728341D01*
X123262657Y-103864266D01*
X123262658Y-103864267D01*
X123349596Y-103980404D01*
X123465733Y-104067342D01*
X123601658Y-104118040D01*
X123661745Y-104124500D01*
X125258254Y-104124499D01*
X125318342Y-104118040D01*
X125454267Y-104067342D01*
X125570404Y-103980404D01*
X125657342Y-103864267D01*
X125708040Y-103728342D01*
X125714500Y-103668255D01*
X125714499Y-102071746D01*
X125708040Y-102011658D01*
X125657342Y-101875733D01*
X125570404Y-101759596D01*
X125454267Y-101672658D01*
X125454265Y-101672657D01*
X125454266Y-101672657D01*
X125318349Y-101621962D01*
X125318344Y-101621960D01*
X125318342Y-101621960D01*
X125310831Y-101621152D01*
X125258262Y-101615500D01*
X125201539Y-101615500D01*
X125172606Y-101607004D01*
X125143040Y-101601097D01*
X125138918Y-101597113D01*
X125133418Y-101595498D01*
X125113672Y-101572710D01*
X125091993Y-101551755D01*
X125090679Y-101546174D01*
X125086925Y-101541842D01*
X125082632Y-101511989D01*
X125075726Y-101482647D01*
X125077637Y-101477244D01*
X125076821Y-101471568D01*
X125089348Y-101444137D01*
X125099403Y-101415715D01*
X125104382Y-101411219D01*
X125106315Y-101406988D01*
X125124328Y-101389929D01*
X125131110Y-101384669D01*
X125153226Y-101371901D01*
X125172732Y-101352394D01*
X125179007Y-101347529D01*
X125204961Y-101337343D01*
X125229435Y-101323979D01*
X125242627Y-101322560D01*
X125245096Y-101321592D01*
X125247385Y-101322049D01*
X125256218Y-101321100D01*
X127435308Y-101321100D01*
X127503429Y-101341102D01*
X127524403Y-101358005D01*
X128372566Y-102206168D01*
X128406592Y-102268480D01*
X128401527Y-102339295D01*
X128395739Y-102352464D01*
X128377410Y-102388436D01*
X128377407Y-102388443D01*
X128316391Y-102576231D01*
X128316390Y-102576236D01*
X128316390Y-102576237D01*
X128285500Y-102771269D01*
X128285500Y-102968731D01*
X128300430Y-103062993D01*
X128316391Y-103163768D01*
X128377407Y-103351556D01*
X128377409Y-103351561D01*
X128467056Y-103527501D01*
X128583121Y-103687252D01*
X128583123Y-103687254D01*
X128583125Y-103687257D01*
X128722742Y-103826874D01*
X128722745Y-103826876D01*
X128722748Y-103826879D01*
X128882499Y-103942944D01*
X129058439Y-104032591D01*
X129246237Y-104093610D01*
X129441269Y-104124500D01*
X129441272Y-104124500D01*
X129638728Y-104124500D01*
X129638731Y-104124500D01*
X129833763Y-104093610D01*
X130021561Y-104032591D01*
X130197501Y-103942944D01*
X130357252Y-103826879D01*
X130496879Y-103687252D01*
X130612944Y-103527501D01*
X130702591Y-103351561D01*
X130763610Y-103163763D01*
X130794500Y-102968731D01*
X130794500Y-102771269D01*
X130763610Y-102576237D01*
X130702591Y-102388439D01*
X130612944Y-102212499D01*
X130496879Y-102052748D01*
X130496876Y-102052745D01*
X130496874Y-102052742D01*
X130357257Y-101913125D01*
X130357254Y-101913123D01*
X130357252Y-101913121D01*
X130197501Y-101797056D01*
X130021561Y-101707409D01*
X130021558Y-101707408D01*
X130021556Y-101707407D01*
X129833768Y-101646391D01*
X129833764Y-101646390D01*
X129833763Y-101646390D01*
X129638731Y-101615500D01*
X129441269Y-101615500D01*
X129246237Y-101646390D01*
X129246231Y-101646391D01*
X129058443Y-101707407D01*
X129058436Y-101707410D01*
X129022464Y-101725739D01*
X128952687Y-101738842D01*
X128886903Y-101712141D01*
X128876168Y-101702566D01*
X127853657Y-100680054D01*
X127853647Y-100680046D01*
X127772454Y-100633169D01*
X127772452Y-100633168D01*
X127772450Y-100633167D01*
X127681881Y-100608900D01*
X127681880Y-100608900D01*
X125256218Y-100608900D01*
X125188097Y-100588898D01*
X125167123Y-100571995D01*
X125153227Y-100558099D01*
X125153224Y-100558097D01*
X125037278Y-100491155D01*
X125037276Y-100491154D01*
X125037274Y-100491153D01*
X124907945Y-100456500D01*
X124774055Y-100456500D01*
X124644726Y-100491153D01*
X124644724Y-100491154D01*
X124644721Y-100491155D01*
X124528775Y-100558097D01*
X124528772Y-100558099D01*
X124434099Y-100652772D01*
X124434097Y-100652775D01*
X124367155Y-100768721D01*
X124367154Y-100768724D01*
X124367153Y-100768726D01*
X124332500Y-100898055D01*
X124332500Y-101031945D01*
X124367153Y-101161274D01*
X124367154Y-101161276D01*
X124367155Y-101161278D01*
X124434097Y-101277224D01*
X124434099Y-101277227D01*
X124528772Y-101371900D01*
X124543460Y-101380380D01*
X124592454Y-101431762D01*
X124605891Y-101501476D01*
X124579505Y-101567387D01*
X124521673Y-101608570D01*
X124480461Y-101615500D01*
X123661753Y-101615500D01*
X123661729Y-101615502D01*
X123601660Y-101621959D01*
X123601658Y-101621959D01*
X123465733Y-101672657D01*
X123349596Y-101759596D01*
X123262657Y-101875734D01*
X123211962Y-102011650D01*
X123211960Y-102011658D01*
X123205500Y-102071737D01*
X119814052Y-102071737D01*
X119906513Y-101979276D01*
X119957325Y-101928464D01*
X119953625Y-101925776D01*
X119798790Y-101846884D01*
X119798788Y-101846883D01*
X119633524Y-101793185D01*
X119461884Y-101766000D01*
X119288116Y-101766000D01*
X119116475Y-101793185D01*
X118951211Y-101846883D01*
X118951209Y-101846884D01*
X118796375Y-101925775D01*
X118792674Y-101928463D01*
X118792674Y-101928465D01*
X119250051Y-102385842D01*
X119182007Y-102404075D01*
X119067993Y-102469901D01*
X118974901Y-102562993D01*
X118909075Y-102677007D01*
X118890842Y-102745051D01*
X118433465Y-102287674D01*
X118433463Y-102287674D01*
X118430775Y-102291375D01*
X118351884Y-102446209D01*
X118351883Y-102446211D01*
X118298185Y-102611475D01*
X118271000Y-102783116D01*
X117939499Y-102783116D01*
X117939499Y-101994934D01*
X117939499Y-101994933D01*
X117939499Y-101994931D01*
X117924734Y-101920699D01*
X117894688Y-101875733D01*
X117868484Y-101836516D01*
X117868483Y-101836515D01*
X117784302Y-101780266D01*
X117710067Y-101765500D01*
X115959936Y-101765500D01*
X115959926Y-101765501D01*
X115885699Y-101780265D01*
X115801515Y-101836516D01*
X115745266Y-101920697D01*
X115730500Y-101994930D01*
X114554500Y-101994930D01*
X114554500Y-101138857D01*
X114536899Y-101056053D01*
X114521175Y-100982077D01*
X114466199Y-100858599D01*
X114456766Y-100788235D01*
X114486872Y-100723938D01*
X114492201Y-100718268D01*
X114495700Y-100714770D01*
X114562119Y-100599730D01*
X114596500Y-100471419D01*
X114596500Y-100338581D01*
X114562119Y-100210270D01*
X114505958Y-100112997D01*
X114489221Y-100044006D01*
X114505957Y-99987003D01*
X114562119Y-99889730D01*
X114596500Y-99761419D01*
X114596500Y-99628581D01*
X114562119Y-99500270D01*
X114508845Y-99407998D01*
X114492108Y-99339005D01*
X114508844Y-99282002D01*
X114562119Y-99189730D01*
X114596500Y-99061419D01*
X114596500Y-98928581D01*
X114562119Y-98800270D01*
X114495700Y-98685230D01*
X114489132Y-98678662D01*
X114455107Y-98616354D01*
X114460169Y-98545538D01*
X114463120Y-98538317D01*
X114521174Y-98407927D01*
X114524871Y-98390537D01*
X114554500Y-98251142D01*
X114554500Y-98171000D01*
X114554500Y-98126125D01*
X114554500Y-96901000D01*
X116882467Y-96901000D01*
X117679297Y-96901000D01*
X117644075Y-96962007D01*
X117610000Y-97089174D01*
X117610000Y-97220826D01*
X117644075Y-97347993D01*
X117679297Y-97409000D01*
X116882468Y-97409000D01*
X116883182Y-97413515D01*
X116883184Y-97413521D01*
X116936883Y-97578788D01*
X116936884Y-97578790D01*
X117015776Y-97733625D01*
X117117917Y-97874210D01*
X117240789Y-97997082D01*
X117381374Y-98099223D01*
X117536209Y-98178115D01*
X117536211Y-98178116D01*
X117701476Y-98231815D01*
X117856000Y-98256288D01*
X117856000Y-97585702D01*
X117917007Y-97620925D01*
X118044174Y-97655000D01*
X118175826Y-97655000D01*
X118302993Y-97620925D01*
X118364000Y-97585702D01*
X118364000Y-98256288D01*
X118518523Y-98231815D01*
X118683788Y-98178116D01*
X118683790Y-98178115D01*
X118838625Y-98099223D01*
X118979210Y-97997082D01*
X119102082Y-97874210D01*
X119204223Y-97733625D01*
X119283115Y-97578790D01*
X119283116Y-97578788D01*
X119336815Y-97413521D01*
X119336817Y-97413515D01*
X119337532Y-97409000D01*
X118540703Y-97409000D01*
X118575925Y-97347993D01*
X118610000Y-97220826D01*
X118610000Y-97089174D01*
X118575925Y-96962007D01*
X118540703Y-96901000D01*
X119337532Y-96901000D01*
X119336817Y-96896484D01*
X119336815Y-96896478D01*
X119283116Y-96731211D01*
X119283115Y-96731209D01*
X119204223Y-96576374D01*
X119102082Y-96435789D01*
X118979210Y-96312917D01*
X118838625Y-96210776D01*
X118683790Y-96131884D01*
X118683788Y-96131883D01*
X118518523Y-96078184D01*
X118364000Y-96053710D01*
X118364000Y-96724297D01*
X118302993Y-96689075D01*
X118175826Y-96655000D01*
X118044174Y-96655000D01*
X117917007Y-96689075D01*
X117856000Y-96724297D01*
X117856000Y-96053710D01*
X117701476Y-96078184D01*
X117536211Y-96131883D01*
X117536209Y-96131884D01*
X117381374Y-96210776D01*
X117240789Y-96312917D01*
X117117917Y-96435789D01*
X117015776Y-96576374D01*
X116936884Y-96731209D01*
X116936883Y-96731211D01*
X116883184Y-96896478D01*
X116883182Y-96896484D01*
X116882467Y-96901000D01*
X114554500Y-96901000D01*
X114554500Y-94006737D01*
X116855500Y-94006737D01*
X116855500Y-95303246D01*
X116855502Y-95303270D01*
X116861959Y-95363339D01*
X116861959Y-95363341D01*
X116912657Y-95499266D01*
X116912658Y-95499267D01*
X116999596Y-95615404D01*
X117115733Y-95702342D01*
X117251658Y-95753040D01*
X117311745Y-95759500D01*
X118908254Y-95759499D01*
X118968342Y-95753040D01*
X119104267Y-95702342D01*
X119220404Y-95615404D01*
X119307342Y-95499267D01*
X119358040Y-95363342D01*
X119364500Y-95303255D01*
X119364500Y-95009930D01*
X123355500Y-95009930D01*
X123355500Y-96760063D01*
X123355501Y-96760073D01*
X123370265Y-96834300D01*
X123426516Y-96918484D01*
X123510697Y-96974733D01*
X123510699Y-96974734D01*
X123584933Y-96989500D01*
X125335066Y-96989499D01*
X125335069Y-96989498D01*
X125335073Y-96989498D01*
X125384326Y-96979701D01*
X125409301Y-96974734D01*
X125493484Y-96918484D01*
X125549734Y-96834301D01*
X125564500Y-96760067D01*
X125564499Y-95798074D01*
X125895500Y-95798074D01*
X125895500Y-95971926D01*
X125922697Y-96143638D01*
X125976420Y-96308981D01*
X126041032Y-96435789D01*
X126055349Y-96463887D01*
X126157536Y-96604535D01*
X126280464Y-96727463D01*
X126325342Y-96760069D01*
X126421116Y-96829653D01*
X126576019Y-96908580D01*
X126741362Y-96962303D01*
X126913074Y-96989500D01*
X126913077Y-96989500D01*
X127086923Y-96989500D01*
X127086926Y-96989500D01*
X127258638Y-96962303D01*
X127423981Y-96908580D01*
X127578884Y-96829653D01*
X127719533Y-96727465D01*
X127842465Y-96604533D01*
X127944653Y-96463884D01*
X128023580Y-96308981D01*
X128077303Y-96143638D01*
X128104500Y-95971926D01*
X128104500Y-95798074D01*
X128435500Y-95798074D01*
X128435500Y-95971926D01*
X128462697Y-96143638D01*
X128516420Y-96308981D01*
X128581032Y-96435789D01*
X128595349Y-96463887D01*
X128697536Y-96604535D01*
X128820464Y-96727463D01*
X128865342Y-96760069D01*
X128961116Y-96829653D01*
X129116019Y-96908580D01*
X129281362Y-96962303D01*
X129453074Y-96989500D01*
X129453077Y-96989500D01*
X129626923Y-96989500D01*
X129626926Y-96989500D01*
X129798638Y-96962303D01*
X129963981Y-96908580D01*
X130118884Y-96829653D01*
X130259533Y-96727465D01*
X130382465Y-96604533D01*
X130484653Y-96463884D01*
X130563580Y-96308981D01*
X130617303Y-96143638D01*
X130644500Y-95971926D01*
X130644500Y-95798074D01*
X130975500Y-95798074D01*
X130975500Y-95971926D01*
X131002697Y-96143638D01*
X131056420Y-96308981D01*
X131121032Y-96435789D01*
X131135349Y-96463887D01*
X131237536Y-96604535D01*
X131360464Y-96727463D01*
X131405342Y-96760069D01*
X131501116Y-96829653D01*
X131656019Y-96908580D01*
X131821362Y-96962303D01*
X131993074Y-96989500D01*
X131993077Y-96989500D01*
X132166923Y-96989500D01*
X132166926Y-96989500D01*
X132338638Y-96962303D01*
X132503981Y-96908580D01*
X132658884Y-96829653D01*
X132799533Y-96727465D01*
X132922465Y-96604533D01*
X133024653Y-96463884D01*
X133103580Y-96308981D01*
X133157303Y-96143638D01*
X133184500Y-95971926D01*
X133184500Y-95798074D01*
X133515500Y-95798074D01*
X133515500Y-95971926D01*
X133542697Y-96143638D01*
X133596420Y-96308981D01*
X133661032Y-96435789D01*
X133675349Y-96463887D01*
X133777536Y-96604535D01*
X133900464Y-96727463D01*
X133945342Y-96760069D01*
X134041116Y-96829653D01*
X134196019Y-96908580D01*
X134361362Y-96962303D01*
X134533074Y-96989500D01*
X134533077Y-96989500D01*
X134706923Y-96989500D01*
X134706926Y-96989500D01*
X134878638Y-96962303D01*
X135043981Y-96908580D01*
X135058858Y-96901000D01*
X141012467Y-96901000D01*
X141809297Y-96901000D01*
X141774075Y-96962007D01*
X141740000Y-97089174D01*
X141740000Y-97220826D01*
X141774075Y-97347993D01*
X141809297Y-97409000D01*
X141012468Y-97409000D01*
X141013182Y-97413515D01*
X141013184Y-97413521D01*
X141066883Y-97578788D01*
X141066884Y-97578790D01*
X141145776Y-97733625D01*
X141247917Y-97874210D01*
X141370789Y-97997082D01*
X141511374Y-98099223D01*
X141666209Y-98178115D01*
X141666211Y-98178116D01*
X141831476Y-98231815D01*
X141986000Y-98256288D01*
X141986000Y-97585702D01*
X142047007Y-97620925D01*
X142174174Y-97655000D01*
X142305826Y-97655000D01*
X142432993Y-97620925D01*
X142494000Y-97585702D01*
X142494000Y-98256288D01*
X142648523Y-98231815D01*
X142813788Y-98178116D01*
X142813790Y-98178115D01*
X142968625Y-98099223D01*
X143109210Y-97997082D01*
X143232082Y-97874210D01*
X143334223Y-97733625D01*
X143413115Y-97578790D01*
X143413116Y-97578788D01*
X143466815Y-97413521D01*
X143466817Y-97413515D01*
X143467532Y-97409000D01*
X142670703Y-97409000D01*
X142705925Y-97347993D01*
X142740000Y-97220826D01*
X142740000Y-97089174D01*
X142705925Y-96962007D01*
X142670703Y-96901000D01*
X143467532Y-96901000D01*
X143466817Y-96896484D01*
X143466815Y-96896478D01*
X143413116Y-96731211D01*
X143413115Y-96731209D01*
X143334223Y-96576374D01*
X143232082Y-96435789D01*
X143109210Y-96312917D01*
X142968625Y-96210776D01*
X142813790Y-96131884D01*
X142813788Y-96131883D01*
X142648523Y-96078184D01*
X142494000Y-96053710D01*
X142494000Y-96724297D01*
X142432993Y-96689075D01*
X142305826Y-96655000D01*
X142174174Y-96655000D01*
X142047007Y-96689075D01*
X141986000Y-96724297D01*
X141986000Y-96053710D01*
X141831476Y-96078184D01*
X141666211Y-96131883D01*
X141666209Y-96131884D01*
X141511374Y-96210776D01*
X141370789Y-96312917D01*
X141247917Y-96435789D01*
X141145776Y-96576374D01*
X141066884Y-96731209D01*
X141066883Y-96731211D01*
X141013184Y-96896478D01*
X141013182Y-96896484D01*
X141012467Y-96901000D01*
X135058858Y-96901000D01*
X135198884Y-96829653D01*
X135339533Y-96727465D01*
X135462465Y-96604533D01*
X135564653Y-96463884D01*
X135643580Y-96308981D01*
X135697303Y-96143638D01*
X135724500Y-95971926D01*
X135724500Y-95798074D01*
X135697303Y-95626362D01*
X135643580Y-95461019D01*
X135564653Y-95306116D01*
X135462465Y-95165467D01*
X135462463Y-95165464D01*
X135339535Y-95042536D01*
X135198887Y-94940349D01*
X135198886Y-94940348D01*
X135198884Y-94940347D01*
X135043981Y-94861420D01*
X135043978Y-94861419D01*
X135043976Y-94861418D01*
X134878642Y-94807698D01*
X134878640Y-94807697D01*
X134878638Y-94807697D01*
X134706926Y-94780500D01*
X134533074Y-94780500D01*
X134361362Y-94807697D01*
X134361360Y-94807697D01*
X134361357Y-94807698D01*
X134196023Y-94861418D01*
X134196017Y-94861421D01*
X134041112Y-94940349D01*
X133900464Y-95042536D01*
X133777536Y-95165464D01*
X133675349Y-95306112D01*
X133596421Y-95461017D01*
X133596418Y-95461023D01*
X133542698Y-95626357D01*
X133542697Y-95626360D01*
X133542697Y-95626362D01*
X133515500Y-95798074D01*
X133184500Y-95798074D01*
X133157303Y-95626362D01*
X133103580Y-95461019D01*
X133024653Y-95306116D01*
X132922465Y-95165467D01*
X132922463Y-95165464D01*
X132799535Y-95042536D01*
X132658887Y-94940349D01*
X132658886Y-94940348D01*
X132658884Y-94940347D01*
X132503981Y-94861420D01*
X132503978Y-94861419D01*
X132503976Y-94861418D01*
X132338642Y-94807698D01*
X132338640Y-94807697D01*
X132338638Y-94807697D01*
X132166926Y-94780500D01*
X131993074Y-94780500D01*
X131821362Y-94807697D01*
X131821360Y-94807697D01*
X131821357Y-94807698D01*
X131656023Y-94861418D01*
X131656017Y-94861421D01*
X131501112Y-94940349D01*
X131360464Y-95042536D01*
X131237536Y-95165464D01*
X131135349Y-95306112D01*
X131056421Y-95461017D01*
X131056418Y-95461023D01*
X131002698Y-95626357D01*
X131002697Y-95626360D01*
X131002697Y-95626362D01*
X130975500Y-95798074D01*
X130644500Y-95798074D01*
X130617303Y-95626362D01*
X130563580Y-95461019D01*
X130484653Y-95306116D01*
X130382465Y-95165467D01*
X130382463Y-95165464D01*
X130259535Y-95042536D01*
X130118887Y-94940349D01*
X130118886Y-94940348D01*
X130118884Y-94940347D01*
X129963981Y-94861420D01*
X129963978Y-94861419D01*
X129963976Y-94861418D01*
X129798642Y-94807698D01*
X129798640Y-94807697D01*
X129798638Y-94807697D01*
X129626926Y-94780500D01*
X129453074Y-94780500D01*
X129281362Y-94807697D01*
X129281360Y-94807697D01*
X129281357Y-94807698D01*
X129116023Y-94861418D01*
X129116017Y-94861421D01*
X128961112Y-94940349D01*
X128820464Y-95042536D01*
X128697536Y-95165464D01*
X128595349Y-95306112D01*
X128516421Y-95461017D01*
X128516418Y-95461023D01*
X128462698Y-95626357D01*
X128462697Y-95626360D01*
X128462697Y-95626362D01*
X128435500Y-95798074D01*
X128104500Y-95798074D01*
X128077303Y-95626362D01*
X128023580Y-95461019D01*
X127944653Y-95306116D01*
X127842465Y-95165467D01*
X127842463Y-95165464D01*
X127719535Y-95042536D01*
X127578887Y-94940349D01*
X127578886Y-94940348D01*
X127578884Y-94940347D01*
X127423981Y-94861420D01*
X127423978Y-94861419D01*
X127423976Y-94861418D01*
X127258642Y-94807698D01*
X127258640Y-94807697D01*
X127258638Y-94807697D01*
X127086926Y-94780500D01*
X126913074Y-94780500D01*
X126741362Y-94807697D01*
X126741360Y-94807697D01*
X126741357Y-94807698D01*
X126576023Y-94861418D01*
X126576017Y-94861421D01*
X126421112Y-94940349D01*
X126280464Y-95042536D01*
X126157536Y-95165464D01*
X126055349Y-95306112D01*
X125976421Y-95461017D01*
X125976418Y-95461023D01*
X125922698Y-95626357D01*
X125922697Y-95626360D01*
X125922697Y-95626362D01*
X125895500Y-95798074D01*
X125564499Y-95798074D01*
X125564499Y-95009934D01*
X125564498Y-95009930D01*
X125564498Y-95009926D01*
X125549734Y-94935699D01*
X125500102Y-94861421D01*
X125493484Y-94851516D01*
X125427907Y-94807698D01*
X125409302Y-94795266D01*
X125335067Y-94780500D01*
X123584936Y-94780500D01*
X123584926Y-94780501D01*
X123510699Y-94795265D01*
X123426515Y-94851516D01*
X123370266Y-94935697D01*
X123355500Y-95009930D01*
X119364500Y-95009930D01*
X119364499Y-94006746D01*
X119358040Y-93946658D01*
X119307342Y-93810733D01*
X119220404Y-93694596D01*
X119104267Y-93607658D01*
X119104265Y-93607657D01*
X119104266Y-93607657D01*
X118968349Y-93556962D01*
X118968344Y-93556960D01*
X118968342Y-93556960D01*
X118938298Y-93553730D01*
X118908256Y-93550500D01*
X117311753Y-93550500D01*
X117311729Y-93550502D01*
X117251660Y-93556959D01*
X117251658Y-93556959D01*
X117115733Y-93607657D01*
X116999596Y-93694596D01*
X116912657Y-93810734D01*
X116861962Y-93946650D01*
X116861960Y-93946658D01*
X116855500Y-94006737D01*
X114554500Y-94006737D01*
X114554500Y-93258074D01*
X123355500Y-93258074D01*
X123355500Y-93431926D01*
X123382679Y-93603524D01*
X123382698Y-93603642D01*
X123415374Y-93704210D01*
X123436420Y-93768981D01*
X123515347Y-93923884D01*
X123515349Y-93923887D01*
X123617536Y-94064535D01*
X123740464Y-94187463D01*
X123740467Y-94187465D01*
X123881116Y-94289653D01*
X124036019Y-94368580D01*
X124201362Y-94422303D01*
X124373074Y-94449500D01*
X124373077Y-94449500D01*
X124546923Y-94449500D01*
X124546926Y-94449500D01*
X124718638Y-94422303D01*
X124883981Y-94368580D01*
X125038884Y-94289653D01*
X125179533Y-94187465D01*
X125179538Y-94187460D01*
X125217580Y-94149419D01*
X125302460Y-94064538D01*
X125302463Y-94064535D01*
X125302465Y-94064533D01*
X125404653Y-93923884D01*
X125483580Y-93768981D01*
X125537303Y-93603638D01*
X125564500Y-93431926D01*
X125564500Y-93258116D01*
X125896000Y-93258116D01*
X125896000Y-93431883D01*
X125923185Y-93603524D01*
X125976883Y-93768788D01*
X125976884Y-93768790D01*
X126055776Y-93923625D01*
X126058463Y-93927324D01*
X126515841Y-93469946D01*
X126534075Y-93537993D01*
X126599901Y-93652007D01*
X126692993Y-93745099D01*
X126807007Y-93810925D01*
X126875051Y-93829157D01*
X126417673Y-94286535D01*
X126421375Y-94289223D01*
X126421385Y-94289230D01*
X126576203Y-94368113D01*
X126576211Y-94368116D01*
X126741475Y-94421814D01*
X126913116Y-94449000D01*
X127086884Y-94449000D01*
X127258524Y-94421814D01*
X127423788Y-94368116D01*
X127423796Y-94368113D01*
X127578615Y-94289229D01*
X127582325Y-94286534D01*
X127124948Y-93829157D01*
X127192993Y-93810925D01*
X127307007Y-93745099D01*
X127400099Y-93652007D01*
X127465925Y-93537993D01*
X127484157Y-93469948D01*
X127941534Y-93927325D01*
X127944229Y-93923615D01*
X128023113Y-93768796D01*
X128023116Y-93768788D01*
X128076814Y-93603524D01*
X128104000Y-93431883D01*
X128104000Y-93258116D01*
X128103993Y-93258074D01*
X128435500Y-93258074D01*
X128435500Y-93431926D01*
X128462679Y-93603524D01*
X128462698Y-93603642D01*
X128495374Y-93704210D01*
X128516420Y-93768981D01*
X128595347Y-93923884D01*
X128595349Y-93923887D01*
X128697536Y-94064535D01*
X128820464Y-94187463D01*
X128820467Y-94187465D01*
X128961116Y-94289653D01*
X129116019Y-94368580D01*
X129281362Y-94422303D01*
X129453074Y-94449500D01*
X129453077Y-94449500D01*
X129626923Y-94449500D01*
X129626926Y-94449500D01*
X129798638Y-94422303D01*
X129963981Y-94368580D01*
X130118884Y-94289653D01*
X130259533Y-94187465D01*
X130259538Y-94187460D01*
X130297580Y-94149419D01*
X130382460Y-94064538D01*
X130382463Y-94064535D01*
X130382465Y-94064533D01*
X130484653Y-93923884D01*
X130563580Y-93768981D01*
X130617303Y-93603638D01*
X130644500Y-93431926D01*
X130644500Y-93258116D01*
X130976000Y-93258116D01*
X130976000Y-93431883D01*
X131003185Y-93603524D01*
X131056883Y-93768788D01*
X131056884Y-93768790D01*
X131135776Y-93923625D01*
X131138463Y-93927324D01*
X131595841Y-93469946D01*
X131614075Y-93537993D01*
X131679901Y-93652007D01*
X131772993Y-93745099D01*
X131887007Y-93810925D01*
X131955051Y-93829157D01*
X131497673Y-94286535D01*
X131501375Y-94289223D01*
X131501385Y-94289230D01*
X131656203Y-94368113D01*
X131656211Y-94368116D01*
X131821475Y-94421814D01*
X131993116Y-94449000D01*
X132166884Y-94449000D01*
X132338524Y-94421814D01*
X132503788Y-94368116D01*
X132503796Y-94368113D01*
X132658615Y-94289229D01*
X132662325Y-94286534D01*
X132204948Y-93829157D01*
X132272993Y-93810925D01*
X132387007Y-93745099D01*
X132480099Y-93652007D01*
X132545925Y-93537993D01*
X132564157Y-93469948D01*
X133021534Y-93927325D01*
X133024229Y-93923615D01*
X133103113Y-93768796D01*
X133103116Y-93768788D01*
X133156814Y-93603524D01*
X133184000Y-93431883D01*
X133184000Y-93258116D01*
X133183993Y-93258074D01*
X133515500Y-93258074D01*
X133515500Y-93431926D01*
X133542679Y-93603524D01*
X133542698Y-93603642D01*
X133575374Y-93704210D01*
X133596420Y-93768981D01*
X133675347Y-93923884D01*
X133675349Y-93923887D01*
X133777536Y-94064535D01*
X133900464Y-94187463D01*
X133900467Y-94187465D01*
X134041116Y-94289653D01*
X134196019Y-94368580D01*
X134361362Y-94422303D01*
X134533074Y-94449500D01*
X134533077Y-94449500D01*
X134706923Y-94449500D01*
X134706926Y-94449500D01*
X134878638Y-94422303D01*
X135043981Y-94368580D01*
X135198884Y-94289653D01*
X135339533Y-94187465D01*
X135462465Y-94064533D01*
X135504457Y-94006737D01*
X140985500Y-94006737D01*
X140985500Y-95303246D01*
X140985502Y-95303270D01*
X140991959Y-95363339D01*
X140991959Y-95363341D01*
X141042657Y-95499266D01*
X141042658Y-95499267D01*
X141129596Y-95615404D01*
X141245733Y-95702342D01*
X141381658Y-95753040D01*
X141441745Y-95759500D01*
X143038254Y-95759499D01*
X143098342Y-95753040D01*
X143234267Y-95702342D01*
X143350404Y-95615404D01*
X143437342Y-95499267D01*
X143488040Y-95363342D01*
X143494500Y-95303255D01*
X143494499Y-94006746D01*
X143488040Y-93946658D01*
X143437342Y-93810733D01*
X143350404Y-93694596D01*
X143234267Y-93607658D01*
X143234265Y-93607657D01*
X143234266Y-93607657D01*
X143098349Y-93556962D01*
X143098344Y-93556960D01*
X143098342Y-93556960D01*
X143068298Y-93553730D01*
X143038256Y-93550500D01*
X141441753Y-93550500D01*
X141441729Y-93550502D01*
X141381660Y-93556959D01*
X141381658Y-93556959D01*
X141245733Y-93607657D01*
X141129596Y-93694596D01*
X141042657Y-93810734D01*
X140991962Y-93946650D01*
X140991960Y-93946658D01*
X140985500Y-94006737D01*
X135504457Y-94006737D01*
X135548107Y-93946658D01*
X135560711Y-93929310D01*
X135562154Y-93927324D01*
X135564653Y-93923884D01*
X135643580Y-93768981D01*
X135697303Y-93603638D01*
X135724500Y-93431926D01*
X135724500Y-93258074D01*
X135697303Y-93086362D01*
X135643580Y-92921019D01*
X135564653Y-92766116D01*
X135462465Y-92625467D01*
X135462463Y-92625464D01*
X135339535Y-92502536D01*
X135198887Y-92400349D01*
X135198886Y-92400348D01*
X135198884Y-92400347D01*
X135043981Y-92321420D01*
X135043978Y-92321419D01*
X135043976Y-92321418D01*
X134878642Y-92267698D01*
X134878640Y-92267697D01*
X134878638Y-92267697D01*
X134706926Y-92240500D01*
X134533074Y-92240500D01*
X134361362Y-92267697D01*
X134361360Y-92267697D01*
X134361357Y-92267698D01*
X134196023Y-92321418D01*
X134196017Y-92321421D01*
X134041112Y-92400349D01*
X133900464Y-92502536D01*
X133777536Y-92625464D01*
X133675349Y-92766112D01*
X133596421Y-92921017D01*
X133596418Y-92921023D01*
X133542698Y-93086357D01*
X133542697Y-93086360D01*
X133542697Y-93086362D01*
X133515500Y-93258074D01*
X133183993Y-93258074D01*
X133156814Y-93086475D01*
X133103116Y-92921211D01*
X133103113Y-92921203D01*
X133024230Y-92766385D01*
X133024223Y-92766375D01*
X133021534Y-92762673D01*
X132564157Y-93220050D01*
X132545925Y-93152007D01*
X132480099Y-93037993D01*
X132387007Y-92944901D01*
X132272993Y-92879075D01*
X132204947Y-92860841D01*
X132662325Y-92403463D01*
X132658625Y-92400776D01*
X132503790Y-92321884D01*
X132503788Y-92321883D01*
X132338524Y-92268185D01*
X132166884Y-92241000D01*
X131993116Y-92241000D01*
X131821475Y-92268185D01*
X131656211Y-92321883D01*
X131656209Y-92321884D01*
X131501375Y-92400775D01*
X131497674Y-92403463D01*
X131497674Y-92403465D01*
X131955051Y-92860842D01*
X131887007Y-92879075D01*
X131772993Y-92944901D01*
X131679901Y-93037993D01*
X131614075Y-93152007D01*
X131595842Y-93220051D01*
X131138465Y-92762674D01*
X131138463Y-92762674D01*
X131135775Y-92766375D01*
X131056884Y-92921209D01*
X131056883Y-92921211D01*
X131003185Y-93086475D01*
X130976000Y-93258116D01*
X130644500Y-93258116D01*
X130644500Y-93258074D01*
X130617303Y-93086362D01*
X130563580Y-92921019D01*
X130484653Y-92766116D01*
X130382465Y-92625467D01*
X130382463Y-92625464D01*
X130259535Y-92502536D01*
X130118887Y-92400349D01*
X130118886Y-92400348D01*
X130118884Y-92400347D01*
X129963981Y-92321420D01*
X129963978Y-92321419D01*
X129963976Y-92321418D01*
X129798642Y-92267698D01*
X129798640Y-92267697D01*
X129798638Y-92267697D01*
X129626926Y-92240500D01*
X129453074Y-92240500D01*
X129281362Y-92267697D01*
X129281360Y-92267697D01*
X129281357Y-92267698D01*
X129116023Y-92321418D01*
X129116017Y-92321421D01*
X128961112Y-92400349D01*
X128820464Y-92502536D01*
X128697536Y-92625464D01*
X128595349Y-92766112D01*
X128516421Y-92921017D01*
X128516418Y-92921023D01*
X128462698Y-93086357D01*
X128462697Y-93086360D01*
X128462697Y-93086362D01*
X128435500Y-93258074D01*
X128103993Y-93258074D01*
X128076814Y-93086475D01*
X128023116Y-92921211D01*
X128023113Y-92921203D01*
X127944230Y-92766385D01*
X127944223Y-92766375D01*
X127941534Y-92762673D01*
X127484157Y-93220050D01*
X127465925Y-93152007D01*
X127400099Y-93037993D01*
X127307007Y-92944901D01*
X127192993Y-92879075D01*
X127124947Y-92860841D01*
X127582325Y-92403463D01*
X127578625Y-92400776D01*
X127423790Y-92321884D01*
X127423788Y-92321883D01*
X127258524Y-92268185D01*
X127086884Y-92241000D01*
X126913116Y-92241000D01*
X126741475Y-92268185D01*
X126576211Y-92321883D01*
X126576209Y-92321884D01*
X126421375Y-92400775D01*
X126417674Y-92403463D01*
X126417674Y-92403465D01*
X126875051Y-92860842D01*
X126807007Y-92879075D01*
X126692993Y-92944901D01*
X126599901Y-93037993D01*
X126534075Y-93152007D01*
X126515842Y-93220051D01*
X126058465Y-92762674D01*
X126058463Y-92762674D01*
X126055775Y-92766375D01*
X125976884Y-92921209D01*
X125976883Y-92921211D01*
X125923185Y-93086475D01*
X125896000Y-93258116D01*
X125564500Y-93258116D01*
X125564500Y-93258074D01*
X125537303Y-93086362D01*
X125483580Y-92921019D01*
X125404653Y-92766116D01*
X125302465Y-92625467D01*
X125302463Y-92625464D01*
X125179535Y-92502536D01*
X125038887Y-92400349D01*
X125038886Y-92400348D01*
X125038884Y-92400347D01*
X124883981Y-92321420D01*
X124883978Y-92321419D01*
X124883976Y-92321418D01*
X124718642Y-92267698D01*
X124718640Y-92267697D01*
X124718638Y-92267697D01*
X124546926Y-92240500D01*
X124373074Y-92240500D01*
X124201362Y-92267697D01*
X124201360Y-92267697D01*
X124201357Y-92267698D01*
X124036023Y-92321418D01*
X124036017Y-92321421D01*
X123881112Y-92400349D01*
X123740464Y-92502536D01*
X123617536Y-92625464D01*
X123515349Y-92766112D01*
X123436421Y-92921017D01*
X123436418Y-92921023D01*
X123382698Y-93086357D01*
X123382697Y-93086360D01*
X123382697Y-93086362D01*
X123355500Y-93258074D01*
X114554500Y-93258074D01*
X114554500Y-92083257D01*
X114555578Y-92066812D01*
X114556321Y-92061161D01*
X114565300Y-91992965D01*
X114573809Y-91961201D01*
X114599132Y-91900066D01*
X114615572Y-91871593D01*
X114655854Y-91819097D01*
X114679097Y-91795854D01*
X114731593Y-91755572D01*
X114760066Y-91739132D01*
X114821201Y-91713809D01*
X114852962Y-91705300D01*
X114910053Y-91697784D01*
X114926813Y-91695578D01*
X114943258Y-91694500D01*
X114979875Y-91694500D01*
X144100125Y-91694500D01*
X144136742Y-91694500D01*
X144153187Y-91695578D01*
G37*
%TD.AperFunction*%
%TD*%
D19*
X112644000Y-92075000D02*
G75*
G02*
X113279000Y-92710000I0J-635000D01*
G01*
X101214000Y-92075000D02*
X112644000Y-92075000D01*
X113279000Y-101219000D02*
X113279000Y-106680000D01*
X144780000Y-107315000D02*
G75*
G02*
X144145000Y-107950000I-635000J0D01*
G01*
X113279000Y-106680000D02*
G75*
G02*
X112644000Y-107315000I-635000J0D01*
G01*
X112644000Y-107315000D02*
X101214000Y-107315000D01*
X100579000Y-106680000D02*
X100579000Y-92710000D01*
X114300000Y-107315000D02*
X114300000Y-101219000D01*
X114935000Y-91440000D02*
X144145000Y-91440000D01*
X113284000Y-101219000D02*
G75*
G02*
X114300000Y-101219000I508000J0D01*
G01*
X114935000Y-107950000D02*
G75*
G02*
X114300000Y-107315000I0J635000D01*
G01*
X144145000Y-107950000D02*
X114935000Y-107950000D01*
X101214000Y-107315000D02*
G75*
G02*
X100579000Y-106680000I0J635000D01*
G01*
X100579000Y-92710000D02*
G75*
G02*
X101214000Y-92075000I635000J0D01*
G01*
X113279000Y-92710000D02*
X113279000Y-98171000D01*
X114300000Y-92075000D02*
G75*
G02*
X114935000Y-91440000I635000J0D01*
G01*
X144145000Y-91440000D02*
G75*
G02*
X144780000Y-92075000I0J-635000D01*
G01*
X114300000Y-98171000D02*
X114300000Y-92075000D01*
X114300000Y-98171000D02*
G75*
G02*
X113284000Y-98171000I-508000J0D01*
G01*
X144780000Y-92075000D02*
X144780000Y-107315000D01*
M02*
