M48
; DRILL file KiCad 10.0.0 date 2026-03-30T22:24:07
; FORMAT={-:-/ absolute / metric / decimal}
; #@! TF.CreationDate,2026-03-30T22:24:07-04:00
; #@! TF.GenerationSoftware,Kicad,Pcbnew,10.0.0
; #@! TF.FileFunction,Plated,1,4,PTH
FMAT,2
METRIC
; #@! TA.AperFunction,Plated,PTH,ViaDrill
T1C0.254
; #@! TA.AperFunction,Plated,PTH,ComponentDrill
T2C1.000
%
G90
G05
T1
X89.789Y-67.945
X90.551Y-59.69
X90.932Y-69.85
X90.932Y-71.12
X90.932Y-72.39
X91.313Y-67.945
X92.075Y-74.041
X92.456Y-59.69
X92.71Y-74.93
X94.361Y-59.69
X96.266Y-59.69
X98.171Y-59.69
X99.314Y-70.485
X99.314Y-71.755
X99.314Y-73.152
X99.441Y-69.215
X100.076Y-59.69
T2
X88.9Y-76.2
X91.44Y-76.2
X93.98Y-76.2
X96.52Y-76.2
X99.06Y-76.2
X101.6Y-66.675
X101.6Y-69.215
X101.6Y-76.2
M30
