%TF.GenerationSoftware,KiCad,Pcbnew,10.0.0*%
%TF.CreationDate,2026-03-30T22:24:03-04:00*%
%TF.ProjectId,LED_Header_4x2x50mil,4c45445f-4865-4616-9465-725f34783278,1.0*%
%TF.SameCoordinates,Original*%
%TF.FileFunction,Legend,Bot*%
%TF.FilePolarity,Positive*%
%FSLAX46Y46*%
G04 Gerber Fmt 4.6, Leading zero omitted, Abs format (unit mm)*
G04 Created by KiCad (PCBNEW 10.0.0) date 2026-03-30 22:24:03*
%MOMM*%
%LPD*%
G01*
G04 APERTURE LIST*
%ADD10C,0.203200*%
%ADD11C,0.200000*%
G04 APERTURE END LIST*
D10*
X91390982Y-70267120D02*
X91390982Y-70944453D01*
X91632887Y-69880073D02*
X91874792Y-70605787D01*
X91874792Y-70605787D02*
X91245839Y-70605787D01*
X91342601Y-71198453D02*
X91826411Y-71198453D01*
X91826411Y-71198453D02*
X91874792Y-71682263D01*
X91874792Y-71682263D02*
X91826411Y-71633882D01*
X91826411Y-71633882D02*
X91729649Y-71585501D01*
X91729649Y-71585501D02*
X91487744Y-71585501D01*
X91487744Y-71585501D02*
X91390982Y-71633882D01*
X91390982Y-71633882D02*
X91342601Y-71682263D01*
X91342601Y-71682263D02*
X91294220Y-71779025D01*
X91294220Y-71779025D02*
X91294220Y-72020930D01*
X91294220Y-72020930D02*
X91342601Y-72117692D01*
X91342601Y-72117692D02*
X91390982Y-72166073D01*
X91390982Y-72166073D02*
X91487744Y-72214453D01*
X91487744Y-72214453D02*
X91729649Y-72214453D01*
X91729649Y-72214453D02*
X91826411Y-72166073D01*
X91826411Y-72166073D02*
X91874792Y-72117692D01*
X91390982Y-72468453D02*
X91584506Y-72468453D01*
X91584506Y-72468453D02*
X91681268Y-72516834D01*
X91681268Y-72516834D02*
X91729649Y-72565215D01*
X91729649Y-72565215D02*
X91826411Y-72710358D01*
X91826411Y-72710358D02*
X91874792Y-72903882D01*
X91874792Y-72903882D02*
X91874792Y-73290930D01*
X91874792Y-73290930D02*
X91826411Y-73387692D01*
X91826411Y-73387692D02*
X91778030Y-73436073D01*
X91778030Y-73436073D02*
X91681268Y-73484453D01*
X91681268Y-73484453D02*
X91487744Y-73484453D01*
X91487744Y-73484453D02*
X91390982Y-73436073D01*
X91390982Y-73436073D02*
X91342601Y-73387692D01*
X91342601Y-73387692D02*
X91294220Y-73290930D01*
X91294220Y-73290930D02*
X91294220Y-73049025D01*
X91294220Y-73049025D02*
X91342601Y-72952263D01*
X91342601Y-72952263D02*
X91390982Y-72903882D01*
X91390982Y-72903882D02*
X91487744Y-72855501D01*
X91487744Y-72855501D02*
X91681268Y-72855501D01*
X91681268Y-72855501D02*
X91778030Y-72903882D01*
X91778030Y-72903882D02*
X91826411Y-72952263D01*
X91826411Y-72952263D02*
X91874792Y-73049025D01*
X92050173Y-68658453D02*
X91421220Y-68658453D01*
X91421220Y-68658453D02*
X91759887Y-69045501D01*
X91759887Y-69045501D02*
X91614744Y-69045501D01*
X91614744Y-69045501D02*
X91517982Y-69093882D01*
X91517982Y-69093882D02*
X91469601Y-69142263D01*
X91469601Y-69142263D02*
X91421220Y-69239025D01*
X91421220Y-69239025D02*
X91421220Y-69480930D01*
X91421220Y-69480930D02*
X91469601Y-69577692D01*
X91469601Y-69577692D02*
X91517982Y-69626073D01*
X91517982Y-69626073D02*
X91614744Y-69674453D01*
X91614744Y-69674453D02*
X91905030Y-69674453D01*
X91905030Y-69674453D02*
X92001792Y-69626073D01*
X92001792Y-69626073D02*
X92050173Y-69577692D01*
X91130935Y-68658453D02*
X90792268Y-69674453D01*
X90792268Y-69674453D02*
X90453601Y-68658453D01*
X90211697Y-68658453D02*
X89582744Y-68658453D01*
X89582744Y-68658453D02*
X89921411Y-69045501D01*
X89921411Y-69045501D02*
X89776268Y-69045501D01*
X89776268Y-69045501D02*
X89679506Y-69093882D01*
X89679506Y-69093882D02*
X89631125Y-69142263D01*
X89631125Y-69142263D02*
X89582744Y-69239025D01*
X89582744Y-69239025D02*
X89582744Y-69480930D01*
X89582744Y-69480930D02*
X89631125Y-69577692D01*
X89631125Y-69577692D02*
X89679506Y-69626073D01*
X89679506Y-69626073D02*
X89776268Y-69674453D01*
X89776268Y-69674453D02*
X90066554Y-69674453D01*
X90066554Y-69674453D02*
X90163316Y-69626073D01*
X90163316Y-69626073D02*
X90211697Y-69577692D01*
X98793904Y-68706834D02*
X98890666Y-68658453D01*
X98890666Y-68658453D02*
X99035809Y-68658453D01*
X99035809Y-68658453D02*
X99180952Y-68706834D01*
X99180952Y-68706834D02*
X99277714Y-68803596D01*
X99277714Y-68803596D02*
X99326095Y-68900358D01*
X99326095Y-68900358D02*
X99374476Y-69093882D01*
X99374476Y-69093882D02*
X99374476Y-69239025D01*
X99374476Y-69239025D02*
X99326095Y-69432549D01*
X99326095Y-69432549D02*
X99277714Y-69529311D01*
X99277714Y-69529311D02*
X99180952Y-69626073D01*
X99180952Y-69626073D02*
X99035809Y-69674453D01*
X99035809Y-69674453D02*
X98939047Y-69674453D01*
X98939047Y-69674453D02*
X98793904Y-69626073D01*
X98793904Y-69626073D02*
X98745523Y-69577692D01*
X98745523Y-69577692D02*
X98745523Y-69239025D01*
X98745523Y-69239025D02*
X98939047Y-69239025D01*
X98128666Y-73992453D02*
X98128666Y-74718168D01*
X98128666Y-74718168D02*
X98177047Y-74863311D01*
X98177047Y-74863311D02*
X98273809Y-74960073D01*
X98273809Y-74960073D02*
X98418952Y-75008453D01*
X98418952Y-75008453D02*
X98515714Y-75008453D01*
X97112666Y-75008453D02*
X97693238Y-75008453D01*
X97402952Y-75008453D02*
X97402952Y-73992453D01*
X97402952Y-73992453D02*
X97499714Y-74137596D01*
X97499714Y-74137596D02*
X97596476Y-74234358D01*
X97596476Y-74234358D02*
X97693238Y-74282739D01*
%TO.C,J1*%
D11*
X93585000Y-68495000D02*
X96915000Y-68495000D01*
X93585000Y-73745000D02*
X96915000Y-73745000D01*
X98790000Y-73335000D02*
G75*
G02*
X98590000Y-73335000I-100000J0D01*
G01*
X98590000Y-73335000D02*
G75*
G02*
X98790000Y-73335000I100000J0D01*
G01*
%TD*%
M02*
