%TF.GenerationSoftware,KiCad,Pcbnew,10.0.0*%
%TF.CreationDate,2026-03-30T22:24:03-04:00*%
%TF.ProjectId,LED_Header_4x2x50mil,4c45445f-4865-4616-9465-725f34783278,1.0*%
%TF.SameCoordinates,Original*%
%TF.FileFunction,Copper,L2,Inr*%
%TF.FilePolarity,Positive*%
%FSLAX46Y46*%
G04 Gerber Fmt 4.6, Leading zero omitted, Abs format (unit mm)*
G04 Created by KiCad (PCBNEW 10.0.0) date 2026-03-30 22:24:03*
%MOMM*%
%LPD*%
G01*
G04 APERTURE LIST*
%TA.AperFunction,ComponentPad*%
%ADD10R,1.700000X1.700000*%
%TD*%
%TA.AperFunction,ComponentPad*%
%ADD11C,1.700000*%
%TD*%
%TA.AperFunction,ViaPad*%
%ADD12C,0.508000*%
%TD*%
G04 APERTURE END LIST*
D10*
%TO.N,GND*%
%TO.C,J3*%
X101600000Y-66675000D03*
D11*
X101600000Y-69215000D03*
%TD*%
D10*
%TO.N,/LED1*%
%TO.C,J2*%
X101600000Y-76200000D03*
D11*
%TO.N,/LED2*%
X99060000Y-76200000D03*
%TO.N,/LED3*%
X96520000Y-76200000D03*
%TO.N,/LED4*%
X93980000Y-76200000D03*
%TO.N,/LED5*%
X91440000Y-76200000D03*
%TO.N,/LED6*%
X88900000Y-76200000D03*
%TD*%
D12*
%TO.N,GND*%
X92710000Y-74930000D03*
X89789000Y-67945000D03*
X99441000Y-69215000D03*
%TD*%
%TA.AperFunction,Conductor*%
%TO.N,GND*%
G36*
X90257507Y-59227902D02*
G01*
X90304000Y-59281558D01*
X90314104Y-59351832D01*
X90284610Y-59416412D01*
X90278481Y-59422995D01*
X90245729Y-59455746D01*
X90245721Y-59455756D01*
X90195500Y-59542741D01*
X90169500Y-59639776D01*
X90169500Y-59740223D01*
X90169499Y-59740223D01*
X90195500Y-59837258D01*
X90245721Y-59924243D01*
X90245729Y-59924253D01*
X90316746Y-59995270D01*
X90316751Y-59995274D01*
X90316753Y-59995276D01*
X90316754Y-59995277D01*
X90316756Y-59995278D01*
X90403741Y-60045499D01*
X90403743Y-60045499D01*
X90403746Y-60045501D01*
X90500775Y-60071500D01*
X90500777Y-60071500D01*
X90601223Y-60071500D01*
X90601225Y-60071500D01*
X90698254Y-60045501D01*
X90698257Y-60045499D01*
X90698258Y-60045499D01*
X90741750Y-60020388D01*
X90785247Y-59995276D01*
X90856276Y-59924247D01*
X90906501Y-59837254D01*
X90932500Y-59740225D01*
X90932500Y-59639775D01*
X90906501Y-59542746D01*
X90906499Y-59542743D01*
X90906499Y-59542741D01*
X90856278Y-59455756D01*
X90856270Y-59455746D01*
X90823519Y-59422995D01*
X90789493Y-59360683D01*
X90794558Y-59289868D01*
X90837105Y-59233032D01*
X90903625Y-59208221D01*
X90912614Y-59207900D01*
X92094386Y-59207900D01*
X92162507Y-59227902D01*
X92209000Y-59281558D01*
X92219104Y-59351832D01*
X92189610Y-59416412D01*
X92183481Y-59422995D01*
X92150729Y-59455746D01*
X92150721Y-59455756D01*
X92100500Y-59542741D01*
X92074500Y-59639776D01*
X92074500Y-59740223D01*
X92074499Y-59740223D01*
X92100500Y-59837258D01*
X92150721Y-59924243D01*
X92150729Y-59924253D01*
X92221746Y-59995270D01*
X92221751Y-59995274D01*
X92221753Y-59995276D01*
X92221754Y-59995277D01*
X92221756Y-59995278D01*
X92308741Y-60045499D01*
X92308743Y-60045499D01*
X92308746Y-60045501D01*
X92405775Y-60071500D01*
X92405777Y-60071500D01*
X92506223Y-60071500D01*
X92506225Y-60071500D01*
X92603254Y-60045501D01*
X92603257Y-60045499D01*
X92603258Y-60045499D01*
X92646750Y-60020388D01*
X92690247Y-59995276D01*
X92761276Y-59924247D01*
X92811501Y-59837254D01*
X92837500Y-59740225D01*
X92837500Y-59639775D01*
X92811501Y-59542746D01*
X92811499Y-59542743D01*
X92811499Y-59542741D01*
X92761278Y-59455756D01*
X92761270Y-59455746D01*
X92728519Y-59422995D01*
X92694493Y-59360683D01*
X92699558Y-59289868D01*
X92742105Y-59233032D01*
X92808625Y-59208221D01*
X92817614Y-59207900D01*
X93999386Y-59207900D01*
X94067507Y-59227902D01*
X94114000Y-59281558D01*
X94124104Y-59351832D01*
X94094610Y-59416412D01*
X94088481Y-59422995D01*
X94055729Y-59455746D01*
X94055721Y-59455756D01*
X94005500Y-59542741D01*
X93979500Y-59639776D01*
X93979500Y-59740223D01*
X93979499Y-59740223D01*
X94005500Y-59837258D01*
X94055721Y-59924243D01*
X94055729Y-59924253D01*
X94126746Y-59995270D01*
X94126751Y-59995274D01*
X94126753Y-59995276D01*
X94126754Y-59995277D01*
X94126756Y-59995278D01*
X94213741Y-60045499D01*
X94213743Y-60045499D01*
X94213746Y-60045501D01*
X94310775Y-60071500D01*
X94310777Y-60071500D01*
X94411223Y-60071500D01*
X94411225Y-60071500D01*
X94508254Y-60045501D01*
X94508257Y-60045499D01*
X94508258Y-60045499D01*
X94551750Y-60020388D01*
X94595247Y-59995276D01*
X94666276Y-59924247D01*
X94716501Y-59837254D01*
X94742500Y-59740225D01*
X94742500Y-59639775D01*
X94716501Y-59542746D01*
X94716499Y-59542743D01*
X94716499Y-59542741D01*
X94666278Y-59455756D01*
X94666270Y-59455746D01*
X94633519Y-59422995D01*
X94599493Y-59360683D01*
X94604558Y-59289868D01*
X94647105Y-59233032D01*
X94713625Y-59208221D01*
X94722614Y-59207900D01*
X95904386Y-59207900D01*
X95972507Y-59227902D01*
X96019000Y-59281558D01*
X96029104Y-59351832D01*
X95999610Y-59416412D01*
X95993481Y-59422995D01*
X95960729Y-59455746D01*
X95960721Y-59455756D01*
X95910500Y-59542741D01*
X95884500Y-59639776D01*
X95884500Y-59740223D01*
X95884499Y-59740223D01*
X95910500Y-59837258D01*
X95960721Y-59924243D01*
X95960729Y-59924253D01*
X96031746Y-59995270D01*
X96031751Y-59995274D01*
X96031753Y-59995276D01*
X96031754Y-59995277D01*
X96031756Y-59995278D01*
X96118741Y-60045499D01*
X96118743Y-60045499D01*
X96118746Y-60045501D01*
X96215775Y-60071500D01*
X96215777Y-60071500D01*
X96316223Y-60071500D01*
X96316225Y-60071500D01*
X96413254Y-60045501D01*
X96413257Y-60045499D01*
X96413258Y-60045499D01*
X96456750Y-60020388D01*
X96500247Y-59995276D01*
X96571276Y-59924247D01*
X96621501Y-59837254D01*
X96647500Y-59740225D01*
X96647500Y-59639775D01*
X96621501Y-59542746D01*
X96621499Y-59542743D01*
X96621499Y-59542741D01*
X96571278Y-59455756D01*
X96571270Y-59455746D01*
X96538519Y-59422995D01*
X96504493Y-59360683D01*
X96509558Y-59289868D01*
X96552105Y-59233032D01*
X96618625Y-59208221D01*
X96627614Y-59207900D01*
X97809386Y-59207900D01*
X97877507Y-59227902D01*
X97924000Y-59281558D01*
X97934104Y-59351832D01*
X97904610Y-59416412D01*
X97898481Y-59422995D01*
X97865729Y-59455746D01*
X97865721Y-59455756D01*
X97815500Y-59542741D01*
X97789500Y-59639776D01*
X97789500Y-59740223D01*
X97789499Y-59740223D01*
X97815500Y-59837258D01*
X97865721Y-59924243D01*
X97865729Y-59924253D01*
X97936746Y-59995270D01*
X97936751Y-59995274D01*
X97936753Y-59995276D01*
X97936754Y-59995277D01*
X97936756Y-59995278D01*
X98023741Y-60045499D01*
X98023743Y-60045499D01*
X98023746Y-60045501D01*
X98120775Y-60071500D01*
X98120777Y-60071500D01*
X98221223Y-60071500D01*
X98221225Y-60071500D01*
X98318254Y-60045501D01*
X98318257Y-60045499D01*
X98318258Y-60045499D01*
X98361750Y-60020388D01*
X98405247Y-59995276D01*
X98476276Y-59924247D01*
X98526501Y-59837254D01*
X98552500Y-59740225D01*
X98552500Y-59639775D01*
X98526501Y-59542746D01*
X98526499Y-59542743D01*
X98526499Y-59542741D01*
X98476278Y-59455756D01*
X98476270Y-59455746D01*
X98443519Y-59422995D01*
X98409493Y-59360683D01*
X98414558Y-59289868D01*
X98457105Y-59233032D01*
X98523625Y-59208221D01*
X98532614Y-59207900D01*
X99714386Y-59207900D01*
X99782507Y-59227902D01*
X99829000Y-59281558D01*
X99839104Y-59351832D01*
X99809610Y-59416412D01*
X99803481Y-59422995D01*
X99770729Y-59455746D01*
X99770721Y-59455756D01*
X99720500Y-59542741D01*
X99694500Y-59639776D01*
X99694500Y-59740223D01*
X99694499Y-59740223D01*
X99720500Y-59837258D01*
X99770721Y-59924243D01*
X99770729Y-59924253D01*
X99841746Y-59995270D01*
X99841751Y-59995274D01*
X99841753Y-59995276D01*
X99841754Y-59995277D01*
X99841756Y-59995278D01*
X99928741Y-60045499D01*
X99928743Y-60045499D01*
X99928746Y-60045501D01*
X100025775Y-60071500D01*
X100025777Y-60071500D01*
X100126223Y-60071500D01*
X100126225Y-60071500D01*
X100223254Y-60045501D01*
X100223257Y-60045499D01*
X100223258Y-60045499D01*
X100266750Y-60020388D01*
X100310247Y-59995276D01*
X100381276Y-59924247D01*
X100431501Y-59837254D01*
X100457500Y-59740225D01*
X100457500Y-59639775D01*
X100431501Y-59542746D01*
X100431499Y-59542743D01*
X100431499Y-59542741D01*
X100381278Y-59455756D01*
X100381270Y-59455746D01*
X100348519Y-59422995D01*
X100314493Y-59360683D01*
X100319558Y-59289868D01*
X100362105Y-59233032D01*
X100428625Y-59208221D01*
X100437614Y-59207900D01*
X102884532Y-59207900D01*
X102919678Y-59212901D01*
X102946025Y-59220555D01*
X102975008Y-59233098D01*
X102997213Y-59246230D01*
X103022169Y-59265588D01*
X103040408Y-59283827D01*
X103059766Y-59308783D01*
X103072901Y-59330993D01*
X103085443Y-59359975D01*
X103092634Y-59384724D01*
X103093096Y-59386312D01*
X103098100Y-59421468D01*
X103098100Y-77103530D01*
X103093096Y-77138686D01*
X103085444Y-77165022D01*
X103072901Y-77194005D01*
X103059766Y-77216215D01*
X103040408Y-77241171D01*
X103022169Y-77259410D01*
X102997214Y-77278768D01*
X102975011Y-77291899D01*
X102946028Y-77304442D01*
X102919686Y-77312096D01*
X102884529Y-77317100D01*
X102808802Y-77317100D01*
X102740681Y-77297098D01*
X102694188Y-77243442D01*
X102684084Y-77173168D01*
X102687366Y-77161202D01*
X102689732Y-77149302D01*
X102689734Y-77149301D01*
X102704500Y-77075067D01*
X102704499Y-75324934D01*
X102704498Y-75324930D01*
X102704498Y-75324926D01*
X102689734Y-75250699D01*
X102640102Y-75176421D01*
X102633484Y-75166516D01*
X102567907Y-75122698D01*
X102549302Y-75110266D01*
X102475067Y-75095500D01*
X100724936Y-75095500D01*
X100724926Y-75095501D01*
X100650699Y-75110265D01*
X100566515Y-75166516D01*
X100510266Y-75250697D01*
X100495500Y-75324930D01*
X100495500Y-77075063D01*
X100495501Y-77075073D01*
X100512687Y-77161473D01*
X100509671Y-77162072D01*
X100515194Y-77213483D01*
X100483409Y-77276967D01*
X100422348Y-77313189D01*
X100391198Y-77317100D01*
X99789319Y-77317100D01*
X99721198Y-77297098D01*
X99674705Y-77243442D01*
X99664601Y-77173168D01*
X99694095Y-77108588D01*
X99715254Y-77089166D01*
X99779533Y-77042465D01*
X99902465Y-76919533D01*
X100004653Y-76778884D01*
X100083580Y-76623981D01*
X100137303Y-76458638D01*
X100164500Y-76286926D01*
X100164500Y-76113074D01*
X100137303Y-75941362D01*
X100083580Y-75776019D01*
X100004653Y-75621116D01*
X99902465Y-75480467D01*
X99902463Y-75480464D01*
X99779535Y-75357536D01*
X99638887Y-75255349D01*
X99638886Y-75255348D01*
X99638884Y-75255347D01*
X99483981Y-75176420D01*
X99483978Y-75176419D01*
X99483976Y-75176418D01*
X99318642Y-75122698D01*
X99318640Y-75122697D01*
X99318638Y-75122697D01*
X99146926Y-75095500D01*
X98973074Y-75095500D01*
X98801362Y-75122697D01*
X98801360Y-75122697D01*
X98801357Y-75122698D01*
X98636023Y-75176418D01*
X98636017Y-75176421D01*
X98481112Y-75255349D01*
X98340464Y-75357536D01*
X98217536Y-75480464D01*
X98115349Y-75621112D01*
X98036421Y-75776017D01*
X98036418Y-75776023D01*
X97982698Y-75941357D01*
X97982697Y-75941360D01*
X97982697Y-75941362D01*
X97955500Y-76113074D01*
X97955500Y-76286926D01*
X97982697Y-76458638D01*
X98036420Y-76623981D01*
X98036421Y-76623982D01*
X98115349Y-76778887D01*
X98217536Y-76919535D01*
X98340460Y-77042459D01*
X98340463Y-77042461D01*
X98340467Y-77042465D01*
X98404743Y-77089165D01*
X98448096Y-77145387D01*
X98454171Y-77216123D01*
X98421039Y-77278915D01*
X98359219Y-77313826D01*
X98330681Y-77317100D01*
X97249319Y-77317100D01*
X97181198Y-77297098D01*
X97134705Y-77243442D01*
X97124601Y-77173168D01*
X97154095Y-77108588D01*
X97175254Y-77089166D01*
X97239533Y-77042465D01*
X97362465Y-76919533D01*
X97464653Y-76778884D01*
X97543580Y-76623981D01*
X97597303Y-76458638D01*
X97624500Y-76286926D01*
X97624500Y-76113074D01*
X97597303Y-75941362D01*
X97543580Y-75776019D01*
X97464653Y-75621116D01*
X97362465Y-75480467D01*
X97362463Y-75480464D01*
X97239535Y-75357536D01*
X97098887Y-75255349D01*
X97098886Y-75255348D01*
X97098884Y-75255347D01*
X96943981Y-75176420D01*
X96943978Y-75176419D01*
X96943976Y-75176418D01*
X96778642Y-75122698D01*
X96778640Y-75122697D01*
X96778638Y-75122697D01*
X96606926Y-75095500D01*
X96433074Y-75095500D01*
X96261362Y-75122697D01*
X96261360Y-75122697D01*
X96261357Y-75122698D01*
X96096023Y-75176418D01*
X96096017Y-75176421D01*
X95941112Y-75255349D01*
X95800464Y-75357536D01*
X95677536Y-75480464D01*
X95575349Y-75621112D01*
X95496421Y-75776017D01*
X95496418Y-75776023D01*
X95442698Y-75941357D01*
X95442697Y-75941360D01*
X95442697Y-75941362D01*
X95415500Y-76113074D01*
X95415500Y-76286926D01*
X95442697Y-76458638D01*
X95496420Y-76623981D01*
X95496421Y-76623982D01*
X95575349Y-76778887D01*
X95677536Y-76919535D01*
X95800460Y-77042459D01*
X95800463Y-77042461D01*
X95800467Y-77042465D01*
X95864743Y-77089165D01*
X95908096Y-77145387D01*
X95914171Y-77216123D01*
X95881039Y-77278915D01*
X95819219Y-77313826D01*
X95790681Y-77317100D01*
X94709319Y-77317100D01*
X94641198Y-77297098D01*
X94594705Y-77243442D01*
X94584601Y-77173168D01*
X94614095Y-77108588D01*
X94635254Y-77089166D01*
X94699533Y-77042465D01*
X94822465Y-76919533D01*
X94924653Y-76778884D01*
X95003580Y-76623981D01*
X95057303Y-76458638D01*
X95084500Y-76286926D01*
X95084500Y-76113074D01*
X95057303Y-75941362D01*
X95003580Y-75776019D01*
X94924653Y-75621116D01*
X94822465Y-75480467D01*
X94822463Y-75480464D01*
X94699535Y-75357536D01*
X94558887Y-75255349D01*
X94558886Y-75255348D01*
X94558884Y-75255347D01*
X94403981Y-75176420D01*
X94403978Y-75176419D01*
X94403976Y-75176418D01*
X94238642Y-75122698D01*
X94238640Y-75122697D01*
X94238638Y-75122697D01*
X94066926Y-75095500D01*
X93893074Y-75095500D01*
X93721362Y-75122697D01*
X93721360Y-75122697D01*
X93721357Y-75122698D01*
X93556023Y-75176418D01*
X93556017Y-75176421D01*
X93401112Y-75255349D01*
X93260464Y-75357536D01*
X93137536Y-75480464D01*
X93035349Y-75621112D01*
X92956421Y-75776017D01*
X92956418Y-75776023D01*
X92902698Y-75941357D01*
X92902697Y-75941360D01*
X92902697Y-75941362D01*
X92875500Y-76113074D01*
X92875500Y-76286926D01*
X92902697Y-76458638D01*
X92956420Y-76623981D01*
X92956421Y-76623982D01*
X93035349Y-76778887D01*
X93137536Y-76919535D01*
X93260460Y-77042459D01*
X93260463Y-77042461D01*
X93260467Y-77042465D01*
X93324743Y-77089165D01*
X93368096Y-77145387D01*
X93374171Y-77216123D01*
X93341039Y-77278915D01*
X93279219Y-77313826D01*
X93250681Y-77317100D01*
X92169319Y-77317100D01*
X92101198Y-77297098D01*
X92054705Y-77243442D01*
X92044601Y-77173168D01*
X92074095Y-77108588D01*
X92095254Y-77089166D01*
X92159533Y-77042465D01*
X92282465Y-76919533D01*
X92384653Y-76778884D01*
X92463580Y-76623981D01*
X92517303Y-76458638D01*
X92544500Y-76286926D01*
X92544500Y-76113074D01*
X92517303Y-75941362D01*
X92463580Y-75776019D01*
X92384653Y-75621116D01*
X92282465Y-75480467D01*
X92282463Y-75480464D01*
X92159535Y-75357536D01*
X92018887Y-75255349D01*
X92018886Y-75255348D01*
X92018884Y-75255347D01*
X91863981Y-75176420D01*
X91863978Y-75176419D01*
X91863976Y-75176418D01*
X91698642Y-75122698D01*
X91698640Y-75122697D01*
X91698638Y-75122697D01*
X91526926Y-75095500D01*
X91353074Y-75095500D01*
X91181362Y-75122697D01*
X91181360Y-75122697D01*
X91181357Y-75122698D01*
X91016023Y-75176418D01*
X91016017Y-75176421D01*
X90861112Y-75255349D01*
X90720464Y-75357536D01*
X90597536Y-75480464D01*
X90495349Y-75621112D01*
X90416421Y-75776017D01*
X90416418Y-75776023D01*
X90362698Y-75941357D01*
X90362697Y-75941360D01*
X90362697Y-75941362D01*
X90335500Y-76113074D01*
X90335500Y-76286926D01*
X90362697Y-76458638D01*
X90416420Y-76623981D01*
X90416421Y-76623982D01*
X90495349Y-76778887D01*
X90597536Y-76919535D01*
X90720460Y-77042459D01*
X90720463Y-77042461D01*
X90720467Y-77042465D01*
X90784743Y-77089165D01*
X90828096Y-77145387D01*
X90834171Y-77216123D01*
X90801039Y-77278915D01*
X90739219Y-77313826D01*
X90710681Y-77317100D01*
X89629319Y-77317100D01*
X89561198Y-77297098D01*
X89514705Y-77243442D01*
X89504601Y-77173168D01*
X89534095Y-77108588D01*
X89555254Y-77089166D01*
X89619533Y-77042465D01*
X89742465Y-76919533D01*
X89844653Y-76778884D01*
X89923580Y-76623981D01*
X89977303Y-76458638D01*
X90004500Y-76286926D01*
X90004500Y-76113074D01*
X89977303Y-75941362D01*
X89923580Y-75776019D01*
X89844653Y-75621116D01*
X89742465Y-75480467D01*
X89742463Y-75480464D01*
X89619535Y-75357536D01*
X89478887Y-75255349D01*
X89478886Y-75255348D01*
X89478884Y-75255347D01*
X89323981Y-75176420D01*
X89323978Y-75176419D01*
X89323976Y-75176418D01*
X89158642Y-75122698D01*
X89158640Y-75122697D01*
X89158638Y-75122697D01*
X88986926Y-75095500D01*
X88813074Y-75095500D01*
X88641362Y-75122697D01*
X88641360Y-75122697D01*
X88641357Y-75122698D01*
X88476023Y-75176418D01*
X88476017Y-75176421D01*
X88321112Y-75255349D01*
X88180464Y-75357536D01*
X88057536Y-75480464D01*
X87955349Y-75621112D01*
X87876421Y-75776017D01*
X87876418Y-75776023D01*
X87822698Y-75941357D01*
X87822697Y-75941360D01*
X87822697Y-75941362D01*
X87795500Y-76113074D01*
X87795500Y-76286926D01*
X87822697Y-76458638D01*
X87876420Y-76623981D01*
X87876421Y-76623982D01*
X87955349Y-76778887D01*
X88057536Y-76919535D01*
X88180460Y-77042459D01*
X88180463Y-77042461D01*
X88180467Y-77042465D01*
X88244743Y-77089165D01*
X88288096Y-77145387D01*
X88294171Y-77216123D01*
X88261039Y-77278915D01*
X88199219Y-77313826D01*
X88170681Y-77317100D01*
X87615471Y-77317100D01*
X87580314Y-77312096D01*
X87553972Y-77304442D01*
X87524990Y-77291900D01*
X87502783Y-77278767D01*
X87477827Y-77259408D01*
X87459588Y-77241169D01*
X87440231Y-77216215D01*
X87427099Y-77194011D01*
X87414555Y-77165022D01*
X87406902Y-77138679D01*
X87401900Y-77103531D01*
X87401900Y-74091223D01*
X91693499Y-74091223D01*
X91719500Y-74188258D01*
X91769721Y-74275243D01*
X91769729Y-74275253D01*
X91840746Y-74346270D01*
X91840751Y-74346274D01*
X91840753Y-74346276D01*
X91840754Y-74346277D01*
X91840756Y-74346278D01*
X91927741Y-74396499D01*
X91927743Y-74396499D01*
X91927746Y-74396501D01*
X92024775Y-74422500D01*
X92024777Y-74422500D01*
X92125223Y-74422500D01*
X92125225Y-74422500D01*
X92222254Y-74396501D01*
X92222257Y-74396499D01*
X92222258Y-74396499D01*
X92265750Y-74371388D01*
X92309247Y-74346276D01*
X92380276Y-74275247D01*
X92430501Y-74188254D01*
X92456500Y-74091225D01*
X92456500Y-73990775D01*
X92430501Y-73893746D01*
X92430499Y-73893743D01*
X92430499Y-73893741D01*
X92380278Y-73806756D01*
X92380270Y-73806746D01*
X92309253Y-73735729D01*
X92309243Y-73735721D01*
X92222258Y-73685500D01*
X92210792Y-73682427D01*
X92125225Y-73659500D01*
X92024775Y-73659500D01*
X91965390Y-73675412D01*
X91927741Y-73685500D01*
X91840756Y-73735721D01*
X91840746Y-73735729D01*
X91769729Y-73806746D01*
X91769721Y-73806756D01*
X91719500Y-73893741D01*
X91693500Y-73990776D01*
X91693500Y-74091223D01*
X91693499Y-74091223D01*
X87401900Y-74091223D01*
X87401900Y-73202223D01*
X98932499Y-73202223D01*
X98958500Y-73299258D01*
X99008721Y-73386243D01*
X99008729Y-73386253D01*
X99079746Y-73457270D01*
X99079751Y-73457274D01*
X99079753Y-73457276D01*
X99079754Y-73457277D01*
X99079756Y-73457278D01*
X99166741Y-73507499D01*
X99166743Y-73507499D01*
X99166746Y-73507501D01*
X99263775Y-73533500D01*
X99263777Y-73533500D01*
X99364223Y-73533500D01*
X99364225Y-73533500D01*
X99461254Y-73507501D01*
X99461257Y-73507499D01*
X99461258Y-73507499D01*
X99504750Y-73482388D01*
X99548247Y-73457276D01*
X99619276Y-73386247D01*
X99669501Y-73299254D01*
X99695500Y-73202225D01*
X99695500Y-73101775D01*
X99669501Y-73004746D01*
X99669499Y-73004743D01*
X99669499Y-73004741D01*
X99619278Y-72917756D01*
X99619270Y-72917746D01*
X99548253Y-72846729D01*
X99548243Y-72846721D01*
X99461258Y-72796500D01*
X99449792Y-72793427D01*
X99364225Y-72770500D01*
X99263775Y-72770500D01*
X99204390Y-72786412D01*
X99166741Y-72796500D01*
X99079756Y-72846721D01*
X99079746Y-72846729D01*
X99008729Y-72917746D01*
X99008721Y-72917756D01*
X98958500Y-73004741D01*
X98932500Y-73101776D01*
X98932500Y-73202223D01*
X98932499Y-73202223D01*
X87401900Y-73202223D01*
X87401900Y-72440223D01*
X90550499Y-72440223D01*
X90576500Y-72537258D01*
X90626721Y-72624243D01*
X90626729Y-72624253D01*
X90697746Y-72695270D01*
X90697751Y-72695274D01*
X90697753Y-72695276D01*
X90697754Y-72695277D01*
X90697756Y-72695278D01*
X90784741Y-72745499D01*
X90784743Y-72745499D01*
X90784746Y-72745501D01*
X90881775Y-72771500D01*
X90881777Y-72771500D01*
X90982223Y-72771500D01*
X90982225Y-72771500D01*
X91079254Y-72745501D01*
X91079257Y-72745499D01*
X91079258Y-72745499D01*
X91122750Y-72720388D01*
X91166247Y-72695276D01*
X91237276Y-72624247D01*
X91287501Y-72537254D01*
X91313500Y-72440225D01*
X91313500Y-72339775D01*
X91287501Y-72242746D01*
X91287499Y-72242743D01*
X91287499Y-72242741D01*
X91237278Y-72155756D01*
X91237270Y-72155746D01*
X91166253Y-72084729D01*
X91166243Y-72084721D01*
X91079258Y-72034500D01*
X91067792Y-72031427D01*
X90982225Y-72008500D01*
X90881775Y-72008500D01*
X90822390Y-72024412D01*
X90784741Y-72034500D01*
X90697756Y-72084721D01*
X90697746Y-72084729D01*
X90626729Y-72155746D01*
X90626721Y-72155756D01*
X90576500Y-72242741D01*
X90550500Y-72339776D01*
X90550500Y-72440223D01*
X90550499Y-72440223D01*
X87401900Y-72440223D01*
X87401900Y-71805223D01*
X98932499Y-71805223D01*
X98958500Y-71902258D01*
X99008721Y-71989243D01*
X99008729Y-71989253D01*
X99079746Y-72060270D01*
X99079751Y-72060274D01*
X99079753Y-72060276D01*
X99079754Y-72060277D01*
X99079756Y-72060278D01*
X99166741Y-72110499D01*
X99166743Y-72110499D01*
X99166746Y-72110501D01*
X99263775Y-72136500D01*
X99263777Y-72136500D01*
X99364223Y-72136500D01*
X99364225Y-72136500D01*
X99461254Y-72110501D01*
X99461257Y-72110499D01*
X99461258Y-72110499D01*
X99505907Y-72084721D01*
X99548247Y-72060276D01*
X99619276Y-71989247D01*
X99669501Y-71902254D01*
X99695500Y-71805225D01*
X99695500Y-71704775D01*
X99669501Y-71607746D01*
X99669499Y-71607743D01*
X99669499Y-71607741D01*
X99619278Y-71520756D01*
X99619270Y-71520746D01*
X99548253Y-71449729D01*
X99548243Y-71449721D01*
X99461258Y-71399500D01*
X99449792Y-71396427D01*
X99364225Y-71373500D01*
X99263775Y-71373500D01*
X99204390Y-71389412D01*
X99166741Y-71399500D01*
X99079756Y-71449721D01*
X99079746Y-71449729D01*
X99008729Y-71520746D01*
X99008721Y-71520756D01*
X98958500Y-71607741D01*
X98932500Y-71704776D01*
X98932500Y-71805223D01*
X98932499Y-71805223D01*
X87401900Y-71805223D01*
X87401900Y-71170223D01*
X90550499Y-71170223D01*
X90576500Y-71267258D01*
X90626721Y-71354243D01*
X90626729Y-71354253D01*
X90697746Y-71425270D01*
X90697751Y-71425274D01*
X90697753Y-71425276D01*
X90697754Y-71425277D01*
X90697756Y-71425278D01*
X90784741Y-71475499D01*
X90784743Y-71475499D01*
X90784746Y-71475501D01*
X90881775Y-71501500D01*
X90881777Y-71501500D01*
X90982223Y-71501500D01*
X90982225Y-71501500D01*
X91079254Y-71475501D01*
X91079257Y-71475499D01*
X91079258Y-71475499D01*
X91123907Y-71449721D01*
X91166247Y-71425276D01*
X91237276Y-71354247D01*
X91287501Y-71267254D01*
X91313500Y-71170225D01*
X91313500Y-71069775D01*
X91287501Y-70972746D01*
X91287499Y-70972743D01*
X91287499Y-70972741D01*
X91237278Y-70885756D01*
X91237270Y-70885746D01*
X91166253Y-70814729D01*
X91166243Y-70814721D01*
X91079258Y-70764500D01*
X91067792Y-70761427D01*
X90982225Y-70738500D01*
X90881775Y-70738500D01*
X90822390Y-70754412D01*
X90784741Y-70764500D01*
X90697756Y-70814721D01*
X90697746Y-70814729D01*
X90626729Y-70885746D01*
X90626721Y-70885756D01*
X90576500Y-70972741D01*
X90550500Y-71069776D01*
X90550500Y-71170223D01*
X90550499Y-71170223D01*
X87401900Y-71170223D01*
X87401900Y-70535223D01*
X98932499Y-70535223D01*
X98958500Y-70632258D01*
X99008721Y-70719243D01*
X99008729Y-70719253D01*
X99079746Y-70790270D01*
X99079751Y-70790274D01*
X99079753Y-70790276D01*
X99079754Y-70790277D01*
X99079756Y-70790278D01*
X99166741Y-70840499D01*
X99166743Y-70840499D01*
X99166746Y-70840501D01*
X99263775Y-70866500D01*
X99263777Y-70866500D01*
X99364223Y-70866500D01*
X99364225Y-70866500D01*
X99461254Y-70840501D01*
X99461257Y-70840499D01*
X99461258Y-70840499D01*
X99505907Y-70814721D01*
X99548247Y-70790276D01*
X99619276Y-70719247D01*
X99669501Y-70632254D01*
X99695500Y-70535225D01*
X99695500Y-70434775D01*
X99669501Y-70337746D01*
X99669499Y-70337743D01*
X99669499Y-70337741D01*
X99626020Y-70262434D01*
X99626019Y-70262433D01*
X99619276Y-70250753D01*
X99619273Y-70250750D01*
X99619270Y-70250746D01*
X99548253Y-70179729D01*
X99548243Y-70179721D01*
X99461258Y-70129500D01*
X99449792Y-70126427D01*
X99364225Y-70103500D01*
X99263775Y-70103500D01*
X99204390Y-70119412D01*
X99166741Y-70129500D01*
X99079756Y-70179721D01*
X99079746Y-70179729D01*
X99008729Y-70250746D01*
X99008721Y-70250756D01*
X98958500Y-70337741D01*
X98932500Y-70434776D01*
X98932500Y-70535223D01*
X98932499Y-70535223D01*
X87401900Y-70535223D01*
X87401900Y-69900223D01*
X90550499Y-69900223D01*
X90576500Y-69997258D01*
X90626721Y-70084243D01*
X90626729Y-70084253D01*
X90697746Y-70155270D01*
X90697751Y-70155274D01*
X90697753Y-70155276D01*
X90697754Y-70155277D01*
X90697756Y-70155278D01*
X90784741Y-70205499D01*
X90784743Y-70205499D01*
X90784746Y-70205501D01*
X90881775Y-70231500D01*
X90881777Y-70231500D01*
X90982223Y-70231500D01*
X90982225Y-70231500D01*
X91079254Y-70205501D01*
X91079257Y-70205499D01*
X91079258Y-70205499D01*
X91123907Y-70179721D01*
X91166247Y-70155276D01*
X91237276Y-70084247D01*
X91287501Y-69997254D01*
X91313500Y-69900225D01*
X91313500Y-69799775D01*
X91287501Y-69702746D01*
X91287499Y-69702743D01*
X91287499Y-69702741D01*
X91237278Y-69615756D01*
X91237270Y-69615746D01*
X91166253Y-69544729D01*
X91166243Y-69544721D01*
X91079258Y-69494500D01*
X91067792Y-69491427D01*
X90982225Y-69468500D01*
X90881775Y-69468500D01*
X90822390Y-69484412D01*
X90784741Y-69494500D01*
X90697756Y-69544721D01*
X90697746Y-69544729D01*
X90626729Y-69615746D01*
X90626721Y-69615756D01*
X90576500Y-69702741D01*
X90550500Y-69799776D01*
X90550500Y-69900223D01*
X90550499Y-69900223D01*
X87401900Y-69900223D01*
X87401900Y-67995223D01*
X90931499Y-67995223D01*
X90957500Y-68092258D01*
X91007721Y-68179243D01*
X91007729Y-68179253D01*
X91078746Y-68250270D01*
X91078751Y-68250274D01*
X91078753Y-68250276D01*
X91078754Y-68250277D01*
X91078756Y-68250278D01*
X91165741Y-68300499D01*
X91165743Y-68300499D01*
X91165746Y-68300501D01*
X91262775Y-68326500D01*
X91262777Y-68326500D01*
X91363223Y-68326500D01*
X91363225Y-68326500D01*
X91460254Y-68300501D01*
X91460257Y-68300499D01*
X91460258Y-68300499D01*
X91503750Y-68275388D01*
X91547247Y-68250276D01*
X91618276Y-68179247D01*
X91643388Y-68135750D01*
X91668499Y-68092258D01*
X91668499Y-68092257D01*
X91668501Y-68092254D01*
X91694500Y-67995225D01*
X91694500Y-67894775D01*
X91668501Y-67797746D01*
X91668499Y-67797743D01*
X91668499Y-67797741D01*
X91618278Y-67710756D01*
X91618270Y-67710746D01*
X91547253Y-67639729D01*
X91547243Y-67639721D01*
X91460258Y-67589500D01*
X91448792Y-67586427D01*
X91363225Y-67563500D01*
X91262775Y-67563500D01*
X91203390Y-67579412D01*
X91165741Y-67589500D01*
X91078756Y-67639721D01*
X91078746Y-67639729D01*
X91007729Y-67710746D01*
X91007721Y-67710756D01*
X90957500Y-67797741D01*
X90931500Y-67894776D01*
X90931500Y-67995223D01*
X90931499Y-67995223D01*
X87401900Y-67995223D01*
X87401900Y-65788840D01*
X100369000Y-65788840D01*
X100369000Y-66421000D01*
X101169297Y-66421000D01*
X101134075Y-66482007D01*
X101100000Y-66609174D01*
X101100000Y-66740826D01*
X101134075Y-66867993D01*
X101169297Y-66929000D01*
X100369000Y-66929000D01*
X100369000Y-67561159D01*
X100379790Y-67635216D01*
X100379791Y-67635218D01*
X100435635Y-67749450D01*
X100435636Y-67749452D01*
X100525547Y-67839363D01*
X100525549Y-67839364D01*
X100639781Y-67895208D01*
X100639783Y-67895209D01*
X100713840Y-67905999D01*
X100713848Y-67906000D01*
X100932720Y-67906000D01*
X101000841Y-67926002D01*
X101047334Y-67979658D01*
X101057438Y-68049932D01*
X101027944Y-68114512D01*
X100989923Y-68144267D01*
X100954818Y-68162153D01*
X100954813Y-68162157D01*
X100926752Y-68182543D01*
X101475051Y-68730842D01*
X101407007Y-68749075D01*
X101292993Y-68814901D01*
X101199901Y-68907993D01*
X101134075Y-69022007D01*
X101115842Y-69090051D01*
X100567543Y-68541752D01*
X100547157Y-68569813D01*
X100547153Y-68569818D01*
X100459189Y-68742458D01*
X100459186Y-68742464D01*
X100399313Y-68926735D01*
X100369000Y-69118121D01*
X100369000Y-69311878D01*
X100399313Y-69503264D01*
X100459186Y-69687535D01*
X100459189Y-69687541D01*
X100547154Y-69860182D01*
X100547155Y-69860183D01*
X100567543Y-69888245D01*
X101115841Y-69339947D01*
X101134075Y-69407993D01*
X101199901Y-69522007D01*
X101292993Y-69615099D01*
X101407007Y-69680925D01*
X101475051Y-69699157D01*
X100926753Y-70247455D01*
X100954816Y-70267844D01*
X101127458Y-70355810D01*
X101127464Y-70355813D01*
X101311735Y-70415686D01*
X101503121Y-70446000D01*
X101696879Y-70446000D01*
X101888264Y-70415686D01*
X102072535Y-70355813D01*
X102072541Y-70355810D01*
X102245185Y-70267843D01*
X102245187Y-70267842D01*
X102273245Y-70247456D01*
X102273246Y-70247455D01*
X101724948Y-69699157D01*
X101792993Y-69680925D01*
X101907007Y-69615099D01*
X102000099Y-69522007D01*
X102065925Y-69407993D01*
X102084157Y-69339948D01*
X102632455Y-69888246D01*
X102632456Y-69888245D01*
X102652842Y-69860187D01*
X102652843Y-69860185D01*
X102740810Y-69687541D01*
X102740813Y-69687535D01*
X102800686Y-69503264D01*
X102831000Y-69311878D01*
X102831000Y-69118121D01*
X102800686Y-68926735D01*
X102740813Y-68742464D01*
X102740810Y-68742458D01*
X102652844Y-68569816D01*
X102632455Y-68541753D01*
X102084157Y-69090051D01*
X102065925Y-69022007D01*
X102000099Y-68907993D01*
X101907007Y-68814901D01*
X101792993Y-68749075D01*
X101724947Y-68730841D01*
X102273245Y-68182543D01*
X102245183Y-68162155D01*
X102245182Y-68162154D01*
X102210076Y-68144267D01*
X102158461Y-68095519D01*
X102141395Y-68026604D01*
X102164296Y-67959402D01*
X102219893Y-67915250D01*
X102267279Y-67906000D01*
X102486152Y-67906000D01*
X102486159Y-67905999D01*
X102560216Y-67895209D01*
X102560218Y-67895208D01*
X102674450Y-67839364D01*
X102674452Y-67839363D01*
X102764363Y-67749452D01*
X102764364Y-67749450D01*
X102820208Y-67635218D01*
X102820209Y-67635216D01*
X102830999Y-67561159D01*
X102831000Y-67561151D01*
X102831000Y-66929000D01*
X102030703Y-66929000D01*
X102065925Y-66867993D01*
X102100000Y-66740826D01*
X102100000Y-66609174D01*
X102065925Y-66482007D01*
X102030703Y-66421000D01*
X102831000Y-66421000D01*
X102831000Y-65788848D01*
X102830999Y-65788840D01*
X102820209Y-65714783D01*
X102820208Y-65714781D01*
X102764364Y-65600549D01*
X102764363Y-65600547D01*
X102674452Y-65510636D01*
X102674450Y-65510635D01*
X102560218Y-65454791D01*
X102560216Y-65454790D01*
X102486159Y-65444000D01*
X101854000Y-65444000D01*
X101854000Y-66244297D01*
X101792993Y-66209075D01*
X101665826Y-66175000D01*
X101534174Y-66175000D01*
X101407007Y-66209075D01*
X101346000Y-66244297D01*
X101346000Y-65444000D01*
X100713840Y-65444000D01*
X100639783Y-65454790D01*
X100639781Y-65454791D01*
X100525549Y-65510635D01*
X100525547Y-65510636D01*
X100435636Y-65600547D01*
X100435635Y-65600549D01*
X100379791Y-65714781D01*
X100379790Y-65714783D01*
X100369000Y-65788840D01*
X87401900Y-65788840D01*
X87401900Y-59421467D01*
X87406902Y-59386319D01*
X87407365Y-59384724D01*
X87414556Y-59359972D01*
X87427096Y-59330993D01*
X87440233Y-59308780D01*
X87459584Y-59283833D01*
X87477831Y-59265586D01*
X87502782Y-59246232D01*
X87524994Y-59233096D01*
X87553974Y-59220555D01*
X87580320Y-59212901D01*
X87615468Y-59207900D01*
X90189386Y-59207900D01*
X90257507Y-59227902D01*
G37*
%TD.AperFunction*%
%TD*%
M02*
