%TF.GenerationSoftware,KiCad,Pcbnew,10.0.0*%
%TF.CreationDate,2026-03-30T22:24:03-04:00*%
%TF.ProjectId,LED_Header_4x2x50mil,4c45445f-4865-4616-9465-725f34783278,1.0*%
%TF.SameCoordinates,Original*%
%TF.FileFunction,Paste,Top*%
%TF.FilePolarity,Positive*%
%FSLAX46Y46*%
G04 Gerber Fmt 4.6, Leading zero omitted, Abs format (unit mm)*
G04 Created by KiCad (PCBNEW 10.0.0) date 2026-03-30 22:24:03*
%MOMM*%
%LPD*%
G01*
G04 APERTURE LIST*
G04 Aperture macros list*
%AMRoundRect*
0 Rectangle with rounded corners*
0 $1 Rounding radius*
0 $2 $3 $4 $5 $6 $7 $8 $9 X,Y pos of 4 corners*
0 Add a 4 corners polygon primitive as box body*
4,1,4,$2,$3,$4,$5,$6,$7,$8,$9,$2,$3,0*
0 Add four circle primitives for the rounded corners*
1,1,$1+$1,$2,$3*
1,1,$1+$1,$4,$5*
1,1,$1+$1,$6,$7*
1,1,$1+$1,$8,$9*
0 Add four rect primitives between the rounded corners*
20,1,$1+$1,$2,$3,$4,$5,0*
20,1,$1+$1,$4,$5,$6,$7,0*
20,1,$1+$1,$6,$7,$8,$9,0*
20,1,$1+$1,$8,$9,$2,$3,0*%
G04 Aperture macros list end*
%ADD10RoundRect,0.243750X0.456250X-0.243750X0.456250X0.243750X-0.456250X0.243750X-0.456250X-0.243750X0*%
%ADD11RoundRect,0.051250X0.153750X-0.448750X0.153750X0.448750X-0.153750X0.448750X-0.153750X-0.448750X0*%
%ADD12RoundRect,0.032500X0.097500X-0.467500X0.097500X0.467500X-0.097500X0.467500X-0.097500X-0.467500X0*%
%ADD13RoundRect,0.100000X0.637500X0.100000X-0.637500X0.100000X-0.637500X-0.100000X0.637500X-0.100000X0*%
G04 APERTURE END LIST*
D10*
%TO.C,D2*%
X98171000Y-62532500D03*
X98171000Y-60657500D03*
%TD*%
%TO.C,D5*%
X92456000Y-62532500D03*
X92456000Y-60657500D03*
%TD*%
%TO.C,D4*%
X94361000Y-62532500D03*
X94361000Y-60657500D03*
%TD*%
%TO.C,D3*%
X96266000Y-62532500D03*
X96266000Y-60657500D03*
%TD*%
D11*
%TO.C,RN1*%
X93425000Y-67129000D03*
D12*
X94000000Y-67129000D03*
X94500000Y-67129000D03*
X95000000Y-67129000D03*
X95500000Y-67129000D03*
X96000000Y-67129000D03*
X96500000Y-67129000D03*
D11*
X97075000Y-67129000D03*
X97075000Y-65459000D03*
D12*
X96500000Y-65459000D03*
X96000000Y-65459000D03*
X95500000Y-65459000D03*
X95000000Y-65459000D03*
X94500000Y-65459000D03*
X94000000Y-65459000D03*
D11*
X93425000Y-65459000D03*
%TD*%
D13*
%TO.C,U1*%
X98112500Y-73070000D03*
X98112500Y-72420000D03*
X98112500Y-71770000D03*
X98112500Y-71120000D03*
X98112500Y-70470000D03*
X98112500Y-69820000D03*
X98112500Y-69170000D03*
X92387500Y-69170000D03*
X92387500Y-69820000D03*
X92387500Y-70470000D03*
X92387500Y-71120000D03*
X92387500Y-71770000D03*
X92387500Y-72420000D03*
X92387500Y-73070000D03*
%TD*%
D10*
%TO.C,D1*%
X100076000Y-62532500D03*
X100076000Y-60657500D03*
%TD*%
%TO.C,D6*%
X90551000Y-62532500D03*
X90551000Y-60657500D03*
%TD*%
M02*
