%TF.GenerationSoftware,KiCad,Pcbnew,10.0.0*%
%TF.CreationDate,2026-03-30T22:24:03-04:00*%
%TF.ProjectId,LED_Header_4x2x50mil,4c45445f-4865-4616-9465-725f34783278,1.0*%
%TF.SameCoordinates,Original*%
%TF.FileFunction,Copper,L1,Top*%
%TF.FilePolarity,Positive*%
%FSLAX46Y46*%
G04 Gerber Fmt 4.6, Leading zero omitted, Abs format (unit mm)*
G04 Created by KiCad (PCBNEW 10.0.0) date 2026-03-30 22:24:03*
%MOMM*%
%LPD*%
G01*
G04 APERTURE LIST*
G04 Aperture macros list*
%AMRoundRect*
0 Rectangle with rounded corners*
0 $1 Rounding radius*
0 $2 $3 $4 $5 $6 $7 $8 $9 X,Y pos of 4 corners*
0 Add a 4 corners polygon primitive as box body*
4,1,4,$2,$3,$4,$5,$6,$7,$8,$9,$2,$3,0*
0 Add four circle primitives for the rounded corners*
1,1,$1+$1,$2,$3*
1,1,$1+$1,$4,$5*
1,1,$1+$1,$6,$7*
1,1,$1+$1,$8,$9*
0 Add four rect primitives between the rounded corners*
20,1,$1+$1,$2,$3,$4,$5,0*
20,1,$1+$1,$4,$5,$6,$7,0*
20,1,$1+$1,$6,$7,$8,$9,0*
20,1,$1+$1,$8,$9,$2,$3,0*%
G04 Aperture macros list end*
%TA.AperFunction,SMDPad,CuDef*%
%ADD10RoundRect,0.243750X0.456250X-0.243750X0.456250X0.243750X-0.456250X0.243750X-0.456250X-0.243750X0*%
%TD*%
%TA.AperFunction,ComponentPad*%
%ADD11R,1.700000X1.700000*%
%TD*%
%TA.AperFunction,ComponentPad*%
%ADD12C,1.700000*%
%TD*%
%TA.AperFunction,SMDPad,CuDef*%
%ADD13RoundRect,0.051250X0.153750X-0.448750X0.153750X0.448750X-0.153750X0.448750X-0.153750X-0.448750X0*%
%TD*%
%TA.AperFunction,SMDPad,CuDef*%
%ADD14RoundRect,0.032500X0.097500X-0.467500X0.097500X0.467500X-0.097500X0.467500X-0.097500X-0.467500X0*%
%TD*%
%TA.AperFunction,SMDPad,CuDef*%
%ADD15RoundRect,0.100000X0.637500X0.100000X-0.637500X0.100000X-0.637500X-0.100000X0.637500X-0.100000X0*%
%TD*%
%TA.AperFunction,ViaPad*%
%ADD16C,0.508000*%
%TD*%
%TA.AperFunction,Conductor*%
%ADD17C,0.203200*%
%TD*%
%TA.AperFunction,Conductor*%
%ADD18C,0.254000*%
%TD*%
G04 APERTURE END LIST*
D10*
%TO.P,D2,1,K_1*%
%TO.N,Net-(D2-K)*%
X98171000Y-62532500D03*
%TO.P,D2,2,A_2*%
%TO.N,+3.3V*%
X98171000Y-60657500D03*
%TD*%
%TO.P,D5,1,K_1*%
%TO.N,Net-(D5-K)*%
X92456000Y-62532500D03*
%TO.P,D5,2,A_2*%
%TO.N,+3.3V*%
X92456000Y-60657500D03*
%TD*%
%TO.P,D4,1,K_1*%
%TO.N,Net-(D4-K)*%
X94361000Y-62532500D03*
%TO.P,D4,2,A_2*%
%TO.N,+3.3V*%
X94361000Y-60657500D03*
%TD*%
D11*
%TO.P,J3,1,Pin_1_1*%
%TO.N,GND*%
X101600000Y-66675000D03*
D12*
%TO.P,J3,2,Pin_2_2*%
X101600000Y-69215000D03*
%TD*%
D11*
%TO.P,J2,1,Pin_1_1*%
%TO.N,/LED1*%
X101600000Y-76200000D03*
D12*
%TO.P,J2,2,Pin_2_2*%
%TO.N,/LED2*%
X99060000Y-76200000D03*
%TO.P,J2,3,Pin_3_3*%
%TO.N,/LED3*%
X96520000Y-76200000D03*
%TO.P,J2,4,Pin_4_4*%
%TO.N,/LED4*%
X93980000Y-76200000D03*
%TO.P,J2,5,Pin_5_5*%
%TO.N,/LED5*%
X91440000Y-76200000D03*
%TO.P,J2,6,Pin_6_6*%
%TO.N,/LED6*%
X88900000Y-76200000D03*
%TD*%
D10*
%TO.P,D3,1,K_1*%
%TO.N,Net-(D3-K)*%
X96266000Y-62532500D03*
%TO.P,D3,2,A_2*%
%TO.N,+3.3V*%
X96266000Y-60657500D03*
%TD*%
D13*
%TO.P,RN1,1,R1.1_1*%
%TO.N,unconnected-(RN1-R1.1-Pad1)*%
X93425000Y-67129000D03*
D14*
%TO.P,RN1,2,R2.1_2*%
%TO.N,Net-(RN1-R2.1)*%
X94000000Y-67129000D03*
%TO.P,RN1,3,R3.1_3*%
%TO.N,Net-(RN1-R3.1)*%
X94500000Y-67129000D03*
%TO.P,RN1,4,R4.1_4*%
%TO.N,Net-(RN1-R4.1)*%
X95000000Y-67129000D03*
%TO.P,RN1,5,R5.1_5*%
%TO.N,Net-(RN1-R5.1)*%
X95500000Y-67129000D03*
%TO.P,RN1,6,R6.1_6*%
%TO.N,Net-(RN1-R6.1)*%
X96000000Y-67129000D03*
%TO.P,RN1,7,R7.1_7*%
%TO.N,Net-(RN1-R7.1)*%
X96500000Y-67129000D03*
D13*
%TO.P,RN1,8,R8.1_8*%
%TO.N,unconnected-(RN1-R8.1-Pad8)*%
X97075000Y-67129000D03*
%TO.P,RN1,9,R8.2_9*%
%TO.N,unconnected-(RN1-R8.2-Pad9)*%
X97075000Y-65459000D03*
D14*
%TO.P,RN1,10,R7.2_10*%
%TO.N,Net-(D1-K)*%
X96500000Y-65459000D03*
%TO.P,RN1,11,R6.2_11*%
%TO.N,Net-(D2-K)*%
X96000000Y-65459000D03*
%TO.P,RN1,12,R5.2_12*%
%TO.N,Net-(D3-K)*%
X95500000Y-65459000D03*
%TO.P,RN1,13,R4.2_13*%
%TO.N,Net-(D4-K)*%
X95000000Y-65459000D03*
%TO.P,RN1,14,R3.2_14*%
%TO.N,Net-(D5-K)*%
X94500000Y-65459000D03*
%TO.P,RN1,15,R2.2_15*%
%TO.N,Net-(D6-K)*%
X94000000Y-65459000D03*
D13*
%TO.P,RN1,16,R1.2_16*%
%TO.N,unconnected-(RN1-R1.2-Pad16)*%
X93425000Y-65459000D03*
%TD*%
D15*
%TO.P,U1,1,1A_1*%
%TO.N,/LED3*%
X98112500Y-73070000D03*
%TO.P,U1,2,1Y_2*%
%TO.N,Net-(RN1-R5.1)*%
X98112500Y-72420000D03*
%TO.P,U1,3,2A_3*%
%TO.N,/LED2*%
X98112500Y-71770000D03*
%TO.P,U1,4,2Y_4*%
%TO.N,Net-(RN1-R6.1)*%
X98112500Y-71120000D03*
%TO.P,U1,5,3A_5*%
%TO.N,/LED1*%
X98112500Y-70470000D03*
%TO.P,U1,6,3Y_6*%
%TO.N,Net-(RN1-R7.1)*%
X98112500Y-69820000D03*
%TO.P,U1,7,GND_7*%
%TO.N,GND*%
X98112500Y-69170000D03*
%TO.P,U1,8,4Y_8*%
%TO.N,Net-(RN1-R2.1)*%
X92387500Y-69170000D03*
%TO.P,U1,9,4A_9*%
%TO.N,/LED4*%
X92387500Y-69820000D03*
%TO.P,U1,10,5Y_10*%
%TO.N,Net-(RN1-R3.1)*%
X92387500Y-70470000D03*
%TO.P,U1,11,5A_11*%
%TO.N,/LED5*%
X92387500Y-71120000D03*
%TO.P,U1,12,6Y_12*%
%TO.N,Net-(RN1-R4.1)*%
X92387500Y-71770000D03*
%TO.P,U1,13,6A_13*%
%TO.N,/LED6*%
X92387500Y-72420000D03*
%TO.P,U1,14,Vcc_14*%
%TO.N,+3.3V*%
X92387500Y-73070000D03*
%TD*%
D10*
%TO.P,D1,1,K_1*%
%TO.N,Net-(D1-K)*%
X100076000Y-62532500D03*
%TO.P,D1,2,A_2*%
%TO.N,+3.3V*%
X100076000Y-60657500D03*
%TD*%
%TO.P,D6,1,K_1*%
%TO.N,Net-(D6-K)*%
X90551000Y-62532500D03*
%TO.P,D6,2,A_2*%
%TO.N,+3.3V*%
X90551000Y-60657500D03*
%TD*%
D16*
%TO.N,+3.3V*%
X100076000Y-59690000D03*
X90551000Y-59690000D03*
X92075000Y-74041000D03*
X94361000Y-59690000D03*
X92456000Y-59690000D03*
X96266000Y-59690000D03*
X91313000Y-67945000D03*
X98171000Y-59690000D03*
%TO.N,/LED1*%
X99314000Y-70485000D03*
%TO.N,/LED2*%
X99314000Y-71755000D03*
%TO.N,/LED3*%
X99314000Y-73152000D03*
%TO.N,GND*%
X92710000Y-74930000D03*
X89789000Y-67945000D03*
X99441000Y-69215000D03*
%TO.N,/LED6*%
X90932000Y-72390000D03*
%TO.N,/LED5*%
X90932000Y-71120000D03*
%TO.N,/LED4*%
X90932000Y-69850000D03*
%TD*%
%TO.N,Net-(D2-K)*%
D17*
X96000000Y-65459000D02*
X96000000Y-64703500D01*
X96000000Y-64703500D02*
X98171000Y-62532500D01*
%TO.N,+3.3V*%
D18*
X96266000Y-60657500D02*
X96266000Y-59690000D01*
X98171000Y-60657500D02*
X98171000Y-59690000D01*
X100076000Y-60657500D02*
X100076000Y-59690000D01*
X92387500Y-73070000D02*
X92075000Y-73382500D01*
X92075000Y-73382500D02*
X92075000Y-74041000D01*
X90551000Y-60657500D02*
X90551000Y-59690000D01*
X94361000Y-60657500D02*
X94361000Y-59690000D01*
X92456000Y-60657500D02*
X92456000Y-59690000D01*
%TO.N,Net-(D5-K)*%
D17*
X94500000Y-64576500D02*
X92456000Y-62532500D01*
X94500000Y-65459000D02*
X94500000Y-64576500D01*
%TO.N,Net-(D4-K)*%
X95000000Y-65459000D02*
X95000000Y-63171500D01*
X95000000Y-63171500D02*
X94361000Y-62532500D01*
%TO.N,Net-(RN1-R2.1)*%
X94000000Y-67691629D02*
X92521629Y-69170000D01*
X94000000Y-67129000D02*
X94000000Y-67691629D01*
X92521629Y-69170000D02*
X92387500Y-69170000D01*
%TO.N,Net-(RN1-R3.1)*%
X94500000Y-67129000D02*
X94500000Y-69094999D01*
X93124999Y-70470000D02*
X92387500Y-70470000D01*
X94500000Y-69094999D02*
X93124999Y-70470000D01*
%TO.N,Net-(RN1-R4.1)*%
X95000000Y-69894999D02*
X93124999Y-71770000D01*
X95000000Y-67129000D02*
X95000000Y-69894999D01*
X93124999Y-71770000D02*
X92387500Y-71770000D01*
%TO.N,Net-(RN1-R5.1)*%
X97185000Y-72420000D02*
X98112500Y-72420000D01*
X95500000Y-67129000D02*
X95500000Y-70735000D01*
X95500000Y-70735000D02*
X97185000Y-72420000D01*
%TO.N,Net-(RN1-R6.1)*%
X96000000Y-67129000D02*
X96000000Y-69965000D01*
X96000000Y-69965000D02*
X97155000Y-71120000D01*
X97155000Y-71120000D02*
X98112500Y-71120000D01*
%TO.N,Net-(RN1-R7.1)*%
X96500000Y-68942088D02*
X97377912Y-69820000D01*
X97377912Y-69820000D02*
X98112500Y-69820000D01*
X96500000Y-67129000D02*
X96500000Y-68942088D01*
%TO.N,Net-(D6-K)*%
X93727652Y-64654200D02*
X92672700Y-64654200D01*
X92672700Y-64654200D02*
X90551000Y-62532500D01*
X94000000Y-64926548D02*
X93727652Y-64654200D01*
X94000000Y-65459000D02*
X94000000Y-64926548D01*
%TO.N,Net-(D3-K)*%
X95500000Y-63298500D02*
X96266000Y-62532500D01*
X95500000Y-65459000D02*
X95500000Y-63298500D01*
%TO.N,Net-(D1-K)*%
X96500000Y-65459000D02*
X96500000Y-64926548D01*
X97954300Y-64654200D02*
X100076000Y-62532500D01*
X96500000Y-64926548D02*
X96772348Y-64654200D01*
X96772348Y-64654200D02*
X97954300Y-64654200D01*
%TO.N,/LED1*%
X99299000Y-70470000D02*
X99314000Y-70485000D01*
X98112500Y-70470000D02*
X99299000Y-70470000D01*
%TO.N,/LED2*%
X98112500Y-71770000D02*
X99299000Y-71770000D01*
X99299000Y-71770000D02*
X99314000Y-71755000D01*
%TO.N,/LED3*%
X99232000Y-73070000D02*
X99314000Y-73152000D01*
X98112500Y-73070000D02*
X99232000Y-73070000D01*
%TO.N,GND*%
D18*
X98112500Y-69170000D02*
X99396000Y-69170000D01*
X99396000Y-69170000D02*
X99441000Y-69215000D01*
%TO.N,/LED6*%
D17*
X90932000Y-72390000D02*
X92357500Y-72390000D01*
X92357500Y-72390000D02*
X92387500Y-72420000D01*
%TO.N,/LED5*%
X89535000Y-71882000D02*
X90297000Y-71120000D01*
X90297000Y-71120000D02*
X90932000Y-71120000D01*
X92387500Y-71120000D02*
X90932000Y-71120000D01*
X89535000Y-74295000D02*
X89535000Y-71882000D01*
X91440000Y-76200000D02*
X89535000Y-74295000D01*
%TO.N,/LED4*%
X90932000Y-69850000D02*
X92357500Y-69850000D01*
X92357500Y-69850000D02*
X92387500Y-69820000D01*
%TD*%
%TA.AperFunction,Conductor*%
%TO.N,GND*%
G36*
X90092058Y-59227902D02*
G01*
X90138551Y-59281558D01*
X90148655Y-59351832D01*
X90133056Y-59396900D01*
X90077155Y-59493721D01*
X90077154Y-59493724D01*
X90077153Y-59493726D01*
X90042500Y-59623055D01*
X90042500Y-59756945D01*
X90048059Y-59777690D01*
X90046369Y-59848666D01*
X90006575Y-59907462D01*
X89970386Y-59928356D01*
X89853509Y-59971949D01*
X89853504Y-59971951D01*
X89738810Y-60057810D01*
X89652950Y-60172505D01*
X89602880Y-60306750D01*
X89596500Y-60366083D01*
X89596500Y-60948900D01*
X89596502Y-60948921D01*
X89602879Y-61008246D01*
X89652950Y-61142494D01*
X89738810Y-61257189D01*
X89853505Y-61343049D01*
X89853507Y-61343049D01*
X89853509Y-61343051D01*
X89987750Y-61393120D01*
X90047091Y-61399500D01*
X91054908Y-61399499D01*
X91114250Y-61393120D01*
X91248491Y-61343051D01*
X91363189Y-61257189D01*
X91402632Y-61204500D01*
X91459468Y-61161953D01*
X91530283Y-61156889D01*
X91592596Y-61190914D01*
X91604368Y-61204500D01*
X91643810Y-61257189D01*
X91758505Y-61343049D01*
X91758507Y-61343049D01*
X91758509Y-61343051D01*
X91892750Y-61393120D01*
X91952091Y-61399500D01*
X92959908Y-61399499D01*
X93019250Y-61393120D01*
X93153491Y-61343051D01*
X93268189Y-61257189D01*
X93307632Y-61204500D01*
X93364468Y-61161953D01*
X93435283Y-61156889D01*
X93497596Y-61190914D01*
X93509368Y-61204500D01*
X93548810Y-61257189D01*
X93663505Y-61343049D01*
X93663507Y-61343049D01*
X93663509Y-61343051D01*
X93797750Y-61393120D01*
X93857091Y-61399500D01*
X94864908Y-61399499D01*
X94924250Y-61393120D01*
X95058491Y-61343051D01*
X95173189Y-61257189D01*
X95212632Y-61204500D01*
X95269468Y-61161953D01*
X95340283Y-61156889D01*
X95402596Y-61190914D01*
X95414368Y-61204500D01*
X95453810Y-61257189D01*
X95568505Y-61343049D01*
X95568507Y-61343049D01*
X95568509Y-61343051D01*
X95702750Y-61393120D01*
X95762091Y-61399500D01*
X96769908Y-61399499D01*
X96829250Y-61393120D01*
X96963491Y-61343051D01*
X97078189Y-61257189D01*
X97117632Y-61204500D01*
X97174468Y-61161953D01*
X97245283Y-61156889D01*
X97307596Y-61190914D01*
X97319368Y-61204500D01*
X97358810Y-61257189D01*
X97473505Y-61343049D01*
X97473507Y-61343049D01*
X97473509Y-61343051D01*
X97607750Y-61393120D01*
X97667091Y-61399500D01*
X98674908Y-61399499D01*
X98734250Y-61393120D01*
X98868491Y-61343051D01*
X98983189Y-61257189D01*
X99022632Y-61204500D01*
X99079468Y-61161953D01*
X99150283Y-61156889D01*
X99212596Y-61190914D01*
X99224368Y-61204500D01*
X99263810Y-61257189D01*
X99378505Y-61343049D01*
X99378507Y-61343049D01*
X99378509Y-61343051D01*
X99512750Y-61393120D01*
X99572091Y-61399500D01*
X100579908Y-61399499D01*
X100639250Y-61393120D01*
X100773491Y-61343051D01*
X100888189Y-61257189D01*
X100974051Y-61142491D01*
X101024120Y-61008250D01*
X101030500Y-60948909D01*
X101030499Y-60366092D01*
X101024120Y-60306750D01*
X100974051Y-60172509D01*
X100974049Y-60172507D01*
X100974049Y-60172505D01*
X100888189Y-60057810D01*
X100773495Y-59971951D01*
X100773492Y-59971950D01*
X100773491Y-59971949D01*
X100656612Y-59928355D01*
X100599779Y-59885810D01*
X100574968Y-59819290D01*
X100578941Y-59777690D01*
X100584500Y-59756945D01*
X100584500Y-59623055D01*
X100549847Y-59493726D01*
X100501081Y-59409262D01*
X100493944Y-59396900D01*
X100477206Y-59327905D01*
X100500426Y-59260813D01*
X100556233Y-59216926D01*
X100603063Y-59207900D01*
X102884532Y-59207900D01*
X102919678Y-59212901D01*
X102946025Y-59220555D01*
X102975008Y-59233098D01*
X102997213Y-59246230D01*
X103022169Y-59265588D01*
X103040408Y-59283827D01*
X103059766Y-59308783D01*
X103072901Y-59330993D01*
X103085444Y-59359976D01*
X103093096Y-59386312D01*
X103098100Y-59421468D01*
X103098100Y-77103530D01*
X103093096Y-77138686D01*
X103085444Y-77165022D01*
X103072901Y-77194005D01*
X103059766Y-77216215D01*
X103040408Y-77241171D01*
X103022169Y-77259410D01*
X102997214Y-77278768D01*
X102975011Y-77291899D01*
X102946028Y-77304442D01*
X102919686Y-77312096D01*
X102884529Y-77317100D01*
X102808802Y-77317100D01*
X102740681Y-77297098D01*
X102694188Y-77243442D01*
X102684084Y-77173168D01*
X102687366Y-77161202D01*
X102689732Y-77149302D01*
X102689734Y-77149301D01*
X102704500Y-77075067D01*
X102704499Y-75324934D01*
X102704498Y-75324930D01*
X102704498Y-75324926D01*
X102689734Y-75250699D01*
X102640102Y-75176421D01*
X102633484Y-75166516D01*
X102567907Y-75122698D01*
X102549302Y-75110266D01*
X102475067Y-75095500D01*
X100724936Y-75095500D01*
X100724926Y-75095501D01*
X100650699Y-75110265D01*
X100566515Y-75166516D01*
X100510266Y-75250697D01*
X100495500Y-75324930D01*
X100495500Y-77075063D01*
X100495501Y-77075073D01*
X100512687Y-77161473D01*
X100509671Y-77162072D01*
X100515194Y-77213483D01*
X100483409Y-77276967D01*
X100422348Y-77313189D01*
X100391198Y-77317100D01*
X99789319Y-77317100D01*
X99721198Y-77297098D01*
X99674705Y-77243442D01*
X99664601Y-77173168D01*
X99694095Y-77108588D01*
X99715254Y-77089166D01*
X99779533Y-77042465D01*
X99902465Y-76919533D01*
X100004653Y-76778884D01*
X100083580Y-76623981D01*
X100137303Y-76458638D01*
X100164500Y-76286926D01*
X100164500Y-76113074D01*
X100137303Y-75941362D01*
X100083580Y-75776019D01*
X100004653Y-75621116D01*
X99902465Y-75480467D01*
X99902463Y-75480464D01*
X99779535Y-75357536D01*
X99638887Y-75255349D01*
X99638886Y-75255348D01*
X99638884Y-75255347D01*
X99483981Y-75176420D01*
X99483978Y-75176419D01*
X99483976Y-75176418D01*
X99318642Y-75122698D01*
X99318640Y-75122697D01*
X99318638Y-75122697D01*
X99146926Y-75095500D01*
X98973074Y-75095500D01*
X98801362Y-75122697D01*
X98801360Y-75122697D01*
X98801357Y-75122698D01*
X98636023Y-75176418D01*
X98636017Y-75176421D01*
X98481112Y-75255349D01*
X98340464Y-75357536D01*
X98217536Y-75480464D01*
X98115349Y-75621112D01*
X98036421Y-75776017D01*
X98036418Y-75776023D01*
X97982698Y-75941357D01*
X97982697Y-75941360D01*
X97982697Y-75941362D01*
X97955500Y-76113074D01*
X97955500Y-76286926D01*
X97982697Y-76458638D01*
X98036420Y-76623981D01*
X98036421Y-76623982D01*
X98115349Y-76778887D01*
X98217536Y-76919535D01*
X98340460Y-77042459D01*
X98340463Y-77042461D01*
X98340467Y-77042465D01*
X98404743Y-77089165D01*
X98448096Y-77145387D01*
X98454171Y-77216123D01*
X98421039Y-77278915D01*
X98359219Y-77313826D01*
X98330681Y-77317100D01*
X97249319Y-77317100D01*
X97181198Y-77297098D01*
X97134705Y-77243442D01*
X97124601Y-77173168D01*
X97154095Y-77108588D01*
X97175254Y-77089166D01*
X97239533Y-77042465D01*
X97362465Y-76919533D01*
X97464653Y-76778884D01*
X97543580Y-76623981D01*
X97597303Y-76458638D01*
X97624500Y-76286926D01*
X97624500Y-76113074D01*
X97597303Y-75941362D01*
X97543580Y-75776019D01*
X97464653Y-75621116D01*
X97362465Y-75480467D01*
X97362463Y-75480464D01*
X97239535Y-75357536D01*
X97098887Y-75255349D01*
X97098886Y-75255348D01*
X97098884Y-75255347D01*
X96943981Y-75176420D01*
X96943978Y-75176419D01*
X96943976Y-75176418D01*
X96778642Y-75122698D01*
X96778640Y-75122697D01*
X96778638Y-75122697D01*
X96606926Y-75095500D01*
X96433074Y-75095500D01*
X96261362Y-75122697D01*
X96261360Y-75122697D01*
X96261357Y-75122698D01*
X96096023Y-75176418D01*
X96096017Y-75176421D01*
X95941112Y-75255349D01*
X95800464Y-75357536D01*
X95677536Y-75480464D01*
X95575349Y-75621112D01*
X95496421Y-75776017D01*
X95496418Y-75776023D01*
X95442698Y-75941357D01*
X95442697Y-75941360D01*
X95442697Y-75941362D01*
X95415500Y-76113074D01*
X95415500Y-76286926D01*
X95442697Y-76458638D01*
X95496420Y-76623981D01*
X95496421Y-76623982D01*
X95575349Y-76778887D01*
X95677536Y-76919535D01*
X95800460Y-77042459D01*
X95800463Y-77042461D01*
X95800467Y-77042465D01*
X95864743Y-77089165D01*
X95908096Y-77145387D01*
X95914171Y-77216123D01*
X95881039Y-77278915D01*
X95819219Y-77313826D01*
X95790681Y-77317100D01*
X94709319Y-77317100D01*
X94641198Y-77297098D01*
X94594705Y-77243442D01*
X94584601Y-77173168D01*
X94614095Y-77108588D01*
X94635254Y-77089166D01*
X94699533Y-77042465D01*
X94822465Y-76919533D01*
X94924653Y-76778884D01*
X95003580Y-76623981D01*
X95057303Y-76458638D01*
X95084500Y-76286926D01*
X95084500Y-76113074D01*
X95057303Y-75941362D01*
X95003580Y-75776019D01*
X94924653Y-75621116D01*
X94822465Y-75480467D01*
X94822463Y-75480464D01*
X94699535Y-75357536D01*
X94558887Y-75255349D01*
X94558886Y-75255348D01*
X94558884Y-75255347D01*
X94403981Y-75176420D01*
X94403978Y-75176419D01*
X94403976Y-75176418D01*
X94238642Y-75122698D01*
X94238640Y-75122697D01*
X94238638Y-75122697D01*
X94066926Y-75095500D01*
X93893074Y-75095500D01*
X93721362Y-75122697D01*
X93721360Y-75122697D01*
X93721357Y-75122698D01*
X93556023Y-75176418D01*
X93556017Y-75176421D01*
X93401112Y-75255349D01*
X93260464Y-75357536D01*
X93137536Y-75480464D01*
X93035349Y-75621112D01*
X92956421Y-75776017D01*
X92956418Y-75776023D01*
X92902698Y-75941357D01*
X92902697Y-75941360D01*
X92902697Y-75941362D01*
X92875500Y-76113074D01*
X92875500Y-76286926D01*
X92902697Y-76458638D01*
X92956420Y-76623981D01*
X92956421Y-76623982D01*
X93035349Y-76778887D01*
X93137536Y-76919535D01*
X93260460Y-77042459D01*
X93260463Y-77042461D01*
X93260467Y-77042465D01*
X93324743Y-77089165D01*
X93368096Y-77145387D01*
X93374171Y-77216123D01*
X93341039Y-77278915D01*
X93279219Y-77313826D01*
X93250681Y-77317100D01*
X92169319Y-77317100D01*
X92101198Y-77297098D01*
X92054705Y-77243442D01*
X92044601Y-77173168D01*
X92074095Y-77108588D01*
X92095254Y-77089166D01*
X92159533Y-77042465D01*
X92282465Y-76919533D01*
X92384653Y-76778884D01*
X92463580Y-76623981D01*
X92517303Y-76458638D01*
X92544500Y-76286926D01*
X92544500Y-76113074D01*
X92517303Y-75941362D01*
X92463580Y-75776019D01*
X92384653Y-75621116D01*
X92282465Y-75480467D01*
X92282463Y-75480464D01*
X92159535Y-75357536D01*
X92018887Y-75255349D01*
X92018886Y-75255348D01*
X92018884Y-75255347D01*
X91863981Y-75176420D01*
X91863978Y-75176419D01*
X91863976Y-75176418D01*
X91698642Y-75122698D01*
X91698640Y-75122697D01*
X91698638Y-75122697D01*
X91526926Y-75095500D01*
X91353074Y-75095500D01*
X91213327Y-75117634D01*
X91181355Y-75122698D01*
X91016995Y-75176101D01*
X90946028Y-75178128D01*
X90888965Y-75145363D01*
X89928005Y-74184403D01*
X89893979Y-74122091D01*
X89891100Y-74095308D01*
X89891100Y-72081692D01*
X89911102Y-72013571D01*
X89928005Y-71992597D01*
X90407597Y-71513005D01*
X90469909Y-71478979D01*
X90496692Y-71476100D01*
X90516782Y-71476100D01*
X90584903Y-71496102D01*
X90605877Y-71513005D01*
X90619772Y-71526900D01*
X90619775Y-71526902D01*
X90674899Y-71558728D01*
X90735726Y-71593847D01*
X90865055Y-71628500D01*
X90865057Y-71628500D01*
X90998943Y-71628500D01*
X90998945Y-71628500D01*
X91128274Y-71593847D01*
X91206502Y-71548681D01*
X91275494Y-71531944D01*
X91342586Y-71555164D01*
X91386474Y-71610971D01*
X91395500Y-71657801D01*
X91395500Y-71852198D01*
X91375498Y-71920319D01*
X91321842Y-71966812D01*
X91251568Y-71976916D01*
X91206500Y-71961317D01*
X91128278Y-71916155D01*
X91128276Y-71916154D01*
X91128274Y-71916153D01*
X90998945Y-71881500D01*
X90865055Y-71881500D01*
X90735726Y-71916153D01*
X90735724Y-71916154D01*
X90735721Y-71916155D01*
X90619775Y-71983097D01*
X90619772Y-71983099D01*
X90525099Y-72077772D01*
X90525097Y-72077775D01*
X90458155Y-72193721D01*
X90458154Y-72193724D01*
X90458153Y-72193726D01*
X90423500Y-72323055D01*
X90423500Y-72456945D01*
X90458153Y-72586274D01*
X90458154Y-72586276D01*
X90458155Y-72586278D01*
X90525097Y-72702224D01*
X90525099Y-72702227D01*
X90619772Y-72796900D01*
X90619775Y-72796902D01*
X90694031Y-72839774D01*
X90735726Y-72863847D01*
X90865055Y-72898500D01*
X90865057Y-72898500D01*
X90998943Y-72898500D01*
X90998945Y-72898500D01*
X91128274Y-72863847D01*
X91206803Y-72818507D01*
X91275795Y-72801770D01*
X91342887Y-72824990D01*
X91386775Y-72880796D01*
X91394710Y-72931795D01*
X91395500Y-72931795D01*
X91395500Y-73203647D01*
X91405539Y-73272550D01*
X91405540Y-73272552D01*
X91457500Y-73378839D01*
X91457501Y-73378841D01*
X91541158Y-73462498D01*
X91541159Y-73462498D01*
X91541160Y-73462499D01*
X91622840Y-73502429D01*
X91675252Y-73550316D01*
X91693500Y-73615626D01*
X91693500Y-73652898D01*
X91673498Y-73721019D01*
X91668343Y-73728349D01*
X91601155Y-73844721D01*
X91601154Y-73844724D01*
X91601153Y-73844726D01*
X91566500Y-73974055D01*
X91566500Y-74107945D01*
X91601153Y-74237274D01*
X91601154Y-74237276D01*
X91601155Y-74237278D01*
X91668097Y-74353224D01*
X91668099Y-74353227D01*
X91762772Y-74447900D01*
X91762775Y-74447902D01*
X91854226Y-74500701D01*
X91878726Y-74514847D01*
X92008055Y-74549500D01*
X92008057Y-74549500D01*
X92141943Y-74549500D01*
X92141945Y-74549500D01*
X92271274Y-74514847D01*
X92387226Y-74447901D01*
X92481901Y-74353226D01*
X92548847Y-74237274D01*
X92583500Y-74107945D01*
X92583500Y-73974055D01*
X92548847Y-73844726D01*
X92540518Y-73830301D01*
X92477772Y-73721621D01*
X92479144Y-73720828D01*
X92456936Y-73663376D01*
X92456500Y-73652898D01*
X92456500Y-73650500D01*
X92476502Y-73582379D01*
X92530158Y-73535886D01*
X92582500Y-73524500D01*
X93058640Y-73524500D01*
X93058646Y-73524500D01*
X93127550Y-73514461D01*
X93233840Y-73462499D01*
X93317499Y-73378840D01*
X93369461Y-73272550D01*
X93379500Y-73203646D01*
X93379500Y-72936354D01*
X93369461Y-72867450D01*
X93336651Y-72800337D01*
X93324703Y-72730356D01*
X93336650Y-72689664D01*
X93369461Y-72622550D01*
X93379500Y-72553646D01*
X93379500Y-72286354D01*
X93369461Y-72217450D01*
X93347140Y-72171791D01*
X93335192Y-72101807D01*
X93362977Y-72036473D01*
X93371243Y-72027358D01*
X94928805Y-70469796D01*
X94991117Y-70435770D01*
X95061932Y-70440835D01*
X95118768Y-70483382D01*
X95143579Y-70549902D01*
X95143900Y-70558891D01*
X95143900Y-70688119D01*
X95143900Y-70781881D01*
X95145585Y-70788169D01*
X95168166Y-70872446D01*
X95168169Y-70872454D01*
X95215046Y-70953647D01*
X95215054Y-70953657D01*
X96083341Y-71821943D01*
X96900049Y-72638651D01*
X96966349Y-72704951D01*
X97047550Y-72751833D01*
X97059853Y-72755129D01*
X97077809Y-72768411D01*
X97090285Y-72784880D01*
X97106374Y-72797844D01*
X97111287Y-72812603D01*
X97120680Y-72825002D01*
X97122272Y-72845602D01*
X97128798Y-72865206D01*
X97127563Y-72887875D01*
X97120500Y-72936350D01*
X97120500Y-73203647D01*
X97130539Y-73272550D01*
X97130540Y-73272552D01*
X97182500Y-73378839D01*
X97182501Y-73378841D01*
X97266158Y-73462498D01*
X97266160Y-73462499D01*
X97372450Y-73514461D01*
X97441354Y-73524500D01*
X97441360Y-73524500D01*
X98783640Y-73524500D01*
X98783646Y-73524500D01*
X98852550Y-73514461D01*
X98852558Y-73514456D01*
X98860013Y-73512154D01*
X98931003Y-73511150D01*
X98986313Y-73543441D01*
X99001772Y-73558900D01*
X99001775Y-73558902D01*
X99042438Y-73582379D01*
X99117726Y-73625847D01*
X99247055Y-73660500D01*
X99247057Y-73660500D01*
X99380943Y-73660500D01*
X99380945Y-73660500D01*
X99510274Y-73625847D01*
X99626226Y-73558901D01*
X99720901Y-73464226D01*
X99787847Y-73348274D01*
X99822500Y-73218945D01*
X99822500Y-73085055D01*
X99787847Y-72955726D01*
X99748673Y-72887875D01*
X99720902Y-72839775D01*
X99720900Y-72839772D01*
X99626227Y-72745099D01*
X99626224Y-72745097D01*
X99510278Y-72678155D01*
X99510276Y-72678154D01*
X99510274Y-72678153D01*
X99380945Y-72643500D01*
X99247055Y-72643500D01*
X99247054Y-72643500D01*
X99246942Y-72643515D01*
X99246846Y-72643500D01*
X99238797Y-72643500D01*
X99238797Y-72642244D01*
X99176793Y-72632573D01*
X99123696Y-72585443D01*
X99104500Y-72518592D01*
X99104500Y-72388407D01*
X99124502Y-72320286D01*
X99178158Y-72273793D01*
X99238797Y-72264708D01*
X99238797Y-72263500D01*
X99246863Y-72263500D01*
X99246956Y-72263486D01*
X99247048Y-72263498D01*
X99247055Y-72263500D01*
X99247062Y-72263500D01*
X99380943Y-72263500D01*
X99380945Y-72263500D01*
X99510274Y-72228847D01*
X99626226Y-72161901D01*
X99720901Y-72067226D01*
X99787847Y-71951274D01*
X99822500Y-71821945D01*
X99822500Y-71688055D01*
X99787847Y-71558726D01*
X99761450Y-71513005D01*
X99720902Y-71442775D01*
X99720900Y-71442772D01*
X99626227Y-71348099D01*
X99626224Y-71348097D01*
X99510278Y-71281155D01*
X99510276Y-71281154D01*
X99510274Y-71281153D01*
X99380945Y-71246500D01*
X99247055Y-71246500D01*
X99247054Y-71246500D01*
X99246942Y-71246515D01*
X99246846Y-71246500D01*
X99238797Y-71246500D01*
X99238797Y-71245244D01*
X99176793Y-71235573D01*
X99123696Y-71188443D01*
X99104500Y-71121592D01*
X99104500Y-71118407D01*
X99124502Y-71050286D01*
X99178158Y-71003793D01*
X99238797Y-70994708D01*
X99238797Y-70993500D01*
X99246863Y-70993500D01*
X99246956Y-70993486D01*
X99247048Y-70993498D01*
X99247055Y-70993500D01*
X99247062Y-70993500D01*
X99380943Y-70993500D01*
X99380945Y-70993500D01*
X99510274Y-70958847D01*
X99626226Y-70891901D01*
X99720901Y-70797226D01*
X99787847Y-70681274D01*
X99822500Y-70551945D01*
X99822500Y-70418055D01*
X99787847Y-70288726D01*
X99720901Y-70172774D01*
X99720900Y-70172772D01*
X99626227Y-70078099D01*
X99626224Y-70078097D01*
X99510278Y-70011155D01*
X99510276Y-70011154D01*
X99510274Y-70011153D01*
X99380945Y-69976500D01*
X99247055Y-69976500D01*
X99247054Y-69976500D01*
X99246942Y-69976515D01*
X99246846Y-69976500D01*
X99238797Y-69976500D01*
X99238797Y-69975244D01*
X99176793Y-69965573D01*
X99123696Y-69918443D01*
X99104529Y-69854310D01*
X99104500Y-69852966D01*
X99104500Y-69686354D01*
X99100279Y-69657384D01*
X99100112Y-69649631D01*
X99107430Y-69622557D01*
X99111369Y-69594790D01*
X99117936Y-69583696D01*
X99118640Y-69581095D01*
X99120443Y-69579463D01*
X99125215Y-69571403D01*
X99176503Y-69502890D01*
X99224841Y-69373291D01*
X99225195Y-69370000D01*
X98823665Y-69370000D01*
X98805500Y-69368684D01*
X98783649Y-69365500D01*
X98783646Y-69365500D01*
X98238500Y-69365500D01*
X98170379Y-69345498D01*
X98123886Y-69291842D01*
X98112585Y-69244127D01*
X98109861Y-69170000D01*
X98038500Y-69170000D01*
X97970379Y-69149998D01*
X97923886Y-69096342D01*
X97912500Y-69044000D01*
X97912500Y-68970000D01*
X98312500Y-68970000D01*
X99225195Y-68970000D01*
X99224841Y-68966708D01*
X99176502Y-68837106D01*
X99093616Y-68726383D01*
X98982893Y-68643497D01*
X98853290Y-68595158D01*
X98853289Y-68595157D01*
X98796017Y-68589000D01*
X98312500Y-68589000D01*
X98312500Y-68970000D01*
X97912500Y-68970000D01*
X97912500Y-68589000D01*
X97428982Y-68589000D01*
X97371710Y-68595157D01*
X97371709Y-68595158D01*
X97242106Y-68643497D01*
X97131383Y-68726383D01*
X97082968Y-68791059D01*
X97026132Y-68833606D01*
X96955316Y-68838670D01*
X96893004Y-68804645D01*
X96858979Y-68742333D01*
X96856100Y-68715550D01*
X96856100Y-68009499D01*
X96876102Y-67941378D01*
X96929758Y-67894885D01*
X96982096Y-67883499D01*
X97274398Y-67883499D01*
X97299964Y-67880534D01*
X97404533Y-67834362D01*
X97485362Y-67753533D01*
X97531534Y-67648964D01*
X97534500Y-67623399D01*
X97534499Y-66634602D01*
X97531534Y-66609036D01*
X97485362Y-66504467D01*
X97485360Y-66504464D01*
X97404535Y-66423639D01*
X97404533Y-66423638D01*
X97371979Y-66409264D01*
X97317742Y-66363451D01*
X97296883Y-66295588D01*
X97316025Y-66227220D01*
X97369091Y-66180055D01*
X97371979Y-66178736D01*
X97380440Y-66175000D01*
X97404533Y-66164362D01*
X97485362Y-66083533D01*
X97531534Y-65978964D01*
X97534500Y-65953399D01*
X97534500Y-65788840D01*
X100369000Y-65788840D01*
X100369000Y-66421000D01*
X101169297Y-66421000D01*
X101134075Y-66482007D01*
X101100000Y-66609174D01*
X101100000Y-66740826D01*
X101134075Y-66867993D01*
X101169297Y-66929000D01*
X100369000Y-66929000D01*
X100369000Y-67561159D01*
X100379790Y-67635216D01*
X100379791Y-67635218D01*
X100435635Y-67749450D01*
X100435636Y-67749452D01*
X100525547Y-67839363D01*
X100525549Y-67839364D01*
X100639781Y-67895208D01*
X100639783Y-67895209D01*
X100713840Y-67905999D01*
X100713848Y-67906000D01*
X100932720Y-67906000D01*
X101000841Y-67926002D01*
X101047334Y-67979658D01*
X101057438Y-68049932D01*
X101027944Y-68114512D01*
X100989923Y-68144267D01*
X100954818Y-68162153D01*
X100954813Y-68162157D01*
X100926752Y-68182543D01*
X101475051Y-68730842D01*
X101407007Y-68749075D01*
X101292993Y-68814901D01*
X101199901Y-68907993D01*
X101134075Y-69022007D01*
X101115842Y-69090051D01*
X100567543Y-68541752D01*
X100547157Y-68569813D01*
X100547153Y-68569818D01*
X100459189Y-68742458D01*
X100459186Y-68742464D01*
X100399313Y-68926735D01*
X100369000Y-69118121D01*
X100369000Y-69311878D01*
X100399313Y-69503264D01*
X100459186Y-69687535D01*
X100459189Y-69687541D01*
X100547154Y-69860182D01*
X100547155Y-69860183D01*
X100567543Y-69888245D01*
X101115841Y-69339947D01*
X101134075Y-69407993D01*
X101199901Y-69522007D01*
X101292993Y-69615099D01*
X101407007Y-69680925D01*
X101475051Y-69699157D01*
X100926753Y-70247455D01*
X100954816Y-70267844D01*
X101127458Y-70355810D01*
X101127464Y-70355813D01*
X101311735Y-70415686D01*
X101503121Y-70446000D01*
X101696879Y-70446000D01*
X101888264Y-70415686D01*
X102072535Y-70355813D01*
X102072541Y-70355810D01*
X102245185Y-70267843D01*
X102245187Y-70267842D01*
X102273245Y-70247456D01*
X102273246Y-70247455D01*
X101724948Y-69699157D01*
X101792993Y-69680925D01*
X101907007Y-69615099D01*
X102000099Y-69522007D01*
X102065925Y-69407993D01*
X102084157Y-69339948D01*
X102632455Y-69888246D01*
X102632456Y-69888245D01*
X102652842Y-69860187D01*
X102652843Y-69860185D01*
X102740810Y-69687541D01*
X102740813Y-69687535D01*
X102800686Y-69503264D01*
X102831000Y-69311878D01*
X102831000Y-69118121D01*
X102800686Y-68926735D01*
X102740813Y-68742464D01*
X102740810Y-68742458D01*
X102652844Y-68569816D01*
X102632455Y-68541753D01*
X102084157Y-69090051D01*
X102065925Y-69022007D01*
X102000099Y-68907993D01*
X101907007Y-68814901D01*
X101792993Y-68749075D01*
X101724947Y-68730841D01*
X102273245Y-68182543D01*
X102245183Y-68162155D01*
X102245182Y-68162154D01*
X102210076Y-68144267D01*
X102158461Y-68095519D01*
X102141395Y-68026604D01*
X102164296Y-67959402D01*
X102219893Y-67915250D01*
X102267279Y-67906000D01*
X102486152Y-67906000D01*
X102486159Y-67905999D01*
X102560216Y-67895209D01*
X102560218Y-67895208D01*
X102674450Y-67839364D01*
X102674452Y-67839363D01*
X102764363Y-67749452D01*
X102764364Y-67749450D01*
X102820208Y-67635218D01*
X102820209Y-67635216D01*
X102830999Y-67561159D01*
X102831000Y-67561151D01*
X102831000Y-66929000D01*
X102030703Y-66929000D01*
X102065925Y-66867993D01*
X102100000Y-66740826D01*
X102100000Y-66609174D01*
X102065925Y-66482007D01*
X102030703Y-66421000D01*
X102831000Y-66421000D01*
X102831000Y-65788848D01*
X102830999Y-65788840D01*
X102820209Y-65714783D01*
X102820208Y-65714781D01*
X102764364Y-65600549D01*
X102764363Y-65600547D01*
X102674452Y-65510636D01*
X102674450Y-65510635D01*
X102560218Y-65454791D01*
X102560216Y-65454790D01*
X102486159Y-65444000D01*
X101854000Y-65444000D01*
X101854000Y-66244297D01*
X101792993Y-66209075D01*
X101665826Y-66175000D01*
X101534174Y-66175000D01*
X101407007Y-66209075D01*
X101346000Y-66244297D01*
X101346000Y-65444000D01*
X100713840Y-65444000D01*
X100639783Y-65454790D01*
X100639781Y-65454791D01*
X100525549Y-65510635D01*
X100525547Y-65510636D01*
X100435636Y-65600547D01*
X100435635Y-65600549D01*
X100379791Y-65714781D01*
X100379790Y-65714783D01*
X100369000Y-65788840D01*
X97534500Y-65788840D01*
X97534499Y-65136299D01*
X97554501Y-65068179D01*
X97608157Y-65021686D01*
X97660499Y-65010300D01*
X98001179Y-65010300D01*
X98001181Y-65010300D01*
X98091750Y-64986033D01*
X98172951Y-64939151D01*
X99800698Y-63311402D01*
X99863009Y-63277379D01*
X99889792Y-63274499D01*
X100579901Y-63274499D01*
X100579908Y-63274499D01*
X100639250Y-63268120D01*
X100773491Y-63218051D01*
X100888189Y-63132189D01*
X100974051Y-63017491D01*
X101024120Y-62883250D01*
X101030500Y-62823909D01*
X101030499Y-62241092D01*
X101024120Y-62181750D01*
X100974051Y-62047509D01*
X100974049Y-62047507D01*
X100974049Y-62047505D01*
X100888189Y-61932810D01*
X100773494Y-61846950D01*
X100741036Y-61834844D01*
X100639250Y-61796880D01*
X100609579Y-61793690D01*
X100579910Y-61790500D01*
X99572099Y-61790500D01*
X99572078Y-61790502D01*
X99512753Y-61796879D01*
X99378505Y-61846950D01*
X99263810Y-61932811D01*
X99224367Y-61985500D01*
X99167531Y-62028046D01*
X99096716Y-62033110D01*
X99034404Y-61999085D01*
X99022633Y-61985500D01*
X98983189Y-61932811D01*
X98868494Y-61846950D01*
X98836036Y-61834844D01*
X98734250Y-61796880D01*
X98704579Y-61793690D01*
X98674910Y-61790500D01*
X97667099Y-61790500D01*
X97667078Y-61790502D01*
X97607753Y-61796879D01*
X97473505Y-61846950D01*
X97358810Y-61932811D01*
X97319367Y-61985500D01*
X97262531Y-62028046D01*
X97191716Y-62033110D01*
X97129404Y-61999085D01*
X97117633Y-61985500D01*
X97078189Y-61932811D01*
X96963494Y-61846950D01*
X96931036Y-61834844D01*
X96829250Y-61796880D01*
X96799579Y-61793690D01*
X96769910Y-61790500D01*
X95762099Y-61790500D01*
X95762078Y-61790502D01*
X95702753Y-61796879D01*
X95568505Y-61846950D01*
X95453810Y-61932811D01*
X95414367Y-61985500D01*
X95357531Y-62028046D01*
X95286716Y-62033110D01*
X95224404Y-61999085D01*
X95212633Y-61985500D01*
X95173189Y-61932811D01*
X95058494Y-61846950D01*
X95026036Y-61834844D01*
X94924250Y-61796880D01*
X94894579Y-61793690D01*
X94864910Y-61790500D01*
X93857099Y-61790500D01*
X93857078Y-61790502D01*
X93797753Y-61796879D01*
X93663505Y-61846950D01*
X93548810Y-61932811D01*
X93509367Y-61985500D01*
X93452531Y-62028046D01*
X93381716Y-62033110D01*
X93319404Y-61999085D01*
X93307633Y-61985500D01*
X93268189Y-61932811D01*
X93153494Y-61846950D01*
X93121036Y-61834844D01*
X93019250Y-61796880D01*
X92989579Y-61793690D01*
X92959910Y-61790500D01*
X91952099Y-61790500D01*
X91952078Y-61790502D01*
X91892753Y-61796879D01*
X91758505Y-61846950D01*
X91643810Y-61932811D01*
X91604367Y-61985500D01*
X91547531Y-62028046D01*
X91476716Y-62033110D01*
X91414404Y-61999085D01*
X91402633Y-61985500D01*
X91363189Y-61932811D01*
X91248494Y-61846950D01*
X91216036Y-61834844D01*
X91114250Y-61796880D01*
X91084579Y-61793690D01*
X91054910Y-61790500D01*
X90047099Y-61790500D01*
X90047078Y-61790502D01*
X89987753Y-61796879D01*
X89853505Y-61846950D01*
X89738810Y-61932810D01*
X89652950Y-62047505D01*
X89602880Y-62181750D01*
X89596500Y-62241083D01*
X89596500Y-62823900D01*
X89596502Y-62823921D01*
X89602879Y-62883246D01*
X89652950Y-63017494D01*
X89738810Y-63132189D01*
X89853505Y-63218049D01*
X89853507Y-63218049D01*
X89853509Y-63218051D01*
X89987750Y-63268120D01*
X90047091Y-63274500D01*
X90737207Y-63274499D01*
X90805328Y-63294501D01*
X90826302Y-63311404D01*
X92387749Y-64872851D01*
X92454049Y-64939151D01*
X92535250Y-64986033D01*
X92625819Y-65010300D01*
X92719581Y-65010300D01*
X92839500Y-65010300D01*
X92907621Y-65030302D01*
X92954114Y-65083958D01*
X92965500Y-65136300D01*
X92965500Y-65953394D01*
X92965501Y-65953400D01*
X92968465Y-65978962D01*
X92968467Y-65978967D01*
X93014637Y-66083532D01*
X93014639Y-66083535D01*
X93095464Y-66164360D01*
X93095463Y-66164360D01*
X93095466Y-66164361D01*
X93095467Y-66164362D01*
X93128021Y-66178736D01*
X93182256Y-66224547D01*
X93203116Y-66292410D01*
X93183975Y-66360777D01*
X93130910Y-66407943D01*
X93128023Y-66409262D01*
X93095466Y-66423637D01*
X93014639Y-66504464D01*
X93014637Y-66504467D01*
X92968466Y-66609033D01*
X92968465Y-66609038D01*
X92965500Y-66634595D01*
X92965500Y-67623394D01*
X92965501Y-67623400D01*
X92968465Y-67648962D01*
X92968467Y-67648967D01*
X93014637Y-67753532D01*
X93014639Y-67753535D01*
X93095464Y-67834360D01*
X93095466Y-67834361D01*
X93095467Y-67834362D01*
X93106313Y-67839151D01*
X93160550Y-67884964D01*
X93181409Y-67952827D01*
X93162267Y-68021194D01*
X93144515Y-68043510D01*
X92509432Y-68678595D01*
X92447119Y-68712620D01*
X92420336Y-68715500D01*
X91716352Y-68715500D01*
X91647449Y-68725539D01*
X91647447Y-68725540D01*
X91541160Y-68777500D01*
X91541158Y-68777501D01*
X91457501Y-68861158D01*
X91457500Y-68861160D01*
X91405540Y-68967447D01*
X91405539Y-68967449D01*
X91395500Y-69036352D01*
X91395500Y-69308205D01*
X91394409Y-69308205D01*
X91380431Y-69372679D01*
X91330265Y-69422917D01*
X91260901Y-69438057D01*
X91206801Y-69421491D01*
X91128278Y-69376155D01*
X91128276Y-69376154D01*
X91128274Y-69376153D01*
X90998945Y-69341500D01*
X90865055Y-69341500D01*
X90735726Y-69376153D01*
X90735724Y-69376154D01*
X90735721Y-69376155D01*
X90619775Y-69443097D01*
X90619772Y-69443099D01*
X90525099Y-69537772D01*
X90525097Y-69537775D01*
X90458155Y-69653721D01*
X90458154Y-69653724D01*
X90458153Y-69653726D01*
X90423500Y-69783055D01*
X90423500Y-69916945D01*
X90458153Y-70046274D01*
X90458154Y-70046276D01*
X90458155Y-70046278D01*
X90525097Y-70162224D01*
X90525099Y-70162227D01*
X90619772Y-70256900D01*
X90619775Y-70256902D01*
X90674899Y-70288728D01*
X90735726Y-70323847D01*
X90865055Y-70358500D01*
X90865057Y-70358500D01*
X90998943Y-70358500D01*
X90998945Y-70358500D01*
X91128274Y-70323847D01*
X91206502Y-70278681D01*
X91275494Y-70261944D01*
X91342586Y-70285164D01*
X91386474Y-70340971D01*
X91395500Y-70387801D01*
X91395500Y-70582198D01*
X91375498Y-70650319D01*
X91321842Y-70696812D01*
X91251568Y-70706916D01*
X91206500Y-70691317D01*
X91128278Y-70646155D01*
X91128276Y-70646154D01*
X91128274Y-70646153D01*
X90998945Y-70611500D01*
X90865055Y-70611500D01*
X90735726Y-70646153D01*
X90735724Y-70646154D01*
X90735721Y-70646155D01*
X90619775Y-70713097D01*
X90619772Y-70713099D01*
X90605877Y-70726995D01*
X90543565Y-70761021D01*
X90516782Y-70763900D01*
X90351615Y-70763900D01*
X90351599Y-70763899D01*
X90343881Y-70763899D01*
X90250119Y-70763899D01*
X90178689Y-70783037D01*
X90178689Y-70783038D01*
X90173904Y-70784320D01*
X90159547Y-70788167D01*
X90159543Y-70788169D01*
X90109900Y-70816832D01*
X90109900Y-70816833D01*
X90078350Y-70835048D01*
X90078346Y-70835051D01*
X89863112Y-71050286D01*
X89316349Y-71597049D01*
X89284898Y-71628500D01*
X89250050Y-71663347D01*
X89250046Y-71663352D01*
X89203169Y-71744545D01*
X89203166Y-71744553D01*
X89178900Y-71835119D01*
X89178900Y-74341880D01*
X89203166Y-74432446D01*
X89203169Y-74432454D01*
X89250046Y-74513647D01*
X89250054Y-74513657D01*
X90385363Y-75648965D01*
X90419388Y-75711277D01*
X90416101Y-75776995D01*
X90362698Y-75941355D01*
X90362697Y-75941362D01*
X90335500Y-76113074D01*
X90335500Y-76286926D01*
X90362697Y-76458638D01*
X90416420Y-76623981D01*
X90416421Y-76623982D01*
X90495349Y-76778887D01*
X90597536Y-76919535D01*
X90720460Y-77042459D01*
X90720463Y-77042461D01*
X90720467Y-77042465D01*
X90784743Y-77089165D01*
X90828096Y-77145387D01*
X90834171Y-77216123D01*
X90801039Y-77278915D01*
X90739219Y-77313826D01*
X90710681Y-77317100D01*
X89629319Y-77317100D01*
X89561198Y-77297098D01*
X89514705Y-77243442D01*
X89504601Y-77173168D01*
X89534095Y-77108588D01*
X89555254Y-77089166D01*
X89619533Y-77042465D01*
X89742465Y-76919533D01*
X89844653Y-76778884D01*
X89923580Y-76623981D01*
X89977303Y-76458638D01*
X90004500Y-76286926D01*
X90004500Y-76113074D01*
X89977303Y-75941362D01*
X89923580Y-75776019D01*
X89844653Y-75621116D01*
X89742465Y-75480467D01*
X89742463Y-75480464D01*
X89619535Y-75357536D01*
X89478887Y-75255349D01*
X89478886Y-75255348D01*
X89478884Y-75255347D01*
X89323981Y-75176420D01*
X89323978Y-75176419D01*
X89323976Y-75176418D01*
X89158642Y-75122698D01*
X89158640Y-75122697D01*
X89158638Y-75122697D01*
X88986926Y-75095500D01*
X88813074Y-75095500D01*
X88641362Y-75122697D01*
X88641360Y-75122697D01*
X88641357Y-75122698D01*
X88476023Y-75176418D01*
X88476017Y-75176421D01*
X88321112Y-75255349D01*
X88180464Y-75357536D01*
X88057536Y-75480464D01*
X87955349Y-75621112D01*
X87876421Y-75776017D01*
X87876418Y-75776023D01*
X87822698Y-75941357D01*
X87822697Y-75941360D01*
X87822697Y-75941362D01*
X87795500Y-76113074D01*
X87795500Y-76286926D01*
X87822697Y-76458638D01*
X87876420Y-76623981D01*
X87876421Y-76623982D01*
X87955349Y-76778887D01*
X88057536Y-76919535D01*
X88180460Y-77042459D01*
X88180463Y-77042461D01*
X88180467Y-77042465D01*
X88244743Y-77089165D01*
X88288096Y-77145387D01*
X88294171Y-77216123D01*
X88261039Y-77278915D01*
X88199219Y-77313826D01*
X88170681Y-77317100D01*
X87615471Y-77317100D01*
X87580314Y-77312096D01*
X87553972Y-77304442D01*
X87524990Y-77291900D01*
X87502783Y-77278767D01*
X87477827Y-77259408D01*
X87459588Y-77241169D01*
X87440231Y-77216215D01*
X87427099Y-77194011D01*
X87414555Y-77165022D01*
X87406902Y-77138679D01*
X87401900Y-77103531D01*
X87401900Y-67878055D01*
X90804500Y-67878055D01*
X90804500Y-68011945D01*
X90839153Y-68141274D01*
X90839154Y-68141276D01*
X90839155Y-68141278D01*
X90906097Y-68257224D01*
X90906099Y-68257227D01*
X91000772Y-68351900D01*
X91000775Y-68351902D01*
X91007042Y-68355520D01*
X91116726Y-68418847D01*
X91246055Y-68453500D01*
X91246057Y-68453500D01*
X91379943Y-68453500D01*
X91379945Y-68453500D01*
X91509274Y-68418847D01*
X91625226Y-68351901D01*
X91719901Y-68257226D01*
X91786847Y-68141274D01*
X91821500Y-68011945D01*
X91821500Y-67878055D01*
X91786847Y-67748726D01*
X91772701Y-67724226D01*
X91719902Y-67632775D01*
X91719900Y-67632772D01*
X91625227Y-67538099D01*
X91625224Y-67538097D01*
X91509278Y-67471155D01*
X91509276Y-67471154D01*
X91509274Y-67471153D01*
X91379945Y-67436500D01*
X91246055Y-67436500D01*
X91116726Y-67471153D01*
X91116724Y-67471154D01*
X91116721Y-67471155D01*
X91000775Y-67538097D01*
X91000772Y-67538099D01*
X90906099Y-67632772D01*
X90906097Y-67632775D01*
X90839155Y-67748721D01*
X90839154Y-67748724D01*
X90839153Y-67748726D01*
X90804500Y-67878055D01*
X87401900Y-67878055D01*
X87401900Y-59421467D01*
X87406902Y-59386319D01*
X87406904Y-59386312D01*
X87414556Y-59359972D01*
X87427096Y-59330993D01*
X87440233Y-59308780D01*
X87459584Y-59283833D01*
X87477831Y-59265586D01*
X87502782Y-59246232D01*
X87524994Y-59233096D01*
X87553974Y-59220555D01*
X87580320Y-59212901D01*
X87615468Y-59207900D01*
X90023937Y-59207900D01*
X90092058Y-59227902D01*
G37*
%TD.AperFunction*%
%TD*%
M02*
