%TF.GenerationSoftware,KiCad,Pcbnew,(6.0.7)*%
%TF.CreationDate,2022-11-20T23:08:14-05:00*%
%TF.ProjectId,LM386_Breakout,4c4d3338-365f-4427-9265-616b6f75742e,rev?*%
%TF.SameCoordinates,Original*%
%TF.FileFunction,Legend,Top*%
%TF.FilePolarity,Positive*%
%FSLAX46Y46*%
G04 Gerber Fmt 4.6, Leading zero omitted, Abs format (unit mm)*
G04 Created by KiCad (PCBNEW (6.0.7)) date 2022-11-20 23:08:14*
%MOMM*%
%LPD*%
G01*
G04 APERTURE LIST*
%ADD10C,0.150000*%
%ADD11C,0.120000*%
G04 APERTURE END LIST*
D10*
X169727619Y-131262380D02*
X169727619Y-130262380D01*
X170203809Y-130595714D02*
X170203809Y-131262380D01*
X170203809Y-130690952D02*
X170251428Y-130643333D01*
X170346666Y-130595714D01*
X170489523Y-130595714D01*
X170584761Y-130643333D01*
X170632380Y-130738571D01*
X170632380Y-131262380D01*
X170441904Y-127770000D02*
X170346666Y-127722380D01*
X170203809Y-127722380D01*
X170060952Y-127770000D01*
X169965714Y-127865238D01*
X169918095Y-127960476D01*
X169870476Y-128150952D01*
X169870476Y-128293809D01*
X169918095Y-128484285D01*
X169965714Y-128579523D01*
X170060952Y-128674761D01*
X170203809Y-128722380D01*
X170299047Y-128722380D01*
X170441904Y-128674761D01*
X170489523Y-128627142D01*
X170489523Y-128293809D01*
X170299047Y-128293809D01*
X170441904Y-125230000D02*
X170346666Y-125182380D01*
X170203809Y-125182380D01*
X170060952Y-125230000D01*
X169965714Y-125325238D01*
X169918095Y-125420476D01*
X169870476Y-125610952D01*
X169870476Y-125753809D01*
X169918095Y-125944285D01*
X169965714Y-126039523D01*
X170060952Y-126134761D01*
X170203809Y-126182380D01*
X170299047Y-126182380D01*
X170441904Y-126134761D01*
X170489523Y-126087142D01*
X170489523Y-125753809D01*
X170299047Y-125753809D01*
X169346666Y-122642380D02*
X169537142Y-122642380D01*
X169632380Y-122690000D01*
X169727619Y-122785238D01*
X169775238Y-122975714D01*
X169775238Y-123309047D01*
X169727619Y-123499523D01*
X169632380Y-123594761D01*
X169537142Y-123642380D01*
X169346666Y-123642380D01*
X169251428Y-123594761D01*
X169156190Y-123499523D01*
X169108571Y-123309047D01*
X169108571Y-122975714D01*
X169156190Y-122785238D01*
X169251428Y-122690000D01*
X169346666Y-122642380D01*
X170632380Y-122975714D02*
X170632380Y-123642380D01*
X170203809Y-122975714D02*
X170203809Y-123499523D01*
X170251428Y-123594761D01*
X170346666Y-123642380D01*
X170489523Y-123642380D01*
X170584761Y-123594761D01*
X170632380Y-123547142D01*
X170965714Y-122975714D02*
X171346666Y-122975714D01*
X171108571Y-122642380D02*
X171108571Y-123499523D01*
X171156190Y-123594761D01*
X171251428Y-123642380D01*
X171346666Y-123642380D01*
X155171904Y-113165000D02*
X155076666Y-113117380D01*
X154933809Y-113117380D01*
X154790952Y-113165000D01*
X154695714Y-113260238D01*
X154648095Y-113355476D01*
X154600476Y-113545952D01*
X154600476Y-113688809D01*
X154648095Y-113879285D01*
X154695714Y-113974523D01*
X154790952Y-114069761D01*
X154933809Y-114117380D01*
X155029047Y-114117380D01*
X155171904Y-114069761D01*
X155219523Y-114022142D01*
X155219523Y-113688809D01*
X155029047Y-113688809D01*
X156527619Y-113117380D02*
X156860952Y-114117380D01*
X157194285Y-113117380D01*
X157527619Y-113736428D02*
X158289523Y-113736428D01*
X157908571Y-114117380D02*
X157908571Y-113355476D01*
%TO.C,RV1*%
X155534761Y-131897380D02*
X155201428Y-131421190D01*
X154963333Y-131897380D02*
X154963333Y-130897380D01*
X155344285Y-130897380D01*
X155439523Y-130945000D01*
X155487142Y-130992619D01*
X155534761Y-131087857D01*
X155534761Y-131230714D01*
X155487142Y-131325952D01*
X155439523Y-131373571D01*
X155344285Y-131421190D01*
X154963333Y-131421190D01*
X155820476Y-130897380D02*
X156153809Y-131897380D01*
X156487142Y-130897380D01*
X157344285Y-131897380D02*
X156772857Y-131897380D01*
X157058571Y-131897380D02*
X157058571Y-130897380D01*
X156963333Y-131040238D01*
X156868095Y-131135476D01*
X156772857Y-131183095D01*
%TO.C,R2*%
X149693333Y-126182380D02*
X149360000Y-125706190D01*
X149121904Y-126182380D02*
X149121904Y-125182380D01*
X149502857Y-125182380D01*
X149598095Y-125230000D01*
X149645714Y-125277619D01*
X149693333Y-125372857D01*
X149693333Y-125515714D01*
X149645714Y-125610952D01*
X149598095Y-125658571D01*
X149502857Y-125706190D01*
X149121904Y-125706190D01*
X150074285Y-125277619D02*
X150121904Y-125230000D01*
X150217142Y-125182380D01*
X150455238Y-125182380D01*
X150550476Y-125230000D01*
X150598095Y-125277619D01*
X150645714Y-125372857D01*
X150645714Y-125468095D01*
X150598095Y-125610952D01*
X150026666Y-126182380D01*
X150645714Y-126182380D01*
%TO.C,R1*%
X166203333Y-128722380D02*
X165870000Y-128246190D01*
X165631904Y-128722380D02*
X165631904Y-127722380D01*
X166012857Y-127722380D01*
X166108095Y-127770000D01*
X166155714Y-127817619D01*
X166203333Y-127912857D01*
X166203333Y-128055714D01*
X166155714Y-128150952D01*
X166108095Y-128198571D01*
X166012857Y-128246190D01*
X165631904Y-128246190D01*
X167155714Y-128722380D02*
X166584285Y-128722380D01*
X166870000Y-128722380D02*
X166870000Y-127722380D01*
X166774761Y-127865238D01*
X166679523Y-127960476D01*
X166584285Y-128008095D01*
%TO.C,C4*%
X169801333Y-121007142D02*
X169753714Y-121054761D01*
X169610857Y-121102380D01*
X169515619Y-121102380D01*
X169372761Y-121054761D01*
X169277523Y-120959523D01*
X169229904Y-120864285D01*
X169182285Y-120673809D01*
X169182285Y-120530952D01*
X169229904Y-120340476D01*
X169277523Y-120245238D01*
X169372761Y-120150000D01*
X169515619Y-120102380D01*
X169610857Y-120102380D01*
X169753714Y-120150000D01*
X169801333Y-120197619D01*
X170658476Y-120435714D02*
X170658476Y-121102380D01*
X170420380Y-120054761D02*
X170182285Y-120769047D01*
X170801333Y-120769047D01*
%TO.C,C3*%
X166727142Y-122046666D02*
X166774761Y-122094285D01*
X166822380Y-122237142D01*
X166822380Y-122332380D01*
X166774761Y-122475238D01*
X166679523Y-122570476D01*
X166584285Y-122618095D01*
X166393809Y-122665714D01*
X166250952Y-122665714D01*
X166060476Y-122618095D01*
X165965238Y-122570476D01*
X165870000Y-122475238D01*
X165822380Y-122332380D01*
X165822380Y-122237142D01*
X165870000Y-122094285D01*
X165917619Y-122046666D01*
X165822380Y-121713333D02*
X165822380Y-121094285D01*
X166203333Y-121427619D01*
X166203333Y-121284761D01*
X166250952Y-121189523D01*
X166298571Y-121141904D01*
X166393809Y-121094285D01*
X166631904Y-121094285D01*
X166727142Y-121141904D01*
X166774761Y-121189523D01*
X166822380Y-121284761D01*
X166822380Y-121570476D01*
X166774761Y-121665714D01*
X166727142Y-121713333D01*
%TO.C,C5*%
X149693333Y-136247142D02*
X149645714Y-136294761D01*
X149502857Y-136342380D01*
X149407619Y-136342380D01*
X149264761Y-136294761D01*
X149169523Y-136199523D01*
X149121904Y-136104285D01*
X149074285Y-135913809D01*
X149074285Y-135770952D01*
X149121904Y-135580476D01*
X149169523Y-135485238D01*
X149264761Y-135390000D01*
X149407619Y-135342380D01*
X149502857Y-135342380D01*
X149645714Y-135390000D01*
X149693333Y-135437619D01*
X150598095Y-135342380D02*
X150121904Y-135342380D01*
X150074285Y-135818571D01*
X150121904Y-135770952D01*
X150217142Y-135723333D01*
X150455238Y-135723333D01*
X150550476Y-135770952D01*
X150598095Y-135818571D01*
X150645714Y-135913809D01*
X150645714Y-136151904D01*
X150598095Y-136247142D01*
X150550476Y-136294761D01*
X150455238Y-136342380D01*
X150217142Y-136342380D01*
X150121904Y-136294761D01*
X150074285Y-136247142D01*
%TO.C,U1*%
X150792380Y-123951904D02*
X151601904Y-123951904D01*
X151697142Y-123904285D01*
X151744761Y-123856666D01*
X151792380Y-123761428D01*
X151792380Y-123570952D01*
X151744761Y-123475714D01*
X151697142Y-123428095D01*
X151601904Y-123380476D01*
X150792380Y-123380476D01*
X151792380Y-122380476D02*
X151792380Y-122951904D01*
X151792380Y-122666190D02*
X150792380Y-122666190D01*
X150935238Y-122761428D01*
X151030476Y-122856666D01*
X151078095Y-122951904D01*
%TO.C,C1*%
X167473333Y-114544142D02*
X167425714Y-114591761D01*
X167282857Y-114639380D01*
X167187619Y-114639380D01*
X167044761Y-114591761D01*
X166949523Y-114496523D01*
X166901904Y-114401285D01*
X166854285Y-114210809D01*
X166854285Y-114067952D01*
X166901904Y-113877476D01*
X166949523Y-113782238D01*
X167044761Y-113687000D01*
X167187619Y-113639380D01*
X167282857Y-113639380D01*
X167425714Y-113687000D01*
X167473333Y-113734619D01*
X168425714Y-114639380D02*
X167854285Y-114639380D01*
X168140000Y-114639380D02*
X168140000Y-113639380D01*
X168044761Y-113782238D01*
X167949523Y-113877476D01*
X167854285Y-113925095D01*
%TO.C,C6*%
X148423333Y-115927142D02*
X148375714Y-115974761D01*
X148232857Y-116022380D01*
X148137619Y-116022380D01*
X147994761Y-115974761D01*
X147899523Y-115879523D01*
X147851904Y-115784285D01*
X147804285Y-115593809D01*
X147804285Y-115450952D01*
X147851904Y-115260476D01*
X147899523Y-115165238D01*
X147994761Y-115070000D01*
X148137619Y-115022380D01*
X148232857Y-115022380D01*
X148375714Y-115070000D01*
X148423333Y-115117619D01*
X149280476Y-115022380D02*
X149090000Y-115022380D01*
X148994761Y-115070000D01*
X148947142Y-115117619D01*
X148851904Y-115260476D01*
X148804285Y-115450952D01*
X148804285Y-115831904D01*
X148851904Y-115927142D01*
X148899523Y-115974761D01*
X148994761Y-116022380D01*
X149185238Y-116022380D01*
X149280476Y-115974761D01*
X149328095Y-115927142D01*
X149375714Y-115831904D01*
X149375714Y-115593809D01*
X149328095Y-115498571D01*
X149280476Y-115450952D01*
X149185238Y-115403333D01*
X148994761Y-115403333D01*
X148899523Y-115450952D01*
X148851904Y-115498571D01*
X148804285Y-115593809D01*
D11*
%TO.C,RV1*%
X157670000Y-136875000D02*
X157670000Y-141875000D01*
X169410000Y-136875000D02*
X153170000Y-136875000D01*
X153170000Y-129135000D02*
X153170000Y-136875000D01*
X159170000Y-141875000D02*
X159170000Y-151875000D01*
X164910000Y-136875000D02*
X164910000Y-141875000D01*
X164910000Y-141875000D02*
X157670000Y-141875000D01*
X163410000Y-151875000D02*
X159170000Y-151875000D01*
X163410000Y-141875000D02*
X159170000Y-141875000D01*
X163410000Y-141875000D02*
X163410000Y-151875000D01*
X164910000Y-136875000D02*
X157670000Y-136875000D01*
X169410000Y-129135000D02*
X169410000Y-136875000D01*
X169410000Y-129135000D02*
X153170000Y-129135000D01*
%TO.C,J1*%
X174050000Y-129540000D02*
X171390000Y-129540000D01*
X174050000Y-129540000D02*
X174050000Y-126940000D01*
X174050000Y-132140000D02*
X172720000Y-132140000D01*
X171390000Y-129540000D02*
X171390000Y-126940000D01*
X174050000Y-130810000D02*
X174050000Y-132140000D01*
X174050000Y-126940000D02*
X171390000Y-126940000D01*
%TO.C,R2*%
X149510000Y-127000000D02*
G75*
G03*
X149510000Y-127000000I-920000J0D01*
G01*
X148590000Y-126080000D02*
X148590000Y-125460000D01*
%TO.C,R1*%
X166720000Y-127000000D02*
X166100000Y-127000000D01*
X168560000Y-127000000D02*
G75*
G03*
X168560000Y-127000000I-920000J0D01*
G01*
%TO.C,C4*%
X176273000Y-118261000D02*
X173760000Y-118261000D01*
X176106000Y-118621000D02*
X173760000Y-118621000D01*
X171680000Y-117941000D02*
X169055000Y-117941000D01*
X176449000Y-117701000D02*
X173760000Y-117701000D01*
X176547000Y-116980000D02*
X168893000Y-116980000D01*
X171680000Y-118581000D02*
X169313000Y-118581000D01*
X176346000Y-118061000D02*
X173760000Y-118061000D01*
X175309000Y-119661000D02*
X170131000Y-119661000D01*
X174895000Y-112677789D02*
X174895000Y-113427789D01*
X175864000Y-119021000D02*
X173760000Y-119021000D01*
X171680000Y-118061000D02*
X169094000Y-118061000D01*
X176515000Y-117340000D02*
X173760000Y-117340000D01*
X176490000Y-117500000D02*
X173760000Y-117500000D01*
X176397000Y-117901000D02*
X173760000Y-117901000D01*
X175266000Y-119701000D02*
X170174000Y-119701000D01*
X176385000Y-117941000D02*
X173760000Y-117941000D01*
X175583000Y-119381000D02*
X169857000Y-119381000D01*
X171680000Y-119021000D02*
X169576000Y-119021000D01*
X174101000Y-120421000D02*
X171339000Y-120421000D01*
X174601000Y-120181000D02*
X170839000Y-120181000D01*
X176318000Y-118141000D02*
X173760000Y-118141000D01*
X175510000Y-119461000D02*
X169930000Y-119461000D01*
X176534000Y-117180000D02*
X173760000Y-117180000D01*
X176550000Y-116820000D02*
X168890000Y-116820000D01*
X175778000Y-119141000D02*
X169662000Y-119141000D01*
X176440000Y-117741000D02*
X173760000Y-117741000D01*
X176041000Y-118741000D02*
X173760000Y-118741000D01*
X176504000Y-117420000D02*
X173760000Y-117420000D01*
X176483000Y-117541000D02*
X173760000Y-117541000D01*
X171680000Y-117821000D02*
X169021000Y-117821000D01*
X171680000Y-117541000D02*
X168957000Y-117541000D01*
X171680000Y-117781000D02*
X169010000Y-117781000D01*
X171680000Y-118461000D02*
X169254000Y-118461000D01*
X171680000Y-118821000D02*
X169446000Y-118821000D01*
X176127000Y-118581000D02*
X173760000Y-118581000D01*
X176063000Y-118701000D02*
X173760000Y-118701000D01*
X171680000Y-118221000D02*
X169152000Y-118221000D01*
X174915000Y-119981000D02*
X170525000Y-119981000D01*
X171680000Y-117901000D02*
X169043000Y-117901000D01*
X171680000Y-118701000D02*
X169377000Y-118701000D01*
X176458000Y-117661000D02*
X173760000Y-117661000D01*
X173413000Y-120621000D02*
X172027000Y-120621000D01*
X171680000Y-118661000D02*
X169355000Y-118661000D01*
X176288000Y-118221000D02*
X173760000Y-118221000D01*
X171680000Y-118901000D02*
X169496000Y-118901000D01*
X171680000Y-117140000D02*
X168903000Y-117140000D01*
X175944000Y-118901000D02*
X173760000Y-118901000D01*
X171680000Y-117060000D02*
X168897000Y-117060000D01*
X173995000Y-120461000D02*
X171445000Y-120461000D01*
X176467000Y-117621000D02*
X173760000Y-117621000D01*
X175836000Y-119061000D02*
X173760000Y-119061000D01*
X176540000Y-117100000D02*
X173760000Y-117100000D01*
X174198000Y-120381000D02*
X171242000Y-120381000D01*
X171680000Y-118301000D02*
X169184000Y-118301000D01*
X176537000Y-117140000D02*
X173760000Y-117140000D01*
X171680000Y-117100000D02*
X168900000Y-117100000D01*
X171680000Y-118421000D02*
X169236000Y-118421000D01*
X175618000Y-119341000D02*
X169822000Y-119341000D01*
X176204000Y-118421000D02*
X173760000Y-118421000D01*
X175472000Y-119501000D02*
X169968000Y-119501000D01*
X171680000Y-118101000D02*
X169107000Y-118101000D01*
X171680000Y-118781000D02*
X169423000Y-118781000D01*
X176550000Y-116900000D02*
X168890000Y-116900000D01*
X171680000Y-117340000D02*
X168925000Y-117340000D01*
X176373000Y-117981000D02*
X173760000Y-117981000D01*
X176525000Y-117260000D02*
X173760000Y-117260000D01*
X171680000Y-117380000D02*
X168930000Y-117380000D01*
X174529000Y-120221000D02*
X170911000Y-120221000D01*
X175547000Y-119421000D02*
X169893000Y-119421000D01*
X176549000Y-116940000D02*
X168891000Y-116940000D01*
X176085000Y-118661000D02*
X173760000Y-118661000D01*
X176186000Y-118461000D02*
X173760000Y-118461000D01*
X174734000Y-120101000D02*
X170706000Y-120101000D01*
X173878000Y-120501000D02*
X171562000Y-120501000D01*
X175270000Y-113052789D02*
X174520000Y-113052789D01*
X175918000Y-118941000D02*
X173760000Y-118941000D01*
X171680000Y-117661000D02*
X168982000Y-117661000D01*
X176521000Y-117300000D02*
X173760000Y-117300000D01*
X175716000Y-119221000D02*
X169724000Y-119221000D01*
X176408000Y-117861000D02*
X173760000Y-117861000D01*
X171680000Y-118341000D02*
X169200000Y-118341000D01*
X176510000Y-117380000D02*
X173760000Y-117380000D01*
X171680000Y-118501000D02*
X169273000Y-118501000D01*
X175808000Y-119101000D02*
X173760000Y-119101000D01*
X175352000Y-119621000D02*
X170088000Y-119621000D01*
X174857000Y-120021000D02*
X170583000Y-120021000D01*
X175174000Y-119781000D02*
X170266000Y-119781000D01*
X176419000Y-117821000D02*
X173760000Y-117821000D01*
X173597000Y-120581000D02*
X171843000Y-120581000D01*
X175125000Y-119821000D02*
X170315000Y-119821000D01*
X176017000Y-118781000D02*
X173760000Y-118781000D01*
X171680000Y-117500000D02*
X168950000Y-117500000D01*
X176497000Y-117460000D02*
X173760000Y-117460000D01*
X176530000Y-117220000D02*
X173760000Y-117220000D01*
X175651000Y-119301000D02*
X169789000Y-119301000D01*
X175075000Y-119861000D02*
X170365000Y-119861000D01*
X171680000Y-118941000D02*
X169522000Y-118941000D01*
X171680000Y-117861000D02*
X169032000Y-117861000D01*
X171680000Y-118181000D02*
X169136000Y-118181000D01*
X176240000Y-118341000D02*
X173760000Y-118341000D01*
X171680000Y-119061000D02*
X169604000Y-119061000D01*
X171680000Y-119101000D02*
X169632000Y-119101000D01*
X175748000Y-119181000D02*
X169692000Y-119181000D01*
X171680000Y-117581000D02*
X168965000Y-117581000D01*
X176543000Y-117060000D02*
X173760000Y-117060000D01*
X171680000Y-117460000D02*
X168943000Y-117460000D01*
X176550000Y-116860000D02*
X168890000Y-116860000D01*
X171680000Y-118741000D02*
X169399000Y-118741000D01*
X171680000Y-117220000D02*
X168910000Y-117220000D01*
X171680000Y-118261000D02*
X169167000Y-118261000D01*
X176475000Y-117581000D02*
X173760000Y-117581000D01*
X175892000Y-118981000D02*
X173760000Y-118981000D01*
X174970000Y-119941000D02*
X170470000Y-119941000D01*
X171680000Y-117621000D02*
X168973000Y-117621000D01*
X171680000Y-118621000D02*
X169334000Y-118621000D01*
X174453000Y-120261000D02*
X170987000Y-120261000D01*
X174289000Y-120341000D02*
X171151000Y-120341000D01*
X175433000Y-119541000D02*
X170007000Y-119541000D01*
X173748000Y-120541000D02*
X171692000Y-120541000D01*
X175220000Y-119741000D02*
X170220000Y-119741000D01*
X176430000Y-117781000D02*
X173760000Y-117781000D01*
X171680000Y-117420000D02*
X168936000Y-117420000D01*
X176147000Y-118541000D02*
X173760000Y-118541000D01*
X171680000Y-117741000D02*
X169000000Y-117741000D01*
X171680000Y-118981000D02*
X169548000Y-118981000D01*
X176333000Y-118101000D02*
X173760000Y-118101000D01*
X173161000Y-120661000D02*
X172279000Y-120661000D01*
X171680000Y-118541000D02*
X169293000Y-118541000D01*
X175024000Y-119901000D02*
X170416000Y-119901000D01*
X176360000Y-118021000D02*
X173760000Y-118021000D01*
X171680000Y-118021000D02*
X169080000Y-118021000D01*
X176545000Y-117020000D02*
X168895000Y-117020000D01*
X176167000Y-118501000D02*
X173760000Y-118501000D01*
X175969000Y-118861000D02*
X173760000Y-118861000D01*
X175684000Y-119261000D02*
X169756000Y-119261000D01*
X171680000Y-118381000D02*
X169218000Y-118381000D01*
X171680000Y-117300000D02*
X168919000Y-117300000D01*
X171680000Y-117981000D02*
X169067000Y-117981000D01*
X176304000Y-118181000D02*
X173760000Y-118181000D01*
X174669000Y-120141000D02*
X170771000Y-120141000D01*
X174374000Y-120301000D02*
X171066000Y-120301000D01*
X171680000Y-118861000D02*
X169471000Y-118861000D01*
X171680000Y-117180000D02*
X168906000Y-117180000D01*
X171680000Y-117701000D02*
X168991000Y-117701000D01*
X174797000Y-120061000D02*
X170643000Y-120061000D01*
X175994000Y-118821000D02*
X173760000Y-118821000D01*
X176222000Y-118381000D02*
X173760000Y-118381000D01*
X176256000Y-118301000D02*
X173760000Y-118301000D01*
X175393000Y-119581000D02*
X170047000Y-119581000D01*
X171680000Y-118141000D02*
X169122000Y-118141000D01*
X171680000Y-117260000D02*
X168915000Y-117260000D01*
X176590000Y-116820000D02*
G75*
G03*
X176590000Y-116820000I-3870000J0D01*
G01*
%TO.C,C3*%
X167740000Y-124500000D02*
X167425000Y-124500000D01*
X165315000Y-119260000D02*
X165000000Y-119260000D01*
X167740000Y-119260000D02*
X167425000Y-119260000D01*
X167740000Y-119260000D02*
X167740000Y-124500000D01*
X165000000Y-119260000D02*
X165000000Y-124500000D01*
X165315000Y-124500000D02*
X165000000Y-124500000D01*
%TO.C,C5*%
X148820000Y-133981000D02*
X148075000Y-133981000D01*
X152225000Y-133141000D02*
X150900000Y-133141000D01*
X150958000Y-134461000D02*
X148762000Y-134461000D01*
X150144000Y-134701000D02*
X149576000Y-134701000D01*
X148820000Y-132981000D02*
X147432000Y-132981000D01*
X152396000Y-132580000D02*
X150900000Y-132580000D01*
X150871000Y-134501000D02*
X148849000Y-134501000D01*
X148820000Y-132540000D02*
X147317000Y-132540000D01*
X148820000Y-132580000D02*
X147324000Y-132580000D01*
X152084000Y-133421000D02*
X150900000Y-133421000D01*
X152361000Y-132740000D02*
X150900000Y-132740000D01*
X151513000Y-134101000D02*
X150900000Y-134101000D01*
X152107000Y-133381000D02*
X150900000Y-133381000D01*
X152274000Y-133021000D02*
X150900000Y-133021000D01*
X148820000Y-133701000D02*
X147825000Y-133701000D01*
X150537000Y-134621000D02*
X149183000Y-134621000D01*
X152315000Y-132901000D02*
X150900000Y-132901000D01*
X148820000Y-134341000D02*
X148541000Y-134341000D01*
X148820000Y-134221000D02*
X148360000Y-134221000D01*
X148820000Y-132901000D02*
X147405000Y-132901000D01*
X151559000Y-134061000D02*
X150900000Y-134061000D01*
X148820000Y-132460000D02*
X147304000Y-132460000D01*
X151831000Y-133781000D02*
X150900000Y-133781000D01*
X152128000Y-133341000D02*
X150900000Y-133341000D01*
X151761000Y-133861000D02*
X150900000Y-133861000D01*
X151895000Y-133701000D02*
X150900000Y-133701000D01*
X152258000Y-133061000D02*
X150900000Y-133061000D01*
X148820000Y-133141000D02*
X147495000Y-133141000D01*
X151465000Y-134141000D02*
X150900000Y-134141000D01*
X148820000Y-133381000D02*
X147613000Y-133381000D01*
X152388000Y-132620000D02*
X150900000Y-132620000D01*
X148820000Y-133581000D02*
X147738000Y-133581000D01*
X148820000Y-133341000D02*
X147592000Y-133341000D01*
X151585000Y-129545225D02*
X151085000Y-129545225D01*
X148820000Y-133421000D02*
X147636000Y-133421000D01*
X152403000Y-132540000D02*
X150900000Y-132540000D01*
X152288000Y-132981000D02*
X150900000Y-132981000D01*
X152242000Y-133101000D02*
X150900000Y-133101000D01*
X148820000Y-133821000D02*
X147923000Y-133821000D01*
X151038000Y-134421000D02*
X148682000Y-134421000D01*
X148820000Y-132941000D02*
X147418000Y-132941000D01*
X148820000Y-133301000D02*
X147570000Y-133301000D01*
X148820000Y-133901000D02*
X147996000Y-133901000D01*
X152438000Y-132220000D02*
X147282000Y-132220000D01*
X152371000Y-132700000D02*
X150900000Y-132700000D01*
X148820000Y-132500000D02*
X147310000Y-132500000D01*
X148820000Y-133621000D02*
X147765000Y-133621000D01*
X152170000Y-133261000D02*
X150900000Y-133261000D01*
X148820000Y-132861000D02*
X147392000Y-132861000D01*
X152340000Y-132821000D02*
X150900000Y-132821000D01*
X148820000Y-132821000D02*
X147380000Y-132821000D01*
X151414000Y-134181000D02*
X150900000Y-134181000D01*
X148820000Y-134061000D02*
X148161000Y-134061000D01*
X148820000Y-133221000D02*
X147531000Y-133221000D01*
X148820000Y-134101000D02*
X148207000Y-134101000D01*
X148820000Y-133861000D02*
X147959000Y-133861000D01*
X148820000Y-133781000D02*
X147889000Y-133781000D01*
X151179000Y-134341000D02*
X150900000Y-134341000D01*
X148820000Y-132740000D02*
X147359000Y-132740000D01*
X151111000Y-134381000D02*
X150900000Y-134381000D01*
X151360000Y-134221000D02*
X150900000Y-134221000D01*
X148820000Y-133501000D02*
X147685000Y-133501000D01*
X148820000Y-133461000D02*
X147660000Y-133461000D01*
X152060000Y-133461000D02*
X150900000Y-133461000D01*
X152351000Y-132780000D02*
X150900000Y-132780000D01*
X151982000Y-133581000D02*
X150900000Y-133581000D01*
X148820000Y-132700000D02*
X147349000Y-132700000D01*
X151303000Y-134261000D02*
X150900000Y-134261000D01*
X150775000Y-134541000D02*
X148945000Y-134541000D01*
X148820000Y-134261000D02*
X148417000Y-134261000D01*
X148820000Y-132420000D02*
X147299000Y-132420000D01*
X152009000Y-133541000D02*
X150900000Y-133541000D01*
X152150000Y-133301000D02*
X150900000Y-133301000D01*
X151686000Y-133941000D02*
X150900000Y-133941000D01*
X151797000Y-133821000D02*
X150900000Y-133821000D01*
X152429000Y-132340000D02*
X150900000Y-132340000D01*
X151335000Y-129295225D02*
X151335000Y-129795225D01*
X152439000Y-132180000D02*
X147281000Y-132180000D01*
X148820000Y-133061000D02*
X147462000Y-133061000D01*
X148820000Y-134021000D02*
X148117000Y-134021000D01*
X148820000Y-133021000D02*
X147446000Y-133021000D01*
X150665000Y-134581000D02*
X149055000Y-134581000D01*
X152416000Y-132460000D02*
X150900000Y-132460000D01*
X148820000Y-134181000D02*
X148306000Y-134181000D01*
X152302000Y-132941000D02*
X150900000Y-132941000D01*
X148820000Y-134381000D02*
X148609000Y-134381000D01*
X148820000Y-133741000D02*
X147856000Y-133741000D01*
X148820000Y-132780000D02*
X147369000Y-132780000D01*
X148820000Y-132620000D02*
X147332000Y-132620000D01*
X151864000Y-133741000D02*
X150900000Y-133741000D01*
X148820000Y-132660000D02*
X147340000Y-132660000D01*
X152380000Y-132660000D02*
X150900000Y-132660000D01*
X148820000Y-133941000D02*
X148034000Y-133941000D01*
X151925000Y-133661000D02*
X150900000Y-133661000D01*
X151724000Y-133901000D02*
X150900000Y-133901000D01*
X152440000Y-132100000D02*
X147280000Y-132100000D01*
X148820000Y-133261000D02*
X147550000Y-133261000D01*
X148820000Y-134141000D02*
X148255000Y-134141000D01*
X152436000Y-132260000D02*
X147284000Y-132260000D01*
X148820000Y-133541000D02*
X147711000Y-133541000D01*
X148820000Y-133661000D02*
X147795000Y-133661000D01*
X150378000Y-134661000D02*
X149342000Y-134661000D01*
X148820000Y-132380000D02*
X147295000Y-132380000D01*
X151243000Y-134301000D02*
X150900000Y-134301000D01*
X152425000Y-132380000D02*
X150900000Y-132380000D01*
X151645000Y-133981000D02*
X150900000Y-133981000D01*
X152410000Y-132500000D02*
X150900000Y-132500000D01*
X152328000Y-132861000D02*
X150900000Y-132861000D01*
X152189000Y-133221000D02*
X150900000Y-133221000D01*
X148820000Y-134301000D02*
X148477000Y-134301000D01*
X152440000Y-132140000D02*
X147280000Y-132140000D01*
X148820000Y-133101000D02*
X147478000Y-133101000D01*
X148820000Y-133181000D02*
X147512000Y-133181000D01*
X151603000Y-134021000D02*
X150900000Y-134021000D01*
X152433000Y-132300000D02*
X147287000Y-132300000D01*
X152208000Y-133181000D02*
X150900000Y-133181000D01*
X151955000Y-133621000D02*
X150900000Y-133621000D01*
X148820000Y-132340000D02*
X147291000Y-132340000D01*
X152421000Y-132420000D02*
X150900000Y-132420000D01*
X152035000Y-133501000D02*
X150900000Y-133501000D01*
X152480000Y-132100000D02*
G75*
G03*
X152480000Y-132100000I-2620000J0D01*
G01*
%TO.C,J2*%
X171390000Y-123190000D02*
X171390000Y-121860000D01*
X171390000Y-124460000D02*
X171390000Y-127060000D01*
X174050000Y-124460000D02*
X174050000Y-127060000D01*
X171390000Y-127060000D02*
X174050000Y-127060000D01*
X171390000Y-121860000D02*
X172720000Y-121860000D01*
X171390000Y-124460000D02*
X174050000Y-124460000D01*
%TO.C,J3*%
X158810000Y-114240000D02*
X158810000Y-115570000D01*
X156210000Y-114240000D02*
X153610000Y-114240000D01*
X156210000Y-116900000D02*
X153610000Y-116900000D01*
X156210000Y-114240000D02*
X156210000Y-116900000D01*
X157480000Y-114240000D02*
X158810000Y-114240000D01*
X153610000Y-114240000D02*
X153610000Y-116900000D01*
%TO.C,U1*%
X152340000Y-125440000D02*
X162620000Y-125440000D01*
X162620000Y-125440000D02*
X162620000Y-120940000D01*
X162620000Y-120940000D02*
X152340000Y-120940000D01*
X152340000Y-124190000D02*
X152340000Y-125440000D01*
X152340000Y-120940000D02*
X152340000Y-122190000D01*
X152340000Y-124190000D02*
G75*
G03*
X152340000Y-122190000I0J1000000D01*
G01*
%TO.C,C1*%
X164731000Y-116610000D02*
X164731000Y-117984000D01*
X165451000Y-113566000D02*
X165451000Y-114530000D01*
X164851000Y-113205000D02*
X164851000Y-114530000D01*
X166051000Y-116610000D02*
X166051000Y-116889000D01*
X164931000Y-113241000D02*
X164931000Y-114530000D01*
X165891000Y-114016000D02*
X165891000Y-114530000D01*
X165771000Y-113871000D02*
X165771000Y-114530000D01*
X163930000Y-112992000D02*
X163930000Y-118148000D01*
X164651000Y-116610000D02*
X164651000Y-118012000D01*
X164891000Y-116610000D02*
X164891000Y-117918000D01*
X164851000Y-116610000D02*
X164851000Y-117935000D01*
X166011000Y-116610000D02*
X166011000Y-116953000D01*
X166131000Y-114392000D02*
X166131000Y-116748000D01*
X165371000Y-113505000D02*
X165371000Y-114530000D01*
X164050000Y-116610000D02*
X164050000Y-118139000D01*
X164090000Y-113005000D02*
X164090000Y-114530000D01*
X164651000Y-113128000D02*
X164651000Y-114530000D01*
X165491000Y-113599000D02*
X165491000Y-114530000D01*
X166091000Y-116610000D02*
X166091000Y-116821000D01*
X164410000Y-116610000D02*
X164410000Y-118081000D01*
X164170000Y-113014000D02*
X164170000Y-114530000D01*
X164250000Y-113027000D02*
X164250000Y-114530000D01*
X164611000Y-113115000D02*
X164611000Y-114530000D01*
X164330000Y-116610000D02*
X164330000Y-118098000D01*
X165691000Y-113785000D02*
X165691000Y-114530000D01*
X164490000Y-116610000D02*
X164490000Y-118061000D01*
X165851000Y-113965000D02*
X165851000Y-114530000D01*
X165491000Y-116610000D02*
X165491000Y-117541000D01*
X165451000Y-116610000D02*
X165451000Y-117574000D01*
X165171000Y-116610000D02*
X165171000Y-117770000D01*
X165291000Y-116610000D02*
X165291000Y-117692000D01*
X164130000Y-113009000D02*
X164130000Y-114530000D01*
X165891000Y-116610000D02*
X165891000Y-117124000D01*
X165331000Y-116610000D02*
X165331000Y-117665000D01*
X166091000Y-114319000D02*
X166091000Y-114530000D01*
X164290000Y-116610000D02*
X164290000Y-118106000D01*
X165811000Y-116610000D02*
X165811000Y-117223000D01*
X165931000Y-114070000D02*
X165931000Y-114530000D01*
X165931000Y-116610000D02*
X165931000Y-117070000D01*
X165691000Y-116610000D02*
X165691000Y-117355000D01*
X164170000Y-116610000D02*
X164170000Y-118126000D01*
X163970000Y-112994000D02*
X163970000Y-118146000D01*
X163810000Y-112990000D02*
X163810000Y-118150000D01*
X165651000Y-113744000D02*
X165651000Y-114530000D01*
X165051000Y-113302000D02*
X165051000Y-114530000D01*
X164370000Y-116610000D02*
X164370000Y-118090000D01*
X165211000Y-116610000D02*
X165211000Y-117745000D01*
X166331000Y-114893000D02*
X166331000Y-116247000D01*
X164130000Y-116610000D02*
X164130000Y-118131000D01*
X165611000Y-113706000D02*
X165611000Y-114530000D01*
X164531000Y-116610000D02*
X164531000Y-118050000D01*
X164330000Y-113042000D02*
X164330000Y-114530000D01*
X165371000Y-116610000D02*
X165371000Y-117635000D01*
X165731000Y-116610000D02*
X165731000Y-117313000D01*
X166211000Y-114559000D02*
X166211000Y-116581000D01*
X165651000Y-116610000D02*
X165651000Y-117396000D01*
X165571000Y-113669000D02*
X165571000Y-114530000D01*
X165971000Y-116610000D02*
X165971000Y-117013000D01*
X166051000Y-114251000D02*
X166051000Y-114530000D01*
X165731000Y-113827000D02*
X165731000Y-114530000D01*
X164490000Y-113079000D02*
X164490000Y-114530000D01*
X165291000Y-113448000D02*
X165291000Y-114530000D01*
X165091000Y-113323000D02*
X165091000Y-114530000D01*
X165531000Y-113633000D02*
X165531000Y-114530000D01*
X163850000Y-112990000D02*
X163850000Y-118150000D01*
X165011000Y-113280000D02*
X165011000Y-114530000D01*
X166011000Y-114187000D02*
X166011000Y-114530000D01*
X165051000Y-116610000D02*
X165051000Y-117838000D01*
X164571000Y-116610000D02*
X164571000Y-118038000D01*
X165971000Y-114127000D02*
X165971000Y-114530000D01*
X165771000Y-116610000D02*
X165771000Y-117269000D01*
X165531000Y-116610000D02*
X165531000Y-117507000D01*
X164531000Y-113090000D02*
X164531000Y-114530000D01*
X165091000Y-116610000D02*
X165091000Y-117817000D01*
X164891000Y-113222000D02*
X164891000Y-114530000D01*
X164571000Y-113102000D02*
X164571000Y-114530000D01*
X166371000Y-115052000D02*
X166371000Y-116088000D01*
X164931000Y-116610000D02*
X164931000Y-117899000D01*
X165411000Y-116610000D02*
X165411000Y-117605000D01*
X164250000Y-116610000D02*
X164250000Y-118113000D01*
X164731000Y-113156000D02*
X164731000Y-114530000D01*
X163890000Y-112991000D02*
X163890000Y-118149000D01*
X164811000Y-116610000D02*
X164811000Y-117952000D01*
X161255225Y-113845000D02*
X161255225Y-114345000D01*
X164370000Y-113050000D02*
X164370000Y-114530000D01*
X165251000Y-113421000D02*
X165251000Y-114530000D01*
X165851000Y-116610000D02*
X165851000Y-117175000D01*
X164290000Y-113034000D02*
X164290000Y-114530000D01*
X165131000Y-116610000D02*
X165131000Y-117794000D01*
X165571000Y-116610000D02*
X165571000Y-117471000D01*
X164450000Y-113069000D02*
X164450000Y-114530000D01*
X164971000Y-113260000D02*
X164971000Y-114530000D01*
X164210000Y-116610000D02*
X164210000Y-118120000D01*
X166411000Y-115286000D02*
X166411000Y-115854000D01*
X165211000Y-113395000D02*
X165211000Y-114530000D01*
X166251000Y-114655000D02*
X166251000Y-116485000D01*
X165011000Y-116610000D02*
X165011000Y-117860000D01*
X165411000Y-113535000D02*
X165411000Y-114530000D01*
X166291000Y-114765000D02*
X166291000Y-116375000D01*
X164010000Y-112997000D02*
X164010000Y-118143000D01*
X164210000Y-113020000D02*
X164210000Y-114530000D01*
X164050000Y-113001000D02*
X164050000Y-114530000D01*
X164771000Y-116610000D02*
X164771000Y-117968000D01*
X164410000Y-113059000D02*
X164410000Y-114530000D01*
X165171000Y-113370000D02*
X165171000Y-114530000D01*
X165331000Y-113475000D02*
X165331000Y-114530000D01*
X166171000Y-114472000D02*
X166171000Y-116668000D01*
X164811000Y-113188000D02*
X164811000Y-114530000D01*
X165131000Y-113346000D02*
X165131000Y-114530000D01*
X164090000Y-116610000D02*
X164090000Y-118135000D01*
X165611000Y-116610000D02*
X165611000Y-117434000D01*
X165251000Y-116610000D02*
X165251000Y-117719000D01*
X165811000Y-113917000D02*
X165811000Y-114530000D01*
X161005225Y-114095000D02*
X161505225Y-114095000D01*
X164971000Y-116610000D02*
X164971000Y-117880000D01*
X164450000Y-116610000D02*
X164450000Y-118071000D01*
X164691000Y-116610000D02*
X164691000Y-117998000D01*
X164691000Y-113142000D02*
X164691000Y-114530000D01*
X164771000Y-113172000D02*
X164771000Y-114530000D01*
X164611000Y-116610000D02*
X164611000Y-118025000D01*
X166430000Y-115570000D02*
G75*
G03*
X166430000Y-115570000I-2620000J0D01*
G01*
%TO.C,C6*%
X149630000Y-117359000D02*
X150195000Y-117359000D01*
X149630000Y-117919000D02*
X150712000Y-117919000D01*
X146099000Y-118720000D02*
X147550000Y-118720000D01*
X149630000Y-117439000D02*
X150289000Y-117439000D01*
X146034000Y-119040000D02*
X147550000Y-119040000D01*
X149630000Y-119040000D02*
X151146000Y-119040000D01*
X146985000Y-117359000D02*
X147550000Y-117359000D01*
X146441000Y-117959000D02*
X147550000Y-117959000D01*
X146390000Y-118039000D02*
X147550000Y-118039000D01*
X146011000Y-119320000D02*
X151169000Y-119320000D01*
X146280000Y-118239000D02*
X147550000Y-118239000D01*
X149630000Y-118319000D02*
X150938000Y-118319000D01*
X147579000Y-116999000D02*
X149601000Y-116999000D01*
X147675000Y-116959000D02*
X149505000Y-116959000D01*
X149630000Y-118880000D02*
X151118000Y-118880000D01*
X149630000Y-119160000D02*
X151159000Y-119160000D01*
X146495000Y-117879000D02*
X147550000Y-117879000D01*
X146322000Y-118159000D02*
X147550000Y-118159000D01*
X148072000Y-116839000D02*
X149108000Y-116839000D01*
X149630000Y-117479000D02*
X150333000Y-117479000D01*
X149630000Y-118920000D02*
X151126000Y-118920000D01*
X149630000Y-119080000D02*
X151151000Y-119080000D01*
X149630000Y-117999000D02*
X150765000Y-117999000D01*
X147147000Y-117239000D02*
X147550000Y-117239000D01*
X146208000Y-118399000D02*
X147550000Y-118399000D01*
X149630000Y-118599000D02*
X151045000Y-118599000D01*
X146865000Y-121954775D02*
X147365000Y-121954775D01*
X147785000Y-116919000D02*
X149395000Y-116919000D01*
X146525000Y-117839000D02*
X147550000Y-117839000D01*
X149630000Y-117199000D02*
X149973000Y-117199000D01*
X149630000Y-118760000D02*
X151091000Y-118760000D01*
X149630000Y-118439000D02*
X150988000Y-118439000D01*
X149630000Y-117119000D02*
X149841000Y-117119000D01*
X146300000Y-118199000D02*
X147550000Y-118199000D01*
X146343000Y-118119000D02*
X147550000Y-118119000D01*
X149630000Y-118679000D02*
X151070000Y-118679000D01*
X146555000Y-117799000D02*
X147550000Y-117799000D01*
X146025000Y-119120000D02*
X147550000Y-119120000D01*
X149630000Y-117239000D02*
X150033000Y-117239000D01*
X146176000Y-118479000D02*
X147550000Y-118479000D01*
X147913000Y-116879000D02*
X149267000Y-116879000D01*
X146010000Y-119400000D02*
X151170000Y-119400000D01*
X146225000Y-118359000D02*
X147550000Y-118359000D01*
X146689000Y-117639000D02*
X147550000Y-117639000D01*
X149630000Y-118720000D02*
X151081000Y-118720000D01*
X147036000Y-117319000D02*
X147550000Y-117319000D01*
X149630000Y-117399000D02*
X150243000Y-117399000D01*
X146089000Y-118760000D02*
X147550000Y-118760000D01*
X149630000Y-117759000D02*
X150594000Y-117759000D01*
X149630000Y-118399000D02*
X150972000Y-118399000D01*
X148306000Y-116799000D02*
X148874000Y-116799000D01*
X149630000Y-118159000D02*
X150858000Y-118159000D01*
X147207000Y-117199000D02*
X147550000Y-117199000D01*
X149630000Y-117279000D02*
X150090000Y-117279000D01*
X146012000Y-119280000D02*
X151168000Y-119280000D01*
X146079000Y-118800000D02*
X147550000Y-118800000D01*
X147339000Y-117119000D02*
X147550000Y-117119000D01*
X149630000Y-118960000D02*
X151133000Y-118960000D01*
X146135000Y-118599000D02*
X147550000Y-118599000D01*
X149630000Y-118079000D02*
X150814000Y-118079000D01*
X149630000Y-119120000D02*
X151155000Y-119120000D01*
X146047000Y-118960000D02*
X147550000Y-118960000D01*
X149630000Y-117519000D02*
X150375000Y-117519000D01*
X146029000Y-119080000D02*
X147550000Y-119080000D01*
X149630000Y-118519000D02*
X151018000Y-118519000D01*
X146847000Y-117479000D02*
X147550000Y-117479000D01*
X146586000Y-117759000D02*
X147550000Y-117759000D01*
X149630000Y-117599000D02*
X150454000Y-117599000D01*
X149630000Y-118199000D02*
X150880000Y-118199000D01*
X146653000Y-117679000D02*
X147550000Y-117679000D01*
X146148000Y-118559000D02*
X147550000Y-118559000D01*
X146017000Y-119200000D02*
X151163000Y-119200000D01*
X149630000Y-117639000D02*
X150491000Y-117639000D01*
X149630000Y-117319000D02*
X150144000Y-117319000D01*
X146366000Y-118079000D02*
X147550000Y-118079000D01*
X146242000Y-118319000D02*
X147550000Y-118319000D01*
X146619000Y-117719000D02*
X147550000Y-117719000D01*
X146261000Y-118279000D02*
X147550000Y-118279000D01*
X146122000Y-118639000D02*
X147550000Y-118639000D01*
X149630000Y-117839000D02*
X150655000Y-117839000D01*
X146062000Y-118880000D02*
X147550000Y-118880000D01*
X149630000Y-118119000D02*
X150837000Y-118119000D01*
X146764000Y-117559000D02*
X147550000Y-117559000D01*
X149630000Y-117159000D02*
X149909000Y-117159000D01*
X149630000Y-117879000D02*
X150685000Y-117879000D01*
X149630000Y-118279000D02*
X150919000Y-118279000D01*
X146054000Y-118920000D02*
X147550000Y-118920000D01*
X146468000Y-117919000D02*
X147550000Y-117919000D01*
X146192000Y-118439000D02*
X147550000Y-118439000D01*
X149630000Y-118840000D02*
X151110000Y-118840000D01*
X146070000Y-118840000D02*
X147550000Y-118840000D01*
X149630000Y-118039000D02*
X150790000Y-118039000D01*
X147271000Y-117159000D02*
X147550000Y-117159000D01*
X149630000Y-117719000D02*
X150561000Y-117719000D01*
X149630000Y-117559000D02*
X150416000Y-117559000D01*
X147090000Y-117279000D02*
X147550000Y-117279000D01*
X146726000Y-117599000D02*
X147550000Y-117599000D01*
X146162000Y-118519000D02*
X147550000Y-118519000D01*
X146040000Y-119000000D02*
X147550000Y-119000000D01*
X146937000Y-117399000D02*
X147550000Y-117399000D01*
X149630000Y-117799000D02*
X150625000Y-117799000D01*
X146010000Y-119360000D02*
X151170000Y-119360000D01*
X146415000Y-117999000D02*
X147550000Y-117999000D01*
X149630000Y-119000000D02*
X151140000Y-119000000D01*
X149630000Y-118639000D02*
X151058000Y-118639000D01*
X146805000Y-117519000D02*
X147550000Y-117519000D01*
X147412000Y-117079000D02*
X149768000Y-117079000D01*
X149630000Y-118359000D02*
X150955000Y-118359000D01*
X147115000Y-122204775D02*
X147115000Y-121704775D01*
X149630000Y-118479000D02*
X151004000Y-118479000D01*
X146021000Y-119160000D02*
X147550000Y-119160000D01*
X149630000Y-117679000D02*
X150527000Y-117679000D01*
X149630000Y-118800000D02*
X151101000Y-118800000D01*
X149630000Y-118239000D02*
X150900000Y-118239000D01*
X146891000Y-117439000D02*
X147550000Y-117439000D01*
X146110000Y-118679000D02*
X147550000Y-118679000D01*
X146014000Y-119240000D02*
X151166000Y-119240000D01*
X149630000Y-117959000D02*
X150739000Y-117959000D01*
X149630000Y-118559000D02*
X151032000Y-118559000D01*
X147492000Y-117039000D02*
X149688000Y-117039000D01*
X151210000Y-119400000D02*
G75*
G03*
X151210000Y-119400000I-2620000J0D01*
G01*
%TD*%
M02*
